<?xml version="1.0" encoding="UTF-8" standalone="no"?>
<svg
   xmlns:dc="http://purl.org/dc/elements/1.1/"
   xmlns:cc="http://creativecommons.org/ns#"
   xmlns:rdf="http://www.w3.org/1999/02/22-rdf-syntax-ns#"
   xmlns:svg="http://www.w3.org/2000/svg"
   xmlns="http://www.w3.org/2000/svg"
   xmlns:sodipodi="http://sodipodi.sourceforge.net/DTD/sodipodi-0.dtd"
   xmlns:inkscape="http://www.inkscape.org/namespaces/inkscape"
   version="1.1"
   id="Layer_1"
   x="0px"
   y="0px"
   width="65.302078"
   height="47.402363"
   viewBox="0 0 65.302078 47.402361"
   enable-background="new 0 0 100 52.629"
   xml:space="preserve"
   inkscape:version="0.48.3.1 r9886"
   sodipodi:docname="arithmetic.svg"><metadata
   id="metadata9"><rdf:RDF><cc:Work
       rdf:about=""><dc:format>image/svg+xml</dc:format><dc:type
         rdf:resource="http://purl.org/dc/dcmitype/StillImage" /></cc:Work></rdf:RDF></metadata><defs
   id="defs7" /><sodipodi:namedview
   pagecolor="#009674"
   bordercolor="#666666"
   borderopacity="1"
   objecttolerance="10"
   gridtolerance="10"
   guidetolerance="10"
   inkscape:pageopacity="1"
   inkscape:pageshadow="2"
   inkscape:window-width="1317"
   inkscape:window-height="744"
   id="namedview5"
   showgrid="false"
   inkscape:zoom="3.21"
   inkscape:cx="95.326583"
   inkscape:cy="32.969261"
   inkscape:window-x="49"
   inkscape:window-y="24"
   inkscape:window-maximized="1"
   inkscape:current-layer="Layer_1"
   fit-margin-top="0"
   fit-margin-left="0"
   fit-margin-right="0"
   fit-margin-bottom="0" />

<path
   style="font-size:40px;font-style:normal;font-weight:bold;line-height:125%;letter-spacing:0px;word-spacing:0px;fill:#ffffff;fill-opacity:1;stroke:none;font-family:Sans;-inkscape-font-specification:Sans Bold"
   inkscape:connector-curvature="0"
   id="path2987"
   d="M 9.038533,42.626194 15.143407,40.013071 7.726748,22.686001 2.013642,26.661092 0,21.956748 l 5.677195,-3.959719 6.571718,-2.812951 9.4303,22.031414 6.104874,-2.613123 2.044385,4.776165 -18.745555,8.023826 -2.044384,-4.776166" /><path
   style="font-size:40px;font-style:normal;font-weight:bold;line-height:125%;letter-spacing:0px;word-spacing:0px;fill:#ffffff;fill-opacity:1;stroke:none;font-family:Sans;-inkscape-font-specification:Sans Bold"
   inkscape:connector-curvature="0"
   id="path2989"
   d="m 29.963191,12.041941 3.426949,8.006165 7.975607,-3.41387 1.543436,3.60583 -7.975607,3.41387 3.426949,8.006164 -3.636388,1.556515 -3.426949,-8.006164 -7.975606,3.413869 -1.543436,-3.60583 7.975607,-3.413869 -3.426949,-8.006165 3.636387,-1.556515" /><path
   style="font-size:40px;font-style:normal;font-weight:bold;line-height:125%;letter-spacing:0px;word-spacing:0px;fill:#ffffff;fill-opacity:1;stroke:none;font-family:Sans;-inkscape-font-specification:Sans Bold"
   inkscape:connector-curvature="0"
   id="path2991"
   d="M 44.512136,27.442114 50.61701,24.828991 43.200351,7.5019212 37.487245,11.477012 35.473603,6.7726682 41.150798,2.8129492 47.722516,-8.0871583e-7 57.152817,22.031412 63.257691,19.418289 65.302075,24.194455 46.55652,32.21828 44.512136,27.442114" /></svg>