<?xml version="1.0" encoding="UTF-8" standalone="no"?>
<!-- Generator: Adobe Illustrator 14.0.0, SVG Export Plug-In . SVG Version: 6.00 Build 43363)  -->

<svg
   xmlns:dc="http://purl.org/dc/elements/1.1/"
   xmlns:cc="http://creativecommons.org/ns#"
   xmlns:rdf="http://www.w3.org/1999/02/22-rdf-syntax-ns#"
   xmlns:svg="http://www.w3.org/2000/svg"
   xmlns="http://www.w3.org/2000/svg"
   xmlns:sodipodi="http://sodipodi.sourceforge.net/DTD/sodipodi-0.dtd"
   xmlns:inkscape="http://www.inkscape.org/namespaces/inkscape"
   version="1.0"
   id="Layer_1"
   x="0px"
   y="0px"
   width="75.3125"
   height="59.812263"
   viewBox="0 0 75.3125 59.812261"
   enable-background="new 0 0 100 71.313"
   xml:space="preserve"
   inkscape:version="0.48.3.1 r9886"
   sodipodi:docname="ask_owner.svg"><metadata
   id="metadata2916"><rdf:RDF><cc:Work
       rdf:about=""><dc:format>image/svg+xml</dc:format><dc:type
         rdf:resource="http://purl.org/dc/dcmitype/StillImage" /></cc:Work></rdf:RDF></metadata><defs
   id="defs2914"><inkscape:perspective
     sodipodi:type="inkscape:persp3d"
     inkscape:vp_x="0 : 35.656502 : 1"
     inkscape:vp_y="0 : 1000 : 0"
     inkscape:vp_z="100 : 35.656502 : 1"
     inkscape:persp3d-origin="50 : 23.771001 : 1"
     id="perspective2918" /></defs><sodipodi:namedview
   pagecolor="#009674"
   bordercolor="#666666"
   borderopacity="1"
   objecttolerance="10"
   gridtolerance="10"
   guidetolerance="10"
   inkscape:pageopacity="1"
   inkscape:pageshadow="2"
   inkscape:window-width="1098"
   inkscape:window-height="642"
   id="namedview2912"
   showgrid="false"
   inkscape:zoom="3.3093544"
   inkscape:cx="31"
   inkscape:cy="38.03076"
   inkscape:window-x="49"
   inkscape:window-y="24"
   inkscape:window-maximized="0"
   inkscape:current-layer="Layer_1"
   fit-margin-top="0"
   fit-margin-left="0"
   fit-margin-right="0"
   fit-margin-bottom="0" />





<path
   style="font-size:medium;font-style:normal;font-variant:normal;font-weight:normal;font-stretch:normal;text-indent:0;text-align:start;text-decoration:none;line-height:normal;letter-spacing:normal;word-spacing:normal;text-transform:none;direction:ltr;block-progression:tb;writing-mode:lr-tb;text-anchor:start;baseline-shift:baseline;color:#000000;fill:#ffffff;fill-opacity:1;stroke:none;stroke-width:4.9000001;marker:none;visibility:visible;display:inline;overflow:visible;enable-background:accumulate;font-family:Sans;-inkscape-font-specification:Sans"
   d="M 37.65625,-1.7700195e-6 C 27.49189,-1.7700195e-6 18.255502,2.7267332 11.40625,7.3124982 4.556998,11.898263 0,18.502631 0,25.999998 c 0,5.355626 2.34397,10.332519 6.15625,14.34375 1.26023,1.325997 2.503244,1.654466 3.25,2.03125 -2.488121,7.244356 -3.613426,11.18787 -3.3125,14.0625 0.07943,0.758796 0.25103,1.62278 1,2.40625 0.74897,0.78347 2.023479,1.06967 2.84375,0.9375 1.640542,-0.264339 2.423979,-1.075557 3.40625,-1.9375 1.964543,-1.723886 4.066865,-4.223199 5.84375,-6.25 0.841134,-0.959439 1.587644,-1.775469 2.125,-2.3125 5.307041,2.383685 9.129306,2.75 16.34375,2.75 10.16436,0 19.400748,-2.726735 26.25,-7.3125 C 70.755502,40.132983 75.3125,33.497365 75.3125,25.999998 75.3125,18.502631 70.755502,11.898263 63.90625,7.3124982 57.056998,2.7267332 47.82061,-1.7700195e-6 37.65625,-1.7700195e-6 z m 0,4.9062499700195 c 9.277852,0 17.639435,2.524016 23.53125,6.4687498 5.891815,3.944734 9.21875,9.105263 9.21875,14.625 0,5.519737 -3.326935,10.711515 -9.21875,14.65625 -5.891815,3.944735 -14.253398,6.46875 -23.53125,6.46875 -7.755881,0 -9.956806,-0.06862 -15.53125,-2.8125 -0.853362,-0.420046 -1.600433,-0.265966 -2.03125,-0.125 -0.430817,0.140966 -0.678347,0.314422 -0.90625,0.46875 -0.455807,0.308655 -0.811063,0.631217 -1.1875,1 -0.752873,0.737565 -1.563715,1.686423 -2.46875,2.71875 -1.349977,1.539849 -2.737185,2.987826 -4.03125,4.3125 0.477398,-2.191888 1.291513,-5.246308 2.84375,-9.71875 0.404103,-1.164337 -0.01312,-2.700605 -0.65625,-3.46875 -0.643127,-0.768145 -1.295568,-1.127909 -1.875,-1.4375 -1.158864,-0.619182 -2.196522,-1.201886 -2.09375,-1.09375 -3.129362,-3.292673 -4.8125,-7.025812 -4.8125,-10.96875 0,-5.519737 3.326935,-10.680266 9.21875,-14.625 5.891815,-3.9447338 14.253397,-6.4687498 23.53125,-6.4687498 z"
   id="path2987"
   inkscape:connector-curvature="0" /><text
   xml:space="preserve"
   style="font-size:40px;font-style:normal;font-weight:bold;line-height:125%;letter-spacing:0px;word-spacing:0px;fill:#ffffff;fill-opacity:1;stroke:none;font-family:Sans;-inkscape-font-specification:Sans Bold"
   x="26.628235"
   y="39.609749"
   id="text3762"
   sodipodi:linespacing="125%"><tspan
     sodipodi:role="line"
     id="tspan3764"
     x="26.628235"
     y="39.609749">?</tspan></text>
</svg>