<?xml version="1.0" encoding="UTF-8" standalone="no"?>
<!-- Created with Inkscape (http://www.inkscape.org/) -->

<svg
   xmlns:dc="http://purl.org/dc/elements/1.1/"
   xmlns:cc="http://creativecommons.org/ns#"
   xmlns:rdf="http://www.w3.org/1999/02/22-rdf-syntax-ns#"
   xmlns:svg="http://www.w3.org/2000/svg"
   xmlns="http://www.w3.org/2000/svg"
   xmlns:sodipodi="http://sodipodi.sourceforge.net/DTD/sodipodi-0.dtd"
   xmlns:inkscape="http://www.inkscape.org/namespaces/inkscape"
   width="34.998535"
   height="47.314049"
   id="svg2"
   version="1.1"
   inkscape:version="0.47 r22583"
   sodipodi:docname="danger.svg">
  <defs
     id="defs4">
    <inkscape:perspective
       sodipodi:type="inkscape:persp3d"
       inkscape:vp_x="0 : 526.18109 : 1"
       inkscape:vp_y="0 : 1000 : 0"
       inkscape:vp_z="744.09448 : 526.18109 : 1"
       inkscape:persp3d-origin="372.04724 : 350.78739 : 1"
       id="perspective10" />
    <inkscape:perspective
       id="perspective2830"
       inkscape:persp3d-origin="0.5 : 0.33333333 : 1"
       inkscape:vp_z="1 : 0.5 : 1"
       inkscape:vp_y="0 : 1000 : 0"
       inkscape:vp_x="0 : 0.5 : 1"
       sodipodi:type="inkscape:persp3d" />
    <inkscape:perspective
       id="perspective2830-8"
       inkscape:persp3d-origin="0.5 : 0.33333333 : 1"
       inkscape:vp_z="1 : 0.5 : 1"
       inkscape:vp_y="0 : 1000 : 0"
       inkscape:vp_x="0 : 0.5 : 1"
       sodipodi:type="inkscape:persp3d" />
    <inkscape:perspective
       id="perspective2830-6"
       inkscape:persp3d-origin="0.5 : 0.33333333 : 1"
       inkscape:vp_z="1 : 0.5 : 1"
       inkscape:vp_y="0 : 1000 : 0"
       inkscape:vp_x="0 : 0.5 : 1"
       sodipodi:type="inkscape:persp3d" />
    <inkscape:perspective
       id="perspective2830-7"
       inkscape:persp3d-origin="0.5 : 0.33333333 : 1"
       inkscape:vp_z="1 : 0.5 : 1"
       inkscape:vp_y="0 : 1000 : 0"
       inkscape:vp_x="0 : 0.5 : 1"
       sodipodi:type="inkscape:persp3d" />
    <inkscape:perspective
       id="perspective2881"
       inkscape:persp3d-origin="0.5 : 0.33333333 : 1"
       inkscape:vp_z="1 : 0.5 : 1"
       inkscape:vp_y="0 : 1000 : 0"
       inkscape:vp_x="0 : 0.5 : 1"
       sodipodi:type="inkscape:persp3d" />
    <inkscape:perspective
       sodipodi:type="inkscape:persp3d"
       inkscape:vp_x="0 : 0.5 : 1"
       inkscape:vp_y="0 : 1000 : 0"
       inkscape:vp_z="1 : 0.5 : 1"
       inkscape:persp3d-origin="0.5 : 0.33333333 : 1"
       id="perspective3978" />
    <inkscape:perspective
       id="perspective3968"
       inkscape:persp3d-origin="372.04724 : 350.78739 : 1"
       inkscape:vp_z="744.09448 : 526.18109 : 1"
       inkscape:vp_y="0 : 1000 : 0"
       inkscape:vp_x="0 : 526.18109 : 1"
       sodipodi:type="inkscape:persp3d" />
    <inkscape:perspective
       id="perspective3316"
       inkscape:persp3d-origin="0.5 : 0.33333333 : 1"
       inkscape:vp_z="1 : 0.5 : 1"
       inkscape:vp_y="0 : 1000 : 0"
       inkscape:vp_x="0 : 0.5 : 1"
       sodipodi:type="inkscape:persp3d" />
    <inkscape:perspective
       id="perspective3332"
       inkscape:persp3d-origin="0.5 : 0.33333333 : 1"
       inkscape:vp_z="1 : 0.5 : 1"
       inkscape:vp_y="0 : 1000 : 0"
       inkscape:vp_x="0 : 0.5 : 1"
       sodipodi:type="inkscape:persp3d" />
    <inkscape:perspective
       id="perspective3405"
       inkscape:persp3d-origin="200 : 133.33333 : 1"
       inkscape:vp_z="400 : 200 : 1"
       inkscape:vp_y="0 : 1000 : 0"
       inkscape:vp_x="0 : 200 : 1"
       sodipodi:type="inkscape:persp3d" />
    <inkscape:perspective
       id="perspective4678"
       inkscape:persp3d-origin="0.5 : 0.33333333 : 1"
       inkscape:vp_z="1 : 0.5 : 1"
       inkscape:vp_y="0 : 1000 : 0"
       inkscape:vp_x="0 : 0.5 : 1"
       sodipodi:type="inkscape:persp3d" />
    <inkscape:perspective
       id="perspective4754"
       inkscape:persp3d-origin="200 : 133.33333 : 1"
       inkscape:vp_z="400 : 200 : 1"
       inkscape:vp_y="0 : 1000 : 0"
       inkscape:vp_x="0 : 200 : 1"
       sodipodi:type="inkscape:persp3d" />
    <inkscape:perspective
       id="perspective5071"
       inkscape:persp3d-origin="0.5 : 0.33333333 : 1"
       inkscape:vp_z="1 : 0.5 : 1"
       inkscape:vp_y="0 : 1000 : 0"
       inkscape:vp_x="0 : 0.5 : 1"
       sodipodi:type="inkscape:persp3d" />
  </defs>
  <sodipodi:namedview
     id="base"
     pagecolor="#009674"
     bordercolor="#666666"
     borderopacity="1.0"
     inkscape:pageopacity="1"
     inkscape:pageshadow="2"
     inkscape:zoom="9.6300965"
     inkscape:cx="19.532217"
     inkscape:cy="21.152769"
     inkscape:document-units="px"
     inkscape:current-layer="layer1"
     showgrid="false"
     inkscape:window-width="1280"
     inkscape:window-height="749"
     inkscape:window-x="0"
     inkscape:window-y="24"
     inkscape:window-maximized="1"
     inkscape:snap-global="true">
    <inkscape:grid
       type="xygrid"
       id="grid2818"
       empspacing="5"
       visible="true"
       enabled="true"
       snapvisiblegridlinesonly="true" />
  </sodipodi:namedview>
  <metadata
     id="metadata7">
    <rdf:RDF>
      <cc:Work
         rdf:about="">
        <dc:format>image/svg+xml</dc:format>
        <dc:type
           rdf:resource="http://purl.org/dc/dcmitype/StillImage" />
        <dc:title />
      </cc:Work>
    </rdf:RDF>
  </metadata>
  <g
     inkscape:label="Ebene 1"
     inkscape:groupmode="layer"
     id="layer1"
     transform="translate(49.66711,-611.24678)">
    <path
       style="font-size:12px;fill:#ffffff;stroke:#000000;stroke-width:0;stroke-linecap:round;stroke-linejoin:round;stroke-miterlimit:4;stroke-opacity:0.99122798999999995;stroke-dasharray:none"
       d="m -32.27706,611.24829 c -3.794843,0.0431 -8.901834,0.85635 -12.125,3.125 -3.28781,2.35849 -5.468508,6.52122 -5.25,10.6875 0.201265,3.78068 1.643631,7.26393 3.71875,9.28125 l 0.15625,0 c -0.142953,0.72869 -0.295757,1.44469 -0.40625,2.09375 -0.231195,2.26944 0.409477,4.21748 1.25,4.96875 0.606563,0.54216 0.742142,0.86323 1.53125,1.125 0.752361,1.82072 1.549742,3.60292 1.625,5.46875 -0.346034,1.50472 -0.25118,3.273 0.125,4.6875 0.481585,1.94109 2.36899,4.23256 4.25,5 1.895293,0.6885 3.099479,0.86924 5.1875,0.875 0.03384,9e-5 0.05943,0 0.09375,0 2.088109,-0.006 3.305349,-0.18232 5.15625,-0.9375 1.88101,-0.76743 3.768415,-2.99641 4.25,-4.9375 0.37618,-1.4145 0.502284,-3.18278 0.15625,-4.6875 0.07526,-1.86583 0.872639,-3.64803 1.625,-5.46875 l 0.03125,0 c 0.778675,-0.25822 0.928106,-0.59666 1.59375,-1.1875 0.840523,-0.75648 1.481195,-2.69931 1.25,-4.96875 -0.119803,-0.70376 -0.28441,-1.48544 -0.4375,-2.28125 l 0.03125,0 c 2.180208,-2.00957 3.977853,-5.24141 3.78125,-9.46875 -0.132948,-4.20858 -2.047112,-7.8985 -5.625,-10.5 -2.039659,-1.51898 -7.812243,-2.84175 -10.40625,-2.84375 -0.478711,-0.0242 -1.02038,-0.0375 -1.5625,-0.0312 z m -4.53125,18.96875 c 1.678531,-0.15108 2.493777,1.8686 2,3.40625 -0.66203,1.45961 -1.587893,2.73491 -2.65625,3.96875 -0.827618,0.93291 -1.80982,1.09779 -2.75,0.78125 -0.758867,-0.21037 -1.46639,-0.66657 -2.21875,-1.75 -0.330961,-0.93302 -0.60985,-1.43517 -1.03125,-2.59375 -0.330961,-1.06836 0.16625,-2.66393 1.96875,-3.15625 1.45961,-0.25581 2.884139,-0.42827 4.34375,-0.59375 0.11944,-0.0301 0.231848,-0.0524 0.34375,-0.0625 z m 8.96875,0 c 0.208198,-0.0168 0.448619,0.002 0.6875,0.0625 1.459611,0.16548 2.85289,0.33794 4.3125,0.59375 1.8025,0.49232 2.330961,2.08789 2,3.15625 -0.4214,1.15858 -0.700289,1.66073 -1.03125,2.59375 -0.75236,1.08343 -1.459883,1.53963 -2.21875,1.75 -0.94018,0.31654 -1.922382,0.15166 -2.75,-0.78125 -1.068357,-1.23384 -2.02547,-2.50914 -2.6875,-3.96875 -0.460859,-1.43514 0.230112,-3.28881 1.6875,-3.40625 z m -4.71875,6.75 0,6.0625 c -0.834776,1.0253 -1.410856,1.48155 -1.84375,1.53125 -0.484513,0.0305 -0.90495,-0.85621 -0.90625,-2.25 -3.25e-4,-0.41131 0.08025,-1.18348 0.1875,-1.71875 0.107356,-0.53537 0.477234,-1.34602 0.6875,-1.6875 0.581025,-0.88477 0.82356,-1.13797 1.875,-1.9375 z m 0.75,0.0312 c 1.05144,0.79953 1.293975,1.05273 1.875,1.9375 0.210266,0.34148 0.611394,1.15213 0.71875,1.6875 0.107248,0.53527 0.187825,1.30744 0.1875,1.71875 -0.0013,1.39379 -0.452987,2.24923 -0.9375,2.21875 -0.432894,-0.0497 -0.977724,-0.4747 -1.8125,-1.5 l -0.03125,-6.0625 z m 6.28125,10.71875 0,0.90625 0,0.9375 -0.0625,0.0312 c -0.08211,0.067 -0.467196,0.31131 -0.71875,0.4375 -0.130506,0.0652 -0.27675,0.125 -0.28125,0.125 -0.01732,0 -0.01721,-2.1092 0,-2.125 0.01006,-0.009 0.12588,-0.0735 0.21875,-0.0937 0.09287,-0.0203 0.281431,-0.095 0.46875,-0.15625 l 0.375,-0.0625 z m -13.28125,0.0312 0.28125,0.0937 c 0.167569,0.0561 0.39024,0.12815 0.5,0.15625 l 0.21875,0.0312 0,1.09375 c 0,0.58483 -0.02235,1.03149 -0.03125,1.03125 -0.03155,-7.3e-4 -0.666973,-0.33076 -0.84375,-0.4375 l -0.1875,-0.0625 0,-0.78125 c 7.7e-5,-0.42358 -0.0075,-0.87245 0,-0.96875 l 0.0625,-0.15625 z m 11.5,0.40625 0.09375,0 0,1.125 0,1.15625 -0.21875,0.0625 c -0.106838,0.0336 -0.35476,0.10335 -0.5625,0.15625 -0.207742,0.0531 -0.39141,0.12493 -0.40625,0.125 -0.02098,7e-5 -0.03121,-0.17418 -0.03125,-0.65625 -3.5e-5,-0.34128 0.0077,-0.8914 0,-1.21875 l -0.03125,-0.59375 0.21875,0 c 0.224898,-0.0273 0.805237,-0.12895 0.9375,-0.15625 z m -9.90625,0.0312 0.09375,0 c 0.03265,0.007 0.289471,0.0565 0.5625,0.0937 0.27303,0.0375 0.50263,0.0565 0.53125,0.0625 l 0.03125,0 0,0.78125 c -0.0078,0.41775 1.8e-5,0.94117 0,1.1875 -1e-5,0.24633 -0.02225,0.46975 -0.03125,0.46875 -0.08183,-0.01 -0.766574,-0.20965 -0.96875,-0.28125 l -0.21875,-0.0937 0,-1.09375 0,-1.125 z m 1.84375,0.21875 c 0.0014,-0.001 0.247461,0.0132 0.53125,0.0312 l 0.53125,0.0312 -0.03125,0.5625 c -0.0078,0.32034 0,0.89738 0,1.28125 l 0,0.75 -0.09375,0 c -0.09216,-0.003 -0.582589,-0.086 -0.8125,-0.125 l -0.15625,-0.0625 0.03125,-1.21875 c 0.006,-0.68472 -0.0015,-1.249 0,-1.25 z m 6.25,0 0.03125,0 0,1.25 c 0.0076,0.68465 0.0026,1.21575 0,1.21875 -0.0026,0.002 -0.130072,0.0369 -0.34375,0.0625 -0.213676,0.0257 -0.47487,0.0232 -0.53125,0.0312 l -0.09375,0.0312 0,-1.28125 0,-1.28125 0.46875,0 c 0.240386,-0.0139 0.44397,-0.0253 0.46875,-0.0312 z m -4.59375,0.0625 0.625,0 0.625,0 0,1.34375 0,1.3125 -0.3125,0 c -0.181031,-0.001 -0.498961,-0.0272 -0.65625,-0.0312 l -0.28125,0 0,-1.28125 0,-1.34375 z m 1.84375,0 0.59375,0 c 0.31161,-0.005 0.58905,-0.003 0.59375,0 0.0047,0.003 -0.0059,0.58217 0,1.28125 l 0,1.25 -0.09375,0.0625 c -0.05214,0.006 -0.313211,-0.009 -0.5625,0 -0.249288,0.007 -0.44798,0.0253 -0.46875,0.0312 -0.03564,0.01 -0.0625,-0.0482 -0.0625,-1.28125 l 0,-1.34375 z m -7,1.90625 c 0.0019,-0.002 0.179131,0.0588 0.375,0.15625 0.195869,0.0975 0.38268,0.24325 0.46875,0.28125 l 0.1875,0.0312 0,1.125 c 0,0.61141 0.003,1.12525 0,1.125 -0.02449,-0.002 -0.64312,-0.36148 -0.8125,-0.46875 l -0.25,-0.125 0,-1.09375 c 0.0032,-0.57938 0.02935,-1.02825 0.03125,-1.03125 z m 13.34375,0 0,0.0312 c 0.0035,0.0435 0.02285,0.50895 0.03125,1.03125 l 0,0.96875 0.09375,0 c -0.01734,0.0175 -0.03529,0.0673 -0.125,0.125 -0.202936,0.13056 -0.674875,0.3781 -0.8125,0.4375 -0.04452,0.0192 -0.11471,0.0759 -0.15625,0.0937 l -0.09375,0.0312 0,-1.125 0,-1.125 0.3125,-0.125 c 0.163224,-0.0733 0.406606,-0.14845 0.53125,-0.21875 l 0.21875,-0.125 z m -1.6875,0.71875 c 0.03596,-0.0105 0.0053,0.0569 0,1.125 l 0,1.125 -0.25,0.0937 c -0.130466,0.0464 -0.364945,0.1364 -0.53125,0.1875 -0.166306,0.0511 -0.31111,0.0857 -0.34375,0.0937 l -0.0625,0.0312 0,-1.09375 c -1.3e-4,-0.59674 -0.02435,-1.11445 -0.03125,-1.15625 l 0,-0.0937 0.3125,-0.0625 c 0.265297,-0.0599 0.476881,-0.12471 0.90625,-0.25 z m -9.9375,0.0312 c 0.0834,0.035 0.619618,0.1883 0.875,0.25 l 0.28125,0.0312 0,0.25 c -0.0077,0.13205 -0.03121,0.66064 -0.03125,1.15625 -1e-4,0.91926 -0.01796,0.93205 -0.09375,0.90625 -0.01187,-0.004 -0.113485,-0.0557 -0.25,-0.0937 -0.304736,-0.0847 -0.81697,-0.25445 -0.84375,-0.28125 -0.01198,-0.0118 -0.0097,-0.4579 0,-1.125 0.01464,-1.01566 0.03063,-1.10705 0.0625,-1.09375 z m 8.03125,0.40625 c 0.0448,-0.011 0.0796,-0.004 0.09375,0.6875 0.015,0.73415 0.01182,1.65625 0,1.65625 -0.0039,0 -0.120311,0.008 -0.25,0.0312 -0.129687,0.0235 -0.370321,0.0756 -0.5,0.0937 -0.129679,0.0183 -0.20885,0.0312 -0.21875,0.0312 -0.0098,0 -0.06,-0.48833 -0.0625,-1.09375 -0.0025,-0.60541 4.67e-4,-1.1318 0,-1.1875 l 0,-0.125 0.46875,-0.0625 c 0.243353,-0.0268 0.44395,-0.0253 0.46875,-0.0312 z m -6.25,0.0312 c 0.0029,-0.003 0.176074,0.0324 0.40625,0.0625 0.230174,0.0299 0.4808,0.0232 0.53125,0.0312 l 0.09375,0.0312 0,1.125 c 0,0.62772 0.009,1.1825 0,1.1875 -0.01787,0.009 -0.555495,-0.0807 -0.84375,-0.125 l -0.21875,0 0,-1.1875 c 0.0043,-0.62906 0.02835,-1.121 0.03125,-1.125 z m 4.3125,0.125 0.375,0 0,0.9375 c 0,0.5221 0.02355,1.04486 0.03125,1.1875 l 0,0.28125 -0.1875,0 c -0.105604,0.007 -0.402421,0.0535 -0.625,0.0625 l -0.40625,0 0,-1.21875 0,-1.1875 0.25,0 c 0.127612,-0.008 0.369598,-0.0535 0.5625,-0.0625 z m -2.65625,0.0625 0.21875,0 c 0.115741,0.006 0.365237,-6e-5 0.59375,0 l 0.4375,0 0,1.1875 0,1.15625 -0.15625,0 c -0.08013,-10e-4 -0.15189,0.004 -0.1875,0 -0.03561,-0.003 -0.271485,-0.0169 -0.5,-0.0312 l -0.40625,0 0,-1.15625 0,-1.15625 z"
       id="path573" />
  </g>
</svg>
