<?xml version="1.0" encoding="UTF-8" standalone="no"?>
<!-- Created with Inkscape (http://www.inkscape.org/) -->

<svg
   xmlns:dc="http://purl.org/dc/elements/1.1/"
   xmlns:cc="http://creativecommons.org/ns#"
   xmlns:rdf="http://www.w3.org/1999/02/22-rdf-syntax-ns#"
   xmlns:svg="http://www.w3.org/2000/svg"
   xmlns="http://www.w3.org/2000/svg"
   xmlns:sodipodi="http://sodipodi.sourceforge.net/DTD/sodipodi-0.dtd"
   xmlns:inkscape="http://www.inkscape.org/namespaces/inkscape"
   width="21.992161"
   height="36.269531"
   id="svg2"
   version="1.1"
   inkscape:version="0.47 r22583"
   sodipodi:docname="fee.svg">
  <defs
     id="defs4">
    <inkscape:perspective
       sodipodi:type="inkscape:persp3d"
       inkscape:vp_x="0 : 526.18109 : 1"
       inkscape:vp_y="0 : 1000 : 0"
       inkscape:vp_z="744.09448 : 526.18109 : 1"
       inkscape:persp3d-origin="372.04724 : 350.78739 : 1"
       id="perspective10" />
    <inkscape:perspective
       id="perspective2830"
       inkscape:persp3d-origin="0.5 : 0.33333333 : 1"
       inkscape:vp_z="1 : 0.5 : 1"
       inkscape:vp_y="0 : 1000 : 0"
       inkscape:vp_x="0 : 0.5 : 1"
       sodipodi:type="inkscape:persp3d" />
    <inkscape:perspective
       id="perspective2830-8"
       inkscape:persp3d-origin="0.5 : 0.33333333 : 1"
       inkscape:vp_z="1 : 0.5 : 1"
       inkscape:vp_y="0 : 1000 : 0"
       inkscape:vp_x="0 : 0.5 : 1"
       sodipodi:type="inkscape:persp3d" />
    <inkscape:perspective
       id="perspective2830-6"
       inkscape:persp3d-origin="0.5 : 0.33333333 : 1"
       inkscape:vp_z="1 : 0.5 : 1"
       inkscape:vp_y="0 : 1000 : 0"
       inkscape:vp_x="0 : 0.5 : 1"
       sodipodi:type="inkscape:persp3d" />
    <inkscape:perspective
       id="perspective2830-7"
       inkscape:persp3d-origin="0.5 : 0.33333333 : 1"
       inkscape:vp_z="1 : 0.5 : 1"
       inkscape:vp_y="0 : 1000 : 0"
       inkscape:vp_x="0 : 0.5 : 1"
       sodipodi:type="inkscape:persp3d" />
    <inkscape:perspective
       id="perspective2881"
       inkscape:persp3d-origin="0.5 : 0.33333333 : 1"
       inkscape:vp_z="1 : 0.5 : 1"
       inkscape:vp_y="0 : 1000 : 0"
       inkscape:vp_x="0 : 0.5 : 1"
       sodipodi:type="inkscape:persp3d" />
    <inkscape:perspective
       sodipodi:type="inkscape:persp3d"
       inkscape:vp_x="0 : 0.5 : 1"
       inkscape:vp_y="0 : 1000 : 0"
       inkscape:vp_z="1 : 0.5 : 1"
       inkscape:persp3d-origin="0.5 : 0.33333333 : 1"
       id="perspective3978" />
    <inkscape:perspective
       id="perspective3968"
       inkscape:persp3d-origin="372.04724 : 350.78739 : 1"
       inkscape:vp_z="744.09448 : 526.18109 : 1"
       inkscape:vp_y="0 : 1000 : 0"
       inkscape:vp_x="0 : 526.18109 : 1"
       sodipodi:type="inkscape:persp3d" />
  </defs>
  <sodipodi:namedview
     id="base"
     pagecolor="#009674"
     bordercolor="#666666"
     borderopacity="1.0"
     inkscape:pageopacity="1"
     inkscape:pageshadow="2"
     inkscape:zoom="13.26182"
     inkscape:cx="10.99608"
     inkscape:cy="18.134766"
     inkscape:document-units="px"
     inkscape:current-layer="layer1"
     showgrid="false"
     inkscape:window-width="1280"
     inkscape:window-height="749"
     inkscape:window-x="0"
     inkscape:window-y="24"
     inkscape:window-maximized="1">
    <inkscape:grid
       type="xygrid"
       id="grid2818"
       empspacing="5"
       visible="true"
       enabled="true"
       snapvisiblegridlinesonly="true" />
  </sodipodi:namedview>
  <metadata
     id="metadata7">
    <rdf:RDF>
      <cc:Work
         rdf:about="">
        <dc:format>image/svg+xml</dc:format>
        <dc:type
           rdf:resource="http://purl.org/dc/dcmitype/StillImage" />
        <dc:title />
      </cc:Work>
    </rdf:RDF>
  </metadata>
  <g
     inkscape:label="Ebene 1"
     inkscape:groupmode="layer"
     id="layer1"
     transform="translate(62.85306,-639.11632)">
    <g
       transform="translate(-341.3208,508.97144)"
       style="font-size:40px;font-style:normal;font-variant:normal;font-weight:bold;font-stretch:normal;fill:#ffffff;fill-opacity:1;stroke:none;font-family:DejaVu Serif;-inkscape-font-specification:Bitstream Charter Bold"
       id="text3084" />
    <g
       transform="translate(-341.3208,508.97144)"
       style="font-size:40px;font-style:normal;font-weight:bold;fill:#ffffff;fill-opacity:1;stroke:none;font-family:Bitstream Vera Sans;-inkscape-font-specification:Bitstream Charter Bold"
       id="text3088">
      <path
         d="m 290.87006,166.41441 -3.16407,0 -0.0195,-5.8789 c -1.62761,-0.0651 -3.20313,-0.2474 -4.72656,-0.54688 -1.52344,-0.29948 -3.00782,-0.71614 -4.45313,-1.25 l 0,-5.11719 c 1.4974,0.76824 3.00781,1.36069 4.53125,1.77735 1.53645,0.40365 3.09244,0.63151 4.66797,0.68359 l 0,-6.07422 -0.64453,-0.11718 c -3.11199,-0.54687 -5.32552,-1.40624 -6.64062,-2.57813 -1.30209,-1.17186 -1.95313,-2.85806 -1.95313,-5.05859 0,-2.33071 0.79427,-4.14712 2.38281,-5.44922 1.60156,-1.31508 3.8802,-2.03123 6.83594,-2.14844 l 0.0195,-4.51172 3.16407,0 0,4.4336 c 1.30206,0.10419 2.60414,0.26695 3.90625,0.48828 1.30206,0.22138 2.61065,0.50783 3.92578,0.85937 l 0,4.96094 c -1.30211,-0.54686 -2.60419,-0.97003 -3.90625,-1.26953 -1.3021,-0.31248 -2.6107,-0.50128 -3.92578,-0.56641 l 0,5.60547 0.625,0.11719 c 3.30727,0.52085 5.62497,1.39324 6.95312,2.61719 1.34112,1.21095 2.01169,3.00782 2.01172,5.39062 -3e-5,2.39584 -0.7943,4.23829 -2.38281,5.52734 -1.58857,1.27605 -3.99091,2.00521 -7.20703,2.1875 l 0,5.91797 m -3.16407,-22.20703 0,-5.09765 c -0.92449,0.0521 -1.66667,0.30601 -2.22656,0.76171 -0.54688,0.44273 -0.82032,1.00914 -0.82031,1.69922 -10e-6,0.76825 0.2539,1.37372 0.76172,1.81641 0.5078,0.4297 1.26952,0.70314 2.28515,0.82031 m 3.16407,6.36719 0,5.42969 c 1.13279,-0.013 1.97915,-0.23437 2.53906,-0.66407 0.5729,-0.42968 0.85935,-1.07421 0.85937,-1.93359 -2e-5,-0.88541 -0.26043,-1.54296 -0.78125,-1.97266 -0.52085,-0.44269 -1.39324,-0.72915 -2.61718,-0.85937"
         id="path3093"
         style="fill:#ffffff" />
    </g>
  </g>
</svg>
