<?xml version="1.0" encoding="UTF-8" standalone="no"?>
<!-- Created with Inkscape (http://www.inkscape.org/) -->

<svg
   xmlns:dc="http://purl.org/dc/elements/1.1/"
   xmlns:cc="http://creativecommons.org/ns#"
   xmlns:rdf="http://www.w3.org/1999/02/22-rdf-syntax-ns#"
   xmlns:svg="http://www.w3.org/2000/svg"
   xmlns="http://www.w3.org/2000/svg"
   xmlns:sodipodi="http://sodipodi.sourceforge.net/DTD/sodipodi-0.dtd"
   xmlns:inkscape="http://www.inkscape.org/namespaces/inkscape"
   width="231.2534"
   height="231.25"
   id="svg2"
   version="1.1"
   inkscape:version="0.47 r22583"
   sodipodi:docname="frontyard.svg">
  <defs
     id="defs4">
    <inkscape:perspective
       sodipodi:type="inkscape:persp3d"
       inkscape:vp_x="0 : 526.18109 : 1"
       inkscape:vp_y="0 : 1000 : 0"
       inkscape:vp_z="744.09448 : 526.18109 : 1"
       inkscape:persp3d-origin="372.04724 : 350.78739 : 1"
       id="perspective10" />
    <inkscape:perspective
       id="perspective2830"
       inkscape:persp3d-origin="0.5 : 0.33333333 : 1"
       inkscape:vp_z="1 : 0.5 : 1"
       inkscape:vp_y="0 : 1000 : 0"
       inkscape:vp_x="0 : 0.5 : 1"
       sodipodi:type="inkscape:persp3d" />
    <inkscape:perspective
       id="perspective2830-8"
       inkscape:persp3d-origin="0.5 : 0.33333333 : 1"
       inkscape:vp_z="1 : 0.5 : 1"
       inkscape:vp_y="0 : 1000 : 0"
       inkscape:vp_x="0 : 0.5 : 1"
       sodipodi:type="inkscape:persp3d" />
    <inkscape:perspective
       id="perspective2830-6"
       inkscape:persp3d-origin="0.5 : 0.33333333 : 1"
       inkscape:vp_z="1 : 0.5 : 1"
       inkscape:vp_y="0 : 1000 : 0"
       inkscape:vp_x="0 : 0.5 : 1"
       sodipodi:type="inkscape:persp3d" />
    <inkscape:perspective
       id="perspective2830-7"
       inkscape:persp3d-origin="0.5 : 0.33333333 : 1"
       inkscape:vp_z="1 : 0.5 : 1"
       inkscape:vp_y="0 : 1000 : 0"
       inkscape:vp_x="0 : 0.5 : 1"
       sodipodi:type="inkscape:persp3d" />
    <inkscape:perspective
       id="perspective2881"
       inkscape:persp3d-origin="0.5 : 0.33333333 : 1"
       inkscape:vp_z="1 : 0.5 : 1"
       inkscape:vp_y="0 : 1000 : 0"
       inkscape:vp_x="0 : 0.5 : 1"
       sodipodi:type="inkscape:persp3d" />
  </defs>
  <sodipodi:namedview
     id="base"
     pagecolor="#009674"
     bordercolor="#666666"
     borderopacity="1.0"
     inkscape:pageopacity="1"
     inkscape:pageshadow="2"
     inkscape:zoom="1.9598977"
     inkscape:cx="172.33799"
     inkscape:cy="97.01129"
     inkscape:document-units="px"
     inkscape:current-layer="layer1"
     showgrid="true"
     inkscape:window-width="1280"
     inkscape:window-height="749"
     inkscape:window-x="0"
     inkscape:window-y="24"
     inkscape:window-maximized="1">
    <inkscape:grid
       type="xygrid"
       id="grid2818"
       empspacing="5"
       visible="true"
       enabled="true"
       snapvisiblegridlinesonly="true" />
  </sodipodi:namedview>
  <metadata
     id="metadata7">
    <rdf:RDF>
      <cc:Work
         rdf:about="">
        <dc:format>image/svg+xml</dc:format>
        <dc:type
           rdf:resource="http://purl.org/dc/dcmitype/StillImage" />
        <dc:title />
      </cc:Work>
    </rdf:RDF>
  </metadata>
  <g
     inkscape:label="Ebene 1"
     inkscape:groupmode="layer"
     id="layer1"
     transform="translate(12.697572,-631.30931)">
    <path
       style="fill:#ffffff;stroke:#000000;stroke-width:0.39514463999999999px;stroke-linecap:butt;stroke-linejoin:miter;stroke-opacity:1"
       d="m 7.7000977,689.21849 -11.542913,21.64296 0,15.8715 -8.6571847,0 0,11.54292 8.6571847,0 0,98.11476 -8.6571847,0 0,11.54291 8.6571847,0 0,14.42864 23.0858263,0 0,-14.42864 23.807258,0 0,14.42864 23.085826,0 0,-14.42864 23.807258,0 0,14.42864 23.085827,0 0,-14.42864 23.80726,0 0,14.42864 23.08582,0 0,-14.42864 23.80726,0 0,14.42864 23.08583,0 0,-14.42864 11.54291,0 0,-11.54291 -11.54291,0 0,-98.11476 11.54291,0 0,-11.54292 -11.54291,0 0,-15.8715 -11.54292,-21.64296 -11.54291,21.64296 0,15.8715 -23.80726,0 0,-15.8715 -11.54291,-21.64296 -11.54291,21.64296 0,15.8715 -23.80726,0 0,-15.8715 -11.54291,-21.64296 -11.542917,21.64296 0,15.8715 -23.807258,0 0,-15.8715 -11.542913,-21.64296 -11.542913,21.64296 0,15.8715 -23.807258,0 0,-15.8715 -11.5429133,-21.64296 z m 11.5429133,49.05738 23.807258,0 0,98.11476 -23.807258,0 0,-98.11476 z m 46.893084,0 23.807258,0 0,98.11476 -23.807258,0 0,-98.11476 z m 46.893085,0 23.80726,0 0,98.11476 -23.80726,0 0,-98.11476 z m 46.89308,0 23.80726,0 0,98.11476 -23.80726,0 0,-98.11476 z"
       id="path2820" />
  </g>
</svg>
