<?xml version="1.0" encoding="UTF-8" standalone="no"?>
<!-- Generator: Adobe Illustrator 14.0.0, SVG Export Plug-In . SVG Version: 6.00 Build 43363)  -->

<svg
   xmlns:dc="http://purl.org/dc/elements/1.1/"
   xmlns:cc="http://creativecommons.org/ns#"
   xmlns:rdf="http://www.w3.org/1999/02/22-rdf-syntax-ns#"
   xmlns:svg="http://www.w3.org/2000/svg"
   xmlns="http://www.w3.org/2000/svg"
   xmlns:sodipodi="http://sodipodi.sourceforge.net/DTD/sodipodi-0.dtd"
   xmlns:inkscape="http://www.inkscape.org/namespaces/inkscape"
   version="1.0"
   id="Layer_1"
   x="0px"
   y="0px"
   width="100px"
   height="66.518px"
   viewBox="0 0 100 66.518"
   enable-background="new 0 0 100 66.518"
   xml:space="preserve"
   inkscape:version="0.47 r22583"
   sodipodi:docname="motorcycles.svg"><metadata
   id="metadata2961"><rdf:RDF><cc:Work
       rdf:about=""><dc:format>image/svg+xml</dc:format><dc:type
         rdf:resource="http://purl.org/dc/dcmitype/StillImage" /></cc:Work></rdf:RDF></metadata><defs
   id="defs2959"><inkscape:perspective
     sodipodi:type="inkscape:persp3d"
     inkscape:vp_x="0 : 33.258999 : 1"
     inkscape:vp_y="0 : 1000 : 0"
     inkscape:vp_z="100 : 33.258999 : 1"
     inkscape:persp3d-origin="50 : 22.172666 : 1"
     id="perspective2963" /></defs><sodipodi:namedview
   pagecolor="#009674"
   bordercolor="#666666"
   borderopacity="1"
   objecttolerance="10"
   gridtolerance="10"
   guidetolerance="10"
   inkscape:pageopacity="1"
   inkscape:pageshadow="2"
   inkscape:window-width="640"
   inkscape:window-height="504"
   id="namedview2957"
   showgrid="false"
   inkscape:zoom="3.547912"
   inkscape:cx="50.000001"
   inkscape:cy="33.258999"
   inkscape:window-x="0"
   inkscape:window-y="24"
   inkscape:window-maximized="0"
   inkscape:current-layer="Layer_1" />
<path
   d="m 11.477,33.871 -0.049,-0.759 c 0,-2.585 0.707,-3.855 2.776,-3.855 l 15.428,0 c 0,-1.688 0.144,-3.571 1.837,-5.312 l 7.572,-7.947 c 0.939,-0.946 1.17,-0.99 1.877,-1.416 0.757,-0.417 3.959,-1.682 4.848,-2.06 0.896,-0.337 1.409,-0.424 1.93,-0.38 l 0,-2.169 C 47.175,9.041 46.569,9.084 46.522,6.076 c 0,-3.348 2.16,-6.075 6.065,-6.075 3.905,0 5.784,2.728 6.163,6.075 l -1.366,0 0,4.694 c 0,1.691 -1.659,3.065 -3.713,3.065 l 0,0.897 4.235,7.101 3.994,3.666 c 1.697,1.6 3.72,0.512 3.248,-1.18 L 61.9,10.771 c -0.232,-0.882 0.423,-1.785 1.459,-0.187 l 7.949,12.187 c 1.883,3.009 6.774,4.651 9.832,4.651 l 3.903,0 0,6.406 -0.283,-0.05 c -2.292,0 -4.481,0.463 -6.493,1.282 l 1.017,1.657 c 1.665,-0.619 3.458,-0.974 5.337,-0.974 8.488,0.002 15.379,6.905 15.379,15.388 0,8.485 -6.891,15.386 -15.379,15.387 -8.491,0 -15.382,-6.901 -15.382,-15.386 0,-4.537 1.983,-8.609 5.115,-11.429 l -0.993,-1.61 c -3.664,3.194 -6.006,7.867 -6.006,13.04 0,3.666 -1.736,7.481 -7.244,7.481 -5.454,0 -9.828,0 -16.225,-0.097 l -11.631,0 c -2.614,4.764 -7.674,8 -13.488,8 -8.46,0 -15.32,-6.85 -15.372,-15.29 L 0,51.227 C 0,43.465 4.751,36.783 11.477,33.871 z m 73.188,26.766 c 5.246,0 9.508,-4.264 9.508,-9.506 -0.001,-5.239 -4.262,-9.499 -9.508,-9.499 -0.759,0 -1.494,0.099 -2.202,0.268 l 2.089,3.404 c 0.038,-0.001 0.075,-0.006 0.113,-0.006 3.224,0 5.837,2.615 5.838,5.833 0,3.218 -2.614,5.839 -5.838,5.839 -3.217,0 -5.832,-2.621 -5.832,-5.839 0,-1.057 0.286,-2.047 0.779,-2.902 l -2.073,-3.361 c -1.473,1.674 -2.374,3.863 -2.374,6.264 0,5.241 4.257,9.505 9.5,9.505 z M 52.495,35.703 62.277,31.745 50.236,24.838 c -1.366,2.123 -2.351,3.111 -4.324,4.273 l 6.583,6.592 z M 33.818,47.839 c 0.138,0.744 0.99,0.618 0.99,0 l 0,-9.924 -6.307,0 c -0.751,0 -0.841,0.515 -0.424,0.932 2.87,2.168 4.984,5.325 5.741,8.992 z m -15.05,12.798 c 5.246,0 9.502,-4.264 9.502,-9.506 0,-3.34 -1.732,-6.275 -4.346,-7.969 l -1.244,3.652 c 1.178,1.068 1.924,2.604 1.924,4.316 0,3.218 -2.617,5.839 -5.836,5.839 -3.217,0 -5.828,-2.621 -5.828,-5.839 0,-2.913 2.141,-5.324 4.932,-5.757 l 1.297,-3.722 c -0.134,-0.006 -0.266,-0.021 -0.4,-0.021 -5.24,0 -9.5,4.26 -9.5,9.499 -10e-4,5.244 4.258,9.508 9.499,9.508 z"
   id="path2955"
   style="fill:#ffffff" />
</svg>