<?xml version="1.0" encoding="UTF-8" standalone="no"?>
<!-- Generator: Adobe Illustrator 14.0.0, SVG Export Plug-In . SVG Version: 6.00 Build 43363)  -->

<svg
   xmlns:dc="http://purl.org/dc/elements/1.1/"
   xmlns:cc="http://creativecommons.org/ns#"
   xmlns:rdf="http://www.w3.org/1999/02/22-rdf-syntax-ns#"
   xmlns:svg="http://www.w3.org/2000/svg"
   xmlns="http://www.w3.org/2000/svg"
   xmlns:sodipodi="http://sodipodi.sourceforge.net/DTD/sodipodi-0.dtd"
   xmlns:inkscape="http://www.inkscape.org/namespaces/inkscape"
   version="1.0"
   id="Layer_1"
   x="0px"
   y="0px"
   width="74.089px"
   height="99.818px"
   viewBox="0 0 74.089 99.818"
   enable-background="new 0 0 74.089 99.818"
   xml:space="preserve"
   inkscape:version="0.47 r22583"
   sodipodi:docname="phone.svg"><metadata
   id="metadata2861"><rdf:RDF><cc:Work
       rdf:about=""><dc:format>image/svg+xml</dc:format><dc:type
         rdf:resource="http://purl.org/dc/dcmitype/StillImage" /></cc:Work></rdf:RDF></metadata><defs
   id="defs2859"><inkscape:perspective
     sodipodi:type="inkscape:persp3d"
     inkscape:vp_x="0 : 49.909 : 1"
     inkscape:vp_y="0 : 1000 : 0"
     inkscape:vp_z="74.088997 : 49.909 : 1"
     inkscape:persp3d-origin="37.044498 : 33.272667 : 1"
     id="perspective2863" /></defs><sodipodi:namedview
   pagecolor="#009674"
   bordercolor="#666666"
   borderopacity="1"
   objecttolerance="10"
   gridtolerance="10"
   guidetolerance="10"
   inkscape:pageopacity="1"
   inkscape:pageshadow="2"
   inkscape:window-width="640"
   inkscape:window-height="504"
   id="namedview2857"
   showgrid="false"
   borderlayer="true"
   inkscape:zoom="2.364303"
   inkscape:cx="37.044498"
   inkscape:cy="49.909"
   inkscape:window-x="0"
   inkscape:window-y="24"
   inkscape:window-maximized="0"
   inkscape:current-layer="Layer_1" />
<path
   id="path3480_1_"
   d="m 52.543176,0.091 c 0,0 21.827,0.287 21.544,20.059 -0.284,19.773 -4.253,37.255 -10.773,46.998 -6.519,9.744 -23.242,35.248 -42.236,32.67 0,0 -9.355,-2.007 -16.44,-6.593 l 22.96,-18.054 c 0,0 6.803,4.299 11.055,-1.433 4.253,-5.73 17.575,-32.381 17.575,-32.381 0,0 3.685,-8.598 -4.536,-12.323 l 0.851,-28.943 z"
   style="fill:#ffffff" />
<path
   id="path3482_1_"
   d="m 49.991176,0.091 c 0,0 -1.701,-0.571 -4.818,1.147 -3.118,1.719 -3.118,3.15 -3.118,3.15 l -0.284,19.775 c 0,0 0.851,1.147 1.984,2.291 1.134,1.146 4.819,2.867 5.387,1.72 0.565,-1.145 0.849,-28.083 0.849,-28.083 z"
   style="fill:#ffffff" />
<path
   id="path3484_1_"
   d="m 25.689176,73.058 -6.312,-3.332 c 0,0 -1.417,-0.285 -3.684,1.146 -2.268,1.436 -14.174,10.893 -14.174,10.893 0,0 -1.98400005,1.719 -1.41700005,3.725 0.566,2.006 1.98400005,6.305 1.98400005,6.305 l 23.603,-18.737 z"
   style="fill:#ffffff" />
</svg>