<?xml version="1.0" encoding="UTF-8" standalone="no"?>
<svg
   xmlns:dc="http://purl.org/dc/elements/1.1/"
   xmlns:cc="http://creativecommons.org/ns#"
   xmlns:rdf="http://www.w3.org/1999/02/22-rdf-syntax-ns#"
   xmlns:svg="http://www.w3.org/2000/svg"
   xmlns="http://www.w3.org/2000/svg"
   xmlns:sodipodi="http://sodipodi.sourceforge.net/DTD/sodipodi-0.dtd"
   xmlns:inkscape="http://www.inkscape.org/namespaces/inkscape"
   version="1.1"
   id="Layer_1"
   x="0px"
   y="0px"
   width="98.927536"
   height="99.996468"
   viewBox="0 0 98.927536 99.996468"
   enable-background="new 0 0 100 100"
   xml:space="preserve"
   inkscape:version="0.48.3.1 r9886"
   sodipodi:docname="s_tool.svg"><metadata
   id="metadata25"><rdf:RDF><cc:Work
       rdf:about=""><dc:format>image/svg+xml</dc:format><dc:type
         rdf:resource="http://purl.org/dc/dcmitype/StillImage" /></cc:Work></rdf:RDF></metadata><defs
   id="defs23" /><sodipodi:namedview
   pagecolor="#009674"
   bordercolor="#666666"
   borderopacity="1"
   objecttolerance="10"
   gridtolerance="10"
   guidetolerance="10"
   inkscape:pageopacity="1"
   inkscape:pageshadow="2"
   inkscape:window-width="640"
   inkscape:window-height="480"
   id="namedview21"
   showgrid="false"
   inkscape:zoom="3.337544"
   inkscape:cx="44.231188"
   inkscape:cy="49.251061"
   inkscape:window-x="49"
   inkscape:window-y="24"
   inkscape:window-maximized="0"
   inkscape:current-layer="Layer_1"
   fit-margin-top="0"
   fit-margin-left="0"
   fit-margin-right="0"
   fit-margin-bottom="0" />




<path
   d="m 21.045539,36.941396 58.384,58.04 c 4.448,4.423 11.662,4.423 16.11,0 4.447,-4.421 4.447,-11.592 0,-16.016 l -58.383,-58.04 c 0.712,-5.508 -1.041,-11.2699997 -5.296,-15.4999997 -5.107,-5.07800002 -12.434,-6.584 -18.872,-4.54900002 3.752,3.72700002 6.652,6.67900002 7.565,7.58500002 3.262,3.2439997 4.035,7.7329997 1.728,10.0259997 l -3.684,3.663 c -2.307,2.293 -6.823,1.525 -10.085,-1.718 -0.911,-0.907 -3.88,-3.789 -7.63099997,-7.521 -2.04700003,6.402 -0.532,13.685 4.57599997,18.763 4.255,4.231 10.049,5.974 15.588,5.267 z"
   id="path15"
   style="fill:#ffffff"
   inkscape:connector-curvature="0"
   sodipodi:nodetypes="cccccccccccccc" />
<path
   d="m 20.895539,98.602396 29.443,-29.272 -3.843,-3.822 -27.491,27.33 c -0.651,0.648 -1.795,0.558 -2.556,-0.195 -0.76,-0.759 -0.849,-1.897 -0.198,-2.543 l 27.49,-27.33 -4.405,-4.381 -27.49,27.332 c -0.65,0.645 -1.794,0.557 -2.556,-0.198 -0.761,-0.756 -0.849,-1.896 -0.198,-2.539 l 27.49,-27.332 -3.844,-3.821 -29.443,29.272 c -2.85099997,2.832 -1.22,9.046 3.641,13.877 4.86,4.833 11.109,6.455004 13.96,3.622 z"
   id="path17"
   style="fill:#ffffff"
   inkscape:connector-curvature="0" />
<polygon
   points="98.928,10.264 92.153,3.526 69.45,19.361 67.244,27.537 57.351,37.373 64.886,44.862 74.778,35.026 83.002,32.835 "
   id="polygon19"
   style="fill:#ffffff"
   transform="translate(-4.6096679e-4,3.9627762e-4)" />
</svg>