<?xml version="1.0" encoding="UTF-8" standalone="no"?>
<!-- Generator: Adobe Illustrator 14.0.0, SVG Export Plug-In . SVG Version: 6.00 Build 43363)  -->

<svg
   xmlns:dc="http://purl.org/dc/elements/1.1/"
   xmlns:cc="http://creativecommons.org/ns#"
   xmlns:rdf="http://www.w3.org/1999/02/22-rdf-syntax-ns#"
   xmlns:svg="http://www.w3.org/2000/svg"
   xmlns="http://www.w3.org/2000/svg"
   xmlns:sodipodi="http://sodipodi.sourceforge.net/DTD/sodipodi-0.dtd"
   xmlns:inkscape="http://www.inkscape.org/namespaces/inkscape"
   version="1.0"
   id="Layer_1"
   x="0px"
   y="0px"
   width="82.25"
   height="76.422325"
   viewBox="0 0 82.250001 76.422323"
   enable-background="new 0 0 100 40.213"
   xml:space="preserve"
   inkscape:version="0.48.3.1 r9886"
   sodipodi:docname="snow_proof.svg"><metadata
   id="metadata11"><rdf:RDF><cc:Work
       rdf:about=""><dc:format>image/svg+xml</dc:format><dc:type
         rdf:resource="http://purl.org/dc/dcmitype/StillImage" /></cc:Work></rdf:RDF></metadata><defs
   id="defs9" /><sodipodi:namedview
   pagecolor="#009674"
   bordercolor="#666666"
   borderopacity="1"
   objecttolerance="10"
   gridtolerance="10"
   guidetolerance="10"
   inkscape:pageopacity="1"
   inkscape:pageshadow="2"
   inkscape:window-width="1127"
   inkscape:window-height="715"
   id="namedview7"
   showgrid="false"
   fit-margin-top="0"
   fit-margin-left="0"
   fit-margin-right="0"
   fit-margin-bottom="0"
   inkscape:zoom="5.868284"
   inkscape:cx="12.62146"
   inkscape:cy="38.390005"
   inkscape:window-x="49"
   inkscape:window-y="24"
   inkscape:window-maximized="0"
   inkscape:current-layer="Layer_1"><inkscape:grid
     type="xygrid"
     id="grid3089"
     empspacing="5"
     visible="true"
     enabled="true"
     snapvisiblegridlinesonly="true"
     originx="6.1249997px"
     originy="-9.9999958px" /></sodipodi:namedview>


<g
   id="g3879"
   style="fill:#ffffff"
   transform="matrix(1,0,0,0.8407045,6.125,42.610239)"><path
     inkscape:connector-curvature="0"
     id="path3093"
     d="m 2.5,-4.7812508 0,44.9999998 5,0 0,-44.9999998 -5,0 z"
     style="font-size:medium;font-style:normal;font-variant:normal;font-weight:normal;font-stretch:normal;text-indent:0;text-align:start;text-decoration:none;line-height:normal;letter-spacing:normal;word-spacing:normal;text-transform:none;direction:ltr;block-progression:tb;writing-mode:lr-tb;text-anchor:start;baseline-shift:baseline;color:#000000;fill:#ffffff;fill-opacity:1;stroke:none;stroke-width:5;marker:none;visibility:visible;display:inline;overflow:visible;enable-background:accumulate;font-family:Sans;-inkscape-font-specification:Sans" /><path
     inkscape:connector-curvature="0"
     id="path3095"
     d="m 35,-22.593751 -1.125,0.5625 -40,20.0000003 2.25,4.46875 L 35,-17.000001 73.875,2.4374993 l 2.25,-4.46875 -40,-20.0000003 -1.125,-0.5625 z"
     style="font-size:medium;font-style:normal;font-variant:normal;font-weight:normal;font-stretch:normal;text-indent:0;text-align:start;text-decoration:none;line-height:normal;letter-spacing:normal;word-spacing:normal;text-transform:none;direction:ltr;block-progression:tb;writing-mode:lr-tb;text-anchor:start;baseline-shift:baseline;color:#000000;fill:#ffffff;fill-opacity:1;stroke:none;stroke-width:5;marker:none;visibility:visible;display:inline;overflow:visible;enable-background:accumulate;font-family:Sans;-inkscape-font-specification:Sans" /><path
     inkscape:connector-curvature="0"
     id="path3097"
     d="m 62.5,-4.7812508 0,44.9999998 5,0 0,-44.9999998 -5,0 z"
     style="font-size:medium;font-style:normal;font-variant:normal;font-weight:normal;font-stretch:normal;text-indent:0;text-align:start;text-decoration:none;line-height:normal;letter-spacing:normal;word-spacing:normal;text-transform:none;direction:ltr;block-progression:tb;writing-mode:lr-tb;text-anchor:start;baseline-shift:baseline;color:#000000;fill:#ffffff;fill-opacity:1;stroke:none;stroke-width:5;marker:none;visibility:visible;display:inline;overflow:visible;enable-background:accumulate;font-family:Sans;-inkscape-font-specification:Sans" /></g><path
   inkscape:connector-curvature="0"
   id="path5156"
   d="m 67.909958,21.422317 0.863942,1.275926 h 1.608832 l 0.742269,-1.275926 -0.782026,-1.358714 h -1.61189 l -0.821127,1.358714 z m 0.662537,10.261139 V 28.79848 l -1.61189,0.906538 -0.821128,-0.470089 v -1.016415 l 2.390422,-1.358715 V 24.963714 L 66.79568,26.07821 v -2.008801 l -1.657764,0.955469 v 2.723547 l -0.906757,0.561835 -0.766298,-0.507006 v -1.825309 l -2.516025,1.419442 -1.074521,-0.452177 v -1.151194 l 2.640757,-1.443689 -1.651647,-0.830302 v -1.053332 l 0.937338,-0.513122 2.369014,1.394976 1.645531,-0.949353 -0.03976,-0.03036 -1.682229,-0.964862 1.633298,-1.013575 -1.639414,-0.949354 -2.368795,1.391919 -0.888626,-0.442565 v -1.050274 l 1.603153,-0.900641 -2.558622,-1.389296 V 15.89921 l 0.982993,-0.50657 2.521705,1.456141 v -1.856109 l 0.760181,-0.512904 0.931441,0.537369 -0.0061,2.778157 1.694243,0.967702 -0.0059,-1.962928 1.776815,0.955688 v -1.896084 l -2.390422,-1.361555 v -1.007459 l 0.821128,-0.476206 1.611891,0.906757 v -2.879078 l 0.922266,-0.60465 0.930785,0.60465 v 2.879078 l 1.670215,-0.925106 0.839913,0.555719 v 0.906757 l -2.473211,1.401093 v 1.896084 l 1.691622,-1.031924 v 2.063848 l 1.742957,-0.949789 v -2.970387 l 0.839694,-0.390795 0.882072,0.390795 v 1.899143 l 2.594884,-1.40153 0.907194,0.55266 v 1.074521 l -2.534157,1.441068 1.584585,0.888189 v 1.026026 l -0.821345,0.455017 -2.433018,-1.43801 -1.682447,1.068623 1.627181,1.014013 -1.676112,0.964643 1.731378,0.906539 2.433018,-1.358934 0.781588,0.552661 v 0.980153 l -1.526479,0.857826 2.430397,1.443907 v 1.133283 l -1.028867,0.470089 -2.3878,-1.358934 v 1.798222 L 74.760776,28.315943 73.9213,27.836679 v -2.729661 l -1.767644,-1.00724 v 1.896084 l -1.691622,-1.032143 v 1.896085 l 2.390639,1.358715 v 1.07474 l -0.82484,0.411983 -1.602716,-0.906538 v 2.884976 l -0.930567,0.598096 -0.922048,-0.598315 z"
   style="fill:#ffffff" /><path
   inkscape:connector-curvature="0"
   id="path5156-0"
   d="m 45.505059,10.984835 0.863942,1.275926 h 1.608832 l 0.742269,-1.275926 -0.782026,-1.3587139 h -1.61189 l -0.821127,1.3587139 z m 0.662537,10.261139 v -2.884976 l -1.61189,0.906538 -0.821128,-0.470089 V 17.781032 L 46.125,16.422317 v -1.896085 l -1.734219,1.114496 v -2.008801 l -1.657764,0.955469 v 2.723547 l -0.906757,0.561835 -0.766298,-0.507006 v -1.825309 l -2.516025,1.419442 -1.074521,-0.452177 v -1.151194 l 2.640757,-1.443689 -1.651647,-0.830302 v -1.053332 l 0.937338,-0.513122 2.369014,1.394976 1.645531,-0.949353 -0.03976,-0.03036 L 41.68842,10.96649 43.321718,9.9529151 41.682304,9.0035611 39.313509,10.39548 38.424883,9.9529151 v -1.050274 l 1.603153,-0.900641 -2.558622,-1.389296 v -1.150976 l 0.982993,-0.50657 2.521705,1.456141 v -1.856109 l 0.760181,-0.512904 0.931441,0.537369 -0.0061,2.778157 1.694243,0.967702 -0.0059,-1.962928 1.776815,0.955688 V 5.4221901 L 43.73437,4.0606351 V 3.0531757 l 0.821128,-0.4762061 1.611891,0.9067575 V 0.60464862 L 47.089655,-1.2829595e-6 48.02044,0.60464862 V 3.4837271 l 1.670215,-0.9251065 0.839913,0.5557191 v 0.9067574 l -2.473211,1.401093 v 1.896084 l 1.691622,-1.031924 v 2.063848 l 1.742957,-0.949789 v -2.970387 l 0.839694,-0.390795 0.882072,0.390795 v 1.899143 l 2.594884,-1.40153 0.907194,0.55266 v 1.074521 l -2.534157,1.441068 1.584585,0.888189 v 1.026026 l -0.821345,0.4550169 -2.433018,-1.4380099 -1.682447,1.068623 1.627181,1.0140129 -1.676112,0.964643 1.731378,0.906539 2.433018,-1.358934 0.781588,0.552661 v 0.980153 l -1.526479,0.857826 2.430397,1.443907 v 1.133283 l -1.028867,0.470089 -2.3878,-1.358934 v 1.798222 l -0.857825,0.479264 -0.839476,-0.479264 v -2.729661 l -1.767644,-1.00724 v 1.896084 l -1.691622,-1.032143 v 1.896085 l 2.390639,1.358715 v 1.07474 l -0.82484,0.411983 -1.602716,-0.906538 v 2.884976 l -0.930567,0.598096 -0.922048,-0.598315 z"
   style="fill:#ffffff" /><path
   inkscape:connector-curvature="0"
   id="path5156-7"
   d="m 11.881303,18.744856 0.863942,1.275926 h 1.608831 l 0.742269,-1.275926 -0.782026,-1.358714 H 12.70243 l -0.821127,1.358714 z m 0.662537,10.26114 V 26.12102 l -1.61189,0.906538 -0.821128,-0.470089 v -1.016415 l 2.390422,-1.358715 v -1.896086 l -1.734219,1.114497 v -2.008802 l -1.6577641,0.955469 v 2.723548 L 8.2025039,25.6328 7.4362049,25.125794 v -1.825309 l -2.516025,1.419442 -1.074521,-0.452177 v -1.151194 l 2.640757,-1.44369 -1.651647,-0.830302 v -1.053332 l 0.937338,-0.513122 2.369015,1.394976 1.645531,-0.949353 -0.03976,-0.03036 -1.682229,-0.964862 1.633298,-1.013575 -1.639414,-0.949354 -2.368796,1.391919 -0.888626,-0.442565 v -1.050274 l 1.603153,-0.900641 -2.558622,-1.389296 v -1.150976 l 0.982993,-0.50657 2.521705,1.456141 v -1.856109 l 0.760182,-0.512904 0.931441,0.537369 -0.0061,2.778157 1.6942431,0.967702 -0.0059,-1.962928 1.776815,0.955688 v -1.896084 l -2.390422,-1.361555 v -1.007459 l 0.821128,-0.476206 1.611891,0.906757 V 8.3646698 l 0.922266,-0.60465 0.930784,0.60465 v 2.8790782 l 1.670215,-0.925106 0.839913,0.555719 v 0.906757 L 14.4336,13.182211 v 1.896084 l 1.691622,-1.031924 v 2.063848 l 1.742957,-0.949789 v -2.970387 l 0.839694,-0.390795 0.882072,0.390795 v 1.899143 l 2.594884,-1.40153 0.907194,0.55266 v 1.074521 l -2.534157,1.441068 1.584585,0.888189 v 1.026026 l -0.821345,0.455017 -2.433018,-1.43801 -1.682447,1.068623 1.627181,1.014013 -1.676112,0.964643 1.731378,0.906539 2.433018,-1.358934 0.781588,0.552661 v 0.980153 l -1.526479,0.857826 2.430397,1.443908 v 1.133283 l -1.028867,0.470089 -2.3878,-1.358934 v 1.798222 L 18.73212,25.638483 17.892644,25.159219 V 22.429557 L 16.125,21.422317 v 1.896085 l -1.691622,-1.032144 v 1.896086 l 2.390639,1.358715 v 1.07474 l -0.82484,0.411983 -1.602716,-0.906538 v 2.884976 l -0.930566,0.598096 -0.922048,-0.598315 z"
   style="fill:#ffffff" /><g
   transform="matrix(0.14142807,0,0,0.12452805,13.986295,36.595044)"
   id="g3139"><path
     sodipodi:nodetypes="ccccc"
     inkscape:connector-curvature="0"
     id="rect3135"
     d="M 31.88911,103.12086 247.77445,26.586263 358.2442,118.28339 141.63684,205.64835 z"
     style="fill:#ffffff;fill-opacity:1;stroke:none" /><path
     sodipodi:nodetypes="ccccc"
     inkscape:connector-curvature="0"
     id="rect3135-4"
     d="M 30.848294,111.52289 136.26388,212.60632 135.54185,247.98553 32.292345,146.90209 z"
     style="fill:#ffffff;fill-opacity:1;stroke:none" /><path
     sodipodi:nodetypes="ccccc"
     inkscape:connector-curvature="0"
     id="rect3135-4-8"
     d="m 145.6502,211.52328 213.71926,-85.92092 -7.22025,28.15897 -207.22104,93.14116 z"
     style="fill:#ffffff;fill-opacity:1;stroke:none" /><path
     sodipodi:nodetypes="ccccc"
     inkscape:connector-curvature="0"
     id="rect3135-4-8-1"
     d="m 37.70753,161.34257 93.14116,93.14117 0,54.87387 -90.253061,-102.52749 z"
     style="fill:#ffffff;fill-opacity:1;stroke:none" /><path
     sodipodi:nodetypes="ccccc"
     inkscape:connector-curvature="0"
     id="rect3135-4-8-1-8"
     d="M 139.51298,257.01083 340.2358,167.47979 328.68341,216.57746 138.06894,309.71863 z"
     style="fill:#ffffff;fill-opacity:1;stroke:none" /></g></svg>