<?xml version="1.0" encoding="UTF-8" standalone="no"?>
<svg
   xmlns:dc="http://purl.org/dc/elements/1.1/"
   xmlns:cc="http://creativecommons.org/ns#"
   xmlns:rdf="http://www.w3.org/1999/02/22-rdf-syntax-ns#"
   xmlns:svg="http://www.w3.org/2000/svg"
   xmlns="http://www.w3.org/2000/svg"
   xmlns:sodipodi="http://sodipodi.sourceforge.net/DTD/sodipodi-0.dtd"
   xmlns:inkscape="http://www.inkscape.org/namespaces/inkscape"
   version="1.1"
   id="Layer_1"
   x="0px"
   y="0px"
   width="74.536003"
   height="73.662003"
   viewBox="0 0 74.536003 73.662003"
   enable-background="new 0 0 100 100"
   xml:space="preserve"
   inkscape:version="0.48.3.1 r9886"
   sodipodi:docname="firstaid.svg"><metadata
   id="metadata11"><rdf:RDF><cc:Work
       rdf:about=""><dc:format>image/svg+xml</dc:format><dc:type
         rdf:resource="http://purl.org/dc/dcmitype/StillImage" /></cc:Work></rdf:RDF></metadata><defs
   id="defs9" /><sodipodi:namedview
   pagecolor="#009674"
   bordercolor="#666666"
   borderopacity="1"
   objecttolerance="10"
   gridtolerance="10"
   guidetolerance="10"
   inkscape:pageopacity="1"
   inkscape:pageshadow="2"
   inkscape:window-width="640"
   inkscape:window-height="480"
   id="namedview7"
   showgrid="false"
   fit-margin-top="0"
   fit-margin-left="0"
   fit-margin-right="0"
   fit-margin-bottom="0"
   inkscape:zoom="2.36"
   inkscape:cx="33.194"
   inkscape:cy="32.912"
   inkscape:window-x="49"
   inkscape:window-y="24"
   inkscape:window-maximized="0"
   inkscape:current-layer="Layer_1" />
<polygon
   points="79.953,30.445 85.734,24.664 89.414,28.345 91.342,26.417 74.174,9.25 72.247,11.178 76.101,15.03 70.32,20.812 "
   id="polygon3"
   style="fill:#ffffff"
   transform="translate(-16.806,-9.25)" />
<polygon
   points="58.763,28.522 54.909,32.376 60.689,38.156 58.763,40.083 52.981,34.303 49.127,38.157 54.907,43.938 52.981,45.865 47.2,40.084 31.784,55.5 33.101,63.513 16.806,82.912 37.262,67.673 45.273,68.989 79.958,34.305 66.469,20.815 60.69,26.594 66.471,32.376 64.543,34.303 "
   id="polygon5"
   style="fill:#ffffff"
   transform="translate(-16.806,-9.25)" />
</svg>