<?xml version="1.0" encoding="UTF-8" standalone="no"?>
<!-- Generator: Adobe Illustrator 19.0.0, SVG Export Plug-In . SVG Version: 6.00 Build 0)  -->
<svg xmlns:dc="http://purl.org/dc/elements/1.1/"
   	xmlns:cc="http://creativecommons.org/ns#"
   	xmlns:rdf="http://www.w3.org/1999/02/22-rdf-syntax-ns#"
   	xmlns:svg="http://www.w3.org/2000/svg"
   	xmlns="http://www.w3.org/2000/svg"
   	xmlns:sodipodi="http://sodipodi.sourceforge.net/DTD/sodipodi-0.dtd"
   	xmlns:inkscape="http://www.inkscape.org/namespaces/inkscape"
   	version="1.1"
   	id="Layer_1"
   	x="0px"
   	y="0px"
   	viewBox="0 0 340.63821 267.54867"
   	style="shape-rendering:crispEdges"
   	xml:space="preserve"
   	sodipodi:docname="ads.svg"
   	width="340.63821"
   	height="267.54868"
   	inkscape:version="0.92.1 r15371">
	<metadata id="metadata53">
		<rdf:RDF>
			<cc:Work rdf:about="">
				<dc:format>image/svg+xml</dc:format>
				<dc:type rdf:resource="http://purl.org/dc/dcmitype/StillImage" />
				<dc:title/>
			</cc:Work>
		</rdf:RDF>
	</metadata>
	<defs id="defs51" />
	<sodipodi:namedview pagecolor="#009674"
                  		bordercolor="#666666"
                  		borderopacity="1"
                  		objecttolerance="10"
                  		gridtolerance="10"
                  		guidetolerance="10"
                  		inkscape:pageopacity="0"
                  		inkscape:pageshadow="2"
                  		inkscape:window-width="1920"
                  		inkscape:window-height="1137"
                  		id="namedview49"
                  		showgrid="false"
                  		inkscape:showpageshadow="false"
                  		fit-margin-top="0"
                  		fit-margin-left="0"
                  		fit-margin-right="0"
                  		fit-margin-bottom="0"
                  		inkscape:zoom="2.32"
                  		inkscape:cx="193.24499"
                  		inkscape:cy="119.51896"
                  		inkscape:window-x="-8"
                  		inkscape:window-y="-8"
                  		inkscape:window-maximized="1"
                  		inkscape:current-layer="g12" />
	<g id="g14"
 		transform="translate(493.67243,-647.12168)">
		<g id="g12">
			<path inkscape:connector-curvature="0"
    				id="path2"
    				d="m -271.77299,720.89009 v 0 c 1.68398,-0.0843 3.27886,-0.70909 4.44644,-2.01305 l 62.19826,-62.04196 c 2.42146,-2.37871 2.38786,-6.11351 -0.15842,-8.24346 -2.46207,-2.13417 -6.50363,-1.93179 -8.92439,0.52473 l -62.19824,62.04197 c -2.42147,2.3787 -2.38787,6.11351 0.15841,8.24345 1.27349,1.10388 2.87816,1.56844 4.47794,1.48832 z"
    				style="fill:#ffffff;fill-opacity:1;stroke-width:0.80958807" />
			<path inkscape:connector-curvature="0"
    				id="path4"
    				d="m -245.42659,813.50302 c -3.41708,-1.01668 -7.21528,0.84775 -8.38772,4.11731 -1.17241,3.26954 0.68523,6.81678 4.10231,7.83346 l 87.93836,26.41393 c 1.68832,0.56471 3.54181,0.30516 5.04528,-0.43285 v 0 c 1.50345,-0.738 2.736,-1.99331 3.34243,-3.68446 1.17241,-3.26955 -0.68522,-6.81678 -4.10231,-7.83347 z"
    				style="fill:#ffffff;fill-opacity:1;stroke-width:0.85737664"
    				inkscape:transform-center-y="12.094872" />
			<path inkscape:connector-curvature="0"
    				id="path6"
    				d="m -253.08183,768.95037 72.82427,-16.16861 c 4.00777,-0.88981 7.3313,-4.47059 7.3313,-8.08881 0,-3.53206 -3.32353,-5.7232 -7.3313,-4.83339 l -72.82427,16.16861 c -4.00778,0.88982 -7.3313,4.55675 -7.3313,8.08882 0,3.53206 3.32352,5.7232 7.3313,4.83338 z"
    				style="fill:#ffffff;fill-opacity:1;stroke-width:0.91766155"
    				inkscape:transform-center-x="-9.5031138"
    				inkscape:transform-center-y="14.553625" />
			<path inkscape:connector-curvature="0"
    				id="path8"
    				d="m -323.66144,676.23701 v 0 c -1.21819,-0.52337 -2.61158,-0.40243 -3.73836,0.30842 l -164.34428,104.64136 c -1.51049,0.98984 -2.26426,2.92199 -1.78487,4.77465 l 18.46359,71.35552 c 0.47939,1.85266 2.02231,3.19053 3.87675,3.30969 l 72.58984,4.57806 c -2.27259,15.44328 3.90657,31.39512 16.20719,40.61161 9.87407,7.98746 22.52862,10.64315 34.01205,7.67175 3.73879,-0.96743 7.33231,-2.49628 10.6981,-4.68499 l 0.0534,-0.0138 c 12.66199,-8.54756 19.49759,-23.31465 18.05618,-38.57561 l 42.98689,2.71387 c 0.40293,0.0155 0.84475,-0.0389 1.21863,-0.13563 0.85458,-0.22113 1.58311,-0.70915 2.13218,-1.45021 0.81145,-1.04858 1.11828,-2.50567 0.78416,-3.79692 l -48.72299,-188.29774 c -0.2952,-1.36122 -1.21688,-2.50044 -2.48848,-3.01 z m -18.51537,225.10366 c -10.80155,6.92805 -24.95247,5.97738 -35.27775,-2.43245 -0.068,-0.0423 -0.0825,-0.0984 -0.13588,-0.0846 -9.95697,-7.4269 -14.88552,-20.52765 -12.60999,-33.09648 l 62.28366,3.95033 c 1.55981,12.41503 -3.87593,24.66348 -14.26004,31.66323 z m 60.27227,-37.51922 -185.89468,-11.67913 -16.86565,-65.18 157.00082,-99.98579 z"
    				style="fill:#ffffff;fill-opacity:1;stroke-width:0.56562752" />
			<path inkscape:connector-curvature="0"
    				id="path10"
    				d="m -401.89501,778.74934 c 4.17477,9.75349 17.95151,16.27615 34.33748,16.27615 h 1.6699 c 8.97576,0 16.59473,3.53562 19.09959,8.77813 1.56552,5.2425 -3.33983,10.72885 -11.58499,12.86242 -8.76703,2.01167 -18.47336,0.24384 -23.58746,-4.45004 -2.29612,-2.13357 -7.20148,-2.74316 -10.8544,-1.40206 -3.65291,1.34111 -4.69662,4.20619 -2.40049,6.33977 5.00973,4.51099 12.31557,7.55897 20.6651,8.83911 v 13.41105 c 0,2.49934 3.54856,4.57195 7.8277,4.57195 4.27914,0 7.82769,-2.07261 7.82769,-4.57195 v -13.16721 c 2.19175,-0.24384 4.27914,-0.6096 6.47089,-1.09728 0.10436,0 0.10436,0 0.20874,-0.061 15.02917,-3.71852 23.79618,-13.41105 20.66513,-23.04263 v 0 c 0,-0.12192 0,0.061 0,0 -4.27915,-9.44869 -18.16017,-16.09326 -34.33742,-16.09326 h -1.66993 c -9.0801,0 -16.59469,-3.59659 -19.09955,-9.20487 -1.66991,-5.42537 2.92233,-10.36308 11.48061,-12.37474 0.10436,-0.0611 0.31312,-0.0611 0.41747,-0.12192 8.14081,-2.19453 17.95153,-0.48767 23.37872,4.14523 2.40049,2.07263 7.30585,2.62125 10.85441,1.15824 3.54856,-1.40207 4.48788,-4.26716 1.98301,-6.33977 -5.11409,-4.32812 -12.52431,-7.25417 -20.45637,-8.47336 v -13.6549 c 0,-2.4993 -3.54854,-4.57193 -7.82769,-4.57193 -4.27915,0 -7.8277,2.07263 -7.8277,4.57193 v 13.53299 c -2.29612,0.3048 -4.48787,0.7315 -6.57526,1.28015 -15.34227,3.65755 -23.90056,12.92338 -20.76948,22.6159 0,0.061 0.10436,0.18288 0.10436,0.24383 z"
    				style="fill:#ffffff;fill-opacity:1;stroke-width:0.79763901"
    				sodipodi:nodetypes="csscccsccsssccccccsscccccccsssccccc" />
		</g>
	</g>
	<g id="g18"
 		transform="translate(493.67243,-106.76168)" />
	<g id="g20"
 		transform="translate(493.67243,-106.76168)" />
	<g id="g22"
 		transform="translate(493.67243,-106.76168)" />
	<g id="g24"
 		transform="translate(493.67243,-106.76168)" />
	<g id="g26"
 		transform="translate(493.67243,-106.76168)" />
	<g id="g28"
 		transform="translate(493.67243,-106.76168)" />
	<g id="g30"
 		transform="translate(493.67243,-106.76168)" />
	<g id="g32"
 		transform="translate(493.67243,-106.76168)" />
	<g id="g34"
 		transform="translate(493.67243,-106.76168)" />
	<g id="g36"
 		transform="translate(493.67243,-106.76168)" />
	<g id="g38"
 		transform="translate(493.67243,-106.76168)" />
	<g id="g40"
 		transform="translate(493.67243,-106.76168)" />
	<g id="g42"
 		transform="translate(493.67243,-106.76168)" />
	<g id="g44"
 		transform="translate(493.67243,-106.76168)" />
	<g id="g46"
 		transform="translate(493.67243,-106.76168)" />
</svg>
