<?xml version="1.0" encoding="UTF-8" standalone="no"?>
<svg
   xmlns:dc="http://purl.org/dc/elements/1.1/"
   xmlns:cc="http://creativecommons.org/ns#"
   xmlns:rdf="http://www.w3.org/1999/02/22-rdf-syntax-ns#"
   xmlns:svg="http://www.w3.org/2000/svg"
   xmlns="http://www.w3.org/2000/svg"
   xmlns:sodipodi="http://sodipodi.sourceforge.net/DTD/sodipodi-0.dtd"
   xmlns:inkscape="http://www.inkscape.org/namespaces/inkscape"
   version="1.1"
   id="Layer_1"
   x="0px"
   y="0px"
   width="100px"
   height="52.629px"
   viewBox="0 0 100 52.629"
   enable-background="new 0 0 100 52.629"
   xml:space="preserve"
   inkscape:version="0.48.3.1 r9886"
   sodipodi:docname="aircraft.svg"><metadata
   id="metadata9"><rdf:RDF><cc:Work
       rdf:about=""><dc:format>image/svg+xml</dc:format><dc:type
         rdf:resource="http://purl.org/dc/dcmitype/StillImage" /></cc:Work></rdf:RDF></metadata><defs
   id="defs7" /><sodipodi:namedview
   pagecolor="#009674"
   bordercolor="#666666"
   borderopacity="1"
   objecttolerance="10"
   gridtolerance="10"
   guidetolerance="10"
   inkscape:pageopacity="1"
   inkscape:pageshadow="2"
   inkscape:window-width="640"
   inkscape:window-height="480"
   id="namedview5"
   showgrid="false"
   inkscape:zoom="3.21"
   inkscape:cx="50"
   inkscape:cy="26.314501"
   inkscape:window-x="49"
   inkscape:window-y="24"
   inkscape:window-maximized="0"
   inkscape:current-layer="Layer_1" />
<path
   d="M99.536,43.84c-0.625-0.592-1.608-0.592-2.239,0l-5.527,5.639H76.906v-6.771H89.53c1.204,0,2.396-0.104,3.535-0.318  c1.152-0.229,2.115-0.82,2.884-1.816c0.664-0.775,1.003-1.855,1.003-3.308c0-1.002-0.3-2.239-0.84-3.782l-4.779-11.393  c-1.523-3.502-3.535-5.951-6.021-7.318c-2.468-1.399-5.078-2.063-7.825-2.063H58.358V3.639h5.599  c0.332,0.56,0.736,0.911,1.172,1.067c0.424,0.176,0.808,0.248,1.14,0.248h26.9c0.873,0,1.523-0.248,1.96-0.736  s0.716-1.067,0.82-1.731c0-0.56-0.208-1.107-0.645-1.647C94.849,0.28,94.146,0,93.169,0H67.265c-1.211,0-1.992,0.156-2.383,0.417  c-0.384,0.287-0.696,0.631-0.925,1.087H48.625c-0.208-0.228-0.456-0.508-0.735-0.84c-0.261-0.332-0.788-0.488-1.556-0.488h-27.22  c-0.436,0-0.944,0.188-1.575,0.579c-0.593,0.397-0.892,1.016-0.892,1.908c0,0.853,0.299,1.536,0.892,1.959  c0.631,0.456,1.106,0.664,1.419,0.664h27.376c0.208,0,0.56-0.091,1.068-0.248c0.488-0.156,0.892-0.573,1.224-1.243H54.4v8.913  H19.954c-0.768-1.875-2.012-3.451-3.711-4.707c-1.712-1.263-3.659-1.895-5.859-1.895c-2.858,0-5.287,1.016-7.337,3.047  C1.003,11.185,0,13.632,0,16.503c0,2.852,1.003,5.267,3.047,7.246c2.051,1.999,4.479,2.975,7.337,2.975  c3.288,0,5.878-1.205,7.734-3.639l22.435,8.417l2.962,7.402c0.436,0.892,1.016,1.731,1.731,2.578c0.716,0.82,2.24,1.224,4.551,1.224  h9.974v6.771H43.515c-0.879,0-1.595,0.703-1.595,1.575s0.716,1.575,1.595,1.575h49.003c0.494,0,0.898-0.26,1.158-0.631l5.859-5.912  C100.154,45.468,100.154,44.472,99.536,43.84z M81.281,17.33c1.419,0.417,2.663,1.12,3.698,2.044  c1.048,0.944,2.012,2.396,2.903,4.375c0.208,0.664,0.488,1.387,0.82,2.155c0.319,0.749,0.651,1.576,0.983,2.468h-8.405V17.33z   M8.49,19.146c0.807,0.541,1.667,0.983,2.559,1.296l3.307,1.328c-1.224,0.879-2.559,1.315-3.971,1.315  c-1.875,0-3.47-0.632-4.798-1.888c-1.315-1.263-1.959-2.819-1.959-4.694c0-1.888,0.645-3.444,1.959-4.707  c1.328-1.263,2.923-1.888,4.798-1.888c2.304,0,4.108,0.925,5.442,2.8h-4.622c-1.087,0-2.031,0.312-2.8,0.996  c-0.768,0.645-1.139,1.575-1.139,2.799C7.266,17.714,7.669,18.587,8.49,19.146z M69.732,16.835h7.422v11.38h-7.422V16.835z   M58.358,16.992h7.259v11.38h-7.259V16.992z M62.382,42.707h11.901v6.771H62.382V42.707z"
   id="path3"
   style="fill:#ffffff" />
</svg>