<?xml version="1.0" encoding="UTF-8" standalone="no"?>
<svg
   xmlns:dc="http://purl.org/dc/elements/1.1/"
   xmlns:cc="http://creativecommons.org/ns#"
   xmlns:rdf="http://www.w3.org/1999/02/22-rdf-syntax-ns#"
   xmlns:svg="http://www.w3.org/2000/svg"
   xmlns="http://www.w3.org/2000/svg"
   xmlns:sodipodi="http://sodipodi.sourceforge.net/DTD/sodipodi-0.dtd"
   xmlns:inkscape="http://www.inkscape.org/namespaces/inkscape"
   version="1.1"
   id="Layer_1"
   x="0px"
   y="0px"
   width="96.648315"
   height="91.324417"
   viewBox="0 0 96.648315 91.324417"
   enable-background="new 0 0 100 100"
   xml:space="preserve"
   inkscape:version="0.48.3.1 r9886"
   sodipodi:docname="cave.svg"><metadata
   id="metadata17"><rdf:RDF><cc:Work
       rdf:about=""><dc:format>image/svg+xml</dc:format><dc:type
         rdf:resource="http://purl.org/dc/dcmitype/StillImage" /></cc:Work></rdf:RDF></metadata><defs
   id="defs15" /><sodipodi:namedview
   pagecolor="#009674"
   bordercolor="#666666"
   borderopacity="1"
   objecttolerance="10"
   gridtolerance="10"
   guidetolerance="10"
   inkscape:pageopacity="1"
   inkscape:pageshadow="2"
   inkscape:window-width="640"
   inkscape:window-height="480"
   id="namedview13"
   showgrid="false"
   fit-margin-top="0"
   fit-margin-left="0"
   fit-margin-right="0"
   fit-margin-bottom="0"
   inkscape:zoom="2.36"
   inkscape:cx="48.458464"
   inkscape:cy="45.507205"
   inkscape:window-x="49"
   inkscape:window-y="24"
   inkscape:window-maximized="0"
   inkscape:current-layer="Layer_1" />
<path
   clip-rule="evenodd"
   d="m 46.907464,77.122209 10.893,-22.282 -0.926,-3.263 -6.188,6.407 c -1.939,1.721 -4.82,-1.219 -2.925,-3.116 l 10.76,-12.333 c 1.177,-0.837 1.705,-1.131 2.908,-1.762 1.354,-0.632 1.648,-0.632 2.914,0.513 l 9.627,9.805 c 0.353,0.383 0.47,0.294 0.604,1.131 v 4.806 c 0,2.133 -3.97,2.104 -4,-0.027 v -3.75 l -3.602,-2.586 -1.307,3.57 c 2.997,8.012 5.451,15.273 8.451,23.254 1.354,3.78 -3.291,5.631 -5.13,1.972 l -7.495,-19.919 c -3.381,6.852 -6.365,13.35 -9.747,20.169 -1.926,3.527 -6.689,0.809 -4.837,-2.589 z"
   id="path3"
   inkscape:connector-curvature="0"
   style="fill-rule:evenodd;fill:#ffffff" />
<path
   d="m 71.804464,81.730209 c -1.271,0 -2.392,-0.78 -3.075,-2.141 l -7.272,-19.324 c -1.525,3.103 -2.992,6.174 -4.412,9.15 -1.618,3.389 -3.291,6.893 -5.042,10.423 -0.63,1.155 -1.635,1.812 -2.763,1.812 -1.056,0 -2.089,-0.591 -2.632,-1.505 -0.563,-0.949 -0.547,-2.071 0.047,-3.161 l 10.838,-22.172 -0.759,-2.676 -5.841,6.048 c -0.453,0.403 -0.971,0.608 -1.514,0.608 0,0 0,0 0,0 -0.981,0 -1.945,-0.673 -2.345,-1.636 -0.367,-0.885 -0.176,-1.793 0.523,-2.492 l 10.747,-12.319 c 1.231,-0.885 1.766,-1.185 2.991,-1.827 0.653,-0.305 1.051,-0.458 1.445,-0.458 0.576,0 1.038,0.327 1.796,1.012 l 9.639,9.816 c 0.077,0.084 0.138,0.14 0.19,0.188 0.27,0.251 0.383,0.411 0.492,1.099 l 0.004,4.852 c 0,1.287 -1.17,1.873 -2.257,1.873 -1.139,0 -2.302,-0.651 -2.319,-1.896 v -3.606 l -3.174,-2.278 -1.14,3.114 c 1.448,3.872 2.789,7.626 4.087,11.257 1.372,3.839 2.791,7.809 4.327,11.896 0.426,1.188 0.33,2.308 -0.267,3.155 -0.522,0.744 -1.388,1.187 -2.314,1.188 z m -10.278,-22.911 7.729,20.54 c 0.57,1.131 1.503,1.795 2.548,1.795 0.739,0 1.429,-0.353 1.844,-0.942 0.486,-0.69 0.557,-1.623 0.197,-2.626 -1.536,-4.088 -2.956,-8.06 -4.329,-11.901 -1.308,-3.66 -2.66,-7.444 -4.12,-11.349 l -0.037,-0.1 1.474,-4.026 4.029,2.894 v 3.897 c 0.013,0.909 0.913,1.324 1.743,1.324 0.81,0 1.681,-0.405 1.681,-1.297 v -4.806 c -0.085,-0.512 -0.143,-0.564 -0.313,-0.723 -0.062,-0.058 -0.132,-0.123 -0.215,-0.213 l -9.62,-9.798 c -0.719,-0.649 -1.048,-0.851 -1.397,-0.851 -0.285,0 -0.638,0.14 -1.189,0.397 -1.188,0.623 -1.711,0.917 -2.863,1.736 l -10.71,12.287 c -0.734,0.735 -0.572,1.492 -0.412,1.879 0.308,0.742 1.07,1.28 1.813,1.28 0.406,0 0.781,-0.15 1.116,-0.448 l 6.521,-6.751 1.093,3.85 -10.943,22.382 c -0.499,0.915 -0.519,1.835 -0.063,2.603 0.441,0.743 1.28,1.224 2.137,1.224 0.924,0 1.724,-0.534 2.252,-1.502 1.743,-3.517 3.415,-7.019 5.032,-10.405 1.513,-3.169 3.077,-6.444 4.71,-9.754 l 0.292,-0.596 z"
   id="path5"
   inkscape:connector-curvature="0"
   style="fill:#ffffff" />
<path
   clip-rule="evenodd"
   d="m 58.858464,32.349209 c 2,0 3.646,1.647 3.646,3.632 0,1.998 -1.646,3.63 -3.646,3.63 -1.984,0 -3.63,-1.632 -3.63,-3.63 10e-4,-1.984 1.646,-3.632 3.63,-3.632 z"
   id="path7"
   inkscape:connector-curvature="0"
   style="fill-rule:evenodd;fill:#ffffff" />
<path
   d="m 58.858464,39.899209 c -2.16,0 -3.918,-1.758 -3.918,-3.918 0,-2.162 1.758,-3.92 3.918,-3.92 2.169,0 3.934,1.758 3.934,3.92 0,2.16 -1.765,3.918 -3.934,3.918 z m 0,-7.262 c -1.812,0 -3.342,1.531 -3.342,3.344 0,1.843 1.499,3.342 3.342,3.342 1.852,0 3.357,-1.499 3.357,-3.342 0.001,-1.844 -1.505,-3.344 -3.357,-3.344 z"
   id="path9"
   inkscape:connector-curvature="0"
   style="fill:#ffffff" />
<path
   clip-rule="evenodd"
   d="m 0.40146359,19.401209 c -0.765,4.63 1.98400001,11.892 -0.397,16.976 -0.088,6.042 1.16000001,11.54 0.677,17.858 -0.235,2.75 -1,5.939 -0.323,8.645 0.85300001,3.425 3.83600001,8.789 4.60100001,13.023 2.616,1.586 1.529,7.659 4.277,9.835 1.7200004,0.22 5.6890004,0.307 5.6890004,1.704 1.293,0 9.819,0.044 9.819,1.354 4.276,0 8.377,1.982 12.757,2.35 3.999,0.311 7.57,0.397 12.023,-1.307 6.542,0.354 13.566,-0.089 20.153,-0.089 l 14.375,-0.41 c 1.442,0 2.617,-0.544 4.864,-1.941 1.179,-1.176 2.883,-1.984 4.412,-3.425 0.822,-1.852 2.791,-3.16 2.983,-5.498 0.544,-6.939 0.484,-12.479 -0.587,-19.462 l -2.883,-25.017 c -0.54,-5.866 0.223,-12.891 0.764,-18.758 0.224,-3.32 -1.482,-7.5249999 -2.306,-10.4929999 -0.264,0 -2.515,-3.426 -3.688,-3.92499998 -5.001,0.67699998 -13.113,1.67399998 -16.229,1.17599998 -4.453,-0.721 -12.127,-2.66199998 -18.653,-1.76499998 -2.66,0.367 -13.479,0.411 -16.727,1.80799998 l -18.433,0.176 c -4.41,0 -9.1430004,1.266 -12.7000004,3.425 -2.439,4.3819999 -3.836,10.0549999 -4.46800001,13.7599999 M 17.481464,9.1692091 c 1.895,-1.411 7.894,-0.822 9.29,-0.822 1.132,2.2629999 1.852,5.3659999 2.028,12.0819999 l -0.044,8.746 c 0.178,2.381 2.337,2.573 2.337,0 l 0.044,-12.171 c 0,-2.484 1,-6.805 1.544,-7.9359999 1.207,-2.513 2.072,-2.469 3.322,-0.353 1.588,2.5279999 2.22,8.2889999 2.22,10.1419999 0.264,1.837 2.16,1.662 2.073,0 0,-2.617 1.484,-10.0989999 3.909,-12.1259999 1.31,-1.088 2.617,-1.176 5.557,-1.044 0.485,0.736 0.896,2.263 1.117,3.661 0.5,2.9689999 0.853,5.9519999 0.853,7.5249999 0,2.072 2.176,2.47 2.176,-0.087 0,-2.265 0.265,-5.865 0.396,-6.63 0.234,-1.2649999 0.413,-3.2939999 1.677,-3.9239999 1.983,-1.03 5.939,-0.486 6.849,1.264 2.118,4.1429999 3.47,11.5819999 3.146,16.8589999 -0.131,2.924 2.439,2.66 2.439,0 0,-1.486 0.044,-5.012 0.501,-6.174 0.677,-1.718 1.617,-4.909 2.881,-5.364 0.396,-3.2059999 6.482,-0.896 8.597,-1.178 2.442,-0.263 4.425,-1.7919999 6,-3.0559999 l 1.674,14.0079999 c 0.177,1.529 0.266,4.733 0.809,6.086 0.088,3.792 0.543,10.098 0.81,12.76 l 0.265,16.491 -0.531,13.567 c 0,1.027 -0.819,6.629 -2.114,6.629 0,1.293 -3.792,3.469 -5.102,3.469 0,2.645 -8.202,1.309 -9.776,1.309 l -19.194,-0.236 h -15.969 c -1.308,0 -7.701,0.501 -7.701,-1.072 -3.47,0 -3.97,-8.393 -4.367,-11.01 -0.675,-4.454 -1.719,-8.921 -1.719,-14.228 0.175,-1.896 -1.897,-2.397 -1.897,0 0,5.04 -2.116,8.731 -4.233,13.022 -2.572,-5.585 -6.525,-9.878 -6.525,-17.037 0,-0.853 -0.324,-4.645 -0.235,-7.216 0.044,-1.397 -1.8370004,-1.485 -1.8370004,-0.178 0,0.721 -0.912,6.676 -1.133,7.66 -0.22,1 -0.808,3.704 -1.352,4.278 -1.441,-3.649 -1.808,-11.717 -1.808,-15.45 0,-4.015 -0.545,-9.336 1.043,-12.76 0.764,-1.618 2.881,-4.645 2.116,-6.482 0.265,-0.588 0.265,-0.323 0,-0.867 0.265,-0.765 0,-3.558 1.574,-3.558 0,-0.499 3.3360004,-2.837 3.8370004,-2.837 0.852,-1.896 0.939,-3.792 1.748,-3.792 0,-1.2049999 1.853,-1.6609999 2.705,-1.9699999 z"
   id="path11"
   inkscape:connector-curvature="0"
   style="fill-rule:evenodd;fill:#ffffff" />
</svg>