<?xml version="1.0" encoding="UTF-8" standalone="no"?>
<svg
   xmlns:dc="http://purl.org/dc/elements/1.1/"
   xmlns:cc="http://creativecommons.org/ns#"
   xmlns:rdf="http://www.w3.org/1999/02/22-rdf-syntax-ns#"
   xmlns:svg="http://www.w3.org/2000/svg"
   xmlns="http://www.w3.org/2000/svg"
   xmlns:sodipodi="http://sodipodi.sourceforge.net/DTD/sodipodi-0.dtd"
   xmlns:inkscape="http://www.inkscape.org/namespaces/inkscape"
   width="91.990845"
   height="91.990845"
   viewBox="0 0 73.592676 73.592676"
   version="1.1"
   id="svg2"
   inkscape:version="0.48.3.1 r9886"
   sodipodi:docname="compass.svg">
  <metadata
     id="metadata10">
    <rdf:RDF>
      <cc:Work
         rdf:about="">
        <dc:format>image/svg+xml</dc:format>
        <dc:type
           rdf:resource="http://purl.org/dc/dcmitype/StillImage" />
        <dc:title />
      </cc:Work>
    </rdf:RDF>
  </metadata>
  <defs
     id="defs8">
    <marker
       inkscape:stockid="Arrow1Send"
       orient="auto"
       refY="0"
       refX="0"
       id="Arrow1Send"
       style="overflow:visible">
      <path
         id="path3785"
         d="M 0,0 5,-5 -12.5,0 5,5 0,0 z"
         style="fill-rule:evenodd;stroke:#000000;stroke-width:1pt;marker-start:none"
         transform="matrix(-0.2,0,0,-0.2,-1.2,0)"
         inkscape:connector-curvature="0" />
    </marker>
    <marker
       inkscape:stockid="Arrow2Sstart"
       orient="auto"
       refY="0"
       refX="0"
       id="Arrow2Sstart"
       style="overflow:visible">
      <path
         id="path3800"
         style="font-size:12px;fill-rule:evenodd;stroke-width:0.625;stroke-linejoin:round"
         d="M 8.7185878,4.0337352 -2.2072895,0.01601326 8.7185884,-4.0017078 c -1.7454984,2.3720609 -1.7354408,5.6174519 -6e-7,8.035443 z"
         transform="matrix(0.3,0,0,0.3,-0.69,0)"
         inkscape:connector-curvature="0" />
    </marker>
    <marker
       inkscape:stockid="Arrow1Lstart"
       orient="auto"
       refY="0"
       refX="0"
       id="Arrow1Lstart"
       style="overflow:visible">
      <path
         id="path3770"
         d="M 0,0 5,-5 -12.5,0 5,5 0,0 z"
         style="fill-rule:evenodd;stroke:#000000;stroke-width:1pt;marker-start:none"
         transform="matrix(0.8,0,0,0.8,10,0)"
         inkscape:connector-curvature="0" />
    </marker>
  </defs>
  <sodipodi:namedview
     pagecolor="#009674"
     bordercolor="#666666"
     borderopacity="1"
     objecttolerance="10"
     gridtolerance="10"
     guidetolerance="10"
     inkscape:pageopacity="1"
     inkscape:pageshadow="2"
     inkscape:window-width="1317"
     inkscape:window-height="744"
     id="namedview6"
     showgrid="true"
     inkscape:zoom="6.4897761"
     inkscape:cx="26.58027"
     inkscape:cy="53.231157"
     inkscape:window-x="49"
     inkscape:window-y="24"
     inkscape:window-maximized="1"
     inkscape:current-layer="svg2"
     fit-margin-top="0"
     fit-margin-left="0"
     fit-margin-right="0"
     fit-margin-bottom="0">
    <inkscape:grid
       type="xygrid"
       id="grid3761"
       empspacing="5"
       visible="true"
       enabled="true"
       snapvisiblegridlinesonly="true"
       originx="-2.8546916px"
       originy="-3.48913px" />
  </sodipodi:namedview>
  <g
     id="g3041"
     transform="matrix(-0.24587194,0.37331924,-0.37331924,-0.24587194,80.184655,21.506857)"
     style="fill:#ffffff;stroke:none" />
  <path
     style="font-size:medium;font-style:normal;font-variant:normal;font-weight:normal;font-stretch:normal;text-indent:0;text-align:start;text-decoration:none;line-height:normal;letter-spacing:normal;word-spacing:normal;text-transform:none;direction:ltr;block-progression:tb;writing-mode:lr-tb;text-anchor:start;baseline-shift:baseline;color:#000000;fill:#ffffff;fill-opacity:1;stroke:none;stroke-width:4;marker:none;visibility:visible;display:inline;overflow:visible;enable-background:accumulate;font-family:Sans;-inkscape-font-specification:Sans"
     d="m 36.773341,0 c 20.297027,0 36.819337,16.522311 36.819337,36.819337 0,20.297026 -16.52231,36.773341 -36.819337,36.773341 C 16.476315,73.592678 0,57.116363 0,36.819337 0,16.522311 16.476315,0 36.773341,0 z m 0,4.231579 c -18.0129,0 -32.564759,14.574858 -32.564759,32.587758 0,18.0129 14.551859,32.564759 32.564759,32.564759 18.0129,0 32.587758,-14.551859 32.587758,-32.564759 0,-18.0129 -14.574858,-32.587758 -32.587758,-32.587758 z M 57.2873,12.510755 54.757552,19.80103 c -0.153918,-0.572714 -0.420647,-1.108248 -0.758925,-1.563844 l -13.821624,16.88032 c 0.295786,0.529973 0.482952,1.120792 0.482952,1.770824 0,2.032206 -1.647428,3.679634 -3.679634,3.679634 -0.388659,0 -0.752212,-0.0723 -1.10389,-0.183982 l -12.717735,15.546453 -1.517849,4.346568 c -0.511637,-1.903761 -2.168541,-3.28056 -4.11659,-3.380664 l 3.886613,-2.299771 12.671739,-15.47746 c -0.48247,-0.622436 -0.781922,-1.382291 -0.781922,-2.230778 0,-2.032206 1.647428,-3.679634 3.679634,-3.679634 0.582748,0 1.120144,0.1498 1.60984,0.390961 L 52.296797,16.857323 c -0.51414,-0.243378 -1.064463,-0.406568 -1.655836,-0.436957 L 57.2873,12.510755 z"
     id="path2991"
     inkscape:connector-curvature="0" />
  <g
     id="g5321"
     transform="translate(-2.2837533,-3.6160183)"
     style="fill:#ffffff" />
  <text
     xml:space="preserve"
     style="font-size:18.88252449px;font-style:normal;font-weight:bold;line-height:125%;letter-spacing:0px;word-spacing:0px;fill:#ffffff;fill-opacity:1;stroke:none;font-family:Sans;-inkscape-font-specification:Sans Bold"
     x="28.894814"
     y="20.38398"
     id="text2993"
     sodipodi:linespacing="125%"><tspan
       sodipodi:role="line"
       id="tspan2995"
       x="28.894814"
       y="20.38398">N</tspan></text>
  <text
     xml:space="preserve"
     style="font-size:18.88252449px;font-style:normal;font-weight:bold;line-height:125%;letter-spacing:0px;word-spacing:0px;fill:#ffffff;fill-opacity:1;stroke:none;font-family:Sans;-inkscape-font-specification:Sans Bold"
     x="30.010431"
     y="66.812782"
     id="text2997"
     sodipodi:linespacing="125%"><tspan
       sodipodi:role="line"
       id="tspan2999"
       x="30.010431"
       y="66.812782">S</tspan></text>
</svg>
