<?xml version="1.0" encoding="UTF-8" standalone="no"?>
<!-- Generator: Adobe Illustrator 14.0.0, SVG Export Plug-In . SVG Version: 6.00 Build 43363)  -->

<svg
   xmlns:dc="http://purl.org/dc/elements/1.1/"
   xmlns:cc="http://creativecommons.org/ns#"
   xmlns:rdf="http://www.w3.org/1999/02/22-rdf-syntax-ns#"
   xmlns:svg="http://www.w3.org/2000/svg"
   xmlns="http://www.w3.org/2000/svg"
   xmlns:sodipodi="http://sodipodi.sourceforge.net/DTD/sodipodi-0.dtd"
   xmlns:inkscape="http://www.inkscape.org/namespaces/inkscape"
   version="1.0"
   id="Layer_1"
   x="0px"
   y="0px"
   width="98.618px"
   height="100px"
   viewBox="0 0 98.618 100"
   enable-background="new 0 0 98.618 100"
   xml:space="preserve"
   inkscape:version="0.47 r22583"
   sodipodi:docname="dangerousanimals.svg"><metadata
   id="metadata12"><rdf:RDF><cc:Work
       rdf:about=""><dc:format>image/svg+xml</dc:format><dc:type
         rdf:resource="http://purl.org/dc/dcmitype/StillImage" /></cc:Work></rdf:RDF></metadata><defs
   id="defs10"><inkscape:perspective
     sodipodi:type="inkscape:persp3d"
     inkscape:vp_x="0 : 50 : 1"
     inkscape:vp_y="0 : 1000 : 0"
     inkscape:vp_z="98.617996 : 50 : 1"
     inkscape:persp3d-origin="49.308998 : 33.333333 : 1"
     id="perspective14" /></defs><sodipodi:namedview
   pagecolor="#009674"
   bordercolor="#666666"
   borderopacity="1"
   objecttolerance="10"
   gridtolerance="10"
   guidetolerance="10"
   inkscape:pageopacity="1"
   inkscape:pageshadow="2"
   inkscape:window-width="640"
   inkscape:window-height="504"
   id="namedview8"
   showgrid="false"
   inkscape:zoom="2.36"
   inkscape:cx="49.308998"
   inkscape:cy="50"
   inkscape:window-x="0"
   inkscape:window-y="24"
   inkscape:window-maximized="0"
   inkscape:current-layer="Layer_1" />
<path
   id="path5730"
   d="M92.998,7.127h5.62V4.997l-4.997,0.024V0h-2.093v5.62l-2.58,2.567l1.483,1.47L92.998,7.127z"
   style="fill:#ffffff" />
<path
   id="path5732"
   d="M12.3,82.518c-0.686-0.661-1.759-0.661-2.418,0c-0.661,0.686-0.647,1.757,0,2.417l5.184,5.184  c0.686,0.647,1.757,0.647,2.417,0c0.661-0.686,0.661-1.757,0-2.417L12.3,82.518z"
   style="fill:#ffffff" />
<path
   id="path5734"
   d="M7.813,86.979c-0.648-0.661-1.732-0.661-2.405,0.024c-0.659,0.648-0.659,1.72,0.013,2.405l5.196,5.184  c0.662,0.661,1.732,0.661,2.405-0.024c0.661-0.66,0.661-1.732-0.024-2.38L7.813,86.979z"
   style="fill:#ffffff" />
<path
   id="path5736"
   d="M6.841,99.266c0.512,0.073,1.047-0.075,1.434-0.462c0.661-0.686,0.661-1.757,0-2.418l-4.623-4.599  c-0.661-0.672-1.746-0.672-2.405,0c-0.437,0.438-0.585,1.048-0.437,1.607l1.459,4.487L6.841,99.266z"
   style="fill:#ffffff" />
<path
   id="path5738"
   d="M76.736,27.725l-2.68,2.704c-0.847,0.935-1.37,2.168-1.37,3.539c0,1.458,0.599,2.766,1.545,3.726  l15.464,15.453c4.961,4.96,8.025,11.825,8.025,19.39C97.721,87.701,85.446,100,70.294,100c-15.165,0-27.452-12.299-27.452-27.464  l0.063-37.471c0-9.309-7.54-16.848-16.861-16.848c-9.296,0-16.835,7.539-16.835,16.848c0,4.648,1.869,8.86,4.935,11.926  l12.561,12.548c2.579,2.566,4.161,6.118,4.161,10.03c0,3.926-1.583,7.477-4.161,10.032l-6.455,6.442l-6.256-6.281l6.579-6.467  c0.848-0.947,1.358-2.192,1.358-3.552c0-1.433-0.584-2.778-1.531-3.727L6.916,52.709C2.63,48.087,0,41.869,0,35.065  C0,20.723,11.639,9.122,25.969,9.122s25.944,11.602,25.944,25.943l-0.025,37.471c0,10.181,8.237,18.404,18.406,18.404  c10.156,0,18.404-8.224,18.404-18.404c0-5.06-2.068-9.658-5.407-12.997L67.938,44.087c-2.578-2.58-4.161-6.106-4.161-10.019  c0-3.925,1.583-7.477,4.161-10.055l3.889-3.901c0.25-0.236,0.386-0.585,0.386-0.946c0-0.312-0.087-0.612-0.286-0.847l-2.068-2.394  c-0.249-0.336-0.386-0.747-0.386-1.209c0,0-1.396-3.501,11.377-6.592c1.819-0.435,3.912-0.31,5.32,1.085l3.314,2.867  c1.359,1.433,1.446,3.525,0.96,5.346c-3.363,12.698-6.829,11.24-6.829,11.24c-0.46-0.013-0.872-0.163-1.208-0.411l-2.343-2.131  c-0.237-0.199-0.523-0.298-0.836-0.312c-0.36-0.012-0.723,0.137-0.959,0.374L76.736,27.725"
   style="fill:#ffffff" />
</svg>