<?xml version="1.0" encoding="UTF-8" standalone="no"?>
<svg
   xmlns:dc="http://purl.org/dc/elements/1.1/"
   xmlns:cc="http://creativecommons.org/ns#"
   xmlns:rdf="http://www.w3.org/1999/02/22-rdf-syntax-ns#"
   xmlns:svg="http://www.w3.org/2000/svg"
   xmlns="http://www.w3.org/2000/svg"
   xmlns:sodipodi="http://sodipodi.sourceforge.net/DTD/sodipodi-0.dtd"
   xmlns:inkscape="http://www.inkscape.org/namespaces/inkscape"
   version="1.1"
   x="0px"
   y="0px"
   width="100px"
   height="100px"
   viewBox="0 0 100 100"
   enable-background="new 0 0 100 100"
   xml:space="preserve"
   id="svg2"
   inkscape:version="0.48.4 r9939"
   sodipodi:docname="icon_12799.svg"><metadata
     id="metadata185"><rdf:RDF><cc:Work
         rdf:about=""><dc:format>image/svg+xml</dc:format><dc:type
           rdf:resource="http://purl.org/dc/dcmitype/StillImage" /></cc:Work></rdf:RDF></metadata><defs
     id="defs183" /><sodipodi:namedview
     pagecolor="#009674"
     bordercolor="#666666"
     borderopacity="1"
     objecttolerance="10"
     gridtolerance="10"
     guidetolerance="10"
     inkscape:pageopacity="1"
     inkscape:pageshadow="2"
     inkscape:window-width="886"
     inkscape:window-height="766"
     id="namedview181"
     showgrid="false"
     inkscape:zoom="3.337544"
     inkscape:cx="51.050396"
     inkscape:cy="56.834157"
     inkscape:window-x="0"
     inkscape:window-y="0"
     inkscape:window-maximized="0"
     inkscape:current-layer="svg2" /><g
     id="Captions"
     display="none"><rect
       x="-330"
       display="inline"
       width="185"
       height="99"
       id="rect5" /><rect
       x="-138"
       y="-36"
       display="inline"
       width="100"
       height="30"
       id="rect7" /><text
       transform="matrix(1 0 0 1 -72 -19.5)"
       display="inline"
       fill="#000000"
       font-family="'Helvetica'"
       font-size="2.4"
       id="text9">http://thenounproject.com</text>
<text
       transform="matrix(1 0 0 1 -130.834 -24.5)"
       display="inline"
       id="text11"><tspan
         x="0"
         y="0"
         fill="#000000"
         font-family="'Helvetica-Bold'"
         font-size="6.1578"
         id="tspan13">The Noun Project</tspan><tspan
         x="1.12"
         y="4.8"
         fill="#000000"
         font-family="'Helvetica-Bold'"
         font-size="4"
         id="tspan15">Icon Template</tspan></text>
<text
       transform="matrix(1 0 0 1 -316.5 10.5)"
       display="inline"
       fill="#000000"
       font-family="'Helvetica-Bold'"
       font-size="6.1578"
       id="text17">Reminders</text>
<line
       display="inline"
       fill="#000000"
       stroke="#FFFFFF"
       stroke-miterlimit="10"
       x1="-130"
       y1="-14.5"
       x2="-120"
       y2="-14.5"
       id="line19" /><line
       display="inline"
       fill="#000000"
       stroke="#FFFFFF"
       stroke-miterlimit="10"
       x1="-317"
       y1="16.5"
       x2="-300"
       y2="16.5"
       id="line21" /><g
       display="inline"
       id="g23"><g
         id="g25"><g
           id="g27"><rect
             x="-308.802"
             y="31.318"
             fill="#000000"
             width="8.721"
             height="8.642"
             id="rect29" /><path
             fill="#000000"
             d="M-302.455,42.312h4.747v-4.703h-4.747V42.312z M-297.266,42.749h-5.63V37.17h5.63V42.749      L-297.266,42.749z M-304.221,44.062h8.279v-8.203h-8.279V44.062L-304.221,44.062z M-295.5,44.5h-9.163v-9.079h9.163V44.5      L-295.5,44.5z"
             id="path31" /><polygon
             fill="#000000"
             points="-304.149,44.133 -304.292,43.991 -296.013,35.787 -295.871,35.929     "
             id="polygon33" /></g></g></g><rect
       x="-317"
       y="58"
       display="inline"
       fill="none"
       width="35"
       height="32.5"
       id="rect35" /><text
       transform="matrix(1 0 0 1 -317 60.1572)"
       display="inline"
       id="text37"><tspan
         x="0"
         y="0"
         fill="#000000"
         font-family="'Helvetica-Bold'"
         font-size="3"
         id="tspan39">Strokes</tspan><tspan
         x="0"
         y="5"
         fill="#000000"
         font-family="'Helvetica'"
         font-size="2.4"
         id="tspan41">Try to keep strokes at 4px</tspan><tspan
         x="0"
         y="10"
         fill="#000000"
         font-family="'Helvetica'"
         font-size="2.4"
         id="tspan43">Minimum stroke weight is 2px</tspan><tspan
         x="0"
         y="14.5"
         fill="#000000"
         font-family="'Helvetica'"
         font-size="2.4"
         id="tspan45">For thicker strokes use even </tspan><tspan
         x="0"
         y="17.5"
         fill="#000000"
         font-family="'Helvetica'"
         font-size="2.4"
         id="tspan47">numbers: 6px, 8px etc.</tspan><tspan
         x="0"
         y="22"
         fill="#000000"
         font-family="'Helvetica-Bold'"
         font-size="2.4"
         id="tspan49">Remember to expand strokes </tspan><tspan
         x="0"
         y="25"
         fill="#000000"
         font-family="'Helvetica-Bold'"
         font-size="2.4"
         id="tspan51">before saving as an SVG </tspan></text>
<rect
       x="-274.5"
       y="58"
       display="inline"
       fill="none"
       width="35"
       height="32.5"
       id="rect53" /><text
       transform="matrix(1 0 0 1 -274.5 60.1572)"
       display="inline"
       id="text55"><tspan
         x="0"
         y="0"
         fill="#000000"
         font-family="'Helvetica-Bold'"
         font-size="3"
         id="tspan57">Size</tspan><tspan
         x="0"
         y="5"
         fill="#000000"
         font-family="'Helvetica'"
         font-size="2.4"
         id="tspan59">Cannot be wider or taller than </tspan><tspan
         x="0"
         y="8.5"
         fill="#000000"
         font-family="'Helvetica'"
         font-size="2.4"
         id="tspan61">100px (artboard size)</tspan><tspan
         x="0"
         y="13.5"
         fill="#000000"
         font-family="'Helvetica'"
         font-size="2.4"
         id="tspan63">Scale your icon to fill as much of </tspan><tspan
         x="0"
         y="16.5"
         fill="#000000"
         font-family="'Helvetica'"
         font-size="2.4"
         id="tspan65">the artboard as possible</tspan></text>
<rect
       x="-232"
       y="58"
       display="inline"
       fill="none"
       width="35"
       height="32.5"
       id="rect67" /><text
       transform="matrix(1 0 0 1 -232 60.1572)"
       display="inline"
       id="text69"><tspan
         x="0"
         y="0"
         fill="#000000"
         font-family="'Helvetica-Bold'"
         font-size="3"
         id="tspan71">Ungroup</tspan><tspan
         x="0"
         y="5"
         fill="#000000"
         font-family="'Helvetica'"
         font-size="2.4"
         id="tspan73">If your design has more than one </tspan><tspan
         x="0"
         y="8"
         fill="#000000"
         font-family="'Helvetica'"
         font-size="2.4"
         id="tspan75">shape, make sure to ungroup</tspan></text>
<rect
       x="-188"
       y="58"
       display="inline"
       fill="none"
       width="35"
       height="32.5"
       id="rect77" /><text
       transform="matrix(1 0 0 1 -188 60.1572)"
       display="inline"
       id="text79"><tspan
         x="0"
         y="0"
         fill="#000000"
         font-family="'Helvetica-Bold'"
         font-size="3"
         id="tspan81">Save as</tspan><tspan
         x="0"
         y="5"
         fill="#000000"
         font-family="'Helvetica'"
         font-size="2.4"
         id="tspan83">Save as .SVG and make sure </tspan><tspan
         x="0"
         y="8"
         fill="#000000"
         font-family="'Helvetica'"
         font-size="2.4"
         id="tspan85">“Use Artboards” is checked</tspan></text>
<text
       transform="matrix(1.0074 0 0 1 -263.542 30.5933)"
       display="inline"
       fill="#000000"
       font-family="'Helvetica'"
       font-size="2.5731"
       id="text87">100px</text>
<text
       transform="matrix(1.0074 0 0 1 -179 39)"
       display="inline"
       fill="#000000"
       font-family="'Helvetica-Bold'"
       font-size="5.1462"
       id="text89">.SVG</text>
<rect
       x="-264.514"
       y="34.815"
       display="inline"
       fill="#000000"
       width="10.261"
       height="10.185"
       id="rect91" /><rect
       x="-264.477"
       y="31.766"
       display="inline"
       fill="#000000"
       width="0.522"
       height="2.337"
       id="rect93" /><rect
       x="-254.812"
       y="31.766"
       display="inline"
       fill="#000000"
       width="0.523"
       height="2.337"
       id="rect95" /><rect
       x="-265"
       y="32.337"
       display="inline"
       fill="#000000"
       width="11.233"
       height="0.572"
       id="rect97" /><g
       display="inline"
       id="g99"><rect
         x="-221.805"
         y="33.844"
         fill="#000000"
         width="10.305"
         height="10.156"
         id="rect101" /><rect
         x="-214.809"
         y="28.707"
         fill="#000000"
         width="3.308"
         height="3.261"
         id="rect103" /></g><rect
       x="-316.5"
       y="22.5"
       display="inline"
       fill="#000000"
       stroke="#FFFFFF"
       stroke-miterlimit="10"
       width="30"
       height="30"
       id="rect105" /><rect
       x="-274.5"
       y="22.5"
       display="inline"
       fill="#000000"
       stroke="#FFFFFF"
       stroke-miterlimit="10"
       width="30"
       height="30"
       id="rect107" /><rect
       x="-231.5"
       y="22.5"
       display="inline"
       fill="#000000"
       stroke="#FFFFFF"
       stroke-miterlimit="10"
       width="30"
       height="30"
       id="rect109" /><rect
       x="-187.5"
       y="22.5"
       display="inline"
       fill="#000000"
       stroke="#FFFFFF"
       stroke-miterlimit="10"
       width="30"
       height="30"
       id="rect111" /></g><g
     id="g4020"><g
       style="fill:#ffffff;fill-opacity:1"
       transform="matrix(0.71137313,0,0,0.75181598,27.517809,27.276029)"
       id="g3196"><path
         style="fill:#ffffff;fill-opacity:1"
         inkscape:connector-curvature="0"
         id="path153"
         d="M 65.8,16 H 25.802 C 22.203,16 19,18.666 19,22.264 V 86 H 34 V 71.205 c -1.204,0.574 -2,1.012 -2,1.012 v -3.712 c 0,0 6.719,-3.8 13,-3.8 6.285,0 13,3.8 13,3.8 v 3.712 c 0,0 -0.723,-0.466 -2,-1.068 V 86 H 72 V 22.264 C 72,18.666 69.397,16 65.8,16 z M 30,69 h -4 v -4 h 4 v 4 z m 4,-6 h -8 v -8 h 8 v 8 z m 0,-11 h -8 v -8 h 8 v 8 z m 0,-11 h -8 v -8 h 8 v 8 z m 0,-11 h -8 v -8 h 8 v 8 z m 10,33 h -8 v -8 h 8 v 8 z m 0,-11 h -8 v -8 h 8 v 8 z m 0,-11 h -8 v -8 h 8 v 8 z m 0,-11 h -8 v -8 h 8 v 8 z m 11,33 h -9 v -8 h 9 v 8 z m 0,-11 h -9 v -8 h 9 v 8 z m 0,-11 h -9 v -8 h 9 v 8 z m 0,-11 h -9 v -8 h 9 v 8 z m 11,39 h -4 v -4 h 4 v 4 z m 0,-6 h -9 v -8 h 9 v 8 z m 0,-11 h -9 v -8 h 9 v 8 z m 0,-11 h -9 v -8 h 9 v 8 z m 0,-11 h -9 v -8 h 9 v 8 z" /><rect
         style="fill:#ffffff;fill-opacity:1"
         id="rect155"
         height="15"
         width="18"
         y="71"
         x="36" /><path
         style="fill:#ffffff;fill-opacity:1"
         inkscape:connector-curvature="0"
         id="path157"
         d="M 88,22.847 C 88,20.723 86.277,19 84.152,19 H 77.847 C 75.723,19 74,20.723 74,22.847 V 72.152 C 74,74.277 75.723,76 77.848,76 h 6.305 C 86.277,76 88,74.277 88,72.152 V 22.847 z m -8.021,1.242 0.938,-1.899 0.938,1.899 2.094,0.304 -1.516,1.478 0.357,2.088 -1.873,-0.985 -1.875,0.985 0.357,-2.088 -1.516,-1.478 2.096,-0.304 z m 0,8.152 0.938,-1.898 0.938,1.898 2.094,0.305 -1.516,1.478 0.357,2.088 -1.873,-0.986 -1.875,0.986 0.357,-2.088 -1.516,-1.478 2.096,-0.305 z m 0,8.153 0.938,-1.899 0.938,1.899 2.094,0.304 -1.516,1.479 0.357,2.087 -1.873,-0.986 -1.875,0.986 0.357,-2.087 -1.516,-1.479 2.096,-0.304 z m 0,8.133 0.938,-1.898 0.938,1.898 2.094,0.305 -1.516,1.479 0.357,2.087 -1.873,-0.986 -1.875,0.986 0.357,-2.087 -1.516,-1.479 2.096,-0.305 z m 0,8.154 0.938,-1.898 0.938,1.898 2.094,0.305 -1.516,1.478 0.357,2.087 -1.873,-0.984 -1.875,0.984 0.357,-2.087 -1.516,-1.478 2.096,-0.305 z M 85,71 h -2 v -2 h -3 v 2 h -2 v -6 h 2 v 2 h 3 v -2 h 2 v 6 z" /></g><g
       id="g4009"><path
         inkscape:connector-curvature="0"
         style="fill:#86947c;fill-opacity:0;fill-rule:evenodd;stroke:#ffffff;stroke-width:1.00630820000000010;stroke-linecap:butt;stroke-linejoin:round;stroke-miterlimit:4;stroke-opacity:1;stroke-dasharray:none"
         d="M 38.007731,10.671692 28.7818,30.353362 17.594801,26.536004 4.4021676,12.208546 21.739786,4.8713065 38.007731,10.671692 z"
         id="path17385"
         sodipodi:nodetypes="cccccc" /><path
         inkscape:connector-curvature="0"
         style="fill:#86947c;fill-opacity:0;fill-rule:evenodd;stroke:#ffffff;stroke-width:1.00630820000000010;stroke-linecap:butt;stroke-linejoin:round;stroke-miterlimit:4;stroke-opacity:1;stroke-dasharray:none"
         d="M 17.594801,26.536004 4.4021676,12.208543 21.739786,4.8713038 27.191904,6.7788261 10.904218,13.623337 22.781817,27.925538 17.594801,26.536004 z"
         id="path19326"
         sodipodi:nodetypes="ccccccc" /><path
         inkscape:connector-curvature="0"
         style="fill:#86947c;fill-opacity:0;fill-rule:evenodd;stroke:#ffffff;stroke-width:1.00630820000000010;stroke-linecap:butt;stroke-linejoin:round;stroke-miterlimit:4;stroke-opacity:1;stroke-dasharray:none"
         d="m 37.265006,19.846473 -2.193883,5.21326 C 31.444708,22.457561 20.36224,17.764379 22.57283,15.384604 c 2.245163,-2.416994 9.163623,1.001319 14.692176,4.461869 z"
         id="path20297"
         sodipodi:nodetypes="cczc" /><path
         style="fill:#5d5d5d;fill-opacity:0;fill-rule:evenodd;stroke:#ffffff;stroke-width:1.00630820000000010;stroke-linecap:butt;stroke-linejoin:round;stroke-miterlimit:4;stroke-opacity:1;stroke-dasharray:none;opacity:1"
         d="m 53.154857,34.390597 c -0.621253,1.978859 -1.242505,3.957718 -1.86376,5.936604 -12.614126,6.46729 -21.574721,6.336217 -39.138796,0 0.154119,-2.783022 0.443123,-6.040852 3.009326,-7.709328 2.566202,-1.668449 6.294058,-0.717983 9.272932,-1.99125 1.785469,-0.57765 2.969027,-1.400014 4.760619,-3.027231 1.791593,-1.627217 4.020028,-4.594325 5.780219,-6.521338 1.76019,-1.927014 3.035529,-3.280967 5.276935,-4.251174 2.241406,-0.970179 6.371976,-0.604554 7.85635,-0.401391 1.473996,0.20173 3.408713,0.94699 4.519342,2.326335 -0.967693,0.256097 -3.311069,-0.04006 -3.293043,1.865802 0.171057,2.151669 -1.357754,3.132807 -2.699829,4.276645 -0.873729,1.006795 -0.372718,2.556748 -1.666647,3.136442 -0.06081,1.723903 0.540658,3.387788 1.42073,4.916594 0.918875,1.5962 1.873843,2.624195 3.178424,3.566436 1.304582,0.942267 2.757741,-1.039723 3.587198,-2.123146 z"
         id="path13486"
         sodipodi:nodetypes="ccczczzzzcccczzc"
         inkscape:connector-curvature="0" /><path
         style="fill:#d4af8b;fill-opacity:0;fill-rule:evenodd;stroke:#ffffff;stroke-width:1.00630820000000010;stroke-linecap:butt;stroke-linejoin:round;stroke-miterlimit:4;stroke-opacity:1;stroke-dasharray:none"
         d="m 53.070138,34.27632 c -1.09637,1.321556 -2.282616,3.065412 -3.587197,2.123145 -1.304582,-0.94224 -2.25955,-1.970236 -3.178425,-3.566435 -0.880071,-1.528806 -1.48154,-3.192692 -1.420729,-4.916595 1.293928,-0.579694 0.792917,-2.129646 1.666647,-3.136442 1.342074,-1.143838 2.870885,-2.124976 2.699828,-4.276645 -0.01803,-1.905893 2.70365,-1.587497 3.356075,-1.550324 0.683858,0.03898 4.450696,0.582082 5.685916,0.503411 0.854834,-0.674469 1.774329,-1.796816 2.334688,-2.184676 0.545763,-0.37775 1.270445,-1.32214 1.959902,-1.0441 2.15366,0.157553 1.631952,2.892231 1.515033,4.689764 -0.309955,2.352125 -3.160102,2.989156 -5.990902,5.312626 -2.098196,1.773441 -1.914692,1.91916 -3.174901,3.930734 -1.260209,2.011574 -0.769565,2.79398 -1.865935,4.115537 z"
         id="path16414"
         sodipodi:nodetypes="ccccczzczccczz"
         inkscape:connector-curvature="0" /><path
         style="fill:none;stroke:#ffffff;stroke-width:1.25788521999999992;stroke-linecap:round;stroke-linejoin:miter;stroke-miterlimit:4;stroke-opacity:1;stroke-dasharray:none"
         d="m 62.150199,18.946417 c 0.04417,1.203405 -0.348712,2.005737 -0.974812,2.304154"
         id="path26307"
         sodipodi:nodetypes="cc"
         inkscape:connector-curvature="0" /><path
         id="path27278"
         d="m 51.320824,29.530093 c 0.374049,-0.0138 2.371075,-0.996341 2.640216,-1.14734 -0.645634,1.247078 -1.144624,1.510418 -1.810399,3.121556 -0.293319,0.889281 -0.818086,2.059679 -1.6798,2.651179 -1.275788,-1.035769 -1.386305,-3.058912 -1.975705,-4.585224 -1.606846,-1.145987 -2.689829,-3.108979 -4.153164,-2.812791 -0.347847,-0.894322 0.187692,-1.600472 0.204283,-2.423951 0.671314,3.866604 4.888334,5.241969 6.774569,5.196571 z"
         class="fil58"
         style="fill:#ffffff;fill-rule:nonzero;stroke:#ffffff;stroke-width:1.00630820000000010;stroke-linecap:round;stroke-linejoin:round;stroke-miterlimit:4;stroke-opacity:1;stroke-dasharray:none;fill-opacity:1"
         sodipodi:nodetypes="cccccccc"
         inkscape:connector-curvature="0" /><path
         id="path28251"
         d="m 51.851074,31.893151 c -0.223914,0.211866 -1.897417,0.296957 -2.29179,0.194672 -0.154691,-0.38112 -0.281497,-1.523552 -0.496729,-1.978116 0.29965,0.0082 3.081347,0.274988 4.014288,-0.640507 -0.401123,0.450637 -1.354459,2.474549 -1.225769,2.423951 l 0,0 z"
         class="fil59"
         style="fill:#000000;fill-rule:nonzero;fill-opacity:1"
         inkscape:connector-curvature="0" /><path
         style="fill:none;stroke:#ffffff;stroke-width:1.00630820000000010;stroke-linecap:round;stroke-linejoin:round;stroke-miterlimit:4;stroke-opacity:1;stroke-dasharray:none"
         d="m 42.419084,21.989091 c 1.203954,-0.387674 1.43805,-1.089737 2.495352,-1.550722 1.057303,-0.460985 1.061696,-0.389292 1.73386,-0.29319 0.672163,0.0961 0.954793,0.677627 0.954793,0.677627"
         id="path30216"
         sodipodi:nodetypes="czzc"
         inkscape:connector-curvature="0" /></g></g></svg>