<?xml version="1.0" encoding="UTF-8" standalone="no"?>
<svg
   xmlns:dc="http://purl.org/dc/elements/1.1/"
   xmlns:cc="http://creativecommons.org/ns#"
   xmlns:rdf="http://www.w3.org/1999/02/22-rdf-syntax-ns#"
   xmlns:svg="http://www.w3.org/2000/svg"
   xmlns="http://www.w3.org/2000/svg"
   xmlns:sodipodi="http://sodipodi.sourceforge.net/DTD/sodipodi-0.dtd"
   xmlns:inkscape="http://www.inkscape.org/namespaces/inkscape"
   version="1.1"
   x="0px"
   y="0px"
   width="100px"
   height="100px"
   viewBox="0 0 100 100"
   enable-background="new 0 0 100 100"
   xml:space="preserve"
   id="svg2"
   inkscape:version="0.48.4 r9939"
   sodipodi:docname="historic_site.svg"><metadata
     id="metadata12"><rdf:RDF><cc:Work
         rdf:about=""><dc:format>image/svg+xml</dc:format><dc:type
           rdf:resource="http://purl.org/dc/dcmitype/StillImage" /></cc:Work></rdf:RDF></metadata><defs
     id="defs10" /><sodipodi:namedview
     pagecolor="#009674"
     bordercolor="#666666"
     borderopacity="1"
     objecttolerance="10"
     gridtolerance="10"
     guidetolerance="10"
     inkscape:pageopacity="1"
     inkscape:pageshadow="2"
     inkscape:window-width="1878"
     inkscape:window-height="1060"
     id="namedview8"
     showgrid="false"
     inkscape:zoom="6.675088"
     inkscape:cx="35.113858"
     inkscape:cy="49.767912"
     inkscape:window-x="-2"
     inkscape:window-y="-3"
     inkscape:window-maximized="1"
     inkscape:current-layer="Your_Icon" /><g
     id="Captions" /><g
     id="Your_Icon"><path
       clip-rule="evenodd"
       d="M65.873,61.23h8.231v-5.849l-0.355-1.43l-0.596-1.314l-0.956-1.192l-0.955-0.956   l-1.192-0.835h-0.122l-1.07,0.835l-0.959,0.956l-0.952,1.192l-0.596,1.314l-0.359,1.43l-0.118,1.433V61.23 M100,96.308H0v-5.01   l8.351-6.681V26.149h8.235V3H28.28v13.244h10.027V3h11.691v34.96h8.354V22.926h11.575V37.96h10.027V22.926h11.694v61.691   L100,91.298V96.308z M16.467,47.149l-0.359,0.357l-0.475,0.239l-0.596,0.241l-0.6-0.241l-0.478-0.239l-0.355-0.357l-0.241-0.596   v-0.836l0.241-0.597l0.478-0.239l0.596-0.237h0.596l0.478,0.237l0.478,0.361l0.237,0.235h5.969v-6.084l-0.359-0.357L21.84,38.44   l-0.122-0.479l0.122-0.596l0.237-0.476l0.359-0.357l0.596-0.361h0.24l0.711,0.239l0.481,0.24l0.355,0.357l0.119,0.718v0.474   l-0.119,0.479l-0.478,0.474l-0.241,0.241v6.084h6.088l0.359-0.476l0.596-0.357h1.074l0.478,0.357l0.718,0.955v0.356l-0.122,0.598   l-0.359,0.478l-0.478,0.357l-0.596,0.241h-0.474l-0.596-0.241l-0.359-0.478l-0.24-0.119h-6.088v5.967l0.481,0.475l0.356,0.361   v1.311l-0.356,0.357l-0.481,0.357l-0.474,0.241h-0.956l-0.359-0.359l-0.474-0.355l-0.122-0.599V54.31l0.122-0.479l0.474-0.475   l0.122-0.239v-5.967H16.467z M16.586,82.943h13.368v-8.469l-0.119-1.791l-0.478-1.907l-0.596-1.79l-0.837-1.672l-1.196-1.55   l-1.311-1.311l-1.433-1.194l-0.711-0.361h0.115l-1.548,1.076l-1.433,1.311l-1.314,1.55l-0.955,1.555l-0.715,1.669l-0.478,1.912   l-0.24,1.907l-0.119,0.597V82.943z"
       id="path6"
       fill-rule="evenodd"
       style="fill-rule:evenodd;fill:#ffffff;fill-opacity:1" /></g></svg>