<?xml version="1.0" encoding="UTF-8" standalone="no"?>
<svg
   xmlns:dc="http://purl.org/dc/elements/1.1/"
   xmlns:cc="http://creativecommons.org/ns#"
   xmlns:rdf="http://www.w3.org/1999/02/22-rdf-syntax-ns#"
   xmlns:svg="http://www.w3.org/2000/svg"
   xmlns="http://www.w3.org/2000/svg"
   xmlns:sodipodi="http://sodipodi.sourceforge.net/DTD/sodipodi-0.dtd"
   xmlns:inkscape="http://www.inkscape.org/namespaces/inkscape"
   version="1.1"
   id="Layer_1"
   x="0px"
   y="0px"
   width="149.59375"
   height="149.59375"
   viewBox="0 0 149.59375 149.59375"
   enable-background="new 0 0 100 100"
   xml:space="preserve"
   inkscape:version="0.48.3.1 r9886"
   sodipodi:docname="hunting.svg"><metadata
   id="metadata21"><rdf:RDF><cc:Work
       rdf:about=""><dc:format>image/svg+xml</dc:format><dc:type
         rdf:resource="http://purl.org/dc/dcmitype/StillImage" /></cc:Work></rdf:RDF></metadata><defs
   id="defs19" /><sodipodi:namedview
   pagecolor="#009674"
   bordercolor="#666666"
   borderopacity="1"
   objecttolerance="10"
   gridtolerance="10"
   guidetolerance="10"
   inkscape:pageopacity="1"
   inkscape:pageshadow="2"
   inkscape:window-width="1113"
   inkscape:window-height="535"
   id="namedview17"
   showgrid="false"
   fit-margin-top="0"
   fit-margin-left="0"
   fit-margin-right="0"
   fit-margin-bottom="0"
   inkscape:zoom="2.36"
   inkscape:cx="43.04317"
   inkscape:cy="73.178249"
   inkscape:window-x="49"
   inkscape:window-y="24"
   inkscape:window-maximized="0"
   inkscape:current-layer="Layer_1" />



<path
   style="fill:#ffffff;fill-opacity:1;stroke:none"
   d="m 74.78125,7.8437469 c -36.974995,0 -66.9375,29.9625051 -66.9375,66.9375001 0,36.974993 29.962505,66.968753 66.9375,66.968753 36.975,0 66.96875,-29.99376 66.96875,-66.968753 0,-36.974995 -29.99375,-66.9375001 -66.96875,-66.9375001 z m 0,11.2187501 c 30.77349,0 55.75,24.945257 55.75,55.71875 0,30.773493 -24.97651,55.750003 -55.75,55.750003 -30.773493,0 -55.71875,-24.97651 -55.71875,-55.750003 0,-30.773493 24.945257,-55.71875 55.71875,-55.71875 z"
   id="path2992"
   inkscape:connector-curvature="0" /><path
   style="fill:#ffffff;fill-opacity:1;stroke:none"
   d="m 66.96875,-1.1547685e-7 0,44.09375011547685 15.65625,0 0,-44.09375011547685 -15.65625,0 z m 0,105.53125011547685 0,44.0625 15.65625,0 0,-44.0625 -15.65625,0 z"
   id="rect2999"
   inkscape:connector-curvature="0" /><path
   inkscape:connector-curvature="0"
   style="fill:#ffffff;fill-opacity:1;stroke:none"
   d="m 149.59375,66.96875 -44.09375,0 0,15.65625 44.09375,0 0,-15.65625 z m -105.53125,0 -44.0625,0 0,15.65625 44.0625,0 0,-15.65625 z"
   id="rect2999-0" /></svg>