<?xml version="1.0" encoding="UTF-8" standalone="no"?>
<!-- Generator: Adobe Illustrator 14.0.0, SVG Export Plug-In . SVG Version: 6.00 Build 43363)  -->

<svg
   xmlns:dc="http://purl.org/dc/elements/1.1/"
   xmlns:cc="http://creativecommons.org/ns#"
   xmlns:rdf="http://www.w3.org/1999/02/22-rdf-syntax-ns#"
   xmlns:svg="http://www.w3.org/2000/svg"
   xmlns="http://www.w3.org/2000/svg"
   xmlns:sodipodi="http://sodipodi.sourceforge.net/DTD/sodipodi-0.dtd"
   xmlns:inkscape="http://www.inkscape.org/namespaces/inkscape"
   version="1.0"
   id="Layer_1"
   x="0px"
   y="0px"
   width="54.127998"
   height="47.76738"
   viewBox="0 0 54.127999 47.767379"
   enable-background="new 0 0 100 40.213"
   xml:space="preserve"
   inkscape:version="0.48.3.1 r9886"
   sodipodi:docname="in_water.svg"><metadata
   id="metadata11"><rdf:RDF><cc:Work
       rdf:about=""><dc:format>image/svg+xml</dc:format><dc:type
         rdf:resource="http://purl.org/dc/dcmitype/StillImage" /></cc:Work></rdf:RDF></metadata><defs
   id="defs9" /><sodipodi:namedview
   pagecolor="#009674"
   bordercolor="#666666"
   borderopacity="1"
   objecttolerance="10"
   gridtolerance="10"
   guidetolerance="10"
   inkscape:pageopacity="1"
   inkscape:pageshadow="2"
   inkscape:window-width="1127"
   inkscape:window-height="715"
   id="namedview7"
   showgrid="false"
   fit-margin-top="0"
   fit-margin-left="0"
   fit-margin-right="0"
   fit-margin-bottom="0"
   inkscape:zoom="7.5654772"
   inkscape:cx="22.536386"
   inkscape:cy="34.495556"
   inkscape:window-x="49"
   inkscape:window-y="24"
   inkscape:window-maximized="0"
   inkscape:current-layer="Layer_1"><inkscape:grid
     type="xygrid"
     id="grid3089"
     empspacing="5"
     visible="true"
     enabled="true"
     snapvisiblegridlinesonly="true"
     originx="-7.8374461px"
     originy="-1.4673006px" /></sodipodi:namedview>


<path
   inkscape:connector-curvature="0"
   d="m 54.128001,6.4840166 c -1.173072,0 -2.305055,-0.255796 -3.329974,-0.714146 -1.03823,-0.485549 -2.210724,-0.768544 -3.437038,-0.768544 -1.213583,0 -2.386077,0.282995 -3.424307,0.768544 -1.01103,0.45835 -2.157481,0.714146 -3.343286,0.714146 -1.172493,0 -2.318366,-0.255796 -3.329396,-0.714146 -1.034757,-0.485549 -2.207251,-0.768544 -3.434723,-0.768544 -1.213583,0 -2.386077,0.282995 -3.424306,0.768544 -1.024341,0.45835 -2.156902,0.714146 -3.342707,0.714146 -1.172493,0 -2.318366,-0.255796 -3.329396,-0.714146 -1.037651,-0.485549 -2.210723,-0.768544 -3.437617,-0.768544 -1.213583,0 -2.386077,0.282995 -3.437617,0.768544 -1.011609,0.45835 -2.143592,0.714146 -3.32303,0.714146 -1.186382,0 -2.318944,-0.255796 -3.329974,-0.714146 -1.037651,-0.485549 -2.210723,-0.768544 -3.437038,-0.768544 -1.226893,0 -2.399387,0.282995 -3.437617,0.768544 C 2.318367,6.2282206 1.186384,6.4840166 0,6.4840166 v -4.988018 c 1.186384,0 2.318367,-0.269106 3.329396,-0.72803404 1.03823,-0.48497 2.210724,-0.7679656035233 3.437617,-0.7679656035233 1.226315,0 2.399387,0.2829956035233 3.437038,0.7679656035233 1.01103,0.45892804 2.143592,0.72803404 3.329974,0.72803404 1.179439,0 2.312,-0.269106 3.32303,-0.72803404 1.051541,-0.48497 2.224034,-0.7679656035233 3.437617,-0.7679656035233 1.226894,0 2.399387,0.2829956035233 3.437617,0.7679656035233 1.011031,0.45892804 2.156903,0.72803404 3.329397,0.72803404 1.186383,0 2.318944,-0.269106 3.342706,-0.72803404 1.03823,-0.48497 2.210723,-0.7679656035233 3.424306,-0.7679656035233 1.226894,0 2.399388,0.2829956035233 3.434724,0.7679656035233 1.011029,0.45892804 2.156902,0.72803404 3.329395,0.72803404 1.186384,0 2.332257,-0.269106 3.343286,-0.72803404 1.03823,-0.48497 2.210724,-0.7679656035233 3.424307,-0.7679656035233 1.226315,0 2.399387,0.2829956035233 3.437038,0.7679656035233 1.024919,0.45892804 2.156902,0.72803404 3.329975,0.72803404 v 4.988018 z"
   id="path3115-2-7"
   style="fill:#ffffff" /><g
   transform="matrix(0.14516035,0,0,0.12781434,-0.00364189,8.1808966)"
   id="g3139"><path
     sodipodi:nodetypes="ccccc"
     inkscape:connector-curvature="0"
     id="rect3135"
     d="M 31.88911,103.12086 247.77445,26.586263 358.2442,118.28339 141.63684,205.64835 z"
     style="fill:#ffffff;fill-opacity:1;stroke:none" /><path
     sodipodi:nodetypes="ccccc"
     inkscape:connector-curvature="0"
     id="rect3135-4"
     d="M 30.848294,111.52289 136.26388,212.60632 135.54185,247.98553 32.292345,146.90209 z"
     style="fill:#ffffff;fill-opacity:1;stroke:none" /><path
     sodipodi:nodetypes="ccccc"
     inkscape:connector-curvature="0"
     id="rect3135-4-8"
     d="m 145.6502,211.52328 213.71926,-85.92092 -7.22025,28.15897 -207.22104,93.14116 z"
     style="fill:#ffffff;fill-opacity:1;stroke:none" /><path
     sodipodi:nodetypes="ccccc"
     inkscape:connector-curvature="0"
     id="rect3135-4-8-1"
     d="m 37.70753,161.34257 93.14116,93.14117 0,54.87387 -90.253061,-102.52749 z"
     style="fill:#ffffff;fill-opacity:1;stroke:none" /><path
     sodipodi:nodetypes="ccccc"
     inkscape:connector-curvature="0"
     id="rect3135-4-8-1-8"
     d="M 139.51298,257.01083 340.2358,167.47979 328.68341,216.57746 138.06894,309.71863 z"
     style="fill:#ffffff;fill-opacity:1;stroke:none" /></g></svg>