<?xml version="1.0" encoding="UTF-8" standalone="no"?>
<svg
   xmlns:dc="http://purl.org/dc/elements/1.1/"
   xmlns:cc="http://creativecommons.org/ns#"
   xmlns:rdf="http://www.w3.org/1999/02/22-rdf-syntax-ns#"
   xmlns:svg="http://www.w3.org/2000/svg"
   xmlns="http://www.w3.org/2000/svg"
   xmlns:sodipodi="http://sodipodi.sourceforge.net/DTD/sodipodi-0.dtd"
   xmlns:inkscape="http://www.inkscape.org/namespaces/inkscape"
   version="1.1"
   x="0px"
   y="0px"
   width="71.096977"
   height="71.156075"
   viewBox="0 0 71.096977 71.156075"
   enable-background="new 0 0 100 100"
   xml:space="preserve"
   id="svg2"
   inkscape:version="0.48.3.1 r9886"
   sodipodi:docname="investigation.svg"><metadata
   id="metadata16"><rdf:RDF><cc:Work
       rdf:about=""><dc:format>image/svg+xml</dc:format><dc:type
         rdf:resource="http://purl.org/dc/dcmitype/StillImage" /></cc:Work></rdf:RDF></metadata><defs
   id="defs14" /><sodipodi:namedview
   pagecolor="#009674"
   bordercolor="#666666"
   borderopacity="1"
   objecttolerance="10"
   gridtolerance="10"
   guidetolerance="10"
   inkscape:pageopacity="1"
   inkscape:pageshadow="2"
   inkscape:window-width="640"
   inkscape:window-height="480"
   id="namedview12"
   showgrid="false"
   fit-margin-top="0"
   fit-margin-left="0"
   fit-margin-right="0"
   fit-margin-bottom="0"
   inkscape:zoom="2.36"
   inkscape:cx="35.893"
   inkscape:cy="35.170074"
   inkscape:window-x="49"
   inkscape:window-y="24"
   inkscape:window-maximized="0"
   inkscape:current-layer="svg2" />
<g
   id="Captions"
   transform="matrix(-1,0,0,1,85.203975,-14.014)"
   style="fill:#ffffff">
</g>
<g
   id="Your_Icon"
   transform="matrix(-1,0,0,1,85.203975,-14.014)"
   style="fill:#ffffff">
	<g
   id="g6"
   style="fill:#ffffff">
		<g
   id="g8"
   style="fill:#ffffff">
			<path
   clip-rule="evenodd"
   d="m 64.816,55.141 -0.893,-0.893 c -0.096,-0.096 -0.198,-0.181 -0.298,-0.27 2.301,-3.934 3.625,-8.507 3.625,-13.392 0,-14.677 -11.896,-26.572 -26.572,-26.572 -14.675,0 -26.571,11.896 -26.571,26.572 0,14.673 11.896,26.574 26.571,26.574 4.854,0 9.4,-1.309 13.317,-3.582 0.093,0.105 0.183,0.213 0.283,0.313 l 0.931,0.931 c 1.761,-1.084 4.038,-2.612 5.493,-4.068 1.55,-1.549 3.094,-3.911 4.114,-5.613 z m -24.157,4.003 c -10.25,0 -18.559,-8.309 -18.559,-18.559 0,-10.251 8.309,-18.559 18.559,-18.559 10.25,0 18.558,8.308 18.558,18.559 0,10.25 -8.308,18.559 -18.558,18.559 z M 82.846,73.168 66.623,56.946 c -0.68,1.359 -1.938,3.222 -4.263,5.547 -2.208,2.209 -3.993,3.446 -5.332,4.148 l 16.14,16.142 c 1.402,-1.494 3.3,-3.494 4.768,-4.962 1.537,-1.536 3.515,-3.375 4.91,-4.653 z m 1.743,2.361 c -0.828,1.207 -2.142,2.836 -4.249,4.943 -1.983,1.983 -3.549,3.27 -4.732,4.105 2.507,1.118 5.548,0.657 7.605,-1.397 2.068,-2.07 2.522,-5.135 1.376,-7.651 z"
   id="path10"
   inkscape:connector-curvature="0"
   style="fill-rule:evenodd;fill:#ffffff" />
		</g>
	</g>
</g>
</svg>