<?xml version="1.0" encoding="UTF-8" standalone="no"?>
<!-- Generator: Adobe Illustrator 14.0.0, SVG Export Plug-In . SVG Version: 6.00 Build 43363)  -->

<svg
   xmlns:dc="http://purl.org/dc/elements/1.1/"
   xmlns:cc="http://creativecommons.org/ns#"
   xmlns:rdf="http://www.w3.org/1999/02/22-rdf-syntax-ns#"
   xmlns:svg="http://www.w3.org/2000/svg"
   xmlns="http://www.w3.org/2000/svg"
   xmlns:sodipodi="http://sodipodi.sourceforge.net/DTD/sodipodi-0.dtd"
   xmlns:inkscape="http://www.inkscape.org/namespaces/inkscape"
   version="1.0"
   id="Layer_1"
   x="0px"
   y="0px"
   width="100px"
   height="53.863px"
   viewBox="0 0 100 53.863"
   enable-background="new 0 0 100 53.863"
   xml:space="preserve"
   inkscape:version="0.47 r22583"
   sodipodi:docname="jeeps.svg"><metadata
   id="metadata2898"><rdf:RDF><cc:Work
       rdf:about=""><dc:format>image/svg+xml</dc:format><dc:type
         rdf:resource="http://purl.org/dc/dcmitype/StillImage" /></cc:Work></rdf:RDF></metadata><defs
   id="defs2896"><inkscape:perspective
     sodipodi:type="inkscape:persp3d"
     inkscape:vp_x="0 : 26.931499 : 1"
     inkscape:vp_y="0 : 1000 : 0"
     inkscape:vp_z="100 : 26.931499 : 1"
     inkscape:persp3d-origin="50 : 17.954333 : 1"
     id="perspective2900" /></defs><sodipodi:namedview
   pagecolor="#009674"
   bordercolor="#666666"
   borderopacity="1"
   objecttolerance="10"
   gridtolerance="10"
   guidetolerance="10"
   inkscape:pageopacity="1"
   inkscape:pageshadow="2"
   inkscape:window-width="640"
   inkscape:window-height="504"
   id="namedview2894"
   showgrid="false"
   inkscape:zoom="4.3814864"
   inkscape:cx="50"
   inkscape:cy="26.931499"
   inkscape:window-x="0"
   inkscape:window-y="24"
   inkscape:window-maximized="0"
   inkscape:current-layer="Layer_1" />
<g
   id="g2886"
   style="fill:#ffffff">
	<path
   d="M78.565,47.35c2.726,0,4.92-2.241,4.92-5.007c0-2.733-2.194-4.974-4.92-4.974c-2.736,0-4.931,2.24-4.931,4.974   C73.637,45.109,75.829,47.35,78.565,47.35z M67.178,42.343c0-6.336,5.091-11.493,11.388-11.493c6.273,0,11.364,5.157,11.364,11.493   c0,6.366-5.091,11.52-11.364,11.52C72.269,53.863,67.178,48.709,67.178,42.343z"
   id="path2888"
   style="fill:#ffffff" />
	<path
   d="M95.493,30.036l-0.022-11.599c0-4.621-4.064-4.133-4.064-4.133H68.415L60.026,0h-4.936l8.388,14.304l-6.354,10.868   l-14.485-0.023c-5.003-10.386-15.175-9.735-15.175-9.735H0v24.69h3.925c0.526-8.397,8.505-15.058,16.938-15.058   c8.43,0,16.431,6.676,16.934,15.058l23.877,0.023c0.505-8.407,8.504-15.082,16.937-15.082c8.432,0,16.453,6.674,16.937,15.096   l1.484,0.014c1.645,0,2.97-1.352,2.97-3.009v-7.113h-4.507V30.036z"
   id="path2890"
   style="fill:#ffffff" />
	<path
   d="M20.817,47.35c2.729,0,4.942-2.241,4.942-5.007c0-2.733-2.213-4.974-4.942-4.974c-2.712,0-4.93,2.24-4.93,4.974   C15.89,45.109,18.104,47.35,20.817,47.35z M9.446,42.343c0-6.336,5.097-11.493,11.371-11.493c6.298,0,11.372,5.157,11.372,11.493   c0,6.366-5.077,11.52-11.372,11.52C14.543,53.863,9.446,48.709,9.446,42.343z"
   id="path2892"
   style="fill:#ffffff" />
</g>
</svg>