<?xml version="1.0" encoding="UTF-8" standalone="no"?>
<!-- Generator: Adobe Illustrator 14.0.0, SVG Export Plug-In . SVG Version: 6.00 Build 43363)  -->

<svg
   xmlns:dc="http://purl.org/dc/elements/1.1/"
   xmlns:cc="http://creativecommons.org/ns#"
   xmlns:rdf="http://www.w3.org/1999/02/22-rdf-syntax-ns#"
   xmlns:svg="http://www.w3.org/2000/svg"
   xmlns="http://www.w3.org/2000/svg"
   xmlns:sodipodi="http://sodipodi.sourceforge.net/DTD/sodipodi-0.dtd"
   xmlns:inkscape="http://www.inkscape.org/namespaces/inkscape"
   version="1.0"
   id="Layer_1"
   x="0px"
   y="0px"
   width="53.403"
   height="41.112946"
   viewBox="0 0 53.403001 41.112946"
   enable-background="new 0 0 68.906 100"
   xml:space="preserve"
   inkscape:version="0.47 r22583"
   sodipodi:docname="kids.svg"><metadata
   id="metadata2917"><rdf:RDF><cc:Work
       rdf:about=""><dc:format>image/svg+xml</dc:format><dc:type
         rdf:resource="http://purl.org/dc/dcmitype/StillImage" /></cc:Work></rdf:RDF></metadata><defs
   id="defs2915"><inkscape:perspective
     sodipodi:type="inkscape:persp3d"
     inkscape:vp_x="0 : 50 : 1"
     inkscape:vp_y="0 : 1000 : 0"
     inkscape:vp_z="68.905998 : 50 : 1"
     inkscape:persp3d-origin="34.452999 : 33.333333 : 1"
     id="perspective2919" /></defs><sodipodi:namedview
   pagecolor="#009674"
   bordercolor="#666666"
   borderopacity="1"
   objecttolerance="10"
   gridtolerance="10"
   guidetolerance="10"
   inkscape:pageopacity="1"
   inkscape:pageshadow="2"
   inkscape:window-width="640"
   inkscape:window-height="504"
   id="namedview2913"
   showgrid="false"
   inkscape:zoom="2.36"
   inkscape:cx="26.699999"
   inkscape:cy="-8.8869998"
   inkscape:window-x="0"
   inkscape:window-y="24"
   inkscape:window-maximized="0"
   inkscape:current-layer="Layer_1" />




<path
   d="m 45.185,0.01794383 c -7.767,-0.379 -9.261,5.37099997 -9.261,5.37099997 0,0 -3.6,-2.203 -9.222,-2.203 -5.626,0 -9.229,2.203 -9.229,2.203 0,0 -1.491,-5.74999997 -9.258,-5.37099997 C 3.69,0.23494383 0,4.0169438 0,8.5489438 0,12.792944 2.789,18.489944 7.338,18.633944 l 0.586,0.018 c -0.137,0.772 -0.183,2.922 -0.183,3.49 0,10.457 8.507,18.971 18.96,18.971 10.45,0 18.957,-8.514 18.957,-18.971 0,-0.568 -0.049,-2.718 -0.179,-3.49 l 0.579,-0.018 c 4.553,-0.144 7.345,-5.841 7.345,-10.0850002 0.001,-4.532 -3.693,-8.31399997 -8.218,-8.53099997 z M 16.495,21.082944 c 0,-1.386 1.129,-2.515 2.519,-2.515 1.389,0 2.519,1.129 2.519,2.515 0,1.396 -1.13,2.519 -2.519,2.519 -1.39,0 -2.519,-1.123 -2.519,-2.519 z m 18.619,11.201 c -0.066,0.147 -1.624,3.582 -4.925,3.582 -1.428,0 -2.592,-0.337 -3.494,-0.958 -0.943,0.572 -2.119,0.874 -3.532,0.874 -3.606,0 -5.3,-3.284 -5.367,-3.417 -0.382,-0.75 -0.084,-1.67 0.659,-2.056 0.748,-0.393 1.673,-0.102 2.066,0.649 0.007,0.018 0.933,1.754 2.641,1.754 1.203,0 1.813,-0.294 2.087,-0.495 0,-0.358 0,-1.796 0,-2.413 -1.049,-0.239 -1.828,-1.179 -1.828,-2.287 0,-1.288 1.049,-2.343 2.34,-2.343 l 2.136,-0.018 c 1.218,0 2.252,1.084 2.252,2.361 0,1.105 -0.803,2.017 -1.831,2.213 0,0.652 0,2.276 0,2.592 0.214,0.186 0.723,0.477 1.87,0.477 1.298,0 2.118,-1.744 2.122,-1.758 0.168,-0.375 0.474,-0.67 0.855,-0.81 0.383,-0.147 0.8,-0.13 1.172,0.039 0.566,0.249 0.91,0.811 0.91,1.399 0,0.207 -0.045,0.414 -0.133,0.615 z m -0.692,-8.682 c -1.385,0 -2.515,-1.123 -2.515,-2.519 0,-1.386 1.13,-2.515 2.515,-2.515 1.393,0 2.522,1.129 2.522,2.515 10e-4,1.396 -1.129,2.519 -2.522,2.519 z"
   id="path2911"
   style="fill:#ffffff" />
</svg>