<?xml version="1.0" encoding="UTF-8" standalone="no"?>
<svg
   xmlns:dc="http://purl.org/dc/elements/1.1/"
   xmlns:cc="http://creativecommons.org/ns#"
   xmlns:rdf="http://www.w3.org/1999/02/22-rdf-syntax-ns#"
   xmlns:svg="http://www.w3.org/2000/svg"
   xmlns="http://www.w3.org/2000/svg"
   xmlns:sodipodi="http://sodipodi.sourceforge.net/DTD/sodipodi-0.dtd"
   xmlns:inkscape="http://www.inkscape.org/namespaces/inkscape"
   version="1.1"
   id="Bear"
   x="0px"
   y="0px"
   width="63.230682"
   height="68.21875"
   viewBox="0 0 266.51217 287.87016"
   enable-background="new 0 0 309.361 421.981"
   xml:space="preserve"
   inkscape:version="0.48.3.1 r9886"
   sodipodi:docname="kids.svg"><metadata
   id="metadata20"><rdf:RDF><cc:Work
       rdf:about=""><dc:format>image/svg+xml</dc:format><dc:type
         rdf:resource="http://purl.org/dc/dcmitype/StillImage" /></cc:Work></rdf:RDF></metadata><defs
   id="defs18" /><sodipodi:namedview
   pagecolor="#009674"
   bordercolor="#666666"
   borderopacity="1"
   objecttolerance="10"
   gridtolerance="10"
   guidetolerance="10"
   inkscape:pageopacity="1"
   inkscape:pageshadow="2"
   inkscape:window-width="640"
   inkscape:window-height="480"
   id="namedview16"
   showgrid="false"
   inkscape:zoom="2.36"
   inkscape:cx="31.638548"
   inkscape:cy="18.21875"
   inkscape:window-x="49"
   inkscape:window-y="24"
   inkscape:window-maximized="0"
   inkscape:current-layer="Bear"
   fit-margin-top="0"
   fit-margin-left="0"
   fit-margin-right="0"
   fit-margin-bottom="0" />


<path
   id="Arm"
   d="m 231.35965,276.886 c -18.414,0 -35.671,-16.001 -41.033,-38.047 -2.884,-11.853 -2.05,-23.97 2.35,-34.12 4.744,-10.944 13.396,-18.665 23.736,-21.18 2.461,-0.599 4.998,-0.903 7.539,-0.903 18.413,0 35.669,16.001 41.031,38.047 6.197,25.486 -5.505,50.294 -26.085,55.301 -2.463,0.598 -4.999,0.902 -7.538,0.902 z m -7.408,-74.25 c -0.949,0 -1.895,0.113 -2.811,0.337 -5.748,1.397 -8.804,6.678 -10.114,9.7 -2.64,6.088 -3.101,13.902 -1.267,21.438 3.158,12.984 12.443,22.774 21.6,22.774 0.948,0 1.895,-0.113 2.811,-0.336 9.698,-2.359 14.909,-16.62 11.379,-31.142 -3.159,-12.98 -12.443,-22.771 -21.598,-22.771 z"
   style="fill:#ffffff"
   inkscape:connector-curvature="0" />
<path
   id="Arm_1_"
   d="m 35.015646,276.842 c -2.666,0 -5.323,-0.334 -7.898,-0.992 -10.31,-2.633 -18.8719996,-10.451 -23.4899996,-21.451 -4.28200004,-10.199 -4.977,-22.326 -1.958,-34.146 5.649,-22.121 22.5479996,-37.572 41.0949996,-37.572 2.666,0 5.324,0.334 7.899,0.992 10.309,2.632 18.871,10.45 23.489,21.451 4.282,10.199 4.978,22.325 1.958,34.146 -5.65,22.121 -22.55,37.572 -41.095,37.572 z m 7.749,-74.162 c -9.102,0 -18.438,9.683 -21.717,22.522 -1.92,7.517 -1.548,15.336 1.02,21.454 1.275,3.038 4.271,8.353 9.999,9.815 0.959,0.245 1.951,0.37 2.949,0.37 9.101,0 18.438,-9.683 21.718,-22.523 1.919,-7.516 1.547,-15.335 -1.021,-21.454 -1.275,-3.038 -4.27,-8.353 -9.998,-9.814 -0.961,-0.245 -1.952,-0.37 -2.95,-0.37 z"
   style="fill:#ffffff"
   inkscape:connector-curvature="0" />
<path
   id="Ear_1_"
   d="m 230.97965,7.918 c -7.822,-5.02 -16.834,-7.785 -25.375,-7.785 -11.742,0 -21.72,5.052 -27.374,13.862 -10.175,15.857 -2.95,38.032 16.448,50.484 7.821,5.021 16.833,7.785 25.374,7.785 11.742,0 21.72,-5.052 27.375,-13.862 10.177,-15.857 2.952,-38.031 -16.448,-50.484 z m 2.245,44.652 c -5.7,8.881 -20.346,9.645 -32.714,1.707 -12.368,-7.939 -17.774,-21.57 -12.076,-30.451 5.698,-8.878 20.345,-9.643 32.713,-1.705 12.368,7.939 17.775,21.571 12.077,30.449 z"
   style="fill:#ffffff"
   inkscape:connector-curvature="0" />
<path
   id="Ear"
   d="M 88.581646,13.566 C 82.915646,4.945 73.043646,0 61.496646,0 c -8.678,0 -17.813,2.863 -25.723,8.06 -8.455,5.555 -14.928,13.342 -18.226,21.927 -3.883,10.106 -3.036,20.579 2.322,28.732 5.667,8.623 15.54,13.567 27.087,13.567 8.677,0 17.812,-2.862 25.722,-8.059 8.456,-5.556 14.929,-13.343 18.227,-21.928 3.881,-10.105 3.034,-20.577 -2.324,-28.733 z m -21.866,40.543 c -12.282,8.07 -26.934,7.464 -32.729,-1.354 -5.794,-8.816 -0.534,-22.508 11.748,-30.578 12.283,-8.07 26.935,-7.465 32.729,1.352 5.794,8.819 0.536,22.51 -11.748,30.58 z"
   style="fill:#ffffff"
   inkscape:connector-curvature="0" />

<path
   style="fill:#ffffff"
   d="m 133.01968,14.373728 c -57.138004,0 -103.385349,38.978583 -103.385349,87.033582 0,31.446 19.729899,58.95528 49.450898,74.24228 -8.687998,5.788 -16.568691,12.98492 -23.472693,21.23092 10.250999,7.369 15.028263,23.44933 10.813263,39.95633 -5.135998,20.104 -21.586467,33.15993 -36.791468,29.27493 -0.914998,-0.23302 -1.906249,-0.44822 -2.769251,-0.79122 -0.587,5.17301 -0.791214,10.46929 -0.791214,15.82429 0,2.27882 0.02321,4.47753 0.131869,6.72532 l 34.285956,0 c 6.904677,-39.25292 37.018119,-68.83565 73.055459,-68.83565 36.03719,0 66.02009,29.58347 72.92359,68.83565 l 33.36288,0 c 0.10706,-2.23116 0.26373,-4.46354 0.26373,-6.72532 0,-5.303 -0.34809,-10.56842 -0.92308,-15.69242 -0.853,0.32501 -1.73638,0.57222 -2.63738,0.79122 -15.248,3.709 -31.62373,-9.63941 -36.52773,-29.80241 -3.945,-16.214 0.77639,-31.84598 10.68139,-39.29698 -6.95699,-8.358 -14.95443,-15.64366 -23.73643,-21.49466 29.723,-15.287 49.58277,-42.79528 49.58277,-74.24228 0,-48.054999 -46.37921,-87.033582 -103.51721,-87.033582 z M 98.60185,93.758903 c 5.257,0 9.49457,4.237572 9.49457,9.494577 0,5.257 -4.23757,9.62644 -9.49457,9.62644 -5.256001,0 -9.626441,-4.36944 -9.626441,-9.62644 0,-5.257005 4.37044,-9.494577 9.626441,-9.494577 z m 69.495,0 c 5.256,0 9.62644,4.237572 9.62644,9.494577 0,5.257 -4.37044,9.62644 -9.62644,9.62644 -5.257,0 -9.49458,-4.36944 -9.49458,-9.62644 0,-5.257005 4.23758,-9.494577 9.49458,-9.494577 z m -34.81344,15.033077 c 23.334,0 42.1981,15.24522 42.1981,34.02221 0,18.777 -18.8641,34.02222 -42.1981,34.02222 -23.334,0 -42.198096,-15.24522 -42.198096,-34.02222 0,-18.77699 18.864096,-34.02221 42.198096,-34.02221 z"
   id="Top"
   inkscape:connector-curvature="0" />
<ellipse
   id="Nose"
   cx="155.388"
   cy="131.813"
   rx="18"
   ry="11.75"
   style="fill:#ffffff"
   sodipodi:cx="155.388"
   sodipodi:cy="131.813"
   sodipodi:rx="18"
   sodipodi:ry="11.75"
   transform="translate(-21.351354,0)" />
<path
   d="m 135.36965,143.063 c -0.002,4.049 0.334,7.935 0.334,12"
   id="path12"
   style="fill:#ffffff"
   inkscape:connector-curvature="0" />

<path
   sodipodi:type="arc"
   style="fill:#ffffff;fill-opacity:1;stroke:#ffffff;stroke-width:4.9000001;stroke-miterlimit:4;stroke-dasharray:none"
   id="path2988"
   sodipodi:cx="30.084745"
   sodipodi:cy="67.58316"
   sodipodi:rx="14.40678"
   sodipodi:ry="13.347458"
   d="m 44.491526,67.58316 a 14.40678,13.347458 0 1 1 -0.01517,-0.612409 L 30.084745,67.58316 z"
   transform="matrix(4.4545058,0,0,4.2198099,-0.25809025,-3.5761101)"
   sodipodi:start="0"
   sodipodi:end="6.2372871" /></svg>