<?xml version="1.0" encoding="UTF-8" standalone="no"?>
<!-- Generator: Adobe Illustrator 14.0.0, SVG Export Plug-In . SVG Version: 6.00 Build 43363)  -->

<svg
   xmlns:dc="http://purl.org/dc/elements/1.1/"
   xmlns:cc="http://creativecommons.org/ns#"
   xmlns:rdf="http://www.w3.org/1999/02/22-rdf-syntax-ns#"
   xmlns:svg="http://www.w3.org/2000/svg"
   xmlns="http://www.w3.org/2000/svg"
   xmlns:sodipodi="http://sodipodi.sourceforge.net/DTD/sodipodi-0.dtd"
   xmlns:inkscape="http://www.inkscape.org/namespaces/inkscape"
   version="1.0"
   id="Layer_1"
   x="0px"
   y="0px"
   width="69.938px"
   height="100px"
   viewBox="-0.116 0 69.938 100"
   enable-background="new -0.116 0 69.938 100"
   xml:space="preserve"
   inkscape:version="0.48.4 r9939"
   sodipodi:docname="icon_698.svg"><metadata
     id="metadata11"><rdf:RDF><cc:Work
         rdf:about=""><dc:format>image/svg+xml</dc:format><dc:type
           rdf:resource="http://purl.org/dc/dcmitype/StillImage" /></cc:Work></rdf:RDF></metadata><defs
     id="defs9" /><sodipodi:namedview
     pagecolor="#009674"
     bordercolor="#666666"
     borderopacity="1"
     objecttolerance="10"
     gridtolerance="10"
     guidetolerance="10"
     inkscape:pageopacity="1"
     inkscape:pageshadow="2"
     inkscape:window-width="1109"
     inkscape:window-height="1053"
     id="namedview7"
     showgrid="false"
     inkscape:zoom="2.36"
     inkscape:cx="-48.929303"
     inkscape:cy="50"
     inkscape:window-x="0"
     inkscape:window-y="0"
     inkscape:window-maximized="0"
     inkscape:current-layer="Layer_1" /><polygon
     id="rect3074_1_"
     points="5.242,85.721 24.511,85.721 25.837,100 6.568,100 "
     style="fill:#ffffff;fill-opacity:1" /><polygon
     id="rect3074_2_"
     points="63.139,100 43.87,100 45.196,85.721 64.464,85.721 "
     style="fill:#ffffff;fill-opacity:1" /><path
     d="M34.916,0.001c-0.021,0-0.042,0-0.062,0s-0.04,0-0.062,0C19.221-0.138-2.174,8.982,0.043,29.5l5.098,54.671l19.167-0.041  l-5.304-53.406c-0.344-9.466,6.577-12.831,15.608-13.04c0.08,0.001,0.16,0.001,0.24,0c0.081,0.001,0.161,0.001,0.241,0  c9.031,0.209,15.952,3.574,15.608,13.04L45.399,84.13l19.167,0.041L69.664,29.5C71.881,8.982,50.486-0.138,34.916,0.001z"
     id="path5"
     style="fill:#ffffff;fill-opacity:1" /></svg>