<?xml version="1.0" encoding="UTF-8" standalone="no"?>
<svg xmlns:ooo="http://xml.openoffice.org/svg/export"
   	xmlns:dc="http://purl.org/dc/elements/1.1/"
   	xmlns:cc="http://creativecommons.org/ns#"
   	xmlns:rdf="http://www.w3.org/1999/02/22-rdf-syntax-ns#"
   	xmlns:svg="http://www.w3.org/2000/svg"
   	xmlns="http://www.w3.org/2000/svg"
   	xmlns:sodipodi="http://sodipodi.sourceforge.net/DTD/sodipodi-0.dtd"
   	xmlns:inkscape="http://www.inkscape.org/namespaces/inkscape"
   	version="1.2"
   	width="156.8512mm"
   	height="156.81766mm"
   	viewBox="0 0 15685.12 15681.766"
   	preserveAspectRatio="xMidYMid"
   	xml:space="preserve"
   	id="svg93"
   	sodipodi:docname="munzee.svg"
   	style="fill-rule:evenodd;stroke-width:28.22200012;stroke-linejoin:round"
   	inkscape:version="0.92.1 r15371"
   	shape-rendering="crispEdges">
	<metadata id="metadata97">
		<rdf:RDF>
			<cc:Work rdf:about="">
				<dc:format>image/svg+xml</dc:format>
				<dc:type rdf:resource="http://purl.org/dc/dcmitype/StillImage" />
				<dc:title/>
			</cc:Work>
		</rdf:RDF>
	</metadata>
	<sodipodi:namedview pagecolor="#009674"
                  		bordercolor="#666666"
                  		borderopacity="1"
                  		objecttolerance="10"
                  		gridtolerance="10"
                  		guidetolerance="10"
                  		inkscape:pageopacity="0"
                  		inkscape:pageshadow="2"
                  		inkscape:window-width="1920"
                  		inkscape:window-height="1137"
                  		id="namedview95"
                  		showgrid="false"
                  		fit-margin-top="0"
                  		fit-margin-left="0"
                  		fit-margin-right="0"
                  		fit-margin-bottom="0"
                  		inkscape:pagecheckerboard="false"
                  		inkscape:showpageshadow="false"
                  		showborder="false"
                  		showguides="false"
                  		inkscape:zoom="1.24"
                  		inkscape:cx="272.46877"
                  		inkscape:cy="366.56935"
                  		inkscape:window-x="-8"
                  		inkscape:window-y="-8"
                  		inkscape:window-maximized="1"
                  		inkscape:current-layer="svg93" />
	<defs class="ClipPathGroup"
    		id="defs8">
		<clipPath id="presentation_clip_path"
        			clipPathUnits="userSpaceOnUse">
			<rect x="0"
    				y="0"
    				width="21000"
    				height="29700"
    				id="rect2" />
		</clipPath>
		<clipPath id="presentation_clip_path_shrink"
        			clipPathUnits="userSpaceOnUse">
			<rect x="21"
    				y="29"
    				width="20958"
    				height="29641"
    				id="rect5" />
		</clipPath>
	</defs>
	<defs class="TextShapeIndex"
    		id="defs12">
		<g ooo:slide="id1"
 			ooo:id-list="id3 id4 id5 id6"
 			id="g10" />
	</defs>
	<defs class="EmbeddedBulletChars"
    		id="defs44">
		<g id="bullet-char-template-57356"
 			transform="matrix(4.8828125e-4,0,0,-4.8828125e-4,0,0)">
			<path d="M 580,1141 1163,571 580,0 -4,571 Z"
    				id="path14"
    				inkscape:connector-curvature="0" />
		</g>
		<g id="bullet-char-template-57354"
 			transform="matrix(4.8828125e-4,0,0,-4.8828125e-4,0,0)">
			<path d="M 8,1128 H 1137 V 0 H 8 Z"
    				id="path17"
    				inkscape:connector-curvature="0" />
		</g>
		<g id="bullet-char-template-10146"
 			transform="matrix(4.8828125e-4,0,0,-4.8828125e-4,0,0)">
			<path d="M 174,0 602,739 174,1481 1456,739 Z M 1358,739 309,1346 659,739 Z"
    				id="path20"
    				inkscape:connector-curvature="0" />
		</g>
		<g id="bullet-char-template-10132"
 			transform="matrix(4.8828125e-4,0,0,-4.8828125e-4,0,0)">
			<path d="M 2015,739 1276,0 H 717 l 543,543 H 174 v 393 h 1086 l -543,545 h 557 z"
    				id="path23"
    				inkscape:connector-curvature="0" />
		</g>
		<g id="bullet-char-template-10007"
 			transform="matrix(4.8828125e-4,0,0,-4.8828125e-4,0,0)">
			<path d="m 0,-2 c -7,16 -16,29 -25,39 l 381,530 c -94,256 -141,385 -141,387 0,25 13,38 40,38 9,0 21,-2 34,-5 21,4 42,12 65,25 l 27,-13 111,-251 280,301 64,-25 24,25 c 21,-10 41,-24 62,-43 C 886,937 835,863 770,784 769,783 710,716 594,584 L 774,223 c 0,-27 -21,-55 -63,-84 l 16,-20 C 717,90 699,76 672,76 641,76 570,178 457,381 L 164,-76 c -22,-34 -53,-51 -92,-51 -42,0 -63,17 -64,51 -7,9 -10,24 -10,44 0,9 1,19 2,30 z"
    				id="path26"
    				inkscape:connector-curvature="0" />
		</g>
		<g id="bullet-char-template-10004"
 			transform="matrix(4.8828125e-4,0,0,-4.8828125e-4,0,0)">
			<path d="M 285,-33 C 182,-33 111,30 74,156 52,228 41,333 41,471 c 0,78 14,145 41,201 34,71 87,106 158,106 53,0 88,-31 106,-94 l 23,-176 c 8,-64 28,-97 59,-98 l 735,706 c 11,11 33,17 66,17 42,0 63,-15 63,-46 V 965 c 0,-36 -10,-64 -30,-84 L 442,47 C 390,-6 338,-33 285,-33 Z"
    				id="path29"
    				inkscape:connector-curvature="0" />
		</g>
		<g id="bullet-char-template-9679"
 			transform="matrix(4.8828125e-4,0,0,-4.8828125e-4,0,0)">
			<path d="M 813,0 C 632,0 489,54 383,161 276,268 223,411 223,592 c 0,181 53,324 160,431 106,107 249,161 430,161 179,0 323,-54 432,-161 108,-107 162,-251 162,-431 0,-180 -54,-324 -162,-431 C 1136,54 992,0 813,0 Z"
    				id="path32"
    				inkscape:connector-curvature="0" />
		</g>
		<g id="bullet-char-template-8226"
 			transform="matrix(4.8828125e-4,0,0,-4.8828125e-4,0,0)">
			<path d="m 346,457 c -73,0 -137,26 -191,78 -54,51 -81,114 -81,188 0,73 27,136 81,188 54,52 118,78 191,78 73,0 134,-26 185,-79 51,-51 77,-114 77,-187 0,-75 -25,-137 -76,-188 -50,-52 -112,-78 -186,-78 z"
    				id="path35"
    				inkscape:connector-curvature="0" />
		</g>
		<g id="bullet-char-template-8211"
 			transform="matrix(4.8828125e-4,0,0,-4.8828125e-4,0,0)">
			<path d="M -4,459 H 1135 V 606 H -4 Z"
    				id="path38"
    				inkscape:connector-curvature="0" />
		</g>
		<g id="bullet-char-template-61548"
 			transform="matrix(4.8828125e-4,0,0,-4.8828125e-4,0,0)">
			<path d="m 173,740 c 0,163 58,303 173,419 116,115 255,173 419,173 163,0 302,-58 418,-173 116,-116 174,-256 174,-419 0,-163 -58,-303 -174,-418 C 1067,206 928,148 765,148 601,148 462,206 346,322 231,437 173,577 173,740 Z"
    				id="path41"
    				inkscape:connector-curvature="0" />
		</g>
	</defs>
	<g id="g49"
 		transform="translate(5081.655,-7296.6504)">
		<g id="id2"
 			class="Master_Slide">
			<g id="bg-id2"
 				class="Background" />
			<g id="bo-id2"
 				class="BackgroundObjects" />
		</g>
	</g>
	<path style="fill:#ffffff;fill-opacity:1;stroke-width:347.36953735"
    		d="M 7249.6016,15397.488 C 4818.1651,15254.144 2593.9513,13968.43 1258.1274,11934.096 552.11314,10858.902 140.89714,9668.9632 16.097238,8340.0229 -5.1895619,8113.3486 -5.4211619,7289.0542 15.741038,7072.2512 97.071038,6239.042 253.74984,5576.8962 542.70824,4845.2169 649.31624,4575.272 893.27024,4074.1443 1040.4232,3822.816 1712.9282,2674.2195 2665.8691,1721.2531 3815.5397,1047.6254 4193.8436,825.9654 4769.8606,562.10822 5200.2422,413.33187 5688.9777,244.38347 6326.9287,101.99101 6849.5766,45.195786 7402.0094,-14.836146 7995.3931,-15.070182 8541.9897,44.528295 10419.175,249.2083 12184.968,1159.4186 13448.177,2573.5068 c 1443.036,1615.3968 2143.393,3795.7631 1911.568,5951.1432 -323.002,3003.104 -2368.322,5539.309 -5236.117,6492.81 -915.6872,304.451 -1914.8882,436.574 -2874.0264,380.028 z m 1175.458,-434.316 c 98.1598,-10.894 256.0158,-31.387 350.791,-45.54 1681.5714,-251.113 3226.9244,-1085.716 4362.0144,-2355.805 1073.204,-1200.842 1709.73,-2703.3046 1835.515,-4332.5801 18.202,-235.7773 18.44,-808.7194 0.431,-1040.0655 -28.484,-365.8986 -82.172,-733.3017 -154.768,-1059.1552 C 14404.486,4269.324 13306.309,2672.1541 11717.565,1619.2899 10761.341,985.59827 9662.3849,587.13257 8511.2187,456.71525 6806.9553,263.63672 5078.6926,683.67424 3649.3756,1638.3393 1381.2485,3153.2595 142.74324,5813.2808 449.57984,8510.7578 c 169.9044,1493.6732 776.41876,2871.1182 1760.67576,3998.6462 130.6468,149.665 452.2376,475.496 613.0445,621.128 70.3069,63.673 208.8571,180.818 307.8896,260.322 1148.1704,921.765 2516.0828,1462.306 4019.9443,1588.512 214.2237,17.978 1063.2684,7.185 1273.9256,-16.194 z"
    		id="path133"
    		inkscape:connector-curvature="0" />
	<path style="fill:#ffffff;fill-opacity:1;stroke-width:347.36953735"
    		d="m 2393.5785,12709.193 c -43.4282,-43.818 -74.3696,-79.669 -68.7588,-79.669 5.6109,0 -19.5432,-32.128 -55.8977,-71.395 -36.3545,-39.267 -115.2826,-130.658 -175.3956,-203.09 -60.1131,-72.432 -114.9702,-131.695 -121.9049,-131.695 -6.9347,0 -9.1345,-3.474 -4.8884,-7.72 9.348,-9.348 -98.6988,-152.29 -115.113,-152.29 -6.3739,0 -10.2044,-4.744 -8.5119,-10.543 4.5184,-15.482 -76.1191,-124.85 -92.0526,-124.85 -7.4772,0 -10.0839,-3.511 -5.7923,-7.803 8.5141,-8.514 -112.0719,-189.132 -126.2705,-189.132 -4.7959,0 -8.7198,-7.032 -8.7198,-15.627 0,-20.612 -65.892,-119.766 -79.5892,-119.766 -5.8702,0 -9.5342,-4.155 -8.1423,-9.232 4.277,-15.601 -39.2978,-89.236 -52.807,-89.236 -6.9953,0 -9.4204,-5.337 -5.3892,-11.86 4.0313,-6.522 -3.95,-23.139 -17.7362,-36.925 -13.7862,-13.786 -24.4862,-28.153 -23.7777,-31.926 2.7255,-14.513 -140.0667,-263.926 -151.1017,-263.926 -6.4071,0 -8.2261,-5.539 -4.0422,-12.309 4.1839,-6.769 0.8184,-12.308 -7.4793,-12.308 -8.2975,0 -11.6712,-3.415 -7.4974,-7.589 8.8503,-8.85 -124.2098,-279.662 -140.4188,-285.788 -6.0072,-2.271 -7.7914,-9.194 -3.9648,-15.386 3.8265,-6.191 0.7649,-11.257 -6.8041,-11.257 -7.5687,0 -10.3381,-5.539 -6.1542,-12.309 4.1839,-6.769 2.6645,-12.308 -3.3764,-12.308 -6.0408,0 -10.9834,-7.702 -10.9834,-17.115 0,-26.59 -30.4501,-93.661 -42.5216,-93.661 -5.9483,0 -10.1592,-4.155 -9.3576,-9.232 4.1812,-26.48 -3.4632,-52.558 -20.3598,-69.455 -10.39626,-10.396 -18.70446,-21.869 -18.46266,-25.496 1.9843,-29.766 -1.6831,-44.004 -14.946,-58.025 -8.4621,-8.946 -17.3239,-27.343 -19.693,-40.882 -2.3691,-13.539 -7.9078,-27.386 -12.3084,-30.771 -4.4007,-3.385 -9.9395,-17.232 -12.3085,-30.771 -2.3691,-13.54 -7.9079,-27.387 -12.3085,-30.771 -4.4006,-3.385 -9.9394,-17.232 -12.3085,-30.772 -2.369,-13.539 -7.9078,-27.386 -12.3084,-30.771 -4.4007,-3.385 -8.2145,-11.693 -8.4751,-18.463 -0.9552,-24.803 -34.4419,-116.93 -42.5026,-116.93 -4.5698,0 -8.3533,-6.923 -8.4078,-15.386 -0.119,-18.609 -93.757,-308.2283 -102.4716,-316.9428 -3.3848,-3.3848 -6.2549,-11.693 -6.378,-18.4629 -0.5413,-29.7715 -34.0781,-142.2765 -44.2934,-148.59 -6.1999,-3.8317 -8.3731,-11.6581 -4.8294,-17.3919 3.5437,-5.7338 -0.023,-26.1215 -7.9274,-45.3062 -7.9037,-19.1847 -13.3353,-41.3869 -12.0701,-49.3384 1.2652,-7.9518 -3.1435,-17.8221 -9.797,-21.9343 -6.6535,-4.1121 -9.1922,-15.0471 -5.6415,-24.2998 3.5506,-9.253 0.7813,-20.3306 -6.1543,-24.6171 -6.9355,-4.2863 -9.7049,-15.3638 -6.1542,-24.6169 3.5507,-9.253 0.449,-20.5359 -6.8926,-25.0732 -7.3416,-4.5373 -10.1617,-13.4059 -6.267,-19.7077 3.8948,-6.3019 2.9573,-18.1312 -2.0833,-26.2869 -5.0406,-8.1558 -10.9334,-31.6958 -13.095,-52.3111 -2.1617,-20.615 -7.4009,-45.7901 -11.6427,-55.9445 -4.2419,-10.1547 -9.5629,-32.3784 -11.8245,-49.3864 -2.2617,-17.0079 -12.7458,-69.6267 -23.2982,-116.9305 -25.3935,-113.834 -28.7231,-131.3905 -48.4155,-255.2877 -30.5868,-192.4415 -61.6258,-454.9802 -73.1182,-618.4609 -23.6419,-336.3074 -24.5872,-1002.9932 -1.4751,-1040.3891 4.2437,-6.8665 6.6481,-41.4507 5.3432,-76.8541 -1.305,-35.4031 0.5371,-72.6779 4.0935,-82.8323 10.5659,-30.1686 35.0784,-297.8706 27.9295,-305.0194 -3.6198,-3.6197 -1.1671,-13.1056 5.4509,-21.0796 6.6178,-7.974 13.4932,-48.5934 15.2788,-90.2655 1.7854,-41.6721 8.0292,-75.814 13.8748,-75.8709 5.8455,-0.053 8.1895,-16.7195 5.2088,-37.0287 -2.9807,-20.3089 -0.2117,-36.9252 6.1542,-36.9252 6.3656,0 9.1549,-16.4815 6.1984,-36.625 -2.9565,-20.1438 -1.8463,-38.145 2.467,-40.0026 11.1713,-4.8112 51.2912,-217.9825 43.4217,-230.7156 -3.5944,-5.8161 -1.3364,-12.4323 5.0177,-14.7029 6.3542,-2.2701 13.3122,-26.2835 15.4623,-53.3622 2.15,-27.0786 7.1492,-52.0034 11.109,-55.3882 12.0317,-10.2843 61.5427,-222.2108 54.5551,-233.517 -3.5861,-5.8023 -1.3338,-12.4074 5.0049,-14.678 6.3388,-2.2702 13.2968,-20.745 15.4623,-41.0539 2.1656,-20.3088 8.2385,-40.1124 13.4955,-44.0081 5.2571,-3.8955 10.7959,-24.6549 12.3085,-46.1322 1.5126,-21.4773 6.2879,-39.0607 10.6117,-39.074 8.3811,-0.025 28.7765,-81.9581 26.8157,-107.7235 -0.644,-8.4622 4.3452,-15.3858 11.0869,-15.3858 6.7418,0 9.0696,-8.3082 5.173,-18.4626 -3.8967,-10.1544 -2.6492,-18.4626 2.7722,-18.4626 12.6336,0 39.6047,-86.8913 31.1948,-100.4986 -3.4935,-5.6528 0.1059,-10.2777 7.9999,-10.2777 7.8935,0 11.1636,-8.3082 7.2669,-18.4626 -3.8966,-10.1545 -1.1271,-18.4627 6.1543,-18.4627 7.2814,0 10.0509,-8.3084 6.1542,-18.4629 -3.8966,-10.1544 -2.5966,-18.4626 2.8891,-18.4626 10.9237,0 44.7234,-95.2928 42.5658,-120.0076 -0.7387,-8.4619 2.9798,-15.3855 8.2633,-15.3855 8.9341,0 28.4938,-52.0729 30.0515,-80.005 0.3776,-6.7696 4.287,-15.0778 8.6876,-18.4626 4.4006,-3.3848 9.9394,-17.2321 12.3084,-30.7713 2.3691,-13.5393 7.9079,-27.3862 12.3085,-30.7711 4.4006,-3.3848 9.9395,-17.232 12.3085,-30.7713 2.3691,-13.5392 11.2309,-31.936 19.6929,-40.8815 13.2631,-14.0211 16.9305,-28.2591 14.946,-58.0255 -0.2407,-3.6269 8.0665,-15.1001 18.4628,-25.4964 16.89656,-16.8965 24.54096,-42.9744 20.35976,-69.4549 -0.8017,-5.0771 3.3288,-9.2313 9.1787,-9.2313 10.4153,0 58.4386,-112.2972 52.048,-121.7087 -1.7843,-2.6273 1.7944,-8.1666 7.953,-12.3084 14.6084,-9.8242 182.2472,-349.3397 178.4437,-361.3986 -1.6012,-5.0774 2.9541,-9.2313 10.1233,-9.2313 7.1692,0 9.6117,-5.5388 5.4278,-12.3084 -4.1839,-6.7699 -3.0009,-12.3087 2.6289,-12.3087 9.9325,0 59.6108,-83.1948 58.2236,-97.5053 -0.3794,-3.9143 9.3135,-17.8538 21.5398,-30.9772 12.2263,-13.1236 22.2296,-28.3551 22.2296,-33.8484 0,-17.4577 5.029,-27.8879 24.2949,-50.3891 10.3317,-12.0663 16.2687,-23.1439 13.1934,-24.6168 -3.0753,-1.4738 5.233,-15.3202 18.4627,-30.7713 13.2298,-15.4512 23.7436,-32.0675 23.3642,-36.9253 -0.3795,-4.858 9.122,-19.3641 21.1143,-32.2363 11.9921,-12.872 18.8992,-28.1038 15.3489,-33.8481 -3.5502,-5.7447 -1.1157,-10.4445 5.4103,-10.4445 12.0754,0 83.223,-112.7569 76.9661,-121.9782 -1.8838,-2.7763 5.496,-10.0401 16.3995,-16.1422 10.9034,-6.1018 16.9702,-15.7123 13.482,-21.3564 -3.4883,-5.6444 2.2849,-13.5731 12.8296,-17.6194 10.5448,-4.0463 16.0836,-12.3544 12.3086,-18.4626 -3.7751,-6.1082 1.7637,-14.4164 12.3085,-18.4626 10.5446,-4.0466 16.0834,-12.3548 12.3084,-18.4629 -3.7751,-6.1082 1.7637,-14.4164 12.3084,-18.4627 10.5447,-4.0462 15.7248,-12.9349 11.5115,-19.7524 -4.2136,-6.8176 -2.8856,-12.3955 2.9509,-12.3955 9.4407,0 118.3907,-145.3391 119.5969,-159.5422 0.266,-3.1273 15.7148,-22.3631 34.3313,-42.7455 18.6166,-20.3825 33.8483,-44.1331 33.8483,-52.7789 0,-8.6457 5.7126,-15.7196 12.6946,-15.7196 6.9823,0 15.8488,-8.2191 19.7037,-18.2645 3.8548,-10.0457 28.2909,-41.547 54.3027,-70.0035 26.0114,-28.4562 44.5121,-56.2393 41.1122,-61.7402 -3.3997,-5.501 -1.3497,-10.0018 4.5557,-10.0018 10.8469,0 187.6512,-203.1167 187.6512,-215.5777 0,-3.6997 19.3858,-23.7477 43.0796,-44.5511 23.6937,-20.8037 43.0797,-41.8346 43.0797,-46.7358 0,-24.53 517.0991,-542.4195 541.5916,-542.4195 5.3567,0 26.7602,-19.3859 47.5638,-43.0797 20.8033,-23.6938 40.8514,-43.0796 44.5511,-43.0796 13.3998,0 215.5778,-177.2297 215.5778,-188.9762 0,-6.6341 3.2123,-8.8498 7.1382,-4.9237 7.5059,7.5058 242.2066,-170.6302 249.2879,-189.2076 2.2569,-5.9199 11.6745,-10.7634 20.9283,-10.7634 9.2541,0 21.7528,-8.8045 27.775,-19.5655 6.0222,-10.7611 13.2207,-18.0744 15.997,-16.2518 8.7675,5.7557 109.6698,-65.3841 109.6698,-77.3209 0,-6.2697 5.5779,-7.9519 12.3954,-3.7384 6.8174,4.2133 15.7062,-0.9663 19.7525,-11.5114 4.0463,-10.5448 12.3545,-16.0836 18.4626,-12.3085 6.1082,3.775 14.4164,-1.7637 18.4628,-12.3084 4.0463,-10.5448 11.9752,-16.3181 17.6192,-12.8298 5.6444,3.4882 15.752,-3.467 22.4616,-15.4563 6.7093,-11.9893 13.9733,-19.2199 16.1419,-16.0681 5.883,8.5503 157.7987,-87.5229 157.7987,-99.7936 0,-5.8074 4.1539,-9.2896 9.2314,-7.7383 13.843,4.2299 113.8531,-54.9364 113.8531,-67.3559 0,-5.9226 4.7001,-7.8636 10.4447,-4.3134 5.7444,3.5503 22.3607,-4.6468 36.9253,-18.2157 14.5645,-13.5689 26.4808,-21.3725 26.4808,-17.3412 0,4.0313 16.6165,-2.486 36.9255,-14.4828 20.3089,-11.9968 36.9254,-26.4838 36.9254,-32.1934 0,-5.7096 5.5389,-6.958 12.3085,-2.7741 6.7697,4.1839 12.3085,1.7415 12.3085,-5.4278 0,-7.1692 4.1539,-12.0683 9.2313,-10.8869 15.3073,3.5618 76.9279,-29.9009 76.9279,-41.7755 0,-6.0825 5.5387,-7.636 12.3084,-3.4521 6.7696,4.1839 12.3086,1.7415 12.3086,-5.4278 0,-7.1692 4.154,-11.8027 9.2314,-10.2967 11.5809,3.4352 351.1515,-164.7516 361.3986,-178.9982 4.1418,-5.7582 9.6806,-9.1372 12.3084,-7.5089 9.7625,6.0491 97.0918,-30.8127 97.0918,-40.9825 0,-5.8093 5.5388,-7.1391 12.3083,-2.9552 6.7696,4.1839 12.3085,1.7415 12.3085,-5.4278 0,-7.1692 4.1542,-12.1264 9.2313,-11.0159 15.9602,3.4908 76.9279,-16.6006 76.9279,-25.351 0,-4.5951 9.6929,-9.14937 21.54,-10.12047 11.8467,-0.97102 52.0031,-15.31459 89.2362,-31.87441 37.2333,-16.55979 70.466,-29.85503 73.8509,-29.54491 3.3848,0.31009 20.0011,-7.02926 36.9254,-16.30971 16.9241,-9.28045 37.5384,-18.01159 45.8098,-19.40256 34.159,-5.7445 243.738,-84.36867 247.3117,-92.77964 2.1299,-5.01285 11.8226,-6.06343 21.5396,-2.33469 9.7172,3.7288 17.6677,0.32147 17.6677,-7.57208 0,-7.89348 4.9487,-11.29308 10.9976,-7.5547 9.5571,5.90661 79.7962,-13.78993 136.7038,-38.33466 10.1546,-4.37973 22.1553,-8.44151 26.6685,-9.02616 4.513,-0.58473 11.978,-4.83552 16.5889,-9.44634 4.6108,-4.61079 16.1498,-5.4029 25.6425,-1.76027 9.4925,3.64268 17.2593,0.16404 17.2593,-7.72869 0,-7.89348 4.9027,-11.32182 10.8945,-7.61852 9.5078,5.87597 50.0044,-3.70266 112.1902,-26.5361 10.1544,-3.72856 26.7708,-7.96541 36.9253,-9.41528 23.9306,-3.4168 123.8607,-29.99171 147.7019,-39.27893 10.1544,-3.95571 37.6094,-9.49381 61.0113,-12.30688 23.4019,-2.81311 48.836,-10.3327 56.5205,-16.71027 7.6846,-6.37757 17.2479,-8.31958 21.2519,-4.31562 4.004,4.00397 14.4746,2.83343 23.268,-2.60111 8.7934,-5.43465 24.3937,-11.16984 34.6673,-12.74485 10.2735,-1.57507 43.368,-6.37469 73.5436,-10.66586 30.1757,-4.2912 60.3594,-11.19809 67.075,-15.34861 6.7156,-4.15057 23.5678,-8.83867 37.4489,-10.41808 13.8811,-1.5793 41.855,-6.1296 62.1639,-10.11161 20.3088,-3.98203 53.5418,-9.82628 73.8507,-12.98728 20.3092,-3.16098 53.5419,-8.51091 73.8508,-11.88874 81.6853,-13.58593 168.887,-25.92766 252.3236,-35.7115 30.4635,-3.57219 80.3127,-9.51357 110.7763,-13.20308 525.8313,-63.68513 1209.4776,-58.7643 1729.3384,12.44759 20.3091,2.78199 61.85,8.23016 92.3136,12.10704 30.4633,3.87689 72.0044,9.84454 92.3133,13.26145 20.3089,3.41691 53.5419,8.51659 73.8507,11.33263 20.3091,2.81604 53.5419,8.32112 73.8508,12.23352 20.3091,3.91239 50.7724,9.44517 67.6965,12.29511 16.9244,2.84993 44.6183,7.95731 61.5424,11.34972 36.8189,7.38024 95.2844,18.43903 129.2389,24.44563 13.5392,2.395 24.6171,5.52317 24.6171,6.95129 0,2.66628 30.1852,8.95114 74.0672,15.42134 13.6583,2.01375 30.8909,7.40548 38.295,11.98134 7.4038,4.57589 32.231,11.08459 55.1714,14.46382 60.5407,8.91781 77.1544,12.77356 90.9439,21.10648 12.0214,7.26429 80.1058,24.16717 116.9305,29.02963 10.1545,1.34091 33.8866,8.69609 52.7381,16.34506 18.8513,7.64895 38.2371,13.07682 43.0795,12.06194 4.8424,-1.01495 24.2284,4.52389 43.0797,12.30847 18.8513,7.78454 38.2373,13.56185 43.0797,12.83845 4.8424,-0.72337 12.9585,0.0344 18.0356,1.6809 5.0774,1.64783 14.7701,4.38084 21.5397,6.07327 6.7699,1.69228 15.0781,4.4618 18.4629,6.15424 3.3849,1.69227 10.3082,4.23357 15.3856,5.64703 5.0773,1.4134 25.46,9.27126 45.295,17.46178 19.8351,8.19053 47.529,16.03463 61.5424,17.43134 14.0131,1.39673 28.248,5.87126 31.6327,9.94346 7.818,9.40528 173.311,64.36895 193.858,64.38406 8.462,0.006 15.385,4.18693 15.385,9.29042 0,8.89926 64.823,27.5309 81.501,23.4252 4.433,-1.09114 11.448,2.69484 15.59,8.41373 7.727,10.66922 128.291,61.51251 161.385,68.05801 10.154,2.00845 21.232,7.25209 24.617,11.6527 3.385,4.40063 17.232,9.93941 30.771,12.30847 13.539,2.36908 27.386,7.62989 30.771,11.69089 10.394,12.4694 160.551,76.7243 179.298,76.7243 9.7,0 17.637,4.9426 17.637,10.9835 0,6.0409 5.066,7.8526 11.257,4.0261 6.191,-3.8265 13.115,-2.0312 15.385,3.9896 6.12,16.2274 375.427,198.4554 384.271,189.6115 4.165,-4.1649 7.572,-2.1304 7.572,4.5209 0,6.6514 22.156,24.5454 49.233,39.7644 27.079,15.2191 49.234,24.3314 49.234,20.2497 0,-4.0817 12.122,3.8722 26.938,17.6752 14.816,13.803 31.432,25.0964 36.926,25.0964 17.457,0 27.887,5.0289 50.388,24.295 12.066,10.3315 25.913,18.6398 30.771,18.4627 4.857,-0.1773 17.14,6.7917 27.295,15.4863 10.154,8.6945 24.001,16.8372 30.771,18.0948 6.77,1.2576 22.84,12.0984 35.712,24.0906 12.871,11.9922 27.523,19.2579 32.558,16.1461 5.035,-3.1119 12.465,2.9695 16.512,13.5142 4.046,10.5447 12.461,16.0172 18.701,12.1611 6.239,-3.8561 13.201,-2.5001 15.472,3.0135 6.069,14.7356 121.059,91.3722 121.059,80.6811 0,-5.0039 8.132,1.6534 18.071,14.7943 9.938,13.1407 18.247,18.6795 18.462,12.3085 0.212,-6.3712 7.315,-3.0743 15.777,7.3262 15.096,18.5544 212.048,159.0498 223.523,159.4505 3.217,0.1111 26.551,19.167 51.854,42.344 25.302,23.1769 47.923,40.2217 50.268,37.8773 2.344,-2.3445 27.412,16.8984 55.706,42.7616 28.294,25.8633 53.239,45.2289 55.433,43.0348 2.193,-2.1942 29.977,19.8719 61.74,49.0356 31.763,29.1636 59.904,50.871 62.537,48.2386 2.633,-2.6324 18.706,11.757 35.72,31.9765 17.014,20.2196 33.536,34.1609 36.716,30.9808 3.18,-3.18 22.614,13.3885 43.186,36.8189 20.572,23.4305 39.155,40.8496 41.296,38.709 2.14,-2.1405 48.335,37.5162 102.654,88.1262 54.32,50.6101 96.706,94.0748 94.193,96.5885 -2.514,2.5135 -66.206,-45.4099 -141.537,-106.4966 -404.467,-327.9808 -854.476,-611.1624 -1371.882,-863.2967 -319.005,-155.4519 -560.289,-254.2638 -885.828,-362.7669 C 8901.0545,606.2797 7415.5624,570.52695 6013.6146,962.98427 3938.6808,1543.8354 2225.8986,3012.9589 1337.7596,4973.6575 538.25664,6738.6783 472.52834,8754.6042 1155.6586,10558.817 c 289.3048,764.082 710.7336,1487.801 1219.0682,2093.503 58.8144,70.08 104.8825,129.471 102.3735,131.979 -2.5088,2.508 -40.0936,-31.289 -83.5218,-75.106 z"
    		id="path135"
    		inkscape:connector-curvature="0" />
	<path style="fill:#ffffff;fill-opacity:1;stroke-width:298.35501099"
    		d="m 9866.4569,8632.5509 -2.6626,-2766.1286 -740.0196,1904.3714 -740.02,1904.3712 -544.443,-0.022 -544.4434,-0.022 L 6771.5685,8206.04 c -287.815,-807.9926 -526.8678,-1469.1658 -531.2288,-1469.2732 -4.3608,-0.1136 -7.9287,903.6863 -7.9287,2008.4306 V 10753.822 H 5476.5332 4720.6554 V 7846.5823 4939.3599 H 6014.657 7308.6588 l 27.5425,118.9318 c 15.1483,65.4125 157.9863,684.3055 317.4175,1375.3179 159.4315,691.0125 291.9848,1258.4955 294.5632,1261.074 2.5781,2.5783 33.2631,-75.1751 68.1891,-172.7852 34.9255,-97.6099 273.0708,-764.2669 529.2116,-1481.4594 256.1406,-717.1928 467.6288,-1305.9053 469.9735,-1308.2501 2.345,-2.3448 537.8707,-4.2632 1190.0548,-4.2632 h 1185.788 V 8063.3026 11398.68 h -761.139 -761.1406 z"
    		id="path137"
    		inkscape:connector-curvature="0" />
	<path style="fill:#ffffff;fill-opacity:1;stroke-width:298.35501099"
    		d="m 9467.3556,9548.6286 c 0,-1735.4925 -2.1976,-2040.3413 -14.7047,-2040.3413 -9.1086,0 -31.2648,45.2623 -58.2185,118.9317 -23.9324,65.4127 -216.4829,594.6591 -427.89,1176.1036 l -384.3763,1057.1727 -849.8421,2.7046 -849.8423,2.7046 -212.2379,-637.0083 c -147.7705,-443.5166 -216.7968,-637.0078 -227.2469,-637.0078 -12.8584,0 -15.3944,168.5377 -17.6981,1176.104 l -2.6889,1176.1036 H 5365.484 4308.3584 V 7846.5823 4749.069 h 1596.128 1596.1275 l 5.4863,23.7865 c 3.0177,13.0824 98.254,582.7659 211.6368,1265.963 113.3826,683.1973 208.7037,1253.2187 211.825,1266.7142 3.1212,13.4955 11.318,22.6564 18.2152,20.3573 6.897,-2.2991 253.6665,-679.359 548.3761,-1504.5778 l 535.8358,-1500.3976 1274.8509,-2.6855 1274.848,-2.6854 V 7952.257 11588.971 H 10524.524 9467.3556 Z M 11396.685,8063.3026 V 4722.6398 l -1194.597,-2.5799 -1194.6021,-2.5797 -506.337,1418.7249 c -278.4854,780.2988 -506.8343,1426.0703 -507.4422,1435.0476 -0.6068,8.9774 -3.8185,18.701 -7.1345,21.6082 -3.3161,2.9072 -13.2469,23.7043 -22.0687,46.2157 l -16.04,40.9298 -13.7877,-67.3591 c -7.5831,-37.0474 -17.4987,-71.5067 -22.0345,-76.5762 -4.536,-5.0692 -5.9159,-15.2919 -3.0666,-22.7168 2.849,-7.4249 0.3068,-16.5123 -5.6504,-20.1937 -5.9569,-3.6817 -8.3355,-13.1962 -5.2858,-21.1435 3.0497,-7.9474 0.909,-17.3142 -4.7553,-20.8154 -5.6649,-3.5014 -7.813,-15.8755 -4.7735,-27.4987 3.2112,-12.2795 0.3181,-21.1329 -6.9023,-21.1329 -6.8357,0 -9.8856,-4.1148 -6.7772,-9.1436 8.0139,-12.9671 -17.4733,-128.2886 -28.3532,-128.2886 -4.9573,0 -6.4703,-4.1148 -3.3621,-9.1439 7.2938,-11.8013 -16.9858,-128.2886 -26.7393,-128.2886 -4.0699,0 -4.9116,-9.5145 -1.8704,-21.1434 3.2139,-12.289 0.3251,-21.1433 -6.8994,-21.1433 -6.8358,0 -9.8206,-4.2198 -6.6331,-9.3775 8.4786,-13.7184 -16.3206,-128.0549 -27.7744,-128.0549 -5.355,0 -7.1282,-4.2198 -3.9408,-9.3773 8.4785,-13.7186 -16.3205,-128.055 -27.7745,-128.055 -5.3549,0 -7.1281,-4.2199 -3.9405,-9.3774 8.4785,-13.7185 -16.3207,-128.055 -27.7745,-128.055 -5.3549,0 -7.1282,-4.2199 -3.9407,-9.3774 7.7589,-12.5544 -15.8371,-128.0549 -26.1609,-128.0549 -4.4673,0 -5.6344,-9.5146 -2.5933,-21.1434 3.2134,-12.2892 0.3249,-21.1435 -6.8997,-21.1435 -6.8355,0 -9.444,-4.8292 -5.7964,-10.7313 8.8537,-14.3254 -16.7202,-126.701 -28.834,-126.701 -5.2321,0 -6.5288,-4.8291 -2.8809,-10.7312 8.8536,-14.3257 -16.7202,-126.701 -28.8343,-126.701 -5.2321,0 -6.5287,-4.8291 -2.8811,-10.7314 8.8537,-14.3255 -16.7201,-126.7011 -28.8339,-126.7011 -5.2325,0 -6.5289,-4.829 -2.881,-10.7312 8.8536,-14.3257 -16.7202,-126.7011 -28.8342,-126.7011 -5.2322,0 -6.5288,-4.829 -2.8811,-10.7312 8.8536,-14.3255 -16.7202,-126.7012 -28.8339,-126.7012 -5.2324,0 -6.5289,-4.829 -2.8812,-10.7312 8.8537,-14.3254 -16.72,-126.7011 -28.834,-126.7011 -5.2323,0 -6.5287,-4.829 -2.8812,-10.7311 8.8538,-14.3256 -16.72,-126.701 -28.834,-126.701 -5.2323,0 -6.5287,-4.8291 -2.8812,-10.7313 8.8539,-14.3256 -16.7201,-126.7013 -28.834,-126.7013 -5.2321,0 -6.5288,-4.829 -2.8811,-10.7312 8.8538,-14.3254 -16.72,-126.7009 -28.8341,-126.7009 -5.2322,0 -6.5287,-4.8292 -2.8811,-10.7313 8.8537,-14.3256 -16.7201,-126.701 -28.8338,-126.701 -5.2322,0 -6.5289,-4.8291 -2.8811,-10.7312 7.7817,-12.5913 -16.0006,-126.7013 -26.4067,-126.7013 -3.897,0 -6.7082,-10.7039 -6.2465,-23.7863 l 0.8386,-23.7865 -1302.9831,-2.6845 -1302.9831,-2.6845 2.6619,2915.1926 2.6619,2915.1924 h 761.1637 761.1637 l 2.4412,-1987.4824 c 1.343,-1093.1156 2.7775,-1994.6189 3.1878,-2003.3405 0.4091,-8.7217 7.169,0.7931 15.0191,21.1433 24.6904,64.0077 30.3209,79.0629 32.6187,87.2169 1.2295,4.3608 3.4239,10.3073 4.8777,13.2145 1.4543,2.9072 3.5061,8.8539 4.5613,13.2145 1.0545,4.361 5.5955,23.39 10.0901,42.2869 4.4946,18.8971 12.5513,34.3583 17.9037,34.3583 5.3523,0 8.8254,3.5678 7.7178,7.9288 -4.3223,17.0161 14.8329,76.6449 24.6212,76.6449 5.6956,0 7.7334,4.2429 4.5284,9.4285 -7.4437,12.0445 27.3368,106.8603 39.199,106.8603 4.9033,0 6.1915,4.4071 2.8626,9.7933 -7.168,11.5977 35.583,131.3313 48.7269,136.4708 4.9875,1.9498 6.5955,7.5465 3.5736,12.4362 -6.7728,10.9585 36.7459,130.6648 49.285,135.568 4.9873,1.9498 6.7462,7.3025 3.9082,11.8944 -7.5603,12.2331 26.379,106.1342 38.361,106.1342 5.6111,0 7.6449,4.1373 4.52,9.1936 -7.9719,12.8988 35.854,138.8106 48.3151,138.8106 5.624,0 7.6684,4.1371 4.5432,9.1936 -7.9716,12.8985 35.8543,138.8102 48.3155,138.8102 5.624,0 7.6684,4.1373 4.5432,9.1937 -7.9721,12.8987 35.8541,138.8106 48.3154,138.8106 5.624,0 7.5834,4.2745 4.3544,9.499 -7.4352,12.0303 140.0047,427.9908 153.3992,432.7731 5.4622,1.9497 7.6254,7.2766 4.8073,11.8366 -7.5826,12.2692 36.9426,137.9073 48.8735,137.9073 5.6238,0 7.6681,4.1373 4.5432,9.1937 -7.9719,12.8986 35.854,138.8105 48.3154,138.8105 5.6238,0 7.6682,4.1371 4.5432,9.1936 -7.9719,12.8985 35.8539,138.8103 48.3154,138.8103 5.6239,0 7.6682,4.1373 4.5433,9.1937 -7.6011,12.2985 35.5624,138.8104 47.3595,138.8104 5.0984,0 6.5311,7.1359 3.1844,15.8576 -3.3469,8.7215 -0.5386,15.8578 6.2415,15.8578 6.7796,0 9.7538,4.1631 6.6089,9.2514 -7.5961,12.2909 25.02,107.0374 36.847,107.0374 5.0853,0 6.508,7.1359 3.161,15.8574 -3.3468,8.7218 -0.5386,15.8576 6.2417,15.8576 6.7796,0 9.6031,4.4071 6.2739,9.7934 -7.1677,11.5977 35.5833,131.3312 48.7271,136.4707 4.9876,1.9498 6.5955,7.5465 3.5736,12.4363 -6.7728,10.9584 36.7459,130.6645 49.285,135.5676 4.9874,1.9499 6.5955,7.5466 3.5736,12.4363 -3.0221,4.8897 4.4259,35.4058 16.5513,67.8132 l 22.0457,58.9231 h 545.798 c 300.1888,0 549.4671,-3.6692 553.9514,-8.1538 4.4845,-4.4843 9.4795,-19.9455 11.1002,-34.3579 1.6204,-14.4126 9.1671,-32.7645 16.7695,-40.7824 7.6023,-8.0178 11.3197,-21.1003 8.2604,-29.0723 -3.0589,-7.972 -1.6134,-14.4944 3.2108,-14.4944 10.2988,0 56.8081,-116.9986 49.4389,-124.368 -2.7555,-2.7553 2.1725,-12.1925 10.9525,-20.9719 8.7791,-8.7791 13.459,-22.4846 10.4001,-30.4565 -3.0592,-7.972 -1.6136,-14.4945 3.2105,-14.4945 10.2988,0 56.8082,-116.9987 49.4388,-124.3679 -2.7554,-2.7553 2.1725,-12.1929 10.9525,-20.972 8.7792,-8.7791 13.4591,-22.4845 10.4002,-30.4565 -3.0592,-7.9719 -1.6136,-14.4944 3.2105,-14.4944 10.299,0 56.8081,-116.9986 49.4389,-124.3679 -2.7555,-2.7554 2.1724,-12.1928 10.9523,-20.972 8.7791,-8.7792 13.4591,-22.4848 10.4002,-30.4568 -3.0592,-7.9717 -1.6136,-14.4942 3.2105,-14.4942 10.2989,0 56.8082,-116.9986 49.439,-124.368 -2.7555,-2.7555 2.1724,-12.1927 10.9523,-20.9718 8.7793,-8.7794 13.4593,-22.4849 10.4003,-30.4568 -3.0593,-7.9719 -1.6157,-14.4945 3.2105,-14.4945 11.938,0 55.5209,-115.8371 48.1005,-127.8436 -3.2592,-5.2738 -1.6317,-9.5886 3.6155,-9.5886 12.6023,0 78.176,-168.0988 70.45,-180.5996 -3.2942,-5.3301 -1.6953,-9.6912 3.5519,-9.6912 12.6024,0 78.1761,-168.0987 70.45,-180.5996 -3.2941,-5.3303 -1.6952,-9.6916 3.5519,-9.6916 12.6025,0 78.1762,-168.0984 70.4504,-180.5992 -3.2942,-5.3304 -1.6953,-9.6916 3.5519,-9.6916 12.6021,0 78.1758,-168.0987 70.45,-180.5993 -3.2942,-5.3304 -1.6953,-9.6915 3.5519,-9.6915 12.6024,0 78.1761,-168.0987 70.45,-180.5996 -3.2941,-5.3303 -1.6953,-9.6916 3.552,-9.6916 12.6024,0 78.1761,-168.0984 70.4503,-180.5992 -3.2945,-5.3303 -1.6953,-9.6915 3.5517,-9.6915 12.6024,0 78.176,-168.0988 70.4503,-180.5993 -3.2943,-5.3304 -1.6954,-9.6916 3.5518,-9.6916 12.6024,0 78.1762,-168.0987 70.4501,-180.5996 -3.2942,-5.3303 -1.6999,-9.6913 3.5428,-9.6913 5.2427,0 116.1301,-274.3731 246.4162,-609.7179 l 236.8834,-609.7183 7.1903,1378.8107 c 3.954,758.3457 4.4212,1985.9974 1.0382,2728.1153 -3.3831,742.117 -3.188,1357.026 0.434,1366.464 6.0044,15.648 73.9208,16.92 770.6916,14.447 l 764.107,-2.712 z"
    		id="path139"
    		inkscape:connector-curvature="0" />
	<path style="fill:#ffffff;fill-opacity:1;stroke-width:347.36953735"
    		d="m 5846.4366,15391.553 c -1016.4777,-296.53 -1947.3016,-786.391 -2757.0963,-1450.962 -180.8237,-148.396 -353.2808,-303.386 -345.8478,-310.819 3.0295,-3.03 48.8515,30.164 101.8269,73.764 235.5063,193.827 585.8261,438.883 877.9069,614.115 434.3996,260.616 839.2327,453.624 1329.3141,633.765 312.577,114.896 810.7197,260.65 836.4563,244.744 5.8992,-3.646 12.7429,-0.579 15.2085,6.82 2.4658,7.398 27.8321,14.356 56.3697,15.462 28.5378,1.109 51.9181,5.303 51.9562,9.321 0.1058,11.843 206.0267,51.565 220.6043,42.556 7.3296,-4.53 13.3264,-1.725 13.3264,6.234 0,8.743 12.0092,12.173 30.3418,8.669 16.6881,-3.191 31.9419,-0.998 33.8974,4.866 1.9553,5.868 35.3349,11.987 74.1761,13.598 38.8412,1.611 70.6672,7.712 70.7246,13.557 0.053,5.846 16.7206,8.191 37.0294,5.209 20.309,-2.981 36.9253,-0.418 36.9253,5.686 0,6.107 15.2317,9.891 33.8485,8.41 18.6166,-1.482 43.6335,1.498 55.5934,6.622 11.9597,5.124 35.4996,6.687 52.3108,3.473 16.8114,-3.213 30.5659,-0.653 30.5659,5.702 0,6.35 18.0013,10.352 40.0027,8.896 22.0012,-1.455 49.7221,1.493 61.6016,6.552 11.8797,5.059 40.9586,6.938 64.6194,4.175 23.6612,-2.762 43.0203,-0.185 43.0203,5.744 0,5.922 23.7655,9.306 52.8126,7.52 29.047,-1.786 59.609,0.947 67.9156,6.086 8.3063,5.134 47.2691,8.022 86.5838,6.417 39.3146,-1.606 78.0663,1.156 86.1152,6.127 8.0486,4.974 60.2504,8.927 116.0038,8.784 55.7536,-0.158 208.1765,2.773 338.7179,6.479 130.5412,3.708 246.8562,2.451 258.4778,-2.791 11.6213,-5.242 77.9025,-7.929 147.2913,-5.971 69.3891,1.958 126.1501,-1.193 126.1358,-7.013 -0.012,-5.817 35.9881,-8.718 80.0052,-6.449 44.0169,2.27 80.079,-0.505 80.1383,-6.154 0.053,-5.654 42.985,-11.047 95.3907,-11.982 186.1168,-3.325 938.4126,-126.989 938.4126,-154.26 0,-6.411 5.9044,-8.007 13.1207,-3.547 17.3013,10.692 331.5163,-67.657 331.5163,-82.664 0,-6.383 5.4941,-8.209 12.2086,-4.059 16.2142,10.02 160.11,-30.751 160.11,-45.366 0,-6.278 5.4917,-8.019 12.2039,-3.87 14.8024,9.148 147.8059,-31.235 147.8059,-44.878 0,-5.32 8.309,-6.486 18.463,-2.59 10.154,3.897 18.463,1.127 18.463,-6.154 0,-7.282 8.308,-10.051 18.463,-6.154 10.154,3.897 18.462,1.127 18.462,-6.154 0,-7.282 8.307,-10.051 18.462,-6.155 10.154,3.897 18.466,2.339 18.471,-3.463 0,-5.802 12.501,-11.263 27.769,-12.136 80.003,-4.577 607.459,-223.541 942.769,-391.374 1505.073,-753.333 2700.415,-1945.897 3449.144,-3441.126 137.836,-275.263 273.665,-586.921 263.185,-603.878 -3.923,-6.349 -2.037,-11.545 4.192,-11.545 14.676,0 66.169,-134.195 57.115,-148.846 -3.795,-6.14 -1.553,-11.164 4.978,-11.164 14.557,0 53.277,-109.632 44.013,-124.621 -3.661,-5.925 -0.211,-10.772 7.695,-10.772 7.893,0 11.163,-8.308 7.267,-18.462 -3.897,-10.155 -2.173,-18.463 3.833,-18.463 14.883,0 65.922,-156.272 56.184,-172.027 -4.282,-6.93 -2.933,-12.6 3.001,-12.6 13.838,0 55.777,-131.9695 46.638,-146.7554 -3.791,-6.1341 -0.579,-13.2565 7.132,-15.8274 7.712,-2.5718 14.67,-22.4171 15.462,-44.1029 0.788,-21.6855 4.935,-39.4409 9.209,-39.4562 11.548,-0.026 37.149,-110.1773 28.765,-123.7441 -3.97,-6.4225 -0.701,-11.6771 7.253,-11.6771 8.411,0 11.774,-10.309 8.034,-24.6171 -3.541,-13.5393 -0.775,-24.6168 6.153,-24.6168 6.925,0 9.694,-11.0776 6.154,-24.6169 -3.541,-13.5392 -0.775,-24.6171 6.155,-24.6171 6.924,0 9.694,-11.0775 6.154,-24.6168 -3.541,-13.5393 -2.299,-24.6168 2.759,-24.6168 12.782,0 41.176,-132.1708 31.692,-147.5161 -4.246,-6.8718 -2.913,-12.4942 2.964,-12.4942 13.642,0 57.761,-215.0816 47.521,-231.6525 -4.221,-6.8278 -2.188,-14.2719 4.516,-16.5425 6.704,-2.2701 13.662,-31.8225 15.463,-65.6707 1.799,-33.8484 7.274,-64.5445 12.166,-68.2138 4.891,-3.6692 10.43,-39.6716 12.308,-80.005 1.879,-40.3336 7.676,-76.4952 12.882,-80.3595 5.206,-3.864 10.745,-46.7355 12.308,-95.2698 1.564,-48.5341 7.554,-88.2984 13.313,-88.3648 5.759,-0.053 8.488,-25.0454 6.066,-55.5088 -2.424,-30.4636 0.296,-55.3881 6.053,-55.3881 5.753,0 8.563,-30.471 6.243,-67.7132 -2.318,-37.2425 0.579,-67.7059 6.449,-67.6966 5.866,0.01 8.372,-35.9857 5.571,-79.9883 -2.802,-44.0029 0,-80.0053 6.151,-80.0053 6.37,0 9.102,-53.3767 6.303,-123.0844 -2.719,-67.6966 -0.59,-123.0847 4.723,-123.0847 5.316,0 9.666,-119.4115 9.666,-265.3586 0,-145.9471 -4.154,-262.8344 -9.231,-259.7499 -5.078,3.0845 -10.129,-75.5166 -11.226,-174.6692 -6.069,-548.6403 -176.636,-1425.9535 -404.767,-2081.9358 -291.16,-837.2121 -757.733,-1680.5262 -1282.457,-2317.997 -43.607,-52.9756 -76.721,-98.8816 -73.589,-102.0138 7.58,-7.5811 160.899,163.1183 310.8,346.0346 1308.122,1596.2324 1922.527,3677.3635 1691.668,5730.0612 -136.166,1210.7264 -551.298,2362.7564 -1215.113,3372.0494 -303.911,462.078 -573.508,794.464 -967.054,1192.281 -620.897,627.631 -1268.3,1094.992 -2057.725,1485.473 -433.309,214.332 -783.899,352.056 -1253.563,492.444 l -182.7329,54.62 -1983.5558,-0.603 -1983.5561,-0.603 -147.7016,-43.088 z"
    		id="path141"
    		inkscape:connector-curvature="0" />
	<path style="fill:#ffffff;fill-opacity:1;stroke-width:602.1831665"
    		d="m 7424.1471,15669.393 c -327.4225,-26.828 -808.3227,-98.069 -1098.8739,-162.788 -134.9589,-30.062 -249.3807,-58.379 -254.2705,-62.928 -4.8898,-4.549 854.4727,-7.233 1909.6939,-5.964 l 1918.5844,2.307 -198.5296,49.7 c -465.4164,116.514 -982.8175,178.248 -1593.8086,190.165 -246.4466,4.807 -553.7045,0.08 -682.7957,-10.492 z"
    		id="path66"
    		inkscape:connector-curvature="0" />
	<g inkscape:groupmode="layer"
 		id="layer1"
 		inkscape:label="weiß"
 		transform="translate(7869.655,-8.6504024)" />
</svg>
