<?xml version="1.0" encoding="UTF-8" standalone="no"?>
<svg
   xmlns:dc="http://purl.org/dc/elements/1.1/"
   xmlns:cc="http://creativecommons.org/ns#"
   xmlns:rdf="http://www.w3.org/1999/02/22-rdf-syntax-ns#"
   xmlns:svg="http://www.w3.org/2000/svg"
   xmlns="http://www.w3.org/2000/svg"
   xmlns:sodipodi="http://sodipodi.sourceforge.net/DTD/sodipodi-0.dtd"
   xmlns:inkscape="http://www.inkscape.org/namespaces/inkscape"
   version="1.1"
   id="Layer_1"
   x="0px"
   y="0px"
   width="100px"
   height="100px"
   viewBox="0 0 100 100"
   enable-background="new 0 0 100 100"
   xml:space="preserve"
   inkscape:version="0.48.4 r9939"
   sodipodi:docname="icon_16017.svg"><metadata
     id="metadata13"><rdf:RDF><cc:Work
         rdf:about=""><dc:format>image/svg+xml</dc:format><dc:type
           rdf:resource="http://purl.org/dc/dcmitype/StillImage" /></cc:Work></rdf:RDF></metadata><defs
     id="defs11" /><sodipodi:namedview
     pagecolor="#009674"
     bordercolor="#666666"
     borderopacity="1"
     objecttolerance="10"
     gridtolerance="10"
     guidetolerance="10"
     inkscape:pageopacity="1"
     inkscape:pageshadow="2"
     inkscape:window-width="784"
     inkscape:window-height="480"
     id="namedview9"
     showgrid="false"
     inkscape:zoom="2.36"
     inkscape:cx="133.89831"
     inkscape:cy="50.211864"
     inkscape:window-x="0"
     inkscape:window-y="0"
     inkscape:window-maximized="0"
     inkscape:current-layer="Layer_1" /><g
     id="g3"
     style="fill:#ffffff;fill-opacity:1"><g
       id="g5"
       style="fill:#ffffff;fill-opacity:1"><path
         d="M93.075,32.489c0,0,2.321-11-1.814-15.823c-4.524-5.271-13.723-5.407-13.723-5.407S72.206,4.034,65.43,2.848    c-8.472-1.484-17.557,0.2-17.557,0.2s-5.199-4.613-16.547-2.603c-8.5,1.504-9.284,10.415-9.284,10.415s-7.755-0.263-10.896,4.006    c-3.406,4.628,0.202,14.42,0.202,14.42s-4.626,6.458-3.229,12.218c1.213,5.002,8.475,5.207,8.475,5.207s1.392,7.898,7.669,8.212    c5.121,0.254,10.696-2.604,10.696-2.604s6.405,2.902,12.915,2.804c6.706-0.101,13.521-3.203,13.521-3.203s4.965,4.66,11.1,6.008    c6.177,1.357,11.502-5.606,11.502-5.606s7.73,1.494,10.291-4.407C97.064,41.516,93.075,32.489,93.075,32.489z M66.438,58.126    c0,0-1.845-0.681-3.43-1.603c-1.316-0.767-2.422-1.803-2.422-1.803s-0.207,1.53-0.544,2.529s-1,2.042-1,2.042    s-0.119-0.68-0.275-1.429c-0.195-0.94-0.45-1.99-0.602-1.941c-1.188,0.395-2.421,0.401-2.421,0.401s0.818,2.489,0.402,4.405    c-0.646,2.959-2.222,7.61-2.222,7.61s-1.627-3.662-2.219-6.008c-0.515-2.039-0.404-4.606-0.404-4.606s-2.624-0.08-5.044-0.401    c-2.097-0.275-4.037-0.802-4.037-0.802l1.009,3.807c0,0-1.816-0.758-3.228-2.002c-1.308-1.154-1.615-2.805-1.615-2.805    l-2.421-0.602c0,0,1.156,3,4.237,6.209C53,72.375,50.625,73.688,49.375,84.75c-0.438,4.829-1.538,9.285-2.389,11.479    c-0.631,1.627-3.834,2.806-3.834,2.806s0.99,0.8,5.046,0.8c1.918,0,7.303-0.962,9.52-1.138c1.252-0.101,3.101,0.38,4.438,0.399    c1.617,0.023,2.625-0.399,2.625-0.399s-4.922-1.392-5.65-3.005c-0.561-1.242-1.01-2.807-1.01-2.807s-1.434-5.572-0.246-18.322    C59.312,63.875,66.438,58.126,66.438,58.126z"
         id="path7"
         style="fill:#ffffff;fill-opacity:1" /></g></g></svg>