<?xml version="1.0" encoding="UTF-8" standalone="no"?>
<!-- Generator: Adobe Illustrator 14.0.0, SVG Export Plug-In . SVG Version: 6.00 Build 43363)  -->

<svg
   xmlns:dc="http://purl.org/dc/elements/1.1/"
   xmlns:cc="http://creativecommons.org/ns#"
   xmlns:rdf="http://www.w3.org/1999/02/22-rdf-syntax-ns#"
   xmlns:svg="http://www.w3.org/2000/svg"
   xmlns="http://www.w3.org/2000/svg"
   xmlns:sodipodi="http://sodipodi.sourceforge.net/DTD/sodipodi-0.dtd"
   xmlns:inkscape="http://www.inkscape.org/namespaces/inkscape"
   version="1.0"
   id="Layer_1"
   x="0px"
   y="0px"
   width="85.750015"
   height="85.59375"
   viewBox="0 0 85.750018 85.59375"
   enable-background="new 0 0 89.783 100"
   xml:space="preserve"
   inkscape:version="0.47 r22583"
   sodipodi:docname="onehour.svg"><metadata
   id="metadata3005"><rdf:RDF><cc:Work
       rdf:about=""><dc:format>image/svg+xml</dc:format><dc:type
         rdf:resource="http://purl.org/dc/dcmitype/StillImage" /><dc:title /></cc:Work></rdf:RDF></metadata><defs
   id="defs3003"><inkscape:perspective
     sodipodi:type="inkscape:persp3d"
     inkscape:vp_x="0 : 42.796875 : 1"
     inkscape:vp_y="0 : 1000 : 0"
     inkscape:vp_z="85.750015 : 42.796875 : 1"
     inkscape:persp3d-origin="42.875008 : 28.53125 : 1"
     id="perspective9" /></defs><sodipodi:namedview
   pagecolor="#009674"
   bordercolor="#666666"
   borderopacity="1"
   objecttolerance="10"
   gridtolerance="10"
   guidetolerance="10"
   inkscape:pageopacity="1"
   inkscape:pageshadow="2"
   inkscape:window-width="1280"
   inkscape:window-height="749"
   id="namedview3001"
   showgrid="false"
   inkscape:zoom="7.64"
   inkscape:cx="26.632344"
   inkscape:cy="49.999997"
   inkscape:window-x="0"
   inkscape:window-y="24"
   inkscape:window-maximized="1"
   inkscape:current-layer="Layer_1"
   fit-margin-top="0"
   fit-margin-left="0"
   fit-margin-right="0"
   fit-margin-bottom="0" />
<path
   d="m 45.528007,42.71875 c 0,-10.462 0,-20.921 0,-31.383 0,-3.42 -5.304,-3.42 -5.304,0 0,10.461 0,20.921 0,31.383 0,3.42 5.304,3.42 5.304,0 l 0,0 z"
   id="path2997"
   inkscape:connector-curvature="0"
   style="fill:#ffffff" />
<path
   d="M 42.875007,-1.5975477e-6 C 19.264491,-1.5975477e-6 0.05112733,19.183474 7.3750297e-6,42.781248 c -2.24920287e-5,0.01038 1.50716673e-5,0.02087 0,0.03125 C 0.05137172,66.410068 19.264636,85.593748 42.875007,85.593748 c 23.611369,0 42.823639,-19.182684 42.875,-42.78125 2.3e-5,-0.01053 -1.5e-5,-0.02072 0,-0.03125 C 85.698888,19.182478 66.486528,-1.5975477e-6 42.875007,-1.5975477e-6 z m 0,5.3124999975477 c 20.686698,0 37.511713,16.7937496 37.5625,37.4687496 -1.7e-5,0.01042 2.6e-5,0.02083 0,0.03125 -0.05081,20.674999 -16.875802,37.46875 -37.5625,37.46875 -20.6857,0 -37.5116885,-16.793751 -37.5624996,-37.46875 -2.56e-5,-0.01042 1.71e-5,-0.02083 0,-0.03125 C 5.3633194,22.106248 22.18931,5.3124984 42.875007,5.3124984 z"
   id="path2999"
   inkscape:connector-curvature="0"
   style="fill:#ffffff" />
<path
   inkscape:connector-curvature="0"
   d="m 44.925444,44.425111 c 4.67057,-6.987588 9.3398,-13.973172 14.010369,-20.960759 1.526796,-2.284224 -2.882849,-5.231672 -4.409645,-2.947448 -4.670123,6.98692 -9.339799,13.973171 -14.010368,20.960759 -1.526797,2.284224 2.882848,5.231672 4.409644,2.947448 l 0,0 z"
   id="path2997-7"
   style="fill:#ffffff" /></svg>