<?xml version="1.0" encoding="UTF-8" standalone="no"?>
<!-- Generator: Adobe Illustrator 16.0.0, SVG Export Plug-In . SVG Version: 6.00 Build 0)  -->

<svg
   xmlns:dc="http://purl.org/dc/elements/1.1/"
   xmlns:cc="http://creativecommons.org/ns#"
   xmlns:rdf="http://www.w3.org/1999/02/22-rdf-syntax-ns#"
   xmlns:svg="http://www.w3.org/2000/svg"
   xmlns="http://www.w3.org/2000/svg"
   xmlns:sodipodi="http://sodipodi.sourceforge.net/DTD/sodipodi-0.dtd"
   xmlns:inkscape="http://www.inkscape.org/namespaces/inkscape"
   version="1.1"
   id="Layer_1"
   x="0px"
   y="0px"
   width="59.943px"
   height="100px"
   viewBox="20.03 0.001 59.943 100"
   enable-background="new 20.03 0.001 59.943 100"
   xml:space="preserve"
   inkscape:version="0.48.4 r9939"
   sodipodi:docname="icon_13133.svg"><metadata
     id="metadata10"><rdf:RDF><cc:Work
         rdf:about=""><dc:format>image/svg+xml</dc:format><dc:type
           rdf:resource="http://purl.org/dc/dcmitype/StillImage" /></cc:Work></rdf:RDF></metadata><defs
     id="defs8" /><sodipodi:namedview
     pagecolor="#009674"
     bordercolor="#666666"
     borderopacity="1"
     objecttolerance="10"
     gridtolerance="10"
     guidetolerance="10"
     inkscape:pageopacity="1"
     inkscape:pageshadow="2"
     inkscape:window-width="784"
     inkscape:window-height="480"
     id="namedview6"
     showgrid="false"
     inkscape:zoom="2.36"
     inkscape:cx="113.86981"
     inkscape:cy="50.211864"
     inkscape:window-x="0"
     inkscape:window-y="0"
     inkscape:window-maximized="0"
     inkscape:current-layer="Layer_1" /><g
     id="Your_Icon"
     style="fill:#ffffff;fill-opacity:1"><path
       d="M45.978,6.055c0-3.369,2.682-6.054,5.969-6.054C55.32,0.001,58,2.686,58,6.055c0,1.559-0.604,3.201-1.295,4.675   c-0.346,0.689-0.52,1.385-0.52,2.159c0,2.337,1.643,5.364,4.067,5.796c7.006,1.905,12.631,10.38,15.912,16.266   c1.211,2.158,1.817,4.67,1.817,7.181v11.503c0,1.126-0.955,2.074-2.073,2.074c-1.209,0-2.164-0.948-2.164-2.074v-7.612   c0-3.375-1.386-6.575-3.808-8.913l-5.36-5.186c-0.263-0.174-0.521-0.348-0.867-0.348c-0.604,0-1.123,0.432-1.209,1.037   c-1.992,9.776-1.125,19.895,2.504,29.413l14.711,30.791c0.175,0.437,0.257,0.953,0.257,1.475c0,1.469-0.861,2.68-2.339,3.2   l-7.694,2.422c-0.605,0.174-1.301-0.349-1.301-0.953c0-0.347,0.174-0.688,0.438-0.862l3.11-2.248   c0.521-0.438,0.861-0.953,0.861-1.644c0-0.437-0.084-0.694-0.342-1.042l-13.23-21.105c-1.733-2.68-2.944-5.447-3.725-8.563   l-21.797,35.38c-0.433,0.689-1.125,1.126-1.903,1.126c-0.692,0-1.298-0.263-1.731-0.783l-6.4-7.266   c-0.173-0.175-0.26-0.433-0.26-0.688c0-0.521,0.433-0.953,1.039-0.953c0.086,0,0.259,0,0.346,0.088l3.288,1.207   c0.346,0.174,0.432,0.174,0.778,0.174c0.779,0,1.471-0.432,1.816-1.121l2.077-3.723l9.515-21.968   c3.806-9.086,4.412-19.031,1.903-28.465c-0.086-0.342-0.346-0.604-0.692-0.604c-0.259,0-0.432,0.173-0.605,0.347   c-5.363,6.749-12.716,10.729-21.28,11.419c-0.951,0-1.816-0.779-1.816-1.643c0-0.695,0.519-1.385,1.21-1.559   c9.256-2.68,16.35-10.034,18.685-19.378l0.692-2.158c0.259-1.042,1.211-1.731,2.336-1.731c2.854-0.085,5.363-1.905,5.968-4.844   c0.346-2.248,0.346-2.422,0.346-2.422c0-0.521-0.433-0.952-1.039-0.952c0,0-0.172,0-0.519,0.084H47.45   c-0.779,0-1.471-0.689-1.471-1.469L45.978,6.055L45.978,6.055z"
       id="path4"
       style="fill:#ffffff;fill-opacity:1" /></g></svg>