<?xml version="1.0" encoding="UTF-8" standalone="no"?>
<!-- Generator: Adobe Illustrator 14.0.0, SVG Export Plug-In . SVG Version: 6.00 Build 43363)  -->

<svg
   xmlns:dc="http://purl.org/dc/elements/1.1/"
   xmlns:cc="http://creativecommons.org/ns#"
   xmlns:rdf="http://www.w3.org/1999/02/22-rdf-syntax-ns#"
   xmlns:svg="http://www.w3.org/2000/svg"
   xmlns="http://www.w3.org/2000/svg"
   xmlns:sodipodi="http://sodipodi.sourceforge.net/DTD/sodipodi-0.dtd"
   xmlns:inkscape="http://www.inkscape.org/namespaces/inkscape"
   version="1.0"
   id="Layer_1"
   x="0px"
   y="0px"
   width="100"
   height="100"
   viewBox="0 0 100 100"
   enable-background="new 0 0 100 100"
   xml:space="preserve"
   inkscape:version="0.48.4 r9939"
   sodipodi:docname="safari_cache.svg"><metadata
     id="metadata13"><rdf:RDF><cc:Work
         rdf:about=""><dc:format>image/svg+xml</dc:format><dc:type
           rdf:resource="http://purl.org/dc/dcmitype/StillImage" /></cc:Work></rdf:RDF></metadata><defs
     id="defs11" /><sodipodi:namedview
     pagecolor="#009674"
     bordercolor="#666666"
     borderopacity="1"
     objecttolerance="10"
     gridtolerance="10"
     guidetolerance="10"
     inkscape:pageopacity="1"
     inkscape:pageshadow="2"
     inkscape:window-width="1244"
     inkscape:window-height="1012"
     id="namedview9"
     showgrid="false"
     inkscape:zoom="3.2600288"
     inkscape:cx="81.845882"
     inkscape:cy="-12.883322"
     inkscape:window-x="136"
     inkscape:window-y="41"
     inkscape:window-maximized="0"
     inkscape:current-layer="Layer_1" /><g
     id="g3826"
     transform="matrix(0.62401954,0,0,0.62401954,52.950835,-0.21285436)"><g
       style="fill:#ffffff;fill-opacity:1"
       transform="matrix(0.69632169,0,0,0.69632169,4.9079326,17.382693)"
       id="g3001"><path
         style="fill:#ffffff;fill-opacity:1"
         inkscape:connector-curvature="0"
         id="path2780"
         d="m 58.823,17.958 c 7.955,0 14.862,4.381 18.675,10.834 l 22.476,0.026 V 16.637 c 0,-4.533 -3.647,-8.21 -8.121,-8.21 H 8.096 C 3.608,8.427 0,12.104 0,16.637 l 0.023,12.078 40.112,0.027 c 3.84,-6.43 10.719,-10.784 18.688,-10.784" /><path
         style="fill:#ffffff;fill-opacity:1"
         inkscape:connector-curvature="0"
         id="path2782"
         d="m 21.006,4.56 h -7.451 l -0.861,2.715 h 8.931 L 21.006,4.56 z" /><path
         style="fill:#ffffff;fill-opacity:1"
         inkscape:connector-curvature="0"
         id="path2784"
         d="M 88.191,3.112 H 78.27 L 76.51,7.3 H 89.8 L 88.191,3.112 z" /><path
         style="fill:#ffffff;fill-opacity:1"
         inkscape:connector-curvature="0"
         id="path2786"
         d="M 54.137,5.854 H 45.598 V 1.678 h 8.539 V 5.854 z M 61.965,0 H 37.855 L 32.888,7.352 H 66.513 L 61.965,0 z" /><path
         style="fill:#ffffff;fill-opacity:1"
         inkscape:connector-curvature="0"
         id="path2788"
         d="m 78.663,30.97 c 1.243,2.767 1.977,5.813 1.977,9.055 0,12.18 -9.77,22.067 -21.816,22.067 -12.062,0 -21.829,-9.888 -21.829,-22.067 0,-3.242 0.723,-6.288 1.976,-9.069 H 0 v 33.252 c 0,4.507 3.608,8.184 8.096,8.184 h 83.756 c 4.474,0 8.121,-3.677 8.121,-8.184 L 100,30.97 H 78.663 z" /><path
         style="fill:#ffffff;fill-opacity:1"
         inkscape:connector-curvature="0"
         id="path2790"
         d="m 70.72,32.775 c -0.342,-0.615 -0.773,-1.192 -1.242,-1.741 -2.547,-3.1 -6.359,-5.138 -10.654,-5.138 -4.309,0 -8.121,2.026 -10.668,5.112 -0.468,0.563 -0.9,1.14 -1.267,1.767 -1.278,2.127 -2.052,4.585 -2.052,7.25 0,7.788 6.26,14.114 13.987,14.114 7.689,0 13.95,-6.326 13.95,-14.114 -0.001,-2.664 -0.761,-5.122 -2.054,-7.25" /></g><g
       style="fill:#ffffff;fill-opacity:1"
       id="g3000"
       transform="matrix(0.46328053,0.88621168,-0.88621168,0.46328053,37.946368,61.605588)"><polyline
         style="fill:#ffffff;fill-opacity:1"
         points="83.4,19.73 50.292,44.265 37.88,53.461 31.681,7.649 83.4,19.73 "
         id="polyline3" /><path
         style="fill:#ffffff;fill-opacity:1"
         d="M 40.728,97.503 29.123,7.088 C 30.781,6.376 31.84,5.082 31.662,3.762 31.424,2.007 29.094,0.875 26.455,1.232 23.818,1.589 21.872,3.3 22.11,5.054 c 0.15,1.108 1.136,1.964 2.504,2.358 L 38,98 40.728,97.503 z"
         id="path5"
         inkscape:connector-curvature="0" /></g><g
       id="g3821"><path
         style="fill:none;stroke:#ffffff;stroke-width:3.54330707;stroke-linecap:butt;stroke-linejoin:miter;stroke-miterlimit:4;stroke-opacity:1;stroke-dasharray:none"
         d="m -61.962644,28.834101 48.159083,0"
         id="path3009"
         inkscape:connector-curvature="0" /><path
         style="fill:none;stroke:#ffffff;stroke-width:3.54330707;stroke-linecap:butt;stroke-linejoin:miter;stroke-miterlimit:4;stroke-opacity:1;stroke-dasharray:none"
         d="m -70.849871,43.856243 57.037909,-0.289944"
         id="path3011"
         inkscape:connector-curvature="0" /><path
         style="fill:none;stroke:#ffffff;stroke-width:3.54330707;stroke-linecap:butt;stroke-linejoin:miter;stroke-miterlimit:4;stroke-opacity:1;stroke-dasharray:none"
         d="M -82.803866,58.877695 -13.821051,58.60593"
         id="path3013"
         inkscape:connector-curvature="0" /></g></g></svg>