<?xml version="1.0" encoding="UTF-8" standalone="no"?>
<!-- Generator: Adobe Illustrator 14.0.0, SVG Export Plug-In . SVG Version: 6.00 Build 43363)  -->

<svg
   xmlns:dc="http://purl.org/dc/elements/1.1/"
   xmlns:cc="http://creativecommons.org/ns#"
   xmlns:rdf="http://www.w3.org/1999/02/22-rdf-syntax-ns#"
   xmlns:svg="http://www.w3.org/2000/svg"
   xmlns="http://www.w3.org/2000/svg"
   xmlns:sodipodi="http://sodipodi.sourceforge.net/DTD/sodipodi-0.dtd"
   xmlns:inkscape="http://www.inkscape.org/namespaces/inkscape"
   version="1.0"
   id="Layer_1"
   x="0px"
   y="0px"
   width="99.94px"
   height="98.44px"
   viewBox="0 0 99.94 98.44"
   enable-background="new 0 0 99.94 98.44"
   xml:space="preserve"
   inkscape:version="0.47 r22583"
   sodipodi:docname="scenic.svg"><metadata
   id="metadata12"><rdf:RDF><cc:Work
       rdf:about=""><dc:format>image/svg+xml</dc:format><dc:type
         rdf:resource="http://purl.org/dc/dcmitype/StillImage" /></cc:Work></rdf:RDF></metadata><defs
   id="defs10"><inkscape:perspective
     sodipodi:type="inkscape:persp3d"
     inkscape:vp_x="0 : 49.220001 : 1"
     inkscape:vp_y="0 : 1000 : 0"
     inkscape:vp_z="99.940002 : 49.220001 : 1"
     inkscape:persp3d-origin="49.970001 : 32.813334 : 1"
     id="perspective14" /></defs><sodipodi:namedview
   pagecolor="#009674"
   bordercolor="#666666"
   borderopacity="1"
   objecttolerance="10"
   gridtolerance="10"
   guidetolerance="10"
   inkscape:pageopacity="1"
   inkscape:pageshadow="2"
   inkscape:window-width="640"
   inkscape:window-height="504"
   id="namedview8"
   showgrid="false"
   inkscape:zoom="2.3973994"
   inkscape:cx="49.970001"
   inkscape:cy="49.220001"
   inkscape:window-x="0"
   inkscape:window-y="24"
   inkscape:window-maximized="0"
   inkscape:current-layer="Layer_1" />
<path
   id="path5026"
   d="M40.883,0H21.858v13.612h19.024V0z"
   style="fill:#ffffff" />
<path
   id="path5028"
   d="M62.348,58.74c-1.803,0-3.259-1.456-3.259-3.26V17.873h28.739L99.94,69.184l-0.062,3.318V95.18  c0,1.742-1.409,3.169-3.169,3.169H68.774c-1.758,0-3.169-1.427-3.169-3.169V58.74h-3.033"
   style="fill:#ffffff" />
<path
   id="path5030"
   d="M37.533,58.816c1.804,0,3.259-1.441,3.259-3.245V17.932h-28.71L-0.06,69.247L0,72.592v22.679  c0,1.742,1.425,3.169,3.169,3.169h27.936c1.774,0,3.2-1.427,3.2-3.169V58.816h2.986"
   style="fill:#ffffff" />
<path
   id="path5032"
   d="M54.858,17.932h-9.853v34.94h9.853V17.932z"
   style="fill:#ffffff" />
<path
   id="path5034"
   d="M78.127,0H59.089v13.612h19.038V0z"
   style="fill:#ffffff" />
</svg>