<?xml version="1.0" encoding="UTF-8" standalone="no"?>
<svg
   xmlns:dc="http://purl.org/dc/elements/1.1/"
   xmlns:cc="http://creativecommons.org/ns#"
   xmlns:rdf="http://www.w3.org/1999/02/22-rdf-syntax-ns#"
   xmlns:svg="http://www.w3.org/2000/svg"
   xmlns="http://www.w3.org/2000/svg"
   xmlns:sodipodi="http://sodipodi.sourceforge.net/DTD/sodipodi-0.dtd"
   xmlns:inkscape="http://www.inkscape.org/namespaces/inkscape"
   version="1.1"
   id="Home_svg"
   x="0px"
   y="0px"
   width="100px"
   height="100px"
   viewBox="0 0 100 100"
   enable-background="new 0 0 100 100"
   xml:space="preserve"
   inkscape:version="0.48.4 r9939"
   sodipodi:docname="icon_3571.svg"><metadata
     id="metadata13"><rdf:RDF><cc:Work
         rdf:about=""><dc:format>image/svg+xml</dc:format><dc:type
           rdf:resource="http://purl.org/dc/dcmitype/StillImage" /></cc:Work></rdf:RDF></metadata><defs
     id="defs11" /><sodipodi:namedview
     pagecolor="#009674"
     bordercolor="#666666"
     borderopacity="1"
     objecttolerance="10"
     gridtolerance="10"
     guidetolerance="10"
     inkscape:pageopacity="1"
     inkscape:pageshadow="2"
     inkscape:window-width="818"
     inkscape:window-height="1053"
     id="namedview9"
     showgrid="false"
     inkscape:zoom="2.36"
     inkscape:cx="50"
     inkscape:cy="50"
     inkscape:window-x="0"
     inkscape:window-y="0"
     inkscape:window-maximized="0"
     inkscape:current-layer="Home_svg" /><g
     id="g3"
     style="fill:#ffffff;fill-opacity:1"><path
       d="M50,0C22.383,0,0,22.385,0,50c0,27.618,22.383,50,50,50s50.002-22.383,50.002-50C100.002,22.385,77.617,0,50,0z    M51.785,91.027v-7.099h-5.952v7.099c-17.857-1.444-35.416-19.003-36.861-36.86h7.099v-5.953H8.972   C10.417,27.976,27.976,10.415,45.833,8.97v10.673h5.952V8.97c20.238,1.445,37.799,19.006,39.242,39.245h-10.67v5.953h10.67   C89.584,72.024,72.023,89.583,51.785,91.027z"
       id="path5"
       style="fill:#ffffff;fill-opacity:1" /><path
       d="M50.073,44.641c-0.107-0.006-0.209-0.032-0.317-0.032c-0.653,0-1.27,0.133-1.854,0.337L30.268,32.479l13.915,18.407   c0.321,2.809,2.679,4.999,5.573,4.999c3.113,0,5.639-2.525,5.639-5.64c0-0.4-0.045-0.789-0.123-1.166L76.84,22.793L50.073,44.641z"
       id="path7"
       style="fill:#ffffff;fill-opacity:1" /></g></svg>