<?xml version="1.0" encoding="UTF-8" standalone="no"?>
<!-- Created with Inkscape (http://www.inkscape.org/) -->

<svg
   xmlns:dc="http://purl.org/dc/elements/1.1/"
   xmlns:cc="http://creativecommons.org/ns#"
   xmlns:rdf="http://www.w3.org/1999/02/22-rdf-syntax-ns#"
   xmlns:svg="http://www.w3.org/2000/svg"
   xmlns="http://www.w3.org/2000/svg"
   xmlns:sodipodi="http://sodipodi.sourceforge.net/DTD/sodipodi-0.dtd"
   xmlns:inkscape="http://www.inkscape.org/namespaces/inkscape"
   width="474.05142"
   height="410.48669"
   id="svg2"
   version="1.1"
   inkscape:version="0.47 r22583"
   sodipodi:docname="stealth.svg">
  <defs
     id="defs4">
    <inkscape:perspective
       sodipodi:type="inkscape:persp3d"
       inkscape:vp_x="0 : 526.18109 : 1"
       inkscape:vp_y="0 : 1000 : 0"
       inkscape:vp_z="744.09448 : 526.18109 : 1"
       inkscape:persp3d-origin="372.04724 : 350.78739 : 1"
       id="perspective10" />
    <inkscape:perspective
       id="perspective2824"
       inkscape:persp3d-origin="0.5 : 0.33333333 : 1"
       inkscape:vp_z="1 : 0.5 : 1"
       inkscape:vp_y="0 : 1000 : 0"
       inkscape:vp_x="0 : 0.5 : 1"
       sodipodi:type="inkscape:persp3d" />
  </defs>
  <sodipodi:namedview
     id="base"
     pagecolor="#009674"
     bordercolor="#666666"
     borderopacity="1.0"
     inkscape:pageopacity="1"
     inkscape:pageshadow="2"
     inkscape:zoom="0.35"
     inkscape:cx="214.11428"
     inkscape:cy="220.20702"
     inkscape:document-units="px"
     inkscape:current-layer="layer1"
     showgrid="false"
     inkscape:window-width="613"
     inkscape:window-height="504"
     inkscape:window-x="0"
     inkscape:window-y="24"
     inkscape:window-maximized="0" />
  <metadata
     id="metadata7">
    <rdf:RDF>
      <cc:Work
         rdf:about="">
        <dc:format>image/svg+xml</dc:format>
        <dc:type
           rdf:resource="http://purl.org/dc/dcmitype/StillImage" />
        <dc:title />
      </cc:Work>
    </rdf:RDF>
  </metadata>
  <g
     inkscape:label="Ebene 1"
     inkscape:groupmode="layer"
     id="layer1"
     transform="translate(-135.88572,-440.18163)">
    <path
       style="fill:#ffffff"
       d="m 181.98762,814.56069 c -25.35604,-19.48792 -46.1019,-39.31765 -46.1019,-44.06604 0,-19.08287 83.96247,-99.90587 126.02917,-121.31676 49.97022,-25.43361 76.1337,-46.94341 142.71697,-117.33203 54.90753,-58.04554 144.64937,-107.52663 157.59172,-86.89156 26.34784,42.00862 47.71357,92.93832 47.71357,113.7353 0,49.53797 -77.42381,114.91246 -136.09228,114.91246 -14.81847,0 -42.22836,-14.27892 -60.91074,-31.73093 l -33.96809,-31.73092 -17.91814,13.10206 -17.91814,13.10211 23.11797,37.9216 c 33.66106,55.21601 29.43243,83.89362 -19.60042,132.92647 -55.6612,55.66119 -99.28505,57.61327 -164.65969,7.36824 z m 33.43736,-52.65052 c -4.54994,-31.00091 -24.41701,-36.84212 -24.41701,-7.17903 0,10.64236 20.47101,40.13988 27.85669,40.13988 0.76885,0 -0.77898,-14.8324 -3.43968,-32.96085 z M 435.91404,585.5189 c -4.54999,-31.00085 -24.417,-36.84211 -24.417,-7.17897 0,10.6423 20.47095,40.13983 27.85663,40.13983 0.76886,0 -0.77898,-14.83235 -3.43963,-32.96086 z"
       id="path2830" />
  </g>
</svg>
