<?xml version="1.0" encoding="UTF-8" standalone="no"?>
<!-- Created with Inkscape (http://www.inkscape.org/) -->

<svg
   xmlns:dc="http://purl.org/dc/elements/1.1/"
   xmlns:cc="http://creativecommons.org/ns#"
   xmlns:rdf="http://www.w3.org/1999/02/22-rdf-syntax-ns#"
   xmlns:svg="http://www.w3.org/2000/svg"
   xmlns="http://www.w3.org/2000/svg"
   xmlns:sodipodi="http://sodipodi.sourceforge.net/DTD/sodipodi-0.dtd"
   xmlns:inkscape="http://www.inkscape.org/namespaces/inkscape"
   width="63.249256"
   height="64.128792"
   id="svg2"
   version="1.1"
   inkscape:version="0.47 r22583"
   sodipodi:docname="thorn.svg">
  <defs
     id="defs4">
    <inkscape:perspective
       sodipodi:type="inkscape:persp3d"
       inkscape:vp_x="0 : 526.18109 : 1"
       inkscape:vp_y="0 : 1000 : 0"
       inkscape:vp_z="744.09448 : 526.18109 : 1"
       inkscape:persp3d-origin="372.04724 : 350.78739 : 1"
       id="perspective10" />
    <inkscape:perspective
       id="perspective2830"
       inkscape:persp3d-origin="0.5 : 0.33333333 : 1"
       inkscape:vp_z="1 : 0.5 : 1"
       inkscape:vp_y="0 : 1000 : 0"
       inkscape:vp_x="0 : 0.5 : 1"
       sodipodi:type="inkscape:persp3d" />
    <inkscape:perspective
       id="perspective2830-8"
       inkscape:persp3d-origin="0.5 : 0.33333333 : 1"
       inkscape:vp_z="1 : 0.5 : 1"
       inkscape:vp_y="0 : 1000 : 0"
       inkscape:vp_x="0 : 0.5 : 1"
       sodipodi:type="inkscape:persp3d" />
    <inkscape:perspective
       id="perspective2830-6"
       inkscape:persp3d-origin="0.5 : 0.33333333 : 1"
       inkscape:vp_z="1 : 0.5 : 1"
       inkscape:vp_y="0 : 1000 : 0"
       inkscape:vp_x="0 : 0.5 : 1"
       sodipodi:type="inkscape:persp3d" />
    <inkscape:perspective
       id="perspective2830-7"
       inkscape:persp3d-origin="0.5 : 0.33333333 : 1"
       inkscape:vp_z="1 : 0.5 : 1"
       inkscape:vp_y="0 : 1000 : 0"
       inkscape:vp_x="0 : 0.5 : 1"
       sodipodi:type="inkscape:persp3d" />
    <inkscape:perspective
       id="perspective2881"
       inkscape:persp3d-origin="0.5 : 0.33333333 : 1"
       inkscape:vp_z="1 : 0.5 : 1"
       inkscape:vp_y="0 : 1000 : 0"
       inkscape:vp_x="0 : 0.5 : 1"
       sodipodi:type="inkscape:persp3d" />
    <inkscape:perspective
       sodipodi:type="inkscape:persp3d"
       inkscape:vp_x="0 : 0.5 : 1"
       inkscape:vp_y="0 : 1000 : 0"
       inkscape:vp_z="1 : 0.5 : 1"
       inkscape:persp3d-origin="0.5 : 0.33333333 : 1"
       id="perspective3978" />
    <inkscape:perspective
       id="perspective3968"
       inkscape:persp3d-origin="372.04724 : 350.78739 : 1"
       inkscape:vp_z="744.09448 : 526.18109 : 1"
       inkscape:vp_y="0 : 1000 : 0"
       inkscape:vp_x="0 : 526.18109 : 1"
       sodipodi:type="inkscape:persp3d" />
    <inkscape:perspective
       id="perspective3316"
       inkscape:persp3d-origin="0.5 : 0.33333333 : 1"
       inkscape:vp_z="1 : 0.5 : 1"
       inkscape:vp_y="0 : 1000 : 0"
       inkscape:vp_x="0 : 0.5 : 1"
       sodipodi:type="inkscape:persp3d" />
    <inkscape:perspective
       id="perspective3332"
       inkscape:persp3d-origin="0.5 : 0.33333333 : 1"
       inkscape:vp_z="1 : 0.5 : 1"
       inkscape:vp_y="0 : 1000 : 0"
       inkscape:vp_x="0 : 0.5 : 1"
       sodipodi:type="inkscape:persp3d" />
    <inkscape:perspective
       id="perspective3405"
       inkscape:persp3d-origin="200 : 133.33333 : 1"
       inkscape:vp_z="400 : 200 : 1"
       inkscape:vp_y="0 : 1000 : 0"
       inkscape:vp_x="0 : 200 : 1"
       sodipodi:type="inkscape:persp3d" />
    <inkscape:perspective
       id="perspective4678"
       inkscape:persp3d-origin="0.5 : 0.33333333 : 1"
       inkscape:vp_z="1 : 0.5 : 1"
       inkscape:vp_y="0 : 1000 : 0"
       inkscape:vp_x="0 : 0.5 : 1"
       sodipodi:type="inkscape:persp3d" />
    <inkscape:perspective
       id="perspective4754"
       inkscape:persp3d-origin="200 : 133.33333 : 1"
       inkscape:vp_z="400 : 200 : 1"
       inkscape:vp_y="0 : 1000 : 0"
       inkscape:vp_x="0 : 200 : 1"
       sodipodi:type="inkscape:persp3d" />
    <inkscape:perspective
       id="perspective5071"
       inkscape:persp3d-origin="0.5 : 0.33333333 : 1"
       inkscape:vp_z="1 : 0.5 : 1"
       inkscape:vp_y="0 : 1000 : 0"
       inkscape:vp_x="0 : 0.5 : 1"
       sodipodi:type="inkscape:persp3d" />
    <inkscape:perspective
       id="perspective16"
       inkscape:persp3d-origin="297.64001 : 280.63 : 1"
       inkscape:vp_z="595.28003 : 420.94501 : 1"
       inkscape:vp_y="0 : 1000 : 0"
       inkscape:vp_x="0 : 420.94501 : 1"
       sodipodi:type="inkscape:persp3d" />
  </defs>
  <sodipodi:namedview
     id="base"
     pagecolor="#009674"
     bordercolor="#666666"
     borderopacity="1.0"
     inkscape:pageopacity="1"
     inkscape:pageshadow="2"
     inkscape:zoom="7.5005314"
     inkscape:cx="1.8267393"
     inkscape:cy="32.064395"
     inkscape:document-units="px"
     inkscape:current-layer="layer1"
     showgrid="false"
     inkscape:window-width="1280"
     inkscape:window-height="749"
     inkscape:window-x="0"
     inkscape:window-y="24"
     inkscape:window-maximized="1"
     inkscape:snap-global="true">
    <inkscape:grid
       type="xygrid"
       id="grid2818"
       empspacing="5"
       visible="true"
       enabled="true"
       snapvisiblegridlinesonly="true" />
  </sodipodi:namedview>
  <metadata
     id="metadata7">
    <rdf:RDF>
      <cc:Work
         rdf:about="">
        <dc:format>image/svg+xml</dc:format>
        <dc:type
           rdf:resource="http://purl.org/dc/dcmitype/StillImage" />
        <dc:title />
      </cc:Work>
    </rdf:RDF>
  </metadata>
  <g
     inkscape:label="Ebene 1"
     inkscape:groupmode="layer"
     id="layer1"
     transform="translate(-47.604093,-568.68674)">
    <path
       style="fill:#ffffff;fill-opacity:1;stroke:#ffffff;stroke-width:0.95803994000000003;stroke-miterlimit:4;stroke-opacity:1;stroke-dasharray:none"
       d="m 99.446244,569.16576 c -0.791822,3.49631 0.48103,6.70376 -0.149477,10.17917 -2.425755,0.83258 -4.685387,3.19388 -7.185297,3.44298 -3.804186,-2.21266 -7.627915,-4.81082 -11.376724,-6.58654 1.651467,2.91407 6.892619,5.29429 7.334991,8.38283 -1.887291,-0.38577 -3.997422,-1.79862 -5.68836,-0.59875 1.220257,1.13138 3.388777,2.21118 3.892036,3.44295 -2.774194,2.36669 -5.299303,5.93959 -7.933766,9.4307 -2.237887,-0.2541 -6.929601,-1.25408 -7.334994,1.04786 1.693909,0.0451 3.459146,0.29517 5.239279,1.04786 -3.933807,3.08758 -5.046329,10.87855 -9.879784,11.37671 -2.500868,-3.6366 -0.08956,-7.98567 -0.149476,-11.9755 -3.094086,5.29119 -3.436778,10.14389 -4.341117,15.11909 -3.227402,1.73041 -6.741885,6.39055 -8.981625,10.32884 -1.608098,-1.21506 -3.259303,-2.55104 -4.790198,-3.14355 -0.279503,1.88299 2.654315,3.18724 4.341117,4.7902 -1.327258,2.13978 -1.935931,4.54864 -2.544793,6.8859 l 3.592649,0 c 0.525736,-1.39409 1.066492,-2.83341 1.347243,-4.19142 1.571369,0.3141 3.188305,1.85875 4.640508,1.19754 -0.234805,1.13416 -0.789465,2.10177 -1.496941,2.99388 l 4.041734,0 c 1.347626,-2.81851 2.592982,-5.66351 4.790198,-7.78408 1.560214,1.54224 2.078754,3.30462 4.041729,4.7902 1.096335,-3.00402 -3.067258,-5.25075 -3.143567,-8.08343 1.678153,-2.47546 2.602469,-6.06982 4.341121,-7.78408 2.586611,3.08822 2.741093,7.74288 5.538666,10.02948 -0.597051,-4.60666 -2.03406,-9.04754 -2.84418,-13.62215 5.685151,-1.7803 11.499495,-3.25517 17.065084,-5.98774 2.516388,3.24688 1.624359,7.06231 1.946018,10.62827 3.966573,-6.18836 -2.027211,-14.44894 6.436832,-19.0111 1.49191,1.35152 3.03248,4.53462 5.08959,4.34109 -0.80025,-2.49535 -4.3473,-4.59168 -4.49081,-7.18529 2.24593,-4.58061 5.85587,-4.22331 9.5804,-3.14355 l 0,-6.13747 c -2.04834,0.76083 -3.97003,1.43795 -5.83806,2.24541 -0.72773,-0.97256 -1.29623,-1.83837 -1.79633,-2.84416 2.49,-1.96191 5.06095,-3.49537 7.63439,-4.7902 l 0,-4.04174 c -2.99958,1.12997 -5.96653,2.14562 -8.98163,3.14355 -0.90655,-2.63693 -0.46465,-5.38175 -1.946018,-7.93376 z m 0,14.66998 c 1.667896,1.68535 1.100446,3.77343 -0.898163,5.98774 -1.30035,-1.27163 -1.75647,-2.7577 -2.993877,-4.04169 1.299919,-0.64913 2.595857,-1.29358 3.89204,-1.94605 z m -7.93377,4.19145 c 2.000292,1.40581 3.607069,2.86461 5.089586,4.34109 -2.939838,4.14358 -6.014957,7.48819 -9.281009,8.98163 -1.813809,-1.03836 -3.645102,-2.53591 -5.388977,-2.99388 2.172882,-4.13427 6.524396,-7.15311 9.5804,-10.32884 z M 80.13575,600.30204 c 1.301305,0.9627 1.700425,2.06903 3.293261,2.99388 -2.418426,2.12963 -5.045801,2.3861 -7.634378,3.14359 0.721452,-1.8366 2.479743,-4.89281 4.341117,-6.13747 z m -13.322742,14.07122 c 0.383677,1.32987 -0.85845,2.90948 -1.19755,4.34114 -1.031378,0.42563 -1.305327,-1.12426 -2.095711,-1.49694 1.036935,-1.52947 2.234484,-1.4886 3.293261,-2.8442 z m -6.586522,5.68836 c 1.045745,0.91369 3.089293,0.72088 3.442954,2.2454 -1.310071,2.65357 -4.875369,2.74731 -7.334994,2.24541 1.26344,-1.50689 2.536727,-3.66471 3.89204,-4.49081 z"
       id="rect5226" />
  </g>
</svg>
