<?xml version="1.0" encoding="UTF-8"?><!DOCTYPE svg PUBLIC "-//W3C//DTD SVG 1.1//EN" "http://www.w3.org/Graphics/SVG/1.1/DTD/svg11.dtd"><svg xmlns="http://www.w3.org/2000/svg" xmlns:xlink="http://www.w3.org/1999/xlink" version="1.1" width="24" height="24" viewBox="0 0 24 24">
  <path d="M 9,11.5 C 7.62,11.5 6.5,10.4 6.5,9 6.5,7.62 7.62,6.5 9,6.5 10.4,6.5 11.5,7.62 11.5,9 11.5,10.4 10.4,11.5 9,11.5 M 9,2 C 5.13,2 2,5.13 2,9 2,14.3 9,22 9,22 9,22 16,14.3 16,9 16,5.13 12.9,2 9,2 Z"/>
  <path d="M 18.3,19.1 19,19.7 C 18.6,20 18,20.3 17.5,20.3 16.5,20.3 15.7,19.6 15.4,18.7 L 14,19.1 C 14.4,20.6 15.8,21.8 17.5,21.8 18.5,21.8 19.5,21.3 20.1,20.7 L 20.8,21.3 21.3,18.3 Z M 16.3,16.6 C 16.6,16.3 17.2,16 17.8,16 18.8,16 19.6,16.7 19.9,17.6 L 21.3,17.2 C 20.9,15.7 19.5,14.5 17.8,14.5 16.8,14.5 15.8,15 15.2,15.6 L 14.5,15 14,18 17,17.2 Z" />
</svg>
