<?xml version="1.0" encoding="UTF-8"?><!DOCTYPE svg PUBLIC "-//W3C//DTD SVG 1.1//EN" "http://www.w3.org/Graphics/SVG/1.1/DTD/svg11.dtd"><svg xmlns="http://www.w3.org/2000/svg" xmlns:xlink="http://www.w3.org/1999/xlink" version="1.1" width="24" height="24" viewBox="0 0 24 24">
  <path d="M 11.8,13.9 H 3.43 V 7.33 H 11.8 M 10,3.13 V 4.33 H 5.23 V 3.13 H 4.03 V 4.33 H 3.43 C 2.76,4.33 2.23,4.86 2.23,5.53 V 13.9 A 1.2,1.2 0 0 0 3.43,15.1 H 11.8 A 1.2,1.2 0 0 0 13,13.9 V 5.53 C 13,4.86 12.5,4.33 11.8,4.33 H 11.2 V 3.13" />
  <path d="M 15,13 H 22 V 14 H 15 V 13 M 15,17 V 16 H 22 V 17 H 15 M 13.5,12.8 A 0.75,0.75 0 0 1 14.3,13.5 0.75,0.75 0 0 1 13.5,14.3 0.75,0.75 0 0 1 12.8,13.5 0.75,0.75 0 0 1 13.5,12.8 M 13.5,15.8 A 0.75,0.75 0 0 1 14.3,16.5 0.75,0.75 0 0 1 13.5,17.3 0.75,0.75 0 0 1 12.8,16.5 0.75,0.75 0 0 1 13.5,15.8 M 15,20 V 19 H 22 V 20 H 15 M 13.5,18.8 A 0.75,0.75 0 0 1 14.3,19.5 0.75,0.75 0 0 1 13.5,20.3 0.75,0.75 0 0 1 12.8,19.5 0.75,0.75 0 0 1 13.5,18.8 Z" />
</svg>
