<?xml version="1.0" encoding="UTF-8"?><!DOCTYPE svg PUBLIC "-//W3C//DTD SVG 1.1//EN" "http://www.w3.org/Graphics/SVG/1.1/DTD/svg11.dtd"><svg xmlns="http://www.w3.org/2000/svg" xmlns:xlink="http://www.w3.org/1999/xlink" version="1.1" width="24" height="24" viewBox="0 0 24 24">
  <path d="M 18.9,9.2 C 18.1,10.1 16.6,11 15,11 13.5,11 12.6,10.5 11.8,10.1 11,9.8 10.2,9.3 8.9,9.3 7.7,9.3 6.6,10 6,10.6 L 5,9.1 C 5.9,8.2 7.3,7.2 8.9,7.2 10.4,7.2 11.3,7.8 12.1,8.1 12.9,8.4 13.7,9 15,9 16.2,9 17.3,8.2 17.9,7.6 L 18.9,9.2" />
  <path d="M 19.3,14 H 5.3 V 12 H 19.3 V 14 M 19.3,17.1 H 5.3 V 15.1 H 19.3 Z" />
</svg>
