<?xml version="1.0" encoding="UTF-8"?><!DOCTYPE svg PUBLIC "-//W3C//DTD SVG 1.1//EN" "http://www.w3.org/Graphics/SVG/1.1/DTD/svg11.dtd"><svg xmlns="http://www.w3.org/2000/svg" xmlns:xlink="http://www.w3.org/1999/xlink" version="1.1" width="24" height="24" viewBox="0 0 24 24">
  <path d="M 7,1.5 C 3.96,1.5 1.5,3.96 1.5,7 V 17 C 1.5,20 3.96,22.5 7,22.5 H 17 C 20,22.5 22.5,20 22.5,17 V 7 C 22.5,3.96 20,1.5 17,1.5 Z M 7,2.5 H 17 C 19.5,2.5 21.5,4.5 21.5,7 V 17 C 21.5,19.5 19.5,21.5 17,21.5 H 7 C 4.5,21.5 2.5,19.5 2.5,17 V 7 C 2.5,4.5 4.5,2.5 7,2.5 Z"/>
  <path d="M 12,4 C 16.4,4 20,7.6 20,12 20,16.4 16.4,20 12,20 7.6,20 4,16.4 4,12 4,7.6 7.6,4 12,4 M 12,5.6 C 8.46,5.6 5.6,8.46 5.6,12 5.6,15.5 8.46,18.4 12,18.4 15.5,18.4 18.4,15.5 18.4,12 18.4,8.46 15.5,5.6 12,5.6 Z"  />
  <path d="M 12,7.57 C 15.1,7.57 16.4,8.91 16.4,12 16.4,15.1 15.1,16.4 12,16.4 8.91,16.4 7.57,15.1 7.57,12 7.57,8.91 8.91,7.57 12,7.57" />
</svg>
