<?xml version="1.0" encoding="UTF-8"?><!DOCTYPE svg PUBLIC "-//W3C//DTD SVG 1.1//EN" "http://www.w3.org/Graphics/SVG/1.1/DTD/svg11.dtd"><svg xmlns="http://www.w3.org/2000/svg" xmlns:xlink="http://www.w3.org/1999/xlink" version="1.1" width="24" height="24" viewBox="0 0 24 24">
  <path d="M 12.6,2 C 18.2,2 22.6,6.5 22.6,12 22.6,17.5 18.2,22 12.6,22 9.12,22 6.05,20.2 4.26,17.4 L 5.84,16.2 C 7.25,18.5 9.76,20 12.6,20 17.1,20 20.6,16.4 20.6,12 20.6,7.58 17.1,4 12.6,4 8.56,4 5.2,7.06 4.71,11 H 7.47 L 3.73,14.7 0,11 H 2.69 C 3.19,5.95 7.45,2 12.6,2"/>
</svg>
