<?xml version="1.0" encoding="UTF-8"?><!DOCTYPE svg PUBLIC "-//W3C//DTD SVG 1.1//EN" "http://www.w3.org/Graphics/SVG/1.1/DTD/svg11.dtd"><svg xmlns="http://www.w3.org/2000/svg" xmlns:xlink="http://www.w3.org/1999/xlink" version="1.1" width="24" height="24" viewBox="0 0 24 24">
  <path d="M 10,4 A 4,4 0 0 1 14,8 4,4 0 0 1 10,12 4,4 0 0 1 6,8 4,4 0 0 1 10,4 M 10,14 C 14.4,14 18,15.8 18,18 V 20 H 2 V 18 C 2,15.8 5.58,14 10,14 Z" />
  <path d="M 18,2 A 3.5,3.5 0 0 1 21.5,5.5 C 21.5,6.69 20.9,7.73 20,8.37 V 9.5 A 0.5,0.5 0 0 1 19.5,10 H 16.5 A 0.5,0.5 0 0 1 16,9.5 V 8.37 C 15.1,7.74 14.5,6.67 14.5,5.5 A 3.5,3.5 0 0 1 18,2 M 16.5,11.5 V 11 H 19.5 V 11.5 A 0.5,0.5 0 0 1 19,12 H 17 A 0.5,0.5 0 0 1 16.5,11.5 M 18,3 A 2.5,2.5 0 0 0 15.5,5.5 C 15.5,6.53 16.1,7.41 17,7.79 V 9 H 19 V 7.79 C 19.9,7.41 20.5,6.53 20.5,5.5 A 2.5,2.5 0 0 0 18,3 Z" />
</svg>
