<?xml version="1.0" encoding="UTF-8"?><!DOCTYPE svg PUBLIC "-//W3C//DTD SVG 1.1//EN" "http://www.w3.org/Graphics/SVG/1.1/DTD/svg11.dtd"><svg xmlns="http://www.w3.org/2000/svg" xmlns:xlink="http://www.w3.org/1999/xlink" version="1.1" width="24" height="24" viewBox="0 0 24 24">
  <path d="M 19.6,10.6 11.4,18.7 A 4,4 0 0 1 5.78,18.7 4,4 0 0 1 5.78,13.1 L 14.6,4.22 A 2.5,2.5 0 0 1 18.2,4.22 2.5,2.5 0 0 1 18.2,7.76 L 10.7,15.2 A 1,1 0 0 1 9.32,15.2 1,1 0 0 1 9.32,13.8 L 16,7.05 15,5.99 8.26,12.7 A 2.5,2.5 0 0 0 8.26,16.2 2.5,2.5 0 0 0 11.8,16.2 L 19.2,8.82 A 4,4 0 0 0 19.2,3.16 4,4 0 0 0 13.6,3.16 L 4.72,12 A 5.5,5.5 0 0 0 4.72,19.8 5.5,5.5 0 0 0 12.5,19.8 L 20.6,11.6 Z"  />
</svg>
