<?xml version="1.0" encoding="UTF-8"?>
<svg width="24" height="24" version="1.1" viewBox="0 0 24 24" xmlns="http://www.w3.org/2000/svg">
 <path d="M 16.6,8.6 C 17.7,9.12 19.1,8.94 20,8.02 21.2,6.85 21.2,4.95 20,3.78 18.8,2.61 16.9,2.61 15.8,3.78 14.9,4.7 14.7,6.07 15.2,7.19 12.9,9.68 10.2,12.2 7.86,14.5 6.74,14 5.37,14.2 4.45,15.1 3.28,16.3 3.28,18.2 4.45,19.3 5.62,20.5 7.52,20.5 8.69,19.3 9.61,18.4 9.79,17.1 9.27,15.9 M 18.6,5.23 C 19,5.62 19,6.25 18.6,6.64 18.2,7.03 17.6,7.03 17.2,6.64 16.8,6.25 16.8,5.62 17.2,5.23 17.6,4.84 18.2,4.84 18.6,5.23 M 5.89,17.9 C 5.5,17.5 5.5,16.9 5.89,16.5 6.28,16.1 6.91,16.1 7.3,16.5 7.69,16.9 7.69,17.5 7.3,17.9 6.91,18.3 6.28,18.3 5.89,17.9 Z"/>
</svg>
