<svg width="0" height="0" class="hidden"
    xmlns="http://www.w3.org/2000/svg"
    xmlns:xlink="http://www.w3.org/1999/xlink">
    <symbol xmlns="http://www.w3.org/2000/svg" viewBox="0 0 24 24" id="filter_voted">
        <path fill="#00796B" d="M23,10C23,8.89 22.1,8 21,8H14.68L15.64,3.43C15.66,3.33 15.67,3.22 15.67,3.11C15.67,2.7 15.5,2.32 15.23,2.05L14.17,1L7.59,7.58C7.22,7.95 7,8.45 7,9V19A2,2 0 0,0 9,21H18C18.83,21 19.54,20.5 19.84,19.78L22.86,12.73C22.95,12.5 23,12.26 23,12V10M1,21H5V9H1V21Z"/>
    </symbol>
    <symbol xmlns="http://www.w3.org/2000/svg" viewBox="0 0 24 24" id="filter_favorite">
        <path fill="#388E3C" d="M12,21.35L10.55,20.03C5.4,15.36 2,12.27 2,8.5C2,5.41 4.42,3 7.5,3C9.24,3 10.91,3.81 12,5.08C13.09,3.81 14.76,3 16.5,3C19.58,3 22,5.41 22,8.5C22,12.27 18.6,15.36 13.45,20.03L12,21.35Z" />
    </symbol>
    <symbol xmlns="http://www.w3.org/2000/svg" viewBox="0 0 24 24" id="filter_watchlist">
        <path fill="#424242" d="M7,17H4C2.38,17 0.96,15.74 0.76,14.14L0.26,11.15C0.15,10.3 0.39,9.5 0.91,8.92C1.43,8.34 2.19,8 3,8H9C9.83,8 10.58,8.35 11.06,8.96C11.17,9.11 11.27,9.27 11.35,9.45C11.78,9.36 12.22,9.36 12.64,9.45C12.72,9.27 12.82,9.11 12.94,8.96C13.41,8.35 14.16,8 15,8H21C21.81,8 22.57,8.34 23.09,8.92C23.6,9.5 23.84,10.3 23.74,11.11L23.23,14.18C23.04,15.74 21.61,17 20,17H17C15.44,17 13.92,15.81 13.54,14.3L12.64,11.59C12.26,11.31 11.73,11.31 11.35,11.59L10.43,14.37C10.07,15.82 8.56,17 7,17Z" />
    </symbol>
    <symbol xmlns="http://www.w3.org/2000/svg" viewBox="0 0 24 24" id="filter_premium">
        <path fill="#558B2F" d="M2,5H22V20H2V5M20,18V7H4V18H20M17,8A2,2 0 0,0 19,10V15A2,2 0 0,0 17,17H7A2,2 0 0,0 5,15V10A2,2 0 0,0 7,8H17M17,13V12C17,10.9 16.33,10 15.5,10C14.67,10 14,10.9 14,12V13C14,14.1 14.67,15 15.5,15C16.33,15 17,14.1 17,13M15.5,11A0.5,0.5 0 0,1 16,11.5V13.5A0.5,0.5 0 0,1 15.5,14A0.5,0.5 0 0,1 15,13.5V11.5A0.5,0.5 0 0,1 15.5,11M13,13V12C13,10.9 12.33,10 11.5,10C10.67,10 10,10.9 10,12V13C10,14.1 10.67,15 11.5,15C12.33,15 13,14.1 13,13M11.5,11A0.5,0.5 0 0,1 12,11.5V13.5A0.5,0.5 0 0,1 11.5,14A0.5,0.5 0 0,1 11,13.5V11.5A0.5,0.5 0 0,1 11.5,11M8,15H9V10H8L7,10.5V11.5L8,11V15Z" />
    </symbol>
    <symbol xmlns="http://www.w3.org/2000/svg" viewBox="0 0 24 24" id="trackable_all">
        <path fill="#616161" d="M14,12H10V10H14M14,16H10V14H14M20,8H17.19C16.74,7.22 16.12,6.55 15.37,6.04L17,4.41L15.59,3L13.42,5.17C12.96,5.06 12.5,5 12,5C11.5,5 11.04,5.06 10.59,5.17L8.41,3L7,4.41L8.62,6.04C7.88,6.55 7.26,7.22 6.81,8H4V10H6.09C6.04,10.33 6,10.66 6,11V12H4V14H6V15C6,15.34 6.04,15.67 6.09,16H4V18H6.81C7.85,19.79 9.78,21 12,21C14.22,21 16.15,19.79 17.19,18H20V16H17.91C17.96,15.67 18,15.34 18,15V14H20V12H18V11C18,10.66 17.96,10.33 17.91,10H20V8Z" transform="scale(0.85,0.85) translate(1.8,1.8)" />
    </symbol>
    <symbol xmlns="http://www.w3.org/2000/svg" viewBox="0 0 24 24" id="trackable_travelbug">
        <path fill="#616161" d="M14,12H10V10H14M14,16H10V14H14M20,8H17.19C16.74,7.22 16.12,6.55 15.37,6.04L17,4.41L15.59,3L13.42,5.17C12.96,5.06 12.5,5 12,5C11.5,5 11.04,5.06 10.59,5.17L8.41,3L7,4.41L8.62,6.04C7.88,6.55 7.26,7.22 6.81,8H4V10H6.09C6.04,10.33 6,10.66 6,11V12H4V14H6V15C6,15.34 6.04,15.67 6.09,16H4V18H6.81C7.85,19.79 9.78,21 12,21C14.22,21 16.15,19.79 17.19,18H20V16H17.91C17.96,15.67 18,15.34 18,15V14H20V12H18V11C18,10.66 17.96,10.33 17.91,10H20V8Z" />
    </symbol>
</svg>