<svg width="0" height="0" class="hidden"
	xmlns="http://www.w3.org/2000/svg"
	xmlns:xlink="http://www.w3.org/1999/xlink">
	<symbol xmlns="http://www.w3.org/2000/svg" viewBox="0 0 36 36" id="type_advlab_disabled">
		<ellipse id="marker_gc" cx="18" cy="18" rx="14" ry="14" fill="#fff" stroke="#383838" stroke-width=".75" />
		<circle id="background" fill="#90a4ae" cx="12" cy="12" r="12" transform="translate(6.3 6.3) scale(0.975)" />
		<g transform="translate(7,7) scale(0.916666666667)">
			<path fill="#fff" d="M19 15C19 18.87 15.87 22 12 22C8.13 22 5 18.87 5 15C5 12.21 6.64 9.8 9 8.67V5C9 4.45 9.45 4 10 4H10.5L9.5 2H14.5L13.5 4H14C14.55 4 15 4.45 15 5V8.67C17.36 9.8 19 12.21 19 15M11 6V10.1C8.72 10.56 7 12.58 7 15L7.08 15.91L9 13.93L13.07 18L16.93 14.14C16.58 12.12 15 10.5 13 10.1V6H11M13.07 12C13.62 12 14.07 12.45 14.07 13C14.07 13.55 13.62 14 13.07 14C12.5 14 12.07 13.55 12.07 13C12.07 12.45 12.5 12 13.07 12Z" transform="translate(8.7,-1) scale(0.8) rotate(30)" />
		</g>
	</symbol>
	<symbol xmlns="http://www.w3.org/2000/svg" viewBox="0 0 36 36" id="type_earth_disabled">
		<ellipse id="marker_gc" cx="18" cy="18" rx="14" ry="14" fill="#fff" stroke="#383838" stroke-width=".75" />
		<circle id="background" fill="#90a4ae" cx="12" cy="12" r="12" transform="translate(6.3 6.3) scale(0.975)" />
		<g transform="translate(7,7) scale(0.916666666667)">
			<g>
				<circle cx="12" cy="12" r="8.25" fill="none" stroke="#fff" stroke-linecap="square" stroke-linejoin="round" stroke-width="1.5" />
				<path d="m6.5849 6.4523c0.66071-0.33577 1.6998-1.0669 2.1682-0.49249 0.27645 0.33905-0.81335 0.8516-0.54241 1.1951 0.21006 0.26629 0.68717-0.32667 0.99899-0.19324 0.25896 0.11081 0.38737 0.43794 0.45673 0.71094 0.063786 0.25106 0.11244 0.5791-0.057018 0.77502-0.29328 0.3391-0.90704 0.10105-1.3131 0.29101-0.23944 0.112-0.45954 0.28056-0.62794 0.48433-0.37664 0.45574-0.21146 1.5206-0.79935 1.5834-0.16547 0.01768-0.15431-0.34149-0.31407-0.38808-0.42379-0.12358-1.0499 0.02984-1.2559 0.42028-0.14622 0.27714-0.034071 0.78814 0.25697 0.90425 0.21575 0.08607 0.38401-0.44158 0.59959-0.3551 0.42554 0.17071 0.046876 1.0002 0.37101 1.3245 0.11873 0.11879 0.31821 0.15482 0.48512 0.13614 0.21033-0.02354 0.34768-0.2812 0.55826-0.30246 0.15285-0.01543 0.29218 0.09571 0.44093 0.13412 0.17378 0.04488 0.37965 0.0093 0.52661 0.11234 0.14051 0.09853 0.13264 0.33739 0.27254 0.43678 0.11928 0.08474 0.3128 0.0068 0.42814 0.09683 0.1332 0.10397 0.10184 0.34068 0.22854 0.45248 0.26558 0.23435 0.758 0.09934 1.0007 0.35731 0.18885 0.20071 0.2482 0.51909 0.23012 0.79408-0.01262 0.1921-0.1788 0.34389-0.23197 0.52891-0.1082 0.37651 0.04385 0.83537-0.17141 1.1627-0.13517 0.20553-0.55498 0.15305-0.62774 0.38804-0.020837 0.0673 0.084296 0.12284 0.085527 0.19328 0.00446 0.25531-0.13173 0.50694-0.28532 0.71094-0.11612 0.15423-0.33815 0.20369-0.45693 0.35588-0.086851 0.11129-0.071082 0.28786-0.17125 0.38733-0.28476 0.28278-0.77117 0.70266-1.1045 0.47916-0.27582-0.18495-0.021026-0.6665 0.019811-0.99607 0.031262-0.2523 0.19552-0.49009 0.17141-0.74318-0.01339-0.14054-0.1199-0.25585-0.17141-0.3873-0.13839-0.35318-0.20255-0.73564-0.369-1.0765-0.22968-0.47031-0.74415-0.80404-0.85833-1.3148-0.045048-0.20152 0.027657-0.41533 0.085527-0.61355 0.089622-0.30698 0.53912-0.58446 0.3996-0.87221-0.059798-0.12332-0.27309-0.044188-0.39955-0.097024-0.45402-0.18969-0.86582-0.47583-1.2559-0.77573-0.31503-0.24218-0.62512-0.50314-0.8661-0.81908-0.2012-0.26379-0.43878-0.54777-0.46833-0.87821-0.081327-0.90948 0.33725-1.845 0.83969-2.6075 0.4194-0.63643 1.0441-1.1573 1.7236-1.5026z" fill="#faffff" stroke-width="0" />
				<path d="m10.149 5.324c-0.02269-0.10905 0.15137-0.17544 0.36074-0.25622 0.20938-0.080781 0.45407-0.17594 0.71925-0.23961 0.26518-0.063668 0.55048-0.095946 0.81704-0.063328 0.26656 0.032617 0.51402 0.12955 0.57991 0.32342 0.06589 0.19387-0.04838 0.4846-0.3144 0.71039-0.26602 0.22579-0.68452 0.38736-0.97972 0.56524-0.2952 0.17788-0.46648 0.37179-0.60893 0.35616-0.14245-0.015634-0.25672-0.24194-0.27133-0.39877-0.01462-0.15683 0.07102-0.24298 0.11385-0.32864 0.04282-0.085656 0.04282-0.17181-0.06602-0.29034-0.10885-0.11854-0.3277-0.26924-0.35039-0.37829z" fill="#fcffff" stroke-width="0" />
			</g>
			<g fill="#fff" stroke-width="0">
				<path d="m15.451 17.85c-0.01413-0.12881-0.04251-0.38753-0.11362-0.67828-0.07111-0.29075-0.18526-0.61363-0.21404-0.94758-0.02878-0.33395 0.02836-0.67855 0.02395-0.91534-0.0044-0.23679-0.07114-0.36615-0.1024-0.51978-0.03126-0.15363-0.0264-0.3313-0.06874-0.47123s-0.13284-0.24219-0.15603-0.36755 0.02206-0.27338-0.05573-0.38923-0.28-0.19938-0.55263-0.2038c-0.27263-0.0044-0.61518 0.07093-0.90768-0.02809-0.2925-0.09903-0.5351-0.37364-0.70418-0.62401-0.16908-0.25036-0.26418-0.4766-0.29302-0.68141-0.02884-0.2048 0.0092-0.38771 0.08055-0.60323 0.0713-0.21552 0.17586-0.46337 0.3614-0.74364 0.18555-0.28027 0.45194-0.59253 0.75686-0.78106 0.30492-0.18853 0.64749-0.25308 1.0426-0.2205 0.39506 0.032584 0.84219 0.16181 1.2085 0.25327 0.36633 0.091457 0.65188 0.14526 0.85595 0.10746 0.20406-0.037808 0.3278-0.16704 0.27599-0.26377-0.05181-0.096735-0.28036-0.16128-0.45655-0.27395-0.17619-0.11267-0.29967-0.27424-0.39531-0.27454-0.09564-3.046e-4 -0.16237 0.16126-0.23798 0.19389-0.07562 0.03262-0.16126-0.064264-0.2612-0.20417-0.099937-0.13991-0.21396-0.32294-0.28994-0.41505-0.07598-0.092104-0.1142-0.092104-0.10508 0.010751 0.0091 0.10285 0.06626 0.30737 0.01651 0.42266-0.04975 0.11529-0.20684 0.14268-0.26447 0.083902-0.05764-0.058783-0.01483-0.20452-0.03083-0.32027-0.016-0.11574-0.09193-0.2019-0.21106-0.20803-0.11913-0.00613-0.28095 0.069028-0.40477 0.1336-0.12382 0.064569-0.20946 0.11851-0.2763 0.20507-0.06683 0.08656-0.11439 0.20506-0.1973 0.29353-0.08291 0.088479-0.20179 0.14765-0.31554 0.14808-0.11375 4.219e-4 -0.22317-0.058753-0.27847-0.18512-0.0553-0.12636-0.0553-0.32026 0.05444-0.45015 0.10975-0.12988 0.32859-0.19456 0.3905-0.30157s-0.0332-0.25772-0.01657-0.34722c0.01663-0.089506 0.14497-0.11648 0.27286-0.21864s0.25622-0.27982 0.37336-0.36875c0.11714-0.088927 0.22196-0.088927 0.25582-0.14941 0.03386-0.060486-0.0026-0.18265 0.0168-0.2424 0.01939-0.059751 0.09394-0.055953 0.13068-0.010503 0.03675 0.04545 0.03675 0.1316 0.10866 0.19042 0.07191 0.058815 0.21456 0.091026 0.32876 0.013254 0.1142-0.077772 0.20132-0.2657 0.33962-0.39522s0.327-0.19998 0.32492-0.2166c-0.0021-0.016619-0.19517 0.02055-0.23848-0.070749-0.04331-0.091299 0.06413-0.31162 0.09468-0.42199 0.03055-0.11037-0.01701-0.11037-0.10789-0.034955-0.09088 0.075415-0.22402 0.22617-0.27602 0.33987-0.05199 0.11369-0.02336 0.18918-0.03321 0.29115-0.0099 0.10197-0.05754 0.23106-0.11872 0.27413-0.06118 0.043068-0.13724-5.7e-6 -0.19589-0.086272-0.05865-0.086266-0.09908-0.21624-0.19406-0.19335-0.09498 0.022886-0.24407 0.19973-0.32846 0.17909-0.08439-0.020637-0.10425-0.23975-0.02373-0.40914 0.08052-0.16939 0.26127-0.28782 0.35152-0.3788 0.09025-0.090974 0.09025-0.15565 0.23803-0.24784 0.14777-0.09219 0.44279-0.21068 0.76665-0.22657 0.32386-0.015891 0.67588 0.070326 0.97636 0.14806 0.30048 0.077737 0.54939 0.14695 1.0125 0.66442s1.1407 1.4824 1.5234 2.2705c0.3827 0.78813 0.47108 1.3995 0.44581 1.7164-0.02527 0.31697-0.16485 0.34083-0.41048 0.23471-0.24563-0.10612-0.59765-0.3431-0.77424-0.39156s-0.17659 0.09138-0.10474 0.22596c0.07185 0.13458 0.2145 0.26394 0.32336 0.2851 0.10886 0.02116 0.18504-0.06499 0.25189 1.86e-4 0.06684 0.06517 0.12398 0.28055-0.0284 0.54926-0.15238 0.26871-0.51399 0.59196-0.73246 0.71094-0.21847 0.11898-0.29464 0.03257-0.31426-0.05935-0.01962-0.09192 0.01847-0.1888-0.11897-0.47916-0.13745-0.29036-0.45138-0.7748-0.62307-1.0015-0.17169-0.22667-0.20033-0.19446-0.0763 0.14 0.12402 0.33446 0.40013 0.96999 0.6763 1.2763s0.55202 0.28454 0.68948 0.31193c0.13746 0.02738 0.13746 0.1028 0.08028 0.28027-0.05718 0.17747-0.17133 0.45746-0.32356 0.74818-0.15222 0.29072-0.34256 0.59238-0.42328 0.95363-0.08073 0.36125-0.05209 0.78128-0.16864 1.0957-0.11655 0.31438-0.37834 0.52426-0.46357 0.68091-0.08524 0.15665 0.0053 0.25892-3.1e-5 0.39853-0.0053 0.13961-0.10526 0.31728-0.24798 0.51105-0.14272 0.19378-0.32833 0.40392-0.56825 0.54122s-0.53494 0.20197-0.68282 0.23439c-0.14788 0.03242-0.14789 0.03242-0.16202-0.0964z" />
				<path d="m13.606 7.0262c0.029 0 0.08601 0 0.1857 0.11908 0.09969 0.11908 0.24182 0.35518 0.25617 0.49999s-0.09848 0.1973-0.20368 0.24598c-0.1052 0.048678-0.20028 0.092376-0.21589 0.038382-0.01561-0.053994 0.04912-0.20577 0.05429-0.37309 0.0052-0.16732-0.05021-0.34885-0.0779-0.4396-0.02769-0.090744-0.02769-0.090744-0.02769-0.090744h0.029z" />
				<path d="m13.463 7.4138c-0.06612 0.021399-0.13285 0.042996-0.15684 0.11364-0.02399 0.070648-0.0048 0.18901 0.04771 0.22605 0.05252 0.037043 0.13816-0.0059 0.16198-0.075179 0.02381-0.069279-0.01428-0.16629-0.05284-0.26452" />
			</g>
		</g>
	</symbol>
	<symbol xmlns="http://www.w3.org/2000/svg" viewBox="0 0 36 36" id="type_earth2_disabled">
		<ellipse id="marker_gc" cx="18" cy="18" rx="14" ry="14" fill="#fff" stroke="#383838" stroke-width=".75" />
		<circle id="background" fill="#90a4ae" cx="12" cy="12" r="12" transform="translate(6.3 6.3) scale(0.975)" />
		<g transform="translate(7,7) scale(0.916666666667)">
			<g fill="none" stroke="#fff">
				<path id="cutout" d="m10.919 6.3489c4.1396-0.58499 7.2707 2.6624 6.7326 6.661-1.7023 1.7023-7.3132 1.8996-7.955 1.2406-0.6417-0.65896-0.47954-6.3881 1.2223-7.9016z" stroke-width="1.5" />
				<path d="m9.8939 8.9181s2.405-0.60049 4.0569 1.0525c1.6519 1.6529 1.1286 4.0372 1.1286 4.0372" stroke-width="1.25" />
				<path d="m9.8028 11.159s1.3662-0.20668 2.3308 0.78565c0.96464 0.99233 0.68581 2.4642 0.68581 2.4642" stroke-width="1.25" />
				<circle cx="12" cy="12" r="8.25" stroke-linecap="square" stroke-linejoin="round" stroke-width="1.5" />
			</g>
		</g>
	</symbol>
	<symbol xmlns="http://www.w3.org/2000/svg" viewBox="0 0 36 36" id="type_mystery_disabled">
		<ellipse id="marker_gc" cx="18" cy="18" rx="14" ry="14" fill="#fff" stroke="#383838" stroke-width=".75" />
		<circle id="background" fill="#90a4ae" cx="12" cy="12" r="12" transform="translate(6.3 6.3) scale(0.975)" />
		<g transform="translate(7,7) scale(0.916666666667)">
			<g dominant-baseline="middle" fill="#fff" aria-label="?" transform="translate(-0.15,0)">
				<path d="m12.648 4.221c-2.266 0-3.894 0.88-5.148 2.354l2.222 1.716c0.792-0.902 1.672-1.342 2.574-1.342 0.968 0 1.54 0.462 1.54 1.254 0 1.804-3.498 1.54-3.498 5.346v0.682h3.168v-0.55c0-2.464 3.96-2.222 3.96-5.786 0-1.958-1.606-3.674-4.818-3.674zm-0.682 12.012c-1.1 0-1.98 0.902-1.98 1.98 0 1.1 0.88 2.002 1.98 2.002s1.98-0.902 1.98-2.002c0-1.078-0.88-1.98-1.98-1.98z" />
			</g>
			<!-- 
        <text text-anchor="middle" dominant-baseline="middle" font-family="Fira Sans" font-weight="bold" font-size="22" fill="#fff">
            <tspan x="12" y="14">?</tspan>
        </text> -->
		</g>
	</symbol>
	<symbol xmlns="http://www.w3.org/2000/svg" viewBox="0 0 36 36" id="type_letterbox_disabled">
		<ellipse id="marker_gc" cx="18" cy="18" rx="14" ry="14" fill="#fff" stroke="#383838" stroke-width=".75" />
		<circle id="background" fill="#90a4ae" cx="12" cy="12" r="12" transform="translate(6.3 6.3) scale(0.975)" />
		<g transform="translate(7,7) scale(0.916666666667)">
			<g transform="translate(3.6,4)">
				<path fill="#fff" d="M20,8L12,13L4,8V6L12,11L20,6M20,4H4C2.89,4 2,4.89 2,6V18A2,2 0 0,0 4,20H20A2,2 0 0,0 22,18V6C22,4.89 21.1,4 20,4Z" transform="scale(0.7 0.65)" />
			</g>
		</g>
	</symbol>
	<symbol xmlns="http://www.w3.org/2000/svg" viewBox="0 0 36 36" id="type_virtual_disabled">
		<ellipse id="marker_gc" cx="18" cy="18" rx="14" ry="14" fill="#fff" stroke="#383838" stroke-width=".75" />
		<circle id="background" fill="#90a4ae" cx="12" cy="12" r="12" transform="translate(6.3 6.3) scale(0.975)" />
		<g transform="translate(7,7) scale(0.916666666667)">
			<g transform="translate(3.6,3)">
				<path fill="#fff" d="M12,2A9,9 0 0,0 3,11V22L6,19L9,22L12,19L15,22L18,19L21,22V11A9,9 0 0,0 12,2M9,8A2,2 0 0,1 11,10A2,2 0 0,1 9,12A2,2 0 0,1 7,10A2,2 0 0,1 9,8M15,8A2,2 0 0,1 17,10A2,2 0 0,1 15,12A2,2 0 0,1 13,10A2,2 0 0,1 15,8Z" transform="scale(0.7)" />
			</g>
		</g>
	</symbol>
	<symbol xmlns="http://www.w3.org/2000/svg" viewBox="0 0 36 36" id="type_webcam_disabled">
		<ellipse id="marker_gc" cx="18" cy="18" rx="14" ry="14" fill="#fff" stroke="#383838" stroke-width=".75" />
		<circle id="background" fill="#90a4ae" cx="12" cy="12" r="12" transform="translate(6.3 6.3) scale(0.975)" />
		<g transform="translate(7,7) scale(0.916666666667)">
			<g transform="translate(3,2.5)">
				<path fill="#fff" d="M12,2A7,7 0 0,1 19,9A7,7 0 0,1 12,16A7,7 0 0,1 5,9A7,7 0 0,1 12,2M12,4A5,5 0 0,0 7,9A5,5 0 0,0 12,14A5,5 0 0,0 17,9A5,5 0 0,0 12,4M12,6A3,3 0 0,1 15,9A3,3 0 0,1 12,12A3,3 0 0,1 9,9A3,3 0 0,1 12,6M6,22A2,2 0 0,1 4,20C4,19.62 4.1,19.27 4.29,18.97L6.11,15.81C7.69,17.17 9.75,18 12,18C14.25,18 16.31,17.17 17.89,15.81L19.71,18.97C19.9,19.27 20,19.62 20,20A2,2 0 0,1 18,22H6Z" transform="scale(0.75)" />
			</g>
		</g>
	</symbol>
	<symbol xmlns="http://www.w3.org/2000/svg" viewBox="0 0 36 36" id="type_event_disabled">
		<ellipse id="marker_gc" cx="18" cy="18" rx="14" ry="14" fill="#fff" stroke="#383838" stroke-width=".75" />
		<circle id="background" fill="#90a4ae" cx="12" cy="12" r="12" transform="translate(6.3 6.3) scale(0.975)" />
		<g transform="translate(7,7) scale(0.916666666667)">
			<g transform="translate(3.3,2.5)">
				<path fill="#fff" d="M12,3C17.5,3 22,6.58 22,11C22,15.42 17.5,19 12,19C10.76,19 9.57,18.82 8.47,18.5C5.55,21 2,21 2,21C4.33,18.67 4.7,17.1 4.75,16.5C3.05,15.07 2,13.13 2,11C2,6.58 6.5,3 12,3M17,12V10H15V12H17M13,12V10H11V12H13M9,12V10H7V12H9Z" transform="scale(0.75)" />
			</g>
		</g>
	</symbol>
	<symbol xmlns="http://www.w3.org/2000/svg" viewBox="0 0 36 36" id="type_specialevent_disabled">
		<ellipse id="marker_gc" cx="18" cy="18" rx="14" ry="14" fill="#fff" stroke="#383838" stroke-width=".75" />
		<circle id="background" fill="#90a4ae" cx="12" cy="12" r="12" transform="translate(6.3 6.3) scale(0.975)" />
		<g transform="translate(7,7) scale(0.916666666667)">
			<g transform="translate(3.3,2.5)">
				<path fill="#fff" d="M14.53 1.45L13.45 2.53L15.05 4.13C15.27 4.38 15.38 4.67 15.38 5S15.27 5.64 15.05 5.86L11.5 9.47L12.5 10.55L16.13 6.94C16.66 6.35 16.92 5.7 16.92 5C16.92 4.3 16.66 3.64 16.13 3.05L14.53 1.45M10.55 3.47L9.47 4.55L10.08 5.11C10.3 5.33 10.41 5.63 10.41 6S10.3 6.67 10.08 6.89L9.47 7.45L10.55 8.53L11.11 7.92C11.64 7.33 11.91 6.69 11.91 6C11.91 5.28 11.64 4.63 11.11 4.03L10.55 3.47M21 5.06C20.31 5.06 19.67 5.33 19.08 5.86L13.45 11.5L14.53 12.5L20.11 6.94C20.36 6.69 20.66 6.56 21 6.56S21.64 6.69 21.89 6.94L22.5 7.55L23.53 6.47L22.97 5.86C22.38 5.33 21.72 5.06 21 5.06M7 8L2 22L16 17L7 8M19 11.06C18.3 11.06 17.66 11.33 17.06 11.86L15.47 13.45L16.55 14.53L18.14 12.94C18.39 12.69 18.67 12.56 19 12.56C19.33 12.56 19.63 12.69 19.88 12.94L21.5 14.53L22.55 13.5L20.95 11.86C20.36 11.33 19.7 11.06 19 11.06Z" transform="scale(0.75)" />
			</g>
		</g>
	</symbol>
	<symbol xmlns="http://www.w3.org/2000/svg" viewBox="0 0 36 36" id="type_giga_disabled">
		<ellipse id="marker_gc" cx="18" cy="18" rx="14" ry="14" fill="#fff" stroke="#383838" stroke-width=".75" />
		<circle id="background" fill="#90a4ae" cx="12" cy="12" r="12" transform="translate(6.3 6.3) scale(0.975)" />
		<g transform="translate(7,7) scale(0.916666666667)">
			<g dominant-baseline="middle" fill="#fff" aria-label="giga">
				<path d="m7.932 8.8365c-0.576 0.342-1.188 0.648-2.25 0.621-1.251 0-2.097 0.666-2.097 1.746 0 0.621 0.243 1.044 0.855 1.368-0.342 0.216-0.567 0.567-0.567 0.918 0 0.513 0.423 0.945 1.467 0.945h0.693c0.477 0 0.684 0.189 0.684 0.468 0 0.306-0.198 0.54-1.035 0.54-0.864 0-1.044-0.18-1.044-0.594h-1.278c0 0.945 0.477 1.539 2.286 1.539 1.638 0 2.502-0.603 2.502-1.584 0-0.801-0.711-1.386-1.827-1.386h-0.72c-0.459 0-0.522-0.144-0.522-0.288 0-0.108 0.054-0.216 0.153-0.27 0.171 0.036 0.351 0.054 0.549 0.054 1.242 0 2.007-0.675 2.007-1.602 0-0.621-0.297-0.972-0.9-1.233 0.603 0 1.044-0.054 1.377-0.189zm-2.214 1.557c0.477 0 0.72 0.243 0.72 0.774 0 0.549-0.252 0.828-0.72 0.828-0.432 0-0.72-0.288-0.72-0.81 0-0.495 0.279-0.792 0.72-0.792z" />
				<path d="m9.525 7.0905c-0.495 0-0.837 0.351-0.837 0.81s0.342 0.81 0.837 0.81c0.495 0 0.846-0.351 0.846-0.81s-0.351-0.81-0.846-0.81zm0.72 2.52h-1.422v4.779h1.422z" />
				<path d="m15.429 8.8365c-0.576 0.342-1.188 0.648-2.25 0.621-1.251 0-2.097 0.666-2.097 1.746 0 0.621 0.243 1.044 0.855 1.368-0.342 0.216-0.567 0.567-0.567 0.918 0 0.513 0.423 0.945 1.467 0.945h0.693c0.477 0 0.684 0.189 0.684 0.468 0 0.306-0.198 0.54-1.035 0.54-0.864 0-1.044-0.18-1.044-0.594h-1.278c0 0.945 0.477 1.539 2.286 1.539 1.638 0 2.502-0.603 2.502-1.584 0-0.801-0.711-1.386-1.827-1.386h-0.72c-0.459 0-0.522-0.144-0.522-0.288 0-0.108 0.054-0.216 0.153-0.27 0.171 0.036 0.351 0.054 0.549 0.054 1.242 0 2.007-0.675 2.007-1.602 0-0.621-0.297-0.972-0.9-1.233 0.603 0 1.044-0.054 1.377-0.189zm-2.214 1.557c0.477 0 0.72 0.243 0.72 0.774 0 0.549-0.252 0.828-0.72 0.828-0.432 0-0.72-0.288-0.72-0.81 0-0.495 0.279-0.792 0.72-0.792z" />
				<path d="m20.118 13.004v-1.854c0-1.107-0.594-1.692-1.98-1.692-0.54 0-1.197 0.126-1.8 0.351l0.324 0.936c0.477-0.162 0.945-0.252 1.251-0.252 0.585 0 0.81 0.171 0.81 0.738v0.207h-0.486c-1.449 0-2.241 0.567-2.241 1.611 0 0.873 0.603 1.494 1.557 1.494 0.567 0 1.098-0.189 1.44-0.711 0.225 0.468 0.594 0.639 1.152 0.684l0.297-0.927c-0.225-0.081-0.324-0.216-0.324-0.585zm-2.151 0.522c-0.351 0-0.558-0.225-0.558-0.603 0-0.477 0.315-0.702 0.963-0.702h0.351v0.855c-0.171 0.279-0.432 0.45-0.756 0.45z" />
			</g>
			<!-- 
        <text text-anchor="middle" dominant-baseline="middle" font-family="Fira Sans" font-weight="bold" font-size="9" fill="#fff">
            <tspan x="12" y="12">giga</tspan>
        </text> -->
		</g>
	</symbol>
	<symbol xmlns="http://www.w3.org/2000/svg" viewBox="0 0 36 36" id="type_mega_disabled">
		<ellipse id="marker_gc" cx="18" cy="18" rx="14" ry="14" fill="#fff" stroke="#383838" stroke-width=".75" />
		<circle id="background" fill="#90a4ae" cx="12" cy="12" r="12" transform="translate(6.3 6.3) scale(0.975)" />
		<g transform="translate(7,7) scale(0.916666666667)">
			<g dominant-baseline="middle" fill="#fff" aria-label="mega">
				<path d="m6.6 9.4575c-0.612 0-1.053 0.261-1.431 0.756-0.189-0.486-0.594-0.756-1.125-0.756-0.585 0-1.017 0.243-1.386 0.711l-0.099-0.558h-1.242v4.779h1.422v-3.267c0.207-0.396 0.432-0.621 0.729-0.621 0.216 0 0.405 0.135 0.405 0.639v3.249h1.422v-3.267c0.207-0.396 0.423-0.621 0.729-0.621 0.216 0 0.405 0.135 0.405 0.639v3.249h1.422v-3.492c0-0.909-0.513-1.44-1.251-1.44z" />
				<path d="m13.089 11.906c0-1.548-0.837-2.448-2.205-2.448-1.449 0-2.232 1.134-2.232 2.565 0 1.494 0.81 2.52 2.403 2.52 0.774 0 1.386-0.288 1.863-0.666l-0.585-0.792c-0.414 0.288-0.756 0.423-1.143 0.423-0.585 0-0.99-0.234-1.08-1.089h2.952c0.018-0.144 0.027-0.36 0.027-0.513zm-1.395-0.342h-1.593c0.072-0.864 0.342-1.161 0.819-1.161 0.567 0 0.765 0.45 0.774 1.098z" />
				<path d="m17.976 8.8365c-0.576 0.342-1.188 0.648-2.25 0.621-1.251 0-2.097 0.666-2.097 1.746 0 0.621 0.243 1.044 0.855 1.368-0.342 0.216-0.567 0.567-0.567 0.918 0 0.513 0.423 0.945 1.467 0.945h0.693c0.477 0 0.684 0.189 0.684 0.468 0 0.306-0.198 0.54-1.035 0.54-0.864 0-1.044-0.18-1.044-0.594h-1.278c0 0.945 0.477 1.539 2.286 1.539 1.638 0 2.502-0.603 2.502-1.584 0-0.801-0.711-1.386-1.827-1.386h-0.72c-0.459 0-0.522-0.144-0.522-0.288 0-0.108 0.054-0.216 0.153-0.27 0.171 0.036 0.351 0.054 0.549 0.054 1.242 0 2.007-0.675 2.007-1.602 0-0.621-0.297-0.972-0.9-1.233 0.603 0 1.044-0.054 1.377-0.189zm-2.214 1.557c0.477 0 0.72 0.243 0.72 0.774 0 0.549-0.252 0.828-0.72 0.828-0.432 0-0.72-0.288-0.72-0.81 0-0.495 0.279-0.792 0.72-0.792z" />
				<path d="m22.665 13.004v-1.854c0-1.107-0.594-1.692-1.98-1.692-0.54 0-1.197 0.126-1.8 0.351l0.324 0.936c0.477-0.162 0.945-0.252 1.251-0.252 0.585 0 0.81 0.171 0.81 0.738v0.207h-0.486c-1.449 0-2.241 0.567-2.241 1.611 0 0.873 0.603 1.494 1.557 1.494 0.567 0 1.098-0.189 1.44-0.711 0.225 0.468 0.594 0.639 1.152 0.684l0.297-0.927c-0.225-0.081-0.324-0.216-0.324-0.585zm-2.151 0.522c-0.351 0-0.558-0.225-0.558-0.603 0-0.477 0.315-0.702 0.963-0.702h0.351v0.855c-0.171 0.279-0.432 0.45-0.756 0.45z" />
				<!-- 
        <text text-anchor="middle" dominant-baseline="middle" font-family="Fira Sans" font-weight="bold" font-size="9" fill="#fff">
            <tspan x="12" y="12">mega</tspan>
        </text>-->
			</g>
		</g>
	</symbol>
	<symbol xmlns="http://www.w3.org/2000/svg" viewBox="0 0 36 36" id="type_cito_disabled">
		<ellipse id="marker_gc" cx="18" cy="18" rx="14" ry="14" fill="#fff" stroke="#383838" stroke-width=".75" />
		<circle id="background" fill="#90a4ae" cx="12" cy="12" r="12" transform="translate(6.3 6.3) scale(0.975)" />
		<g transform="translate(7,7) scale(0.916666666667)">
			<g transform="translate(2.3721 1.85)">
				<path transform="scale(.8)" d="m21.82 15.42-2.5 4.33c-0.49 0.86-1.4 1.31-2.32 1.25h-2v2l-2.5-4.5 2.5-4.5v2h2.82l-2.22-3.85 4.33-2.5 1.8 3.12c0.52 0.77 0.59 1.8 0.09 2.65m-12.61-12.36h5c0.98 0 1.83 0.57 2.24 1.39l1 1.74 1.73-1-2.64 4.41-5.15 0.09 1.73-1-1.41-2.45-2.21 3.85-4.34-2.5 1.8-3.12c0.41-0.83 1.26-1.41 2.25-1.41m-4.16 16.7-2.5-4.33c-0.49-0.85-0.42-1.87 0.09-2.64l1-1.73-1.73-1 5.14 0.08 2.65 4.42-1.73-1-1.41 2.44h4.44v5h-3.6c-0.93 0.07-1.85-0.39-2.35-1.24z" fill="#fff" />
			</g>
		</g>
	</symbol>
	<symbol xmlns="http://www.w3.org/2000/svg" viewBox="0 0 36 36" id="type_traditional_disabled">
		<ellipse id="marker_gc" cx="18" cy="18" rx="14" ry="14" fill="#fff" stroke="#383838" stroke-width=".75" />
		<circle id="background" fill="#90a4ae" cx="12" cy="12" r="12" transform="translate(6.3 6.3) scale(0.975)" />
		<g transform="translate(7,7) scale(0.916666666667)">
			<g id="icon" transform="translate(4.2 3.8) scale(.68)">
				<path id="outline" d="m22.776 9.142s-1.1129 5.668-1.2559 5.9678c-0.41356 0.3417-13.322 6.82-13.322 6.82-0.37493 0.12498-0.64626 0.11052-0.88371-0.0707 0 0-5.8446-6.5612-6.0622-7.1174-0.088017-0.27823-0.055864-6.5435-0.055864-6.5435z" fill="none" stroke="#fff" stroke-width="1.5" />
				<path id="top" d="m16.116 2.0639 7.4939 6.1153c0.21209 0.28279-0.08837 0.45953-0.08837 0.45953l-14.793 6.0092c-0.34705 0.16835-0.69625 0.050181-0.88371-0.10604l-7.1757-6.6102c-0.63627-0.72464 0.31814-1.0251 0.31814-1.0251l14.157-4.8781c0.56557-0.22976 0.97208 0.035349 0.97208 0.035349zm7.4321 6.4237-0.3835 1.2639c-0.26933 0.2688-0.44314 0.37116-0.44314 0.37116l-14.139 6.4688c-0.64362 0.23745-0.97208-0.0707-0.97208-0.0707l-6.9813-6.9106c-0.18746-0.17497-0.15907-0.38883-0.15907-0.38883s-0.063329-0.4547-0.00233-1.8774z" fill="#fff" />
				<path id="outline_center" d="m7.9226 22.368 0.39988-6.9294" fill="none" stroke="#fff" stroke-width="1.5" />
			</g>
		</g>
	</symbol>
	<symbol xmlns="http://www.w3.org/2000/svg" viewBox="0 0 36 36" id="type_cgeo_disabled">
		<ellipse id="marker_gc" cx="18" cy="18" rx="14" ry="14" fill="#fff" stroke="#383838" stroke-width=".75" />
		<circle id="background" fill="#90a4ae" cx="12" cy="12" r="12" transform="translate(6.3 6.3) scale(0.975)" />
		<g transform="translate(7,7) scale(0.916666666667)">

			<path fill="#fff" d="M12,4A4,4 0 0,1 16,8A4,4 0 0,1 12,12A4,4 0 0,1 8,8A4,4 0 0,1 12,4M12,14C16.42,14 20,15.79 20,18V20H4V18C4,15.79 7.58,14 12,14Z" transform="translate(2.4,2.4) scale(0.8)" />
		</g>
	</symbol>
	<symbol xmlns="http://www.w3.org/2000/svg" viewBox="0 0 36 36" id="type_multi_disabled">
		<ellipse id="marker_gc" cx="18" cy="18" rx="14" ry="14" fill="#fff" stroke="#383838" stroke-width=".75" />
		<circle id="background" fill="#90a4ae" cx="12" cy="12" r="12" transform="translate(6.3 6.3) scale(0.975)" />
		<g transform="translate(7,7) scale(0.916666666667)">
			<circle cx="15.79" cy="16.8" r="2.25" fill="#fff" stroke-width="0" />
			<circle cx="6.0248" cy="13.025" r="2.25" fill="#fff" stroke-width="0" />
			<circle cx="16.589" cy="7.7744" r="1.5" fill="none" stroke="#fdffff" stroke-linecap="square" stroke-linejoin="round" stroke-width="1.5" />
			<path d="m7.956 13.238c1.1817-0.02349 2.3677 0.19112 3.4663 0.62724 1.0217 0.40558 1.9671 1.0021 2.773 1.7497" fill="none" stroke="#fff" stroke-width="1.5" />
			<path d="m12.773 6.625-0.26172 0.00977-0.26172 0.017578-0.26172 0.027344-0.26172 0.037109-0.25781 0.046875-0.25781 0.056641-0.25586 0.064453-0.25195 0.074219-0.19727 0.066406-0.01172 0.00391 0.51172 1.4102 0.14453-0.048828 0.20312-0.058594 0.20117-0.052734 0.20508-0.042969 0.20703-0.037109 0.20703-0.029297 0.20898-0.023437 0.20898-0.013672 0.20898-0.00781h0.20898l0.21094 0.00781 0.20898 0.013672 0.19922 0.021484 0.1582-1.4922-0.22461-0.023438-0.26172-0.017578-0.26367-0.0097656zm-3.7773 1.1328-0.13672 0.089844-0.16797 0.11523-0.16602 0.12109-0.16211 0.125-0.1582 0.12891-0.1543 0.13281-0.15234 0.13867-0.14648 0.14062-0.14258 0.14648-0.14062 0.14844-0.13477 0.1543-0.13086 0.15625-0.12695 0.16016-0.12305 0.16406-0.11719 0.16797-0.11328 0.16992-0.052734 0.08399 1.2734 0.79492 0.039063-0.06641 0.091797-0.13476 0.09375-0.13477 0.097656-0.13086 0.10156-0.12695 0.10352-0.125 0.10938-0.12305 0.11133-0.1211 0.11523-0.11523 0.11719-0.11328 0.12109-0.11133 0.125-0.10742 0.12695-0.10352 0.12891-0.099609 0.13281-0.095703 0.13477-0.09375 0.11914-0.076172z" fill="#fff" />

		</g>
	</symbol>
	<symbol xmlns="http://www.w3.org/2000/svg" viewBox="0 0 36 36" id="type_multi2_disabled">
		<ellipse id="marker_gc" cx="18" cy="18" rx="14" ry="14" fill="#fff" stroke="#383838" stroke-width=".75" />
		<circle id="background" fill="#90a4ae" cx="12" cy="12" r="12" transform="translate(6.3 6.3) scale(0.975)" />
		<g transform="translate(7,7) scale(0.916666666667)">
			<g transform="translate(3,3)">
				<path fill="#fff" d="M18,15A3,3 0 0,1 21,18A3,3 0 0,1 18,21C16.69,21 15.58,20.17 15.17,19H14V17H15.17C15.58,15.83 16.69,15 18,15M18,17A1,1 0 0,0 17,18A1,1 0 0,0 18,19A1,1 0 0,0 19,18A1,1 0 0,0 18,17M18,8A1.43,1.43 0 0,0 19.43,6.57C19.43,5.78 18.79,5.14 18,5.14C17.21,5.14 16.57,5.78 16.57,6.57A1.43,1.43 0 0,0 18,8M18,2.57A4,4 0 0,1 22,6.57C22,9.56 18,14 18,14C18,14 14,9.56 14,6.57A4,4 0 0,1 18,2.57M8.83,17H10V19H8.83C8.42,20.17 7.31,21 6,21A3,3 0 0,1 3,18C3,16.69 3.83,15.58 5,15.17V14H7V15.17C7.85,15.47 8.53,16.15 8.83,17M6,17A1,1 0 0,0 5,18A1,1 0 0,0 6,19A1,1 0 0,0 7,18A1,1 0 0,0 6,17M6,3A3,3 0 0,1 9,6C9,7.31 8.17,8.42 7,8.83V10H5V8.83C3.83,8.42 3,7.31 3,6A3,3 0 0,1 6,3M6,5A1,1 0 0,0 5,6A1,1 0 0,0 6,7A1,1 0 0,0 7,6A1,1 0 0,0 6,5M11,19V17H13V19H11M7,13H5V11H7V13Z" transform="scale(0.75)" />
			</g>

		</g>
	</symbol>
	<symbol xmlns="http://www.w3.org/2000/svg" viewBox="0 0 36 36" id="type_wherigo_disabled">
		<ellipse id="marker_gc" cx="18" cy="18" rx="14" ry="14" fill="#fff" stroke="#383838" stroke-width=".75" />
		<circle id="background" fill="#90a4ae" cx="12" cy="12" r="12" transform="translate(6.3 6.3) scale(0.975)" />
		<g transform="translate(7,7) scale(0.916666666667)">
			<path id="ring" d="m12 3.2051c-2.2543 1e-7 -4.5081 0.85775-6.2227 2.5723-3.429 3.429-3.429 9.0163 0 12.445 3.429 3.429 9.0163 3.429 12.445 0 2.9444-2.9444 3.3578-7.479 1.2461-10.873l-0.98242 1.998c1.0396 2.5328 0.52956 5.5427-1.5332 7.6055-2.7431 2.7431-7.1632 2.7431-9.9062 0s-2.7431-7.1632 0-9.9062c2.0626-2.0626 5.0724-2.5747 7.6055-1.5352l1.998-0.98242c-1.4176-0.88182-3.0337-1.3242-4.6504-1.3242z" fill="#fff" style="-inkscape-stroke:none" />
			<path id="arrow" d="m6.8379 11.362 11.409-5.6096-5.6096 11.409z" fill="#ffffff" />
		</g>
	</symbol>
	<symbol xmlns="http://www.w3.org/2000/svg" viewBox="0 0 36 36" id="type_unknown_disabled">
		<ellipse id="marker_gc" cx="18" cy="18" rx="14" ry="14" fill="#fff" stroke="#383838" stroke-width=".75" />
		<circle id="background" fill="#90a4ae" cx="12" cy="12" r="12" transform="translate(6.3 6.3) scale(0.975)" />
		<g transform="translate(7,7) scale(0.916666666667)">
			<g dominant-baseline="middle" fill="#fff">
				<path d="m5.5657 13.801q-1.0098-0.58203-1.0098-1.7461 0-1.1641 1.0098-1.7461 0.50586-0.29297 1.0098-0.29297 0.50391 0 1.0098 0.29297 1.0098 0.58203 1.0098 1.7461 0 1.1641-1.0098 1.7461-0.50586 0.29297-1.0098 0.29297-0.50391 0-1.0098-0.29297z" />
				<path d="m10.99 13.801q-1.0098-0.58203-1.0098-1.7461 0-1.1641 1.0098-1.7461 0.50586-0.29297 1.0098-0.29297t1.0098 0.29297q1.0098 0.58203 1.0098 1.7461 0 1.1641-1.0098 1.7461-0.50586 0.29297-1.0098 0.29297t-1.0098-0.29297z" />
				<path d="m16.415 13.801q-1.0098-0.58203-1.0098-1.7461 0-1.1641 1.0098-1.7461 0.50586-0.29297 1.0098-0.29297 0.50391 0 1.0098 0.29297 1.0098 0.58203 1.0098 1.7461 0 1.1641-1.0098 1.7461-0.50586 0.29297-1.0098 0.29297-0.50391 0-1.0098-0.29297z" />
			</g>
			<!-- 
        <ellipse id="marker_gc" cx="18" cy="18" rx="14" ry="14" fill="#fff" stroke="#383838" stroke-width=".75"/><g transform="translate(7,7) scale(0.916666666667)"><circle id="background" fill="#90a4ae" cx="12" cy="12" r="12" />
        <text text-anchor="middle" dominant-baseline="middle" font-family="Fira Sans" font-weight="bold" font-size="4" fill="#fff">
            <tspan x="12" y="12">⬤ ⬤ ⬤</tspan>
        </text> -->
		</g>
	</symbol>
	<symbol xmlns="http://www.w3.org/2000/svg" viewBox="0 0 36 36" id="type_maze_disabled">
		<ellipse id="marker_gc" cx="18" cy="18" rx="14" ry="14" fill="#fff" stroke="#383838" stroke-width=".75" />
		<circle id="background" fill="#90a4ae" cx="12" cy="12" r="12" transform="translate(6.3 6.3) scale(0.975)" />
		<g transform="translate(7,7) scale(0.916666666667)">
			<g transform="matrix(.16 0 0 .16 2.5596 2.5625)" fill="none" stroke="#fff" stroke-width="8">
				<g stroke-linecap="square">
					<path d="m42.029 75.971a24 24 0 1 1 16.971 7.0294" />
					<path d="m74.307 22.045a40 40 0 0 1 21.648 21.648" />
					<path d="m99 59a40 40 0 0 1-3.0448 15.307" />
					<path d="m74.307 95.955a40 40 0 0 1-52.263-21.648" />
					<path d="m22.045 43.693a40 40 0 0 1 21.648-21.648" />
					<path d="m80.43 7.2627a56 56 0 1 1-21.43-4.2627" />
				</g>
				<g>
					<line x1="59" x2="59" y1="19" y2="35" />
					<line x1="80.43" x2="74.307" y1="7.2627" y2="22.045" />
					<line x1="99" x2="83" y1="59" y2="59" />
					<line x1="98.598" x2="87.284" y1="98.598" y2="87.284" />
					<line x1="80.43" x2="74.307" y1="110.74" y2="95.955" />
					<line x1="59" x2="59" y1="99" y2="83" />
					<line x1="19" x2="35" y1="59" y2="59" />
					<line x1="19.402" x2="30.716" y1="19.402" y2="30.716" />
				</g>
			</g>
		</g>
	</symbol>
	<symbol xmlns="http://www.w3.org/2000/svg" viewBox="0 0 36 36" id="type_hq_disabled">
		<ellipse id="marker_gc" cx="18" cy="18" rx="14" ry="14" fill="#fff" stroke="#383838" stroke-width=".75" />
		<circle id="background" fill="#90a4ae" cx="12" cy="12" r="12" transform="translate(6.3 6.3) scale(0.975)" />
		<g transform="translate(7,7) scale(0.916666666667)">
			<g transform="translate(.3)" dominant-baseline="middle" fill="#fff" aria-label="HQ">
				<path d="m8.658 16.077h1.968v-8.316h-1.968v3.216h-2.496v-3.216h-1.968v8.316h1.968v-3.564h2.496z" />
				<path d="m17.346 15.537c1.02-0.564 1.956-1.608 1.956-3.624 0-2.772-1.404-4.356-3.756-4.356-2.34 0-3.744 1.644-3.744 4.356 0 2.772 1.404 4.332 3.624 4.332 1.56 0 2.424 0.732 3.192 1.596l1.188-1.548c-0.672-0.48-1.38-0.756-2.46-0.756zm-3.48-3.624c0-2.1 0.576-2.916 1.68-2.916 1.116 0 1.692 0.816 1.692 2.916 0 2.112-0.564 2.928-1.692 2.928-1.08 0-1.68-0.816-1.68-2.928z" />
			</g>
			<!-- 
 <text x="-0.4500078" y="-0.10899974" dominant-baseline="middle" fill="#ffffff" font-family="'Fira Sans'" font-size="12px" font-weight="bold" text-anchor="middle" style="font-variant-caps:normal;font-variant-east-asian:normal;font-variant-ligatures:normal;font-variant-numeric:normal"><tspan x="11.549992" y="12.891" font-family="'Fira Sans'" font-size="12px" font-weight="bold" style="font-variant-caps:normal;font-variant-east-asian:normal;font-variant-ligatures:normal;font-variant-numeric:normal">HQ</tspan></text> -->
		</g>
	</symbol>
	<symbol xmlns="http://www.w3.org/2000/svg" viewBox="0 0 36 36" id="type_ape_disabled">
		<ellipse id="marker_gc" cx="18" cy="18" rx="14" ry="14" fill="#fff" stroke="#383838" stroke-width=".75" />
		<circle id="background" fill="#90a4ae" cx="12" cy="12" r="12" transform="translate(6.3 6.3) scale(0.975)" />
		<g transform="translate(7,7) scale(0.916666666667)">
			<g transform="translate(-.1)" dominant-baseline="middle" fill="#fff" aria-label="APE">
				<path d="m7.696 15.696h1.856l-2.2293-7.392h-2.1227l-2.2293 7.392h1.8133l0.37333-1.5893h2.1653zm-2.24-2.8587 0.77867-3.264 0.77867 3.264z" />
				<path d="m12.485 8.304h-2.3893v7.392h1.7493v-2.464h0.8c1.7067 0 2.9227-0.8 2.9227-2.5173 0-1.6213-1.1733-2.4107-3.0827-2.4107zm0.010667 3.6693h-0.65067v-2.4213h0.61867c0.864 0 1.3013 0.37333 1.3013 1.1627 0 0.928-0.48 1.2587-1.2693 1.2587z" />
				<path d="m21.029 8.304h-4.5333v7.392h4.5333v-1.2587h-2.784v-1.888h2.272v-1.2267h-2.272v-1.7707h2.6027z" />
			</g>
			<!--<text x="0.26132917" y="0.86400294" dominant-baseline="middle" fill="#ffffff" font-family="'Fira Sans'" font-size="10.667px" font-weight="bold" text-anchor="middle" style="font-variant-caps:normal;font-variant-east-asian:normal;font-variant-ligatures:normal;font-variant-numeric:normal"><tspan x="12.261329" y="12.864003" font-family="'Fira Sans'" font-size="10.667px" font-weight="bold" style="font-variant-caps:normal;font-variant-east-asian:normal;font-variant-ligatures:normal;font-variant-numeric:normal">APE</tspan></text>-->
		</g>
	</symbol>
	<!-- off-center intentional -->
	<symbol xmlns="http://www.w3.org/2000/svg" viewBox="0 0 36 36" id="type_locationless_disabled">
		<ellipse id="marker_gc" cx="18" cy="18" rx="14" ry="14" fill="#fff" stroke="#383838" stroke-width=".75" />
		<circle id="background" fill="#90a4ae" cx="12" cy="12" r="12" transform="translate(6.3 6.3) scale(0.975)" />
		<g transform="translate(7,7) scale(0.916666666667)">
			<g transform="translate(3.8,3.6)">
				<path fill="#fff" d="M16.37,16.1L11.75,11.47L11.64,11.36L3.27,3L2,4.27L5.18,7.45C5.06,7.95 5,8.46 5,9C5,14.25 12,22 12,22C12,22 13.67,20.15 15.37,17.65L18.73,21L20,19.72M12,6.5A2.5,2.5 0 0,1 14.5,9C14.5,9.73 14.17,10.39 13.67,10.85L17.3,14.5C18.28,12.62 19,10.68 19,9A7,7 0 0,0 12,2C10,2 8.24,2.82 6.96,4.14L10.15,7.33C10.61,6.82 11.26,6.5 12,6.5Z" transform="scale(0.7)" />
			</g>
		</g>
	</symbol>
</svg>