<?xml version="1.0" encoding="UTF-8" standalone="no"?>
<svg
   id="type_traditional"
   version="1.1"
   viewBox="0 0 36 36"
   sodipodi:docname="type_multi.svg"
   width="36"
   height="36"
   inkscape:version="1.1.1 (3bf5ae0d25, 2021-09-20)"
   xmlns:inkscape="http://www.inkscape.org/namespaces/inkscape"
   xmlns:sodipodi="http://sodipodi.sourceforge.net/DTD/sodipodi-0.dtd"
   xmlns="http://www.w3.org/2000/svg"
   xmlns:svg="http://www.w3.org/2000/svg">
  <defs
     id="defs13" />
  <sodipodi:namedview
     id="namedview11"
     pagecolor="#505050"
     bordercolor="#ffffff"
     borderopacity="1"
     inkscape:pageshadow="0"
     inkscape:pageopacity="0"
     inkscape:pagecheckerboard="1"
     showgrid="false"
     inkscape:zoom="15.145833"
     inkscape:cx="0.89133425"
     inkscape:cy="29.777166"
     inkscape:window-width="2472"
     inkscape:window-height="1411"
     inkscape:window-x="88"
     inkscape:window-y="240"
     inkscape:window-maximized="1"
     inkscape:current-layer="type_traditional" />
  <g
     transform="matrix(0.95308,0,0,0.95308,6.1578055,6.7644619)"
     stroke-width="1.0492"
     id="g8">
    <g
       id="iconInFront"
       transform="matrix(0.51,0,0,0.51,5.905,8.228)"
       fill="#ffffff"
       stroke-width="1.399">
      <path
         id="topBackPath"
         transform="matrix(2.0573,0,0,2.0573,-11.492,-17.708)"
         d="m 12.236,4.002 c -0.05718,0.0036 -0.12073,0.01522 -0.18945,0.042969 l -4.2383,1.4863 c -1e-7,0 -0.20252,0.065834 -0.24805,0.21289 L 7.55434,5.742209 c -5.296e-4,0.012271 4.916e-4,0.013416 0,0.025391 C 7.55083,5.787077 7.54953,5.807976 7.55239,5.8301 7.531244,6.42156 7.5563,6.64846 7.5563,6.64846 c 0,0 -0.014947,0.10297 0.076172,0.1875 l 2.5723,2.7227 3.0312,-1.0449 c 0.27491,-0.11168 0.47266,0.015625 0.47266,0.015625 l 2.4609,2.0313 1.9531,-0.89844 c 0,0 0.4433,-0.16702 0.57422,-0.29688 l 0.0293,-0.37109 c 0.01644,-0.010419 0.13338,-0.091181 0.03711,-0.21875 l -6.2461,-4.7129 c 0,0 -0.1097,-0.071353 -0.28125,-0.060547 z" />
      <path
         id="outlineBackPath"
         transform="matrix(2.0573,0,0,2.0573,-11.492,-17.708)"
         d="M 7.5391,6.4805 7.53129,6.93558 c 0,0 -0.012281,0.6568 -0.019531,1.332 -0.00363,0.33762 -0.00523,0.68045 -0.00391,0.94922 6.611e-4,0.13438 9.85e-4,0.24899 0.00391,0.33984 0.00146,0.045429 0.00321,0.085535 0.00586,0.12109 0.00265,0.035559 -0.0076,0.041155 0.023438,0.13867 l 0.00391,0.011719 0.00586,0.011719 c 0.053551,0.1361 0.075441,0.13526 0.11914,0.19141 0.0437,0.05615 0.099292,0.12294 0.16602,0.20117 0.024377,0.02858 0.068274,0.07778 0.095703,0.10938 l 0.76758,-0.26562 C 8.59771,9.961688 8.47755,9.829628 8.4063,9.746098 8.344498,9.673642 8.29551,9.613028 8.26372,9.572268 8.2630735,9.558302 8.26234,9.550924 8.26177,9.533206 8.25925,9.454754 8.25851,9.343556 8.25786,9.212896 8.25658,8.951576 8.2581645,8.610956 8.26177,8.275396 8.2665,7.834376 8.26922,7.650186 8.273489,7.404306 l 5.0625,1.0781 c 0.22199,-0.050152 0.37305,0.046875 0.37305,0.046875 l 0.05274,0.042969 4.2148,0.89844 c -0.03089,0.22168 -0.06798,0.49459 -0.14258,1.002 -0.05014,0.34098 -0.10287,0.68683 -0.14648,0.95312 -0.02124,0.12971 -0.03937,0.23828 -0.05469,0.31836 -0.0051,0.0029 -0.01244,0.0069 -0.01758,0.0098 l 0.60742,0.50195 0.03906,-0.0332 0.03711,-0.07422 c 0.0389,-0.08105 0.03441,-0.09475 0.04297,-0.13086 0.0086,-0.03611 0.01644,-0.07659 0.02539,-0.12305 0.0179,-0.09291 0.03811,-0.21069 0.06055,-0.34766 0.04487,-0.27393 0.09799,-0.62173 0.14844,-0.96484 0.1009,-0.68622 0.19336,-1.3535 0.19336,-1.3535 l 0.04687,-0.3457 -0.33984,-0.072266 -10.937,-2.3301 z m 6.5645,7.8926 -1.8652,0.56055 c 0.20649,0.10165 0.4641,0.09748 0.66992,0.0293 l 0.02539,-0.0078 0.02344,-0.01172 c 0,0 0.74446,-0.37082 1.1465,-0.57031 z" />
      <path
         id="outline"
         d="M 0.45117,7.4141 0.447264,8.1934 c 0,0 -0.00883,1.5693 -0.005859,3.1738 0.001485,0.80226 0.006168,1.6133 0.015625,2.2461 0.004728,0.31638 0.01158,0.58826 0.019531,0.79688 0.003976,0.10431 0.007875,0.19047 0.013672,0.26758 0.005797,0.0771 -0.02065,0.07756 0.046875,0.29102 l 0.007813,0.02344 0.009766,0.02344 c 0.071782,0.18354 0.12056,0.23007 0.1875,0.32617 0.066943,0.0961 0.14705,0.20364 0.24219,0.32617 0.19027,0.24506 0.44001,0.54995 0.73242,0.90039 0.58482,0.70088 1.338,1.5766 2.084,2.4336 1.492,1.714 2.9551,3.3555 2.9551,3.3555 l 0.046875,0.05469 0.056641,0.04297 c 0.4412,0.33672 1.0818,0.35034 1.5762,0.18555 l 0.050781,-0.01563 0.048828,-0.02539 c 0,0 3.2273,-1.62 6.5078,-3.2832 1.6403,-0.83159 3.2948,-1.673 4.5664,-2.3301 0.63581,-0.32855 1.1759,-0.6113 1.5742,-0.82422 0.19915,-0.10646 0.3621,-0.19437 0.48828,-0.26562 0.12618,-0.07126 0.15537,-0.06786 0.32617,-0.20898 l 0.12891,-0.10547 0.07031,-0.14844 c 0.06707,-0.14062 0.06422,-0.16862 0.08398,-0.24024 0.01977,-0.07161 0.04123,-0.1533 0.06445,-0.25 0.04645,-0.19339 0.10119,-0.44463 0.16406,-0.73438 0.12574,-0.57948 0.27934,-1.316 0.42773,-2.0449 0.29678,-1.4578 0.57422,-2.877 0.57422,-2.877 l 0.16798,-0.85547 -0.87109,-0.039062 z m 1.4941,1.5664 19.924,0.87109 c -0.10003,0.50608 -0.19493,0.99292 -0.40234,2.0117 -0.14772,0.72558 -0.29872,1.4617 -0.42188,2.0293 -0.06158,0.2838 -0.11642,0.52526 -0.1582,0.69922 -0.0029,0.01192 -0.0051,0.01608 -0.0078,0.02734 -0.10539,0.05888 -0.23199,0.12963 -0.40234,0.2207 -0.38677,0.20676 -0.92415,0.48566 -1.5566,0.8125 -1.265,0.65368 -2.9162,1.4955 -4.5547,2.3262 -3.2435,1.6444 -6.3708,3.2155 -6.4355,3.248 -0.11376,0.0408 -0.13237,0.05031 -0.14258,0.0332 -0.083205,-0.09342 -1.4151,-1.5894 -2.8555,-3.2441 -0.74235,-0.85282 -1.4922,-1.7224 -2.0645,-2.4082 C 2.58122,15.26456 2.33911,14.9683 2.16811,14.74807 2.08699,14.64359 2.0254,14.55897 1.98256,14.49807 1.98005,14.45503 1.97718,14.41542 1.97475,14.35159 1.96761,14.16432 1.961807,13.89998 1.957172,13.58987 c -0.00927,-0.62022 -0.014146,-1.4277 -0.015625,-2.2266 -0.00223,-1.2039 0.0018,-1.8718 0.00391,-2.3828 z" />
      <path
         id="top"
         d="m 16.116,2.0639 7.4939,6.1153 c 0.21209,0.28279 -0.08837,0.45953 -0.08837,0.45953 l -14.793,6.0092 C 8.38148,14.81628 8.03228,14.698111 7.84482,14.54189 L 0.66912,7.93169 C 0.03285,7.20705 0.98726,6.90659 0.98726,6.90659 l 14.157,-4.8781 c 0.56557,-0.22976 0.97208,0.035349 0.97208,0.035349 z m 7.4321,6.4237 -0.3835,1.2639 c -0.26933,0.2688 -0.44314,0.37116 -0.44314,0.37116 l -14.139,6.4688 C 7.93884,16.82891 7.61038,16.52076 7.61038,16.52076 L 0.62908,9.61016 C 0.44162,9.43519 0.47001,9.22133 0.47001,9.22133 c 0,0 -0.063329,-0.4547 -0.00233,-1.8774 z" />
      <path
         id="outline_center"
         d="m 7.5742,15.396 -0.40039,6.9297 1.498,0.08594 0.39844,-6.9297 z" />
    </g>
  </g>
</svg>
