<?xml version="1.0" encoding="UTF-8" standalone="no"?>
<svg
   id="svg2985"
   version="1.1"
   inkscape:version="1.2.2 (b0a8486541, 2022-12-01)"
   width="512"
   height="512"
   sodipodi:docname="ic_launcher_monochrome.svg"
   inkscape:export-filename="/home/peter/StudioProjects/cgeo/main/project/rawimages/ic_launcher_foreground.png"
   inkscape:export-xdpi="90"
   inkscape:export-ydpi="90"
   xmlns:inkscape="http://www.inkscape.org/namespaces/inkscape"
   xmlns:sodipodi="http://sodipodi.sourceforge.net/DTD/sodipodi-0.dtd"
   xmlns:xlink="http://www.w3.org/1999/xlink"
   xmlns="http://www.w3.org/2000/svg"
   xmlns:svg="http://www.w3.org/2000/svg"
   xmlns:rdf="http://www.w3.org/1999/02/22-rdf-syntax-ns#"
   xmlns:cc="http://creativecommons.org/ns#"
   xmlns:dc="http://purl.org/dc/elements/1.1/">
  <metadata
     id="metadata2991">
    <rdf:RDF>
      <cc:Work
         rdf:about="">
        <dc:format>image/svg+xml</dc:format>
        <dc:type
           rdf:resource="http://purl.org/dc/dcmitype/StillImage" />
      </cc:Work>
    </rdf:RDF>
  </metadata>
  <defs
     id="defs2989">
    <linearGradient
       id="linearGradient3837">
      <stop
         style="stop-color:#fbf9d4;stop-opacity:1;"
         offset="0"
         id="stop3839" />
      <stop
         style="stop-color:#ffffff;stop-opacity:1;"
         offset="1"
         id="stop3841" />
    </linearGradient>
    <linearGradient
       id="linearGradient3936">
      <stop
         style="stop-color:#f7991d;stop-opacity:1;"
         offset="0"
         id="stop3938" />
      <stop
         style="stop-color:#f8b339;stop-opacity:1;"
         offset="1"
         id="stop3940" />
    </linearGradient>
    <linearGradient
       id="linearGradient3928">
      <stop
         id="stop3930"
         offset="0"
         style="stop-color:#000000;stop-opacity:0.12849163;" />
      <stop
         id="stop3932"
         offset="1"
         style="stop-color:#000000;stop-opacity:0.0726257;" />
    </linearGradient>
    <linearGradient
       id="linearGradient3863">
      <stop
         style="stop-color:#ffc34a;stop-opacity:1;"
         offset="0"
         id="stop3865" />
      <stop
         style="stop-color:#f9a62f;stop-opacity:1;"
         offset="1"
         id="stop3867" />
    </linearGradient>
    <linearGradient
       id="linearGradient3801">
      <stop
         style="stop-color:#ffffff;stop-opacity:0.1;"
         offset="0"
         id="stop3803" />
      <stop
         style="stop-color:#ffffff;stop-opacity:0;"
         offset="1"
         id="stop3805" />
    </linearGradient>
    <linearGradient
       id="linearGradient3890">
      <stop
         style="stop-color:#ffffff;stop-opacity:1;"
         offset="0"
         id="stop3892" />
      <stop
         id="stop3900"
         offset="0.29212967"
         style="stop-color:#ffffff;stop-opacity:1;" />
      <stop
         id="stop3898"
         offset="0.35852277"
         style="stop-color:#d8dada;stop-opacity:1;" />
      <stop
         style="stop-color:#d8dada;stop-opacity:1;"
         offset="1"
         id="stop3894" />
    </linearGradient>
    <linearGradient
       id="linearGradient3864">
      <stop
         style="stop-color:#aad04a;stop-opacity:1;"
         offset="0"
         id="stop3866" />
      <stop
         id="stop3872"
         offset="0.29795828"
         style="stop-color:#cfdc8d;stop-opacity:1;" />
      <stop
         style="stop-color:#98bc40;stop-opacity:1;"
         offset="0.36036199"
         id="stop3882" />
      <stop
         style="stop-color:#48873e;stop-opacity:1;"
         offset="1"
         id="stop3868" />
    </linearGradient>
    <linearGradient
       id="linearGradient3838">
      <stop
         style="stop-color:#61b647;stop-opacity:1;"
         offset="0"
         id="stop3840" />
      <stop
         style="stop-color:#92c746;stop-opacity:1;"
         offset="1"
         id="stop3842" />
    </linearGradient>
    <linearGradient
       id="linearGradient3828">
      <stop
         id="stop3830"
         offset="0"
         style="stop-color:#000000;stop-opacity:0.13333334;" />
      <stop
         id="stop3832"
         offset="1"
         style="stop-color:#000000;stop-opacity:0.11111111;" />
    </linearGradient>
    <linearGradient
       id="linearGradient3796">
      <stop
         style="stop-color:#000000;stop-opacity:0.05555556;"
         offset="0"
         id="stop3798" />
      <stop
         style="stop-color:#000000;stop-opacity:0.10555556;"
         offset="1"
         id="stop3800" />
    </linearGradient>
    <linearGradient
       inkscape:collect="always"
       xlink:href="#linearGradient3796"
       id="linearGradient3810"
       x1="335.7388"
       y1="344.35822"
       x2="496.04077"
       y2="344.35822"
       gradientUnits="userSpaceOnUse" />
    <filter
       id="filter4143"
       style="color-interpolation-filters:sRGB;"
       inkscape:label="Drop Shadow"
       x="-0.099540526"
       y="-0.10505385"
       width="1.2516163"
       height="1.1670528">
      <feFlood
         id="feFlood4145"
         flood-opacity="0.5"
         flood-color="rgb(255,255,255)"
         result="flood" />
      <feComposite
         in2="SourceGraphic"
         id="feComposite4147"
         in="flood"
         operator="in"
         result="composite1" />
      <feGaussianBlur
         id="feGaussianBlur4149"
         in="composite"
         stdDeviation="0.7"
         result="blur" />
      <feOffset
         id="feOffset4151"
         dx="1.5"
         dy="0"
         result="offset" />
      <feComposite
         in2="offset"
         id="feComposite4153"
         in="SourceGraphic"
         operator="over"
         result="fbSourceGraphic" />
      <feColorMatrix
         result="fbSourceGraphicAlpha"
         in="fbSourceGraphic"
         values="0 0 0 -1 0 0 0 0 -1 0 0 0 0 -1 0 0 0 0 1 0"
         id="feColorMatrix4297" />
      <feFlood
         id="feFlood4299"
         flood-opacity="0.4"
         flood-color="rgb(0,0,0)"
         result="flood"
         in="fbSourceGraphic" />
      <feComposite
         id="feComposite4301"
         in2="fbSourceGraphic"
         in="flood"
         operator="in"
         result="composite1" />
      <feGaussianBlur
         id="feGaussianBlur4303"
         in="composite"
         stdDeviation="0.8"
         result="blur" />
      <feOffset
         id="feOffset4305"
         dx="0.4"
         dy="-2.5"
         result="offset" />
      <feComposite
         id="feComposite4307"
         in2="offset"
         in="fbSourceGraphic"
         operator="over"
         result="composite2" />
    </filter>
  </defs>
  <sodipodi:namedview
     pagecolor="#ffffff"
     bordercolor="#666666"
     borderopacity="1"
     objecttolerance="10"
     gridtolerance="10"
     guidetolerance="10"
     inkscape:pageopacity="0"
     inkscape:pageshadow="2"
     inkscape:window-width="2472"
     inkscape:window-height="1411"
     id="namedview2987"
     showgrid="false"
     inkscape:zoom="1.4775167"
     inkscape:cx="151.94413"
     inkscape:cy="203.7202"
     inkscape:window-x="2648"
     inkscape:window-y="0"
     inkscape:window-maximized="1"
     inkscape:current-layer="svg2985"
     inkscape:snap-bbox="false"
     inkscape:snap-nodes="true"
     inkscape:bbox-nodes="false"
     inkscape:bbox-paths="false"
     inkscape:object-nodes="true"
     inkscape:object-paths="true"
     inkscape:snap-global="false"
     inkscape:document-rotation="0"
     inkscape:showpageshadow="0"
     inkscape:pagecheckerboard="1"
     inkscape:deskcolor="#d1d1d1" />
  <g
     id="g1847"
     transform="translate(-5.2554758,46.515132)">
    <path
       id="top"
       style="fill:#ffffff;fill-opacity:1;stroke-width:0.0236643"
       d="m 320.27734,38.699219 c -0.65721,-0.03182 -1.3499,-0.03028 -2.07422,0.01563 -1.93147,0.122424 -4.09071,0.558819 -6.4121,1.501953 L 79.357422,120.3125 c 0,0 -6.922408,2.20416 -8.478516,7.18164 l -0.05273,-0.002 c -0.0029,0.0676 -0.001,0.10256 -0.0039,0.16992 -0.290263,1.02224 -0.36564,2.15104 -0.09766,3.4082 -0.717465,20.14524 0.138672,27.24805 0.138672,27.24805 0,0 -0.464491,3.51189 2.613281,6.38476 L 188.09766,278.17188 c 0,-10e-6 5.39183,5.06092 15.95898,1.1621 L 436.19727,173.11914 c 0,0 2.85343,-1.68217 7.27539,-6.0957 l 5.5,-18.12305 0.35937,-0.14648 c 0,0 4.93335,-2.90359 1.45117,-7.54688 L 327.74609,40.796875 h 0.006 c 0,0 -2.87412,-1.874889 -7.47461,-2.097656 z m 19.69727,37.728515 c 1.94834,-0.01553 3.9552,0.117004 6.02148,0.396485 6.61223,0.894438 11.88566,3.023971 15.82032,6.386719 l 15.82031,13.521484 c 3.93612,3.364148 5.38748,6.982088 4.35156,10.853518 -1.03599,3.87143 -4.25607,6.86946 -9.66016,8.99609 l -0.41601,0.16406 c -5.40415,2.12666 -11.39939,2.7533 -17.98438,1.88086 -6.58495,-0.87242 -11.84504,-2.99133 -15.78125,-6.35547 L 322.32617,98.75 c -3.93458,-3.362764 -5.39735,-6.991335 -4.38867,-10.884766 1.00875,-3.893351 4.21508,-6.902611 9.61914,-9.029296 l 0.41406,-0.164063 c 3.71534,-1.462029 7.71756,-2.209968 12.00391,-2.244141 z m 1.69922,7.521485 c -2.26507,-0.04714 -4.35973,0.307554 -6.28321,1.064453 l -0.41601,0.164062 c -2.56251,1.008443 -4.09223,2.445552 -4.5918,4.310547 -0.49955,1.865068 0.20971,3.615319 2.12696,5.253907 l 15.82031,13.523432 c 1.86646,1.59521 4.38684,2.60298 7.56054,3.02344 3.17372,0.4205 6.04098,0.12562 8.60352,-0.88281 l 0.41602,-0.16406 c 2.56456,-1.00923 4.096,-2.44525 4.59375,-4.31055 0.49771,-1.86526 -0.1863,-3.59619 -2.05274,-5.19141 L 351.62891,87.21875 c -1.91727,-1.638575 -4.46091,-2.667619 -7.63282,-3.087891 -0.79297,-0.105049 -1.56724,-0.165928 -2.32226,-0.18164 z m -53.86328,13.005859 c 1.94831,-0.01553 3.95516,0.117006 6.02148,0.396484 6.6122,0.894442 11.88568,3.023958 15.82031,6.386718 l 7.87305,6.72852 c 1.05949,0.90555 1.47059,1.86144 1.23242,2.86914 -0.23822,1.00776 -1.0864,1.79673 -2.54101,2.36914 l -23.58789,9.2832 c -0.41652,0.16393 -0.49866,0.35449 -0.2461,0.57031 l 3.78321,3.23438 c 1.86642,1.59521 4.38683,2.60297 7.56054,3.02344 3.17371,0.42049 6.04098,0.12561 8.60352,-0.88282 l 0.41601,-0.16211 c 3.6725,-1.44517 5.22447,-3.53767 4.6543,-6.27343 -0.34163,-1.50325 0.4914,-2.64901 2.5,-3.43946 1.4546,-0.5724 3.0324,-0.73739 4.73438,-0.49414 1.70188,0.24331 3.05813,0.79678 4.06835,1.66016 0.65601,0.56071 1.05349,1.1592 1.19141,1.79687 0.6096,2.59534 0.0399,5.07183 -1.70703,7.42774 -1.74702,2.35595 -4.42071,4.2424 -8.02344,5.66016 l -0.41601,0.16406 c -5.40414,2.12665 -11.3994,2.7533 -17.98438,1.88086 -6.58496,-0.87243 -11.84505,-2.98938 -15.78125,-6.35352 l -15.82031,-13.52344 c -3.93462,-3.36274 -5.39736,-6.98936 -4.38867,-10.88281 1.00874,-3.89334 4.21505,-6.90456 9.61914,-9.031249 l 0.41406,-0.162109 c 3.71535,-1.462033 7.71756,-2.211922 12.00391,-2.246094 z m 1.69922,7.521482 c -2.26507,-0.0471 -4.35973,0.30755 -6.28321,1.06446 l -0.41406,0.16406 c -2.56251,1.00845 -4.09419,2.44557 -4.59375,4.31054 -0.49955,1.86508 0.20972,3.61731 2.12695,5.25586 l 3.78516,3.23438 c 0.25256,0.21588 0.5874,0.24206 1.00391,0.0781 l 17.875,-7.0332 c 0.41438,-0.16304 0.49472,-0.35247 0.24218,-0.56836 l -3.78515,-3.23633 c -1.91728,-1.63854 -4.46287,-2.66761 -7.63477,-3.08789 -0.79298,-0.10505 -1.56727,-0.16593 -2.32226,-0.18164 z m -52.45899,13.21094 c 1.57741,0.0346 3.19286,0.1633 4.8457,0.38672 6.61146,0.89378 11.88411,3.02264 15.82032,6.38672 l 30.27734,25.87695 c 3.93615,3.36414 5.39917,6.99161 4.38867,10.88477 -1.0106,3.89315 -4.21899,6.9046 -9.62304,9.03125 l -0.41407,0.16211 c -3.60276,1.41774 -7.62757,2.15222 -12.07226,2.20117 -4.44477,0.0489 -8.66882,-0.55649 -12.67188,-1.81641 -0.97092,-0.30991 -1.78344,-0.74596 -2.43945,-1.30664 -1.01024,-0.86341 -1.37827,-1.80578 -1.10547,-2.82617 0.27278,-1.02039 1.1013,-1.8038 2.48828,-2.34961 2.07833,-0.81787 4.25847,-0.85666 6.54102,-0.11719 4.10312,1.34547 8.02544,1.2824 11.76562,-0.18945 l 0.41602,-0.16406 c 2.56459,-1.00924 4.09599,-2.44526 4.59375,-4.31055 0.49769,-1.86528 -0.18827,-3.5962 -2.05469,-5.19141 l -1.9668,-1.68164 c -0.25259,-0.21584 -0.50118,-0.2127 -0.74414,0.01 -1.71235,1.99632 -4.12755,3.60872 -7.24609,4.83594 l -0.41602,0.16211 c -5.40412,2.12663 -11.41111,2.74376 -18.02148,1.8496 -6.61039,-0.89411 -11.88413,-3.0226 -15.82031,-6.38671 l -15.36524,-13.13282 c -3.93614,-3.36407 -5.40008,-6.99393 -4.39062,-10.88672 1.00952,-3.89268 4.21702,-6.9026 9.62109,-9.02929 l 0.41602,-0.16211 c 4.05308,-1.59495 8.44554,-2.34029 13.17773,-2.23633 z m 0.52344,7.51172 c -2.2655,-0.0475 -4.36168,0.3056 -6.28516,1.0625 l -0.41406,0.16406 c -2.5625,1.00845 -4.093,2.44684 -4.5918,4.3125 -0.49876,1.86574 0.20969,3.61727 2.12696,5.25586 l 15.36523,13.13281 c 1.86645,1.59521 4.38681,2.60298 7.56055,3.02344 3.1737,0.4205 6.04293,0.12561 8.60547,-0.88281 l 0.41406,-0.16211 c 2.56461,-1.00922 4.096,-2.44719 4.59375,-4.3125 0.4977,-1.86526 -0.1863,-3.59619 -2.05274,-5.19141 l -15.36523,-13.13281 c -1.91728,-1.63859 -4.46209,-2.66695 -7.63477,-3.08789 -0.79314,-0.10521 -1.5671,-0.16581 -2.32226,-0.18164 z m -39.32031,17.04492 c 0.49198,0.007 0.99636,0.0433 1.51367,0.10742 2.06927,0.2564 3.73486,0.92405 4.99609,2.00196 1.21044,1.03453 1.65254,2.1669 1.32422,3.39843 -0.32829,1.23161 -1.32433,2.17531 -2.98828,2.83008 -1.66182,0.65399 -3.54097,0.84214 -5.63672,0.56445 -2.0957,-0.27763 -3.74853,-0.93421 -4.95898,-1.96875 -1.26122,-1.07789 -1.71413,-2.22134 -1.35938,-3.43164 0.3548,-1.21023 1.36164,-2.14287 3.02344,-2.79687 1.24797,-0.49107 2.61,-0.72649 4.08594,-0.70508 z m -37.98047,4.92578 c 4.42116,-0.0704 8.63168,0.52529 12.63476,1.78516 0.9709,0.30996 1.78537,0.74405 2.44141,1.30469 1.00868,0.86214 1.37659,1.80475 1.10351,2.82617 -0.27308,1.02151 -1.10343,1.80467 -2.48828,2.34961 -2.00858,0.79046 -4.15302,0.81569 -6.43554,0.0762 -4.17294,-1.31797 -8.09506,-1.25378 -11.76758,0.1914 l -0.41602,0.16211 c -2.56251,1.00845 -4.09418,2.44555 -4.59375,4.31055 -0.49954,1.86507 0.2097,3.61727 2.12696,5.25586 l 15.82031,13.52148 c 1.86645,1.59522 4.38681,2.60298 7.56055,3.02344 3.17371,0.4205 6.04293,0.12757 8.60546,-0.88086 l 0.41407,-0.16406 c 3.67249,-1.4452 5.19911,-3.55671 4.57812,-6.33594 -0.34163,-1.50325 0.49141,-2.65096 2.5,-3.4414 1.45461,-0.5724 3.04935,-0.74362 4.78516,-0.51368 1.73574,0.23 3.13423,0.79827 4.19531,1.70508 0.60518,0.51728 0.97911,1.09359 1.11914,1.73047 0.59065,2.66623 0.0126,5.17729 -1.73437,7.53321 -1.74702,2.35595 -4.42268,4.24435 -8.02539,5.6621 l -0.41602,0.16211 c -5.40414,2.12666 -11.41529,2.76106 -18.03516,1.90235 -6.61988,-0.8587 -11.89778,-2.96985 -15.83398,-6.33399 L 142.58984,169.4805 c -3.93462,-3.36277 -5.37951,-6.99712 -4.33593,-10.9043 1.04363,-3.90709 4.26778,-6.92409 9.67187,-9.05078 l 0.41602,-0.16406 c 3.53299,-1.39026 7.51048,-2.12095 11.93164,-2.19141 z m 59.80273,13.72461 c 0.49675,0.0112 1.00563,0.0516 1.5293,0.12109 2.09466,0.27809 3.74854,0.93426 4.95898,1.96876 1.26123,1.07794 1.71426,2.22309 1.36133,3.43359 -0.35296,1.21051 -1.36146,2.14208 -3.02539,2.79687 -1.66184,0.65398 -3.52854,0.85231 -5.59961,0.59571 -2.07109,-0.2566 -3.7368,-0.92401 -4.99805,-2.00196 -1.21041,-1.0345 -1.65162,-2.16644 -1.32226,-3.39843 0.32937,-1.23197 1.32645,-2.1761 2.98828,-2.83008 1.24795,-0.49109 2.61718,-0.71918 4.10742,-0.68555 z" />
    <path
       id="outline_center"
       d="m 193.22362,374.18157 6.56539,-113.77765"
       fill="none"
       stroke="#ffffff"
       stroke-width="0.0569463"
       style="stroke-width:24.5001;stroke-dasharray:none" />
    <path
       id="outline"
       d="m 440.06315,142.38656 c 0,0 -22.19977,110.42297 -24.5476,115.34555 -6.78999,5.61057 -217.76866,109.25442 -217.76866,109.25442 -6.15575,2.05211 -10.61055,1.81469 -14.5091,-1.16087 0,0 -95.958932,-107.73197 -99.531574,-116.86452 -1.445097,-4.56841 -0.917197,-107.44135 -0.917197,-107.44135"
       fill="none"
       stroke="#ffffff"
       stroke-width="0.0569463"
       style="stroke:#ffffff;stroke-width:24.5;stroke-dasharray:none;stroke-opacity:1"
       sodipodi:nodetypes="cccccc" />
  </g>
</svg>
