<?xml version="1.0" encoding="UTF-8" standalone="no"?>
<svg
   xmlns:dc="http://purl.org/dc/elements/1.1/"
   xmlns:cc="http://creativecommons.org/ns#"
   xmlns:rdf="http://www.w3.org/1999/02/22-rdf-syntax-ns#"
   xmlns:svg="http://www.w3.org/2000/svg"
   xmlns="http://www.w3.org/2000/svg"
   xmlns:xlink="http://www.w3.org/1999/xlink"
   xmlns:sodipodi="http://sodipodi.sourceforge.net/DTD/sodipodi-0.dtd"
   xmlns:inkscape="http://www.inkscape.org/namespaces/inkscape"
   id="svg2985"
   version="1.1"
   inkscape:version="1.0 (4035a4fb49, 2020-05-01)"
   width="512"
   height="512"
   sodipodi:docname="ic_launcher_send2cgeo.svg"
   inkscape:export-filename="/home/peter/StudioProjects/cgeo/main/project/rawimages/ic_launcher_background.png"
   inkscape:export-xdpi="90"
   inkscape:export-ydpi="90">
  <metadata
     id="metadata2991">
    <rdf:RDF>
      <cc:Work
         rdf:about="">
        <dc:format>image/svg+xml</dc:format>
        <dc:type
           rdf:resource="http://purl.org/dc/dcmitype/StillImage" />
        <dc:title></dc:title>
      </cc:Work>
    </rdf:RDF>
  </metadata>
  <defs
     id="defs2989">
    <rect
       x="22.590949"
       y="297.65176"
       width="151.25215"
       height="53.027023"
       id="rect931" />
    <linearGradient
       id="linearGradient3837">
      <stop
         style="stop-color:#fbf9d4;stop-opacity:1;"
         offset="0"
         id="stop3839" />
      <stop
         style="stop-color:#ffffff;stop-opacity:1;"
         offset="1"
         id="stop3841" />
    </linearGradient>
    <linearGradient
       id="linearGradient3936">
      <stop
         style="stop-color:#f7991d;stop-opacity:1;"
         offset="0"
         id="stop3938" />
      <stop
         style="stop-color:#f8b339;stop-opacity:1;"
         offset="1"
         id="stop3940" />
    </linearGradient>
    <linearGradient
       id="linearGradient3928">
      <stop
         id="stop3930"
         offset="0"
         style="stop-color:#000000;stop-opacity:0.12849163;" />
      <stop
         id="stop3932"
         offset="1"
         style="stop-color:#000000;stop-opacity:0.0726257;" />
    </linearGradient>
    <linearGradient
       id="linearGradient3863">
      <stop
         style="stop-color:#ffc34a;stop-opacity:1;"
         offset="0"
         id="stop3865" />
      <stop
         style="stop-color:#f9a62f;stop-opacity:1;"
         offset="1"
         id="stop3867" />
    </linearGradient>
    <linearGradient
       id="linearGradient3801">
      <stop
         style="stop-color:#ffffff;stop-opacity:0.1;"
         offset="0"
         id="stop3803" />
      <stop
         style="stop-color:#ffffff;stop-opacity:0;"
         offset="1"
         id="stop3805" />
    </linearGradient>
    <linearGradient
       id="linearGradient3890">
      <stop
         style="stop-color:#ffffff;stop-opacity:1;"
         offset="0"
         id="stop3892" />
      <stop
         id="stop3900"
         offset="0.29212967"
         style="stop-color:#ffffff;stop-opacity:1;" />
      <stop
         id="stop3898"
         offset="0.35852277"
         style="stop-color:#d8dada;stop-opacity:1;" />
      <stop
         style="stop-color:#d8dada;stop-opacity:1;"
         offset="1"
         id="stop3894" />
    </linearGradient>
    <linearGradient
       id="linearGradient3864">
      <stop
         style="stop-color:#aad04a;stop-opacity:1;"
         offset="0"
         id="stop3866" />
      <stop
         id="stop3872"
         offset="0.29795828"
         style="stop-color:#cfdc8d;stop-opacity:1;" />
      <stop
         style="stop-color:#98bc40;stop-opacity:1;"
         offset="0.36036199"
         id="stop3882" />
      <stop
         style="stop-color:#48873e;stop-opacity:1;"
         offset="1"
         id="stop3868" />
    </linearGradient>
    <linearGradient
       id="linearGradient3838">
      <stop
         style="stop-color:#61b647;stop-opacity:1;"
         offset="0"
         id="stop3840" />
      <stop
         style="stop-color:#92c746;stop-opacity:1;"
         offset="1"
         id="stop3842" />
    </linearGradient>
    <linearGradient
       id="linearGradient3828">
      <stop
         id="stop3830"
         offset="0"
         style="stop-color:#000000;stop-opacity:0.13333334;" />
      <stop
         id="stop3832"
         offset="1"
         style="stop-color:#000000;stop-opacity:0.11111111;" />
    </linearGradient>
    <linearGradient
       id="linearGradient3796">
      <stop
         style="stop-color:#000000;stop-opacity:0.05555556;"
         offset="0"
         id="stop3798" />
      <stop
         style="stop-color:#000000;stop-opacity:0.10555556;"
         offset="1"
         id="stop3800" />
    </linearGradient>
    <linearGradient
       inkscape:collect="always"
       xlink:href="#linearGradient3796"
       id="linearGradient3810"
       x1="335.7388"
       y1="344.35822"
       x2="496.04077"
       y2="344.35822"
       gradientUnits="userSpaceOnUse" />
    <filter
       id="filter4143"
       style="color-interpolation-filters:sRGB;"
       inkscape:label="Drop Shadow">
      <feFlood
         id="feFlood4145"
         flood-opacity="0.5"
         flood-color="rgb(255,255,255)"
         result="flood" />
      <feComposite
         in2="SourceGraphic"
         id="feComposite4147"
         in="flood"
         operator="in"
         result="composite1" />
      <feGaussianBlur
         id="feGaussianBlur4149"
         in="composite"
         stdDeviation="0.7"
         result="blur" />
      <feOffset
         id="feOffset4151"
         dx="1.5"
         dy="0"
         result="offset" />
      <feComposite
         in2="offset"
         id="feComposite4153"
         in="SourceGraphic"
         operator="over"
         result="fbSourceGraphic" />
      <feColorMatrix
         result="fbSourceGraphicAlpha"
         in="fbSourceGraphic"
         values="0 0 0 -1 0 0 0 0 -1 0 0 0 0 -1 0 0 0 0 1 0"
         id="feColorMatrix4297" />
      <feFlood
         id="feFlood4299"
         flood-opacity="0.4"
         flood-color="rgb(0,0,0)"
         result="flood"
         in="fbSourceGraphic" />
      <feComposite
         id="feComposite4301"
         in2="fbSourceGraphic"
         in="flood"
         operator="in"
         result="composite1" />
      <feGaussianBlur
         id="feGaussianBlur4303"
         in="composite"
         stdDeviation="0.8"
         result="blur" />
      <feOffset
         id="feOffset4305"
         dx="0.4"
         dy="-2.5"
         result="offset" />
      <feComposite
         id="feComposite4307"
         in2="offset"
         in="fbSourceGraphic"
         operator="over"
         result="composite2" />
    </filter>
    <linearGradient
       gradientUnits="userSpaceOnUse"
       y2="197.85721"
       x2="453.37692"
       y1="197.85721"
       x1="66.473442"
       id="linearGradient3880"
       xlink:href="#linearGradient3864"
       inkscape:collect="always"
       gradientTransform="translate(12.772221,46.61618)" />
    <linearGradient
       gradientUnits="userSpaceOnUse"
       y2="258.14891"
       x2="435.78817"
       y1="258.14891"
       x1="70.62744"
       id="linearGradient3896"
       xlink:href="#linearGradient3890"
       inkscape:collect="always"
       gradientTransform="translate(12.772221,46.61618)" />
    <filter
       height="1.5147856"
       y="-0.25739279"
       width="2.4757186"
       x="-0.73785931"
       id="filter3916"
       inkscape:collect="always">
      <feGaussianBlur
         id="feGaussianBlur3918"
         stdDeviation="5.7505801"
         inkscape:collect="always" />
    </filter>
    <radialGradient
       gradientUnits="userSpaceOnUse"
       gradientTransform="matrix(-0.66393007,1.0294724,-1.0210616,-0.65850585,510.64073,-205.94619)"
       r="193.19952"
       fy="-10.861603"
       fx="283.49646"
       cy="-10.861603"
       cx="283.49646"
       id="radialGradient3922"
       xlink:href="#linearGradient3838"
       inkscape:collect="always" />
    <linearGradient
       gradientTransform="translate(-4.1012061,5.4616772)"
       gradientUnits="userSpaceOnUse"
       y2="196.93991"
       x2="73.038445"
       y1="272.0433"
       x1="72.743576"
       id="linearGradient3843"
       xlink:href="#linearGradient3837"
       inkscape:collect="always" />
    <filter
       inkscape:label="Drop Shadow"
       style="color-interpolation-filters:sRGB;"
       id="filter4143-3">
      <feFlood
         result="flood"
         flood-color="rgb(255,255,255)"
         flood-opacity="0.5"
         id="feFlood4145-7" />
      <feComposite
         result="composite1"
         operator="in"
         in="flood"
         id="feComposite4147-5"
         in2="SourceGraphic" />
      <feGaussianBlur
         result="blur"
         stdDeviation="0.7"
         in="composite"
         id="feGaussianBlur4149-9" />
      <feOffset
         result="offset"
         dy="0"
         dx="1.5"
         id="feOffset4151-2" />
      <feComposite
         result="fbSourceGraphic"
         operator="over"
         in="SourceGraphic"
         id="feComposite4153-2"
         in2="offset" />
      <feColorMatrix
         id="feColorMatrix4297-8"
         values="0 0 0 -1 0 0 0 0 -1 0 0 0 0 -1 0 0 0 0 1 0"
         in="fbSourceGraphic"
         result="fbSourceGraphicAlpha" />
      <feFlood
         in="fbSourceGraphic"
         result="flood"
         flood-color="rgb(0,0,0)"
         flood-opacity="0.4"
         id="feFlood4299-9" />
      <feComposite
         result="composite1"
         operator="in"
         in="flood"
         in2="fbSourceGraphic"
         id="feComposite4301-7" />
      <feGaussianBlur
         result="blur"
         stdDeviation="0.8"
         in="composite"
         id="feGaussianBlur4303-3" />
      <feOffset
         result="offset"
         dy="-2.5"
         dx="0.4"
         id="feOffset4305-6" />
      <feComposite
         result="composite2"
         operator="over"
         in="fbSourceGraphic"
         in2="offset"
         id="feComposite4307-1" />
    </filter>
    <linearGradient
       id="linearGradient6127">
      <stop
         id="stop6129"
         offset="0"
         style="stop-color:#00c0ff;stop-opacity:1;" />
      <stop
         id="stop6131"
         offset="1"
         style="stop-color:#3486cb;stop-opacity:1;" />
    </linearGradient>
    <linearGradient
       id="linearGradient4555">
      <stop
         id="stop4557"
         offset="0"
         style="stop-color:#898989;stop-opacity:1;" />
      <stop
         id="stop4559"
         offset="1"
         style="stop-color:#505050;stop-opacity:1;" />
    </linearGradient>
    <linearGradient
       y2="196.93991"
       x2="73.038445"
       y1="272.0433"
       x1="72.743576"
       gradientTransform="translate(-4.1012061,5.4616772)"
       gradientUnits="userSpaceOnUse"
       id="linearGradient1377"
       xlink:href="#linearGradient3837"
       inkscape:collect="always" />
    <linearGradient
       y2="196.93991"
       x2="73.038445"
       y1="272.0433"
       x1="72.743576"
       gradientTransform="translate(-4.1012061,5.4616772)"
       gradientUnits="userSpaceOnUse"
       id="linearGradient1379"
       xlink:href="#linearGradient3837"
       inkscape:collect="always" />
    <linearGradient
       y2="196.93991"
       x2="73.038445"
       y1="272.0433"
       x1="72.743576"
       gradientTransform="translate(-4.1012061,5.4616772)"
       gradientUnits="userSpaceOnUse"
       id="linearGradient1381"
       xlink:href="#linearGradient3837"
       inkscape:collect="always" />
    <linearGradient
       y2="196.93991"
       x2="73.038445"
       y1="272.0433"
       x1="72.743576"
       gradientTransform="translate(-4.1012061,5.4616772)"
       gradientUnits="userSpaceOnUse"
       id="linearGradient1383"
       xlink:href="#linearGradient3837"
       inkscape:collect="always" />
    <linearGradient
       y2="196.93991"
       x2="73.038445"
       y1="272.0433"
       x1="72.743576"
       gradientTransform="translate(-4.1012061,5.4616772)"
       gradientUnits="userSpaceOnUse"
       id="linearGradient1385"
       xlink:href="#linearGradient3837"
       inkscape:collect="always" />
    <radialGradient
       gradientUnits="userSpaceOnUse"
       gradientTransform="matrix(0.60033114,-0.39375089,0.47257648,0.72051233,-132.70729,115.32273)"
       r="155.75519"
       fy="380.25443"
       fx="120.81452"
       cy="380.25443"
       cx="120.81452"
       id="radialGradient6133"
       xlink:href="#linearGradient6127"
       inkscape:collect="always" />
    <radialGradient
       inkscape:collect="always"
       xlink:href="#linearGradient4555"
       id="radialGradient3409"
       cx="125.44473"
       cy="334.12772"
       fx="125.44473"
       fy="334.12772"
       r="74.678955"
       gradientTransform="matrix(1.0227858,0.03273853,-0.03767024,1.1768578,9.7283139,-63.295813)"
       gradientUnits="userSpaceOnUse" />
  </defs>
  <sodipodi:namedview
     pagecolor="#5d92ba"
     bordercolor="#666666"
     borderopacity="1"
     objecttolerance="10"
     gridtolerance="10"
     guidetolerance="10"
     inkscape:pageopacity="0"
     inkscape:pageshadow="2"
     inkscape:window-width="1853"
     inkscape:window-height="1025"
     id="namedview2987"
     showgrid="false"
     inkscape:zoom="1.0283384"
     inkscape:cx="204.20914"
     inkscape:cy="305.75995"
     inkscape:window-x="67"
     inkscape:window-y="27"
     inkscape:window-maximized="1"
     inkscape:current-layer="svg2985"
     inkscape:snap-bbox="false"
     inkscape:snap-nodes="true"
     inkscape:bbox-nodes="false"
     inkscape:bbox-paths="false"
     inkscape:object-nodes="true"
     inkscape:object-paths="true"
     inkscape:snap-global="false"
     inkscape:document-rotation="0" />
  <rect
     style="opacity:0.997;fill:#ffffff;stroke-width:0;stroke-linejoin:round;paint-order:stroke fill markers;fill-opacity:1"
     id="rect917"
     width="512"
     height="512"
     x="-0.30228573"
     y="-0.028637908" />
  <path
     style="fill:#f7991d;fill-opacity:1;stroke:none;stroke-width:1.5452px;stroke-linecap:butt;stroke-linejoin:miter;stroke-opacity:1"
     d="M -0.19135318,328.17599 71.773799,266.57726 -0.19135318,215.52754 Z"
     id="path3022"
     inkscape:export-xdpi="90"
     inkscape:export-ydpi="90" />
  <path
     style="fill:#f7991d;fill-opacity:1;stroke:none;stroke-width:1.5452px;stroke-linecap:butt;stroke-linejoin:miter;stroke-opacity:1"
     d="M 415.66282,512.52466 83.619467,274.92859 -0.19135318,346.69957 -0.40327925,512.0214"
     id="path3020"
     inkscape:export-xdpi="90"
     inkscape:export-ydpi="90"
     sodipodi:nodetypes="cccc" />
  <path
     style="fill:#f7991d;fill-opacity:1;stroke:none;stroke-width:1.5452px;stroke-linecap:butt;stroke-linejoin:miter;stroke-opacity:1"
     d="m 443.76898,512.53794 67.78967,0.27022 0.44907,-123.11344 C 484.79515,364.458 457.63194,343.67609 429.52007,319.44793 l -123.77884,90.9329"
     id="path3836"
     inkscape:export-xdpi="90"
     inkscape:export-ydpi="90"
     sodipodi:nodetypes="ccccc" />
  <path
     style="fill:#f7991d;fill-opacity:1;stroke:none;stroke-width:1px;stroke-linecap:butt;stroke-linejoin:miter;stroke-opacity:1"
     d="M -0.34716783,190.70927 291.62122,401.1565 511.10073,242.80377 511.66334,-0.03116413 -0.21959934,-0.24837822 Z"
     id="path939"
     sodipodi:nodetypes="cccccc" />
  <path
     style="fill:#f7991d;fill-opacity:1;stroke:none;stroke-width:1.5452px;stroke-linecap:butt;stroke-linejoin:miter;stroke-opacity:1"
     d="m 510.88861,259.34171 -70.30272,52.06884 71.41376,60.64855 z"
     id="path3016"
     inkscape:export-xdpi="90"
     inkscape:export-ydpi="90"
     sodipodi:nodetypes="cccc" />
  <g
     transform="matrix(0.97808581,0,0,0.94340464,0.4185418,-1.8433954)"
     id="g1448">
    <path
       inkscape:export-ydpi="90"
       inkscape:export-xdpi="90"
       sodipodi:nodetypes="cccccccccccc"
       inkscape:connector-curvature="0"
       id="path3924"
       d="m 455.6565,193.46007 23.48471,20.36727 c 2.79219,2.93915 2.97845,9.95135 1.03915,18.08115 l -10.39147,31.79789 c -2.64524,4.8496 -9.97581,7.27402 -9.97581,7.27402 0,0 2.60526,7.16885 1.87047,11.43062 l -17.87332,67.75235 -219.05211,112.43567 c -4.40873,2.49828 -13.14978,2.5487 -15.79502,-0.83132 L 101.931,340.18757 98.813559,275.55265 Z"
       style="fill:#000000;fill-opacity:0.397683;stroke:none" />
    <path
       sodipodi:nodetypes="ccccccccc"
       inkscape:connector-curvature="0"
       id="path3920"
       d="m 436.59771,222.08346 c 9.40528,3.52698 10.28702,11.16877 10.58094,18.51665 l -17.6349,67.60046 -215.73364,110.51205 c -13.2323,6.03571 -18.60274,3.52699 -24.10104,-3.23306 L 87.132726,298.79528 82.430086,228.54959 c -0.207829,-7.48186 9.405281,-12.34443 9.405281,-12.34443 z"
       style="fill:#5c5d5d;fill-opacity:1;stroke:none" />
    <path
       sodipodi:nodetypes="ccccccc"
       inkscape:connector-curvature="0"
       id="path3884"
       d="m 448.06039,215.0295 -18.81056,76.41791 -220.73019,109.63031 c -6.23488,2.07829 -10.747,1.83787 -14.69576,-1.17566 L 90.659707,281.16038 83.899661,207.09379 Z"
       style="fill:url(#linearGradient3896);fill-opacity:1;stroke:none;stroke-width:1px;stroke-linecap:butt;stroke-linejoin:miter;stroke-opacity:1" />
    <path
       sodipodi:nodetypes="cccccccc"
       inkscape:connector-curvature="0"
       id="path3818"
       d="m 465.64913,177.54013 c 1.17566,3.96786 -9.35911,40.28156 -9.35911,40.28156 -2.49395,7.58577 -8.6705,10.28703 -8.6705,10.28703 l -233.5155,106.39724 c -7.17011,2.90961 -14.01254,1.62667 -16.45924,-1.0287 L 82.136171,218.26256 C 79.746134,214.93729 79.78485,205.3303 79.78485,205.3303 Z"
       style="fill:#868786;fill-opacity:1;stroke:none" />
    <path
       sodipodi:nodetypes="ccccccccc"
       inkscape:connector-curvature="0"
       id="path3816"
       d="m 465.64913,177.54013 -10.53477,36.60762 c -1.36085,4.47005 -5.29048,6.17222 -5.29048,6.17222 l -235.13203,107.5729 c -10.70321,3.94876 -16.16532,-1.17566 -16.16532,-1.17566 L 82.430086,211.79643 c -3.11744,-2.90961 -2.645236,-6.46613 -2.645236,-6.46613 0,0 -1.053122,-22.11238 -0.03919,-45.77105 z"
       style="fill:url(#linearGradient3880);fill-opacity:1;stroke:none" />
    <ellipse
       ry="26.809982"
       rx="9.3523197"
       cy="226.65034"
       cx="185.59158"
       transform="matrix(0.88331111,0,0,1.0869978,42.534042,34.172135)"
       id="path3902"
       style="fill:#ffffd0;fill-opacity:0.944056;stroke:none;filter:url(#filter3916)" />
    <path
       sodipodi:nodetypes="ccccccccc"
       inkscape:connector-curvature="0"
       id="path3814"
       d="M 340.19357,70.717213 464.81355,172.41182 c 3.52698,4.70264 -1.46957,7.64179 -1.46957,7.64179 l -246.00689,99.93111 c -5.77133,2.79957 -11.57831,0.83438 -14.69575,-1.76349 L 83.311831,168.29701 c -10.580941,-12.05052 5.29047,-17.04708 5.29047,-17.04708 L 324.02825,70.129383 c 9.40528,-3.820896 16.16532,0.58783 16.16532,0.58783 z"
       style="fill:url(#radialGradient3922);fill-opacity:1;stroke:none;stroke-width:1px;stroke-linecap:butt;stroke-linejoin:miter;stroke-opacity:1" />
    <g
       id="text3833"
       style="font-style:normal;font-variant:normal;font-weight:normal;font-stretch:normal;font-size:27.5245px;line-height:125%;font-family:'232MKSDRoundMedium';-inkscape-font-specification:'232MKSDRoundMedium';letter-spacing:0px;word-spacing:0px;fill:url(#linearGradient3843);fill-opacity:1;stroke:none;filter:url(#filter4143-3)"
       transform="matrix(1.0487801,-0.41271929,0.76389884,0.65287682,12.772221,46.61618)">
      <path
         id="path4310"
         style="font-size:99.0881px;fill:url(#linearGradient1377)"
         d="m 9.8964838,251.44327 c -1.6511043,3.04006 -3.9467671,5.43501 -6.8869951,7.18485 -2.94029722,1.74985 -6.1280177,2.62477 -9.5631709,2.62477 h -0.3961345 c -5.1527923,0 -9.5621783,-1.81637 -13.2281713,-5.44912 -3.666016,-3.63274 -5.499018,-8.02549 -5.499012,-13.17828 v -20.71088 c -6e-6,-5.15071 1.832996,-9.55959 5.499012,-13.22666 3.665993,-3.66696 8.075379,-5.50046 13.2281713,-5.50052 h 0.3961345 c 3.3686269,6e-5 6.52308417,0.87548 9.4633813,2.62628 2.9402281,1.75091 5.2358908,4.1131 6.8869951,7.08658 0.3971008,0.72579 0.5956718,1.51805 0.5957138,2.3768 -4.2e-5,1.3205 -0.4793342,2.46001 -1.4378777,3.41855 -0.9586246,0.95863 -2.0981402,1.43792 -3.4185501,1.43788 -1.9151893,4e-5 -3.3354259,-0.85875 -4.2607139,-2.57639 -1.71762205,-3.10451 -4.3272689,-4.6568 -7.8289485,-4.65684 h -0.3961345 c -2.4433557,4e-5 -4.5404473,0.87497 -6.2912813,2.62477 -1.750871,1.74988 -2.626297,3.87974 -2.626281,6.38955 v 20.71088 c -1.6e-5,2.44335 0.87541,4.54045 2.626281,6.29129 1.750834,1.75086 3.8479256,2.62629 6.2912813,2.62628 h 0.3961345 c 3.5016796,1e-5 6.11132645,-1.58554 7.8289485,-4.75664 0.925288,-1.71758 2.3455246,-2.57637 4.2607139,-2.57639 1.3869363,2e-5 2.559211,0.47881 3.5168278,1.43637 0.957535,0.95759 1.436323,2.13087 1.436366,3.51985 -4.3e-5,0.79228 -0.197606,1.55128 -0.5926902,2.27702 z" />
      <path
         id="path4312"
         style="font-size:99.0881px;fill:url(#linearGradient1379)"
         d="m 34.109071,221.22213 c -1.8e-5,1.58458 -0.577588,2.95492 -1.732711,4.11103 -1.155155,1.15619 -2.526001,1.73426 -4.112541,1.73423 -1.584549,3e-5 -2.954891,-0.57804 -4.11103,-1.73423 -1.156155,-1.15611 -1.734228,-2.52645 -1.734222,-4.11103 -6e-6,-1.65102 0.578067,-3.03799 1.734222,-4.16092 1.156139,-1.12284 2.526481,-1.68428 4.11103,-1.68433 1.58654,5e-5 2.957386,0.56149 4.112541,1.68433 1.155123,1.12293 1.732693,2.5099 1.732711,4.16092 z m 0,28.53681 c -1.8e-5,1.65107 -0.577588,3.03855 -1.732711,4.16244 -1.155155,1.12389 -2.526001,1.68584 -4.112541,1.68584 -1.584549,0 -2.954891,-0.56195 -4.11103,-1.68584 -1.156155,-1.12389 -1.734228,-2.51137 -1.734222,-4.16244 -6e-6,-1.58453 0.578067,-2.95487 1.734222,-4.11103 1.156139,-1.15613 2.526481,-1.73421 4.11103,-1.73422 1.58654,1e-5 2.957386,0.57809 4.112541,1.73422 1.155123,1.15616 1.732693,2.5265 1.732711,4.11103 z" />
      <path
         id="path4314"
         style="font-size:99.0881px;fill:url(#linearGradient1381)"
         d="m 83.876868,261.8486 c -4.3e-5,5.15277 -1.816918,9.56215 -5.450629,13.22817 -3.633788,3.66599 -8.027046,5.499 -13.179788,5.49902 h -0.396135 c -3.435203,-2e-5 -6.622419,-0.89158 -9.561659,-2.67467 -2.93927,-1.78312 -5.234428,-4.16144 -6.885483,-7.13496 -0.39715,-0.72575 -0.595721,-1.51802 -0.595714,-2.3768 -7e-6,-1.32247 0.478781,-2.46249 1.436366,-3.42007 0.957567,-0.95758 2.097586,-1.43636 3.420062,-1.43636 1.981666,0 3.435166,0.85879 4.360504,2.57639 1.651045,3.10455 4.259684,4.65683 7.825924,4.65684 h 0.396135 c 2.445321,-1e-5 4.542917,-0.87543 6.292793,-2.62628 1.749813,-1.75086 2.624735,-3.84795 2.624769,-6.29128 v -2.57638 c -3.4e-5,-0.33062 -0.164334,-0.4294 -0.4929,-0.29635 -2.642944,1.38698 -5.451162,2.08046 -8.424662,2.08046 h -0.396135 c -5.152792,0 -9.545546,-1.833 -13.178276,-5.49901 -3.632753,-3.666 -5.449124,-8.07538 -5.449118,-13.22817 v -20.11517 c -6e-6,-5.15273 1.816365,-9.56211 5.449118,-13.22817 3.63273,-3.66595 8.025484,-5.49895 13.178276,-5.49901 h 0.396135 c 5.152742,6e-5 9.546,1.83306 13.179788,5.49901 3.633711,3.66606 5.450586,8.07544 5.450629,13.22817 z m -9.712855,-19.51945 v -20.11517 c -3.4e-5,-2.50982 -0.874956,-4.64017 -2.624769,-6.39107 -1.749876,-1.75081 -3.847472,-2.62623 -6.292793,-2.62628 h -0.396135 c -2.443356,5e-5 -4.540447,0.87547 -6.291281,2.62628 -1.750871,1.7509 -2.626297,3.88125 -2.626281,6.39107 v 20.11517 c -1.6e-5,2.44335 0.87541,4.54044 2.626281,6.29128 1.750834,1.75087 3.847925,2.62629 6.291281,2.62628 h 0.396135 c 2.445321,1e-5 4.542917,-0.87541 6.292793,-2.62628 1.749813,-1.75084 2.624735,-3.84793 2.624769,-6.29128 z" />
      <path
         id="path4316"
         style="font-size:99.0881px;fill:url(#linearGradient1383)"
         d="m 133.61443,232.22016 c -4e-5,1.387 -0.4627,2.55978 -1.38798,3.51834 -0.92536,0.95861 -2.08151,1.4379 -3.46845,1.43788 h -22.49197 c -0.39716,2e-5 -0.59573,0.16533 -0.59571,0.49592 v 4.95319 c -2e-5,2.44335 0.87541,4.54045 2.62628,6.29129 1.75083,1.75086 3.84792,2.62629 6.29128,2.62628 h 0.39613 c 3.50168,1e-5 6.11133,-1.55228 7.82895,-4.65685 0.92529,-1.71758 2.34553,-2.57637 4.26072,-2.57639 1.38693,2e-5 2.54308,0.47881 3.46844,1.43637 0.92528,0.95759 1.38794,2.09761 1.38798,3.42006 -4e-5,0.85881 -0.19861,1.65107 -0.59571,2.37681 -1.58458,2.97353 -3.84698,5.33522 -6.7872,7.08506 -2.9403,1.74985 -6.12802,2.62477 -9.56318,2.62477 h -0.39613 c -5.15279,0 -9.54555,-1.81637 -13.17828,-5.44912 -3.632749,-3.63274 -5.44912,-8.02549 -5.449114,-13.17828 v -20.71088 c -6e-6,-5.15071 1.816365,-9.55959 5.449114,-13.22666 3.63273,-3.66696 8.02549,-5.50046 13.17828,-5.50052 h 0.39613 c 5.15275,6e-5 9.54601,1.83356 13.17979,5.50052 3.63371,3.66707 5.45059,8.07595 5.45063,13.22666 z m -9.71285,-5.34933 v -4.95622 c -4e-5,-2.50981 -0.87496,-4.63967 -2.62477,-6.38955 -1.74988,-1.7498 -3.84747,-2.62473 -6.2928,-2.62477 h -0.39613 c -2.44336,4e-5 -4.54045,0.87497 -6.29128,2.62477 -1.75087,1.74988 -2.6263,3.87974 -2.62628,6.38955 v 4.95622 c -2e-5,0.33065 0.19855,0.49596 0.59571,0.49593 h 17.04286 c 0.39509,3e-5 0.59265,-0.16528 0.59269,-0.49593 z" />
      <path
         id="path4318"
         style="font-size:99.0881px;fill:url(#linearGradient1385)"
         d="m 183.35199,242.62549 c -4e-5,5.15279 -1.81692,9.54554 -5.45063,13.17828 -3.63379,3.63275 -8.02705,5.44912 -13.17979,5.44912 h -0.39613 c -5.1528,0 -9.54555,-1.81637 -13.17828,-5.44912 -3.63275,-3.63274 -5.44912,-8.02549 -5.44912,-13.17828 v -20.71088 c 0,-5.15071 1.81637,-9.55959 5.44912,-13.22666 3.63273,-3.66696 8.02548,-5.50046 13.17828,-5.50052 h 0.39613 c 5.15274,6e-5 9.546,1.83356 13.17979,5.50052 3.63371,3.66707 5.45059,8.07595 5.45063,13.22666 z m -9.71286,0 v -20.71088 c -3e-5,-2.50981 -0.87495,-4.63967 -2.62477,-6.38955 -1.74987,-1.7498 -3.84747,-2.62473 -6.29279,-2.62477 h -0.39613 c -2.44336,4e-5 -4.54045,0.87497 -6.29128,2.62477 -1.75088,1.74988 -2.6263,3.87974 -2.62629,6.38955 v 20.71088 c -1e-5,2.44335 0.87541,4.54045 2.62629,6.29129 1.75083,1.75086 3.84792,2.62629 6.29128,2.62628 h 0.39613 c 2.44532,1e-5 4.54292,-0.87542 6.29279,-2.62628 1.74982,-1.75084 2.62474,-3.84794 2.62477,-6.29129 z" />
    </g>
  </g>
  <path
     d="M 575.14755,-1.5912621 H 864.49921 V 287.76039 H 575.14755 Z"
     fill="none"
     id="path1016"
     style="stroke-width:12.0563" />
  <path
     sodipodi:nodetypes="sssssss"
     inkscape:connector-curvature="0"
     id="path4571"
     d="M 73.459886,204.86352 C 48.382178,205.09512 29.4531,229.13104 29.4531,254.89371 v 123.54714 c 0,27.95062 22.506605,50.45722 50.457218,50.45722 H 203.45745 c 25.76266,0 49.79858,-18.92908 50.03018,-44.00679 C 254.39769,286.3505 172.00065,203.95345 73.459886,204.86352 Z"
     style="opacity:0.915033;fill:url(#radialGradient6133);fill-opacity:1;stroke:#546cbf;stroke-width:3.00093;stroke-linecap:butt;stroke-miterlimit:4;stroke-dasharray:none;stroke-opacity:1" />
  <path
     d="m 166.55265,369.21293 c -6.30621,0 -11.94863,2.4893 -16.26341,6.3892 l -59.162322,-34.4353 c 0.41488,-1.90846 0.746785,-3.81693 0.746785,-5.80836 0,-1.99144 -0.331905,-3.8999 -0.746785,-5.80837 l 58.498502,-34.10338 c 4.48074,4.14883 10.37208,6.72111 16.92723,6.72111 13.77413,0 24.89299,-11.11888 24.89299,-24.89299 0,-13.77412 -11.11886,-24.89297 -24.89299,-24.89297 -13.77411,0 -24.89298,11.11885 -24.89298,24.89297 0,1.99145 0.33191,3.8999 0.74679,5.80837 L 83.907945,317.1866 c -4.48073,-4.14884 -10.372069,-6.72111 -16.927228,-6.72111 -13.774116,0 -24.89298,11.11886 -24.89298,24.89298 0,13.77412 11.118864,24.89298 24.89298,24.89298 6.555159,0 12.446498,-2.57228 16.927228,-6.7211 l 59.079355,34.51827 c -0.41488,1.7425 -0.66382,3.568 -0.66382,5.39348 0,13.35922 10.86995,24.22917 24.22917,24.22917 13.35924,0 24.22918,-10.86995 24.22918,-24.22917 0,-13.35924 -10.86994,-24.22917 -24.22918,-24.22917 z"
     id="path1018"
     style="fill:url(#radialGradient3409);fill-opacity:1;stroke-width:8.29765" />
</svg>
