<?xml version="1.0" encoding="UTF-8" standalone="no"?>
<svg
   xmlns:dc="http://purl.org/dc/elements/1.1/"
   xmlns:cc="http://creativecommons.org/ns#"
   xmlns:rdf="http://www.w3.org/1999/02/22-rdf-syntax-ns#"
   xmlns:svg="http://www.w3.org/2000/svg"
   xmlns="http://www.w3.org/2000/svg"
   xmlns:sodipodi="http://sodipodi.sourceforge.net/DTD/sodipodi-0.dtd"
   xmlns:inkscape="http://www.inkscape.org/namespaces/inkscape"
   version="1.1"
   x="0px"
   y="0px"
   width="100px"
   height="100px"
   viewBox="5.0 -10.0 100.0 135.0"
   enable-background="new 0 0 100 100"
   xml:space="preserve"
   id="svg2"
   inkscape:version="0.48.5 r10040"
   sodipodi:docname="noun_5447_cc.svg"><metadata
     id="metadata18"><rdf:RDF><cc:Work
         rdf:about=""><dc:format>image/svg+xml</dc:format><dc:type
           rdf:resource="http://purl.org/dc/dcmitype/StillImage" /><dc:title></dc:title></cc:Work></rdf:RDF></metadata><defs
     id="defs16" /><sodipodi:namedview
     pagecolor="#ffffff"
     bordercolor="#666666"
     borderopacity="1"
     objecttolerance="10"
     gridtolerance="10"
     guidetolerance="10"
     inkscape:pageopacity="0"
     inkscape:pageshadow="2"
     inkscape:window-width="942"
     inkscape:window-height="778"
     id="namedview14"
     showgrid="false"
     inkscape:zoom="4.72"
     inkscape:cx="50"
     inkscape:cy="50"
     inkscape:window-x="663"
     inkscape:window-y="124"
     inkscape:window-maximized="0"
     inkscape:current-layer="svg2" /><g
     id="Captions" /><g
     id="Your_Icon"
     transform="matrix(1.5882703,0,0,1.588247,-24.412723,-21.91076)"><path
       d="m 65.419,37.973 c 0,-0.098 -0.004,-0.19 -0.012,-0.279 -0.004,-0.049 -0.012,-0.097 -0.018,-0.146 -0.004,-0.024 -0.007,-0.046 -0.01,-0.07 -0.103,-0.696 -0.419,-1.366 -0.955,-1.903 -0.536,-0.535 -1.206,-0.852 -1.901,-0.954 -0.03,-0.006 -0.062,-0.011 -0.094,-0.015 -0.04,-0.003 -0.078,-0.01 -0.119,-0.012 -0.093,-0.01 -0.188,-0.016 -0.29,-0.016 l -21.36,10e-4 c -1.877,0 -3.398,1.521 -3.399,3.399 0,1.878 1.521,3.4 3.399,3.399 l 13.151,10e-4 -18.236,18.238 c -1.329,1.328 -1.328,3.481 -0.001,4.809 1.327,1.328 3.479,1.327 4.809,-10e-4 L 58.619,46.187 v 13.15 c 10e-4,1.879 1.523,3.401 3.401,3.401 1.878,0 3.4,-1.522 3.399,-3.399 L 65.42,37.982 c 0,-0.003 0.001,-0.006 -0.001,-0.009 z"
       id="path6"
       inkscape:connector-curvature="0" /><path
       d="m 25.958,74.041 c 13.277,13.277 34.806,13.277 48.083,0 13.277,-13.278 13.277,-34.806 0,-48.084 -13.277,-13.277 -34.806,-13.277 -48.083,0 -13.277,13.278 -13.277,34.806 0,48.084 z M 69.233,30.766 c 10.621,10.622 10.621,27.845 0,38.467 -10.622,10.622 -27.846,10.622 -38.467,0 -10.622,-10.622 -10.622,-27.845 0,-38.467 10.622,-10.622 27.845,-10.622 38.467,0 z"
       id="path8"
       inkscape:connector-curvature="0" /></g></svg>