<svg xmlns="http://www.w3.org/2000/svg" xmlns:xlink="http://www.w3.org/1999/xlink" version="1.1" x="0px" y="0px" width="100px" height="100px" viewBox="5.0 -10.0 100.0 135.0" enable-background="new 0 0 100 100" xml:space="preserve">
<g id="Captions">
</g>
<g id="Your_Icon">
	<path d="M65.419,37.973c0-0.098-0.004-0.19-0.012-0.279c-0.004-0.049-0.012-0.097-0.018-0.146c-0.004-0.024-0.007-0.046-0.01-0.07   c-0.103-0.696-0.419-1.366-0.955-1.903c-0.536-0.535-1.206-0.852-1.901-0.954c-0.03-0.006-0.062-0.011-0.094-0.015   c-0.04-0.003-0.078-0.01-0.119-0.012c-0.093-0.01-0.188-0.016-0.29-0.016l-21.36,0.001c-1.877,0-3.398,1.521-3.399,3.399   c0,1.878,1.521,3.4,3.399,3.399l13.151,0.001L35.575,59.616c-1.329,1.328-1.328,3.481-0.001,4.809s3.479,1.327,4.809-0.001   l18.236-18.237v13.15c0.001,1.879,1.523,3.401,3.401,3.401s3.4-1.522,3.399-3.399l0.001-21.357   C65.42,37.979,65.421,37.976,65.419,37.973z"/>
	<path d="M25.958,74.041c13.277,13.277,34.806,13.277,48.083,0c13.277-13.278,13.277-34.806,0-48.084   c-13.277-13.277-34.806-13.277-48.083,0C12.681,39.235,12.681,60.763,25.958,74.041z M69.233,30.766   c10.621,10.622,10.621,27.845,0,38.467c-10.622,10.622-27.846,10.622-38.467,0c-10.622-10.622-10.622-27.845,0-38.467   C41.388,20.144,58.611,20.144,69.233,30.766z"/>
</g>
<text x="0.0" y="117.5" font-size="5.0" font-weight="bold" font-family="Helvetica Neue, Helvetica, Arial-Unicode, Arial, Sans-serif" fill="#000000">Created by Jamison Wieser</text><text x="0.0" y="122.5" font-size="5.0" font-weight="bold" font-family="Helvetica Neue, Helvetica, Arial-Unicode, Arial, Sans-serif" fill="#000000">from the Noun Project</text></svg>