<?xml version="1.0" encoding="UTF-8" standalone="no"?>
<svg
   viewBox="0 0 24 24"
   id="dot_found"
   version="1.1"
   sodipodi:docname="dot_found.svg"
   inkscape:version="1.1 (c68e22c387, 2021-05-23)"
   xmlns:inkscape="http://www.inkscape.org/namespaces/inkscape"
   xmlns:sodipodi="http://sodipodi.sourceforge.net/DTD/sodipodi-0.dtd"
   xmlns="http://www.w3.org/2000/svg"
   xmlns:svg="http://www.w3.org/2000/svg">
  <defs
     id="defs9" />
  <sodipodi:namedview
     id="namedview7"
     pagecolor="#505050"
     bordercolor="#ffffff"
     borderopacity="1"
     inkscape:pageshadow="0"
     inkscape:pageopacity="0"
     inkscape:pagecheckerboard="1"
     showgrid="false"
     inkscape:zoom="30.291667"
     inkscape:cx="11.141678"
     inkscape:cy="11.983494"
     inkscape:window-width="2472"
     inkscape:window-height="1411"
     inkscape:window-x="88"
     inkscape:window-y="240"
     inkscape:window-maximized="1"
     inkscape:current-layer="dot_found" />
  <path
     id="circle2"
     d="M 8.5 8 A 1.5 1.5 0 0 0 7 9.5 A 1.5 1.5 0 0 0 8.5 11 A 1.5 1.5 0 0 0 10 9.5 A 1.5 1.5 0 0 0 8.5 8 z M 15.5 8 A 1.5 1.5 0 0 0 14 9.5 A 1.5 1.5 0 0 0 15.5 11 A 1.5 1.5 0 0 0 17 9.5 A 1.5 1.5 0 0 0 15.5 8 z M 6.890625 14 C 7.690625 16.04 9.67 17.5 12 17.5 C 14.33 17.5 16.299375 16.04 17.109375 14 L 6.890625 14 z "
     fill="#5D4037" />
</svg>
