<svg width="0" height="0" class="hidden"
    xmlns="http://www.w3.org/2000/svg"
    xmlns:xlink="http://www.w3.org/1999/xlink">
    <!-- circles "background" and "foreground" must not be included in drawables, they are drawn by MapMarkerUtils.java -->
    <symbol xmlns="http://www.w3.org/2000/svg" viewBox="0 0 24 24" id="dot_not_found_offline">
        <circle id="background" fill="#fff" cx="12" cy="12" r="12" />
        <circle id="foreground" fill="#448AFF" cx="12" cy="12" r="10" />
        <path d="m8.5 8c-0.8 0-1.5 0.7-1.5 1.5s0.7 1.5 1.5 1.5c0.8 0 1.5-0.7 1.5-1.5s-0.7-1.5-1.5-1.5zm7 0c-0.8 0-1.5 0.7-1.5 1.5s0.7 1.5 1.5 1.5 1.5-0.7 1.5-1.5-0.7-1.5-1.5-1.5zm-3.5 6c-2.0524 0.045447-4.1497 1.1601-5.1094 3.5h10.219c-0.97973-2.4853-3.3594-3.5-5.1094-3.5z" fill="#1A237E" />
    </symbol>
    <symbol xmlns="http://www.w3.org/2000/svg" viewBox="0 0 24 24" id="dot_marker_calendar">
        <circle id="background" fill="#fff" cx="12" cy="12" r="12" />
        <circle id="foreground" fill="#D32F2F" cx="12" cy="12" r="10" />
        <path fill="#fff" d="M19,19H5V8H19M16,1V3H8V1H6V3H5C3.89,3 3,3.89 3,5V19A2,2 0 0,0 5,21H19A2,2 0 0,0 21,19V5C21,3.89 20.1,3 19,3H18V1M17,12H12V17H17V12Z" transform="translate(4.5,4.5) scale(0.625)" />
    </symbol>
    <symbol xmlns="http://www.w3.org/2000/svg" viewBox="0 0 24 24" id="dot_marker_usermodifiedcoords">
        <circle id="background" fill="#fff" cx="12" cy="12" r="12" />
        <circle id="foreground" fill="#303F9F" cx="12" cy="12" r="10" />
        <path fill="#fff" d="M14.4,6L14,4H5V21H7V14H12.6L13,16H20V6H14.4Z" transform="translate(4,3.5) scale(0.666666667)" />
    </symbol>
    <symbol xmlns="http://www.w3.org/2000/svg" viewBox="0 0 24 24" id="dot_note_offline">
        <circle id="background" fill="#fff" cx="12" cy="12" r="12" />
        <circle id="foreground" fill="#4e342e" cx="12" cy="12" r="10" />
        <path fill="#fff" d="M14,10H19.5L14,4.5V10M5,3H15L21,9V19A2,2 0 0,1 19,21H5C3.89,21 3,20.1 3,19V5C3,3.89 3.89,3 5,3M5,12V14H19V12H5M5,16V18H14V16H5Z" transform="translate(5.5,4.1) scale(0.57,0.65)" />
    </symbol>
    <symbol xmlns="http://www.w3.org/2000/svg" viewBox="0 0 24 24" id="dot_marker_archive_offline">
        <circle id="background" fill="#fff" cx="12" cy="12" r="12" />
        <circle id="foreground" fill="#D32F2F" cx="12" cy="12" r="10" />
        <path d="m7.2 16.8 9.6-9.6" stroke="#fff" stroke-width="2.5" />
        <path d="m16.8 16.8-9.6-9.6" stroke="#fff" stroke-width="2.5" />
    </symbol>
    <symbol xmlns="http://www.w3.org/2000/svg" viewBox="0 0 24 24" id="dot_marker_maintenance_offline">
        <circle id="background" fill="#fff" cx="12" cy="12" r="12" />
        <circle id="foreground" fill="#C62828" cx="12" cy="12" r="10" />
        <path fill="#fff" d="M18 14H14V18H10V14H6V10H10V6H14V10H18" />
    </symbol>
    <symbol xmlns="http://www.w3.org/2000/svg" viewBox="0 0 24 24" id="dot_waypoint_flag">

        <circle id="background" fill="#999" cx="12" cy="12" r="12" />
        <circle id="foreground" fill="#fff" cx="12" cy="12" r="10" />
        <path fill="#C62828" d="M6,3A1,1 0 0,1 7,4V4.88C8.06,4.44 9.5,4 11,4C14,4 14,6 16,6C19,6 20,4 20,4V12C20,12 19,14 16,14C13,14 13,12 11,12C8,12 7,14 7,14V21H5V4A1,1 0 0,1 6,3Z" transform="translate(3,3) scale(0.75)" />
    </symbol>
    <symbol xmlns="http://www.w3.org/2000/svg" viewBox="0 0 24 24" id="dot_waypoint_pkg">

        <circle id="background" fill="#999" cx="12" cy="12" r="12" />
        <circle id="foreground" fill="#fff" cx="12" cy="12" r="10" />
        <path fill="#01579B" d="M13.2,11H10V7H13.2A2,2 0 0,1 15.2,9A2,2 0 0,1 13.2,11M13,3H6V21H10V15H13A6,6 0 0,0 19,9C19,5.68 16.31,3 13,3Z" transform="translate(3.3,3) scale(0.75)" />
    </symbol>
    <symbol xmlns="http://www.w3.org/2000/svg" viewBox="0 0 24 24" id="dot_waypoint_stage">

        <circle id="background" fill="#999" cx="12" cy="12" r="12" />
        <circle id="foreground" fill="#fff" cx="12" cy="12" r="10" />
        <path fill="#6d4c41" d="M10.74,11.72C11.21,12.95 11.16,14.23 9.75,14.74C6.85,15.81 6.2,13 6.16,12.86L10.74,11.72M5.71,10.91L10.03,9.84C9.84,8.79 10.13,7.74 10.13,6.5C10.13,4.82 8.8,1.53 6.68,2.06C4.26,2.66 3.91,5.35 4,6.65C4.12,7.95 5.64,10.73 5.71,10.91M17.85,19.85C17.82,20 17.16,22.8 14.26,21.74C12.86,21.22 12.8,19.94 13.27,18.71L17.85,19.85M20,13.65C20.1,12.35 19.76,9.65 17.33,9.05C15.22,8.5 13.89,11.81 13.89,13.5C13.89,14.73 14.17,15.78 14,16.83L18.3,17.9C18.38,17.72 19.89,14.94 20,13.65Z" transform="translate(3.6,3.6) scale(0.7)" />
    </symbol>
    <symbol xmlns="http://www.w3.org/2000/svg" viewBox="0 0 24 24" id="dot_waypoint_trailhead">

        <circle id="background" fill="#999" cx="12" cy="12" r="12" />
        <circle id="foreground" fill="#fff" cx="12" cy="12" r="10" />
        <path fill="#f57c00" d="M11,10H5L3,8L5,6H11V3L12,2L13,3V4H19L21,6L19,8H13V10H19L21,12L19,14H13V20A2,2 0 0,1 15,22H9A2,2 0 0,1 11,20V10Z" transform="translate(3.1,3.4) scale(0.7)" />
    </symbol>
    <symbol xmlns="http://www.w3.org/2000/svg" viewBox="0 0 24 24" id="dot_waypoint_puzzle">

        <circle id="background" fill="#999" cx="12" cy="12" r="12" />
        <circle id="foreground" fill="#fff" cx="12" cy="12" r="10" />
        <path fill="#689f38" d="M20.5,11H19V7C19,5.89 18.1,5 17,5H13V3.5A2.5,2.5 0 0,0 10.5,1A2.5,2.5 0 0,0 8,3.5V5H4A2,2 0 0,0 2,7V10.8H3.5C5,10.8 6.2,12 6.2,13.5C6.2,15 5,16.2 3.5,16.2H2V20A2,2 0 0,0 4,22H7.8V20.5C7.8,19 9,17.8 10.5,17.8C12,17.8 13.2,19 13.2,20.5V22H17A2,2 0 0,0 19,20V16H20.5A2.5,2.5 0 0,0 23,13.5A2.5,2.5 0 0,0 20.5,11Z" transform="translate(4.7,4.1) scale(0.63)" />
    </symbol>
    <symbol xmlns="http://www.w3.org/2000/svg" viewBox="0 0 24 24" id="dot_waypoint_waypoint">
        <circle id="background" fill="#999" cx="12" cy="12" r="12" />
        <circle id="foreground" fill="#fff" cx="12" cy="12" r="10" />
        <circle fill="#C62828" cx="12" cy="12" r="7" />
        <circle fill="#fff" cx="12" cy="12" r="5.5" />
        <circle fill="#C62828" cx="12" cy="12" r="2" />
    </symbol>
    <symbol xmlns="http://www.w3.org/2000/svg" viewBox="0 0 24 24" id="dot_found_offline">
        <circle id="background" fill="#fff" cx="12" cy="12" r="12" />
        <circle fill="#5D4037" cx="12" cy="12" r="9" />
        <path fill="#F57C00" d="M12,2C6.47,2 2,6.5 2,12A10,10 0 0,0 12,22A10,10 0 0,0 22,12A10,10 0 0,0 12,2M15.5,8A1.5,1.5 0 0,1 17,9.5A1.5,1.5 0 0,1 15.5,11A1.5,1.5 0 0,1 14,9.5A1.5,1.5 0 0,1 15.5,8M8.5,8A1.5,1.5 0 0,1 10,9.5A1.5,1.5 0 0,1 8.5,11A1.5,1.5 0 0,1 7,9.5A1.5,1.5 0 0,1 8.5,8M12,17.5C9.67,17.5 7.69,16.04 6.89,14H17.11C16.3,16.04 14.33,17.5 12,17.5Z" />
    </symbol>
    <symbol xmlns="http://www.w3.org/2000/svg" viewBox="0 0 24 24" id="dot_found">
        <circle id="background" fill="#fff" cx="12" cy="12" r="12" />
        <circle fill="#5D4037" cx="12" cy="12" r="9" />
        <path fill="#fdd835" d="M12,2C6.47,2 2,6.5 2,12A10,10 0 0,0 12,22A10,10 0 0,0 22,12A10,10 0 0,0 12,2M15.5,8A1.5,1.5 0 0,1 17,9.5A1.5,1.5 0 0,1 15.5,11A1.5,1.5 0 0,1 14,9.5A1.5,1.5 0 0,1 15.5,8M8.5,8A1.5,1.5 0 0,1 10,9.5A1.5,1.5 0 0,1 8.5,11A1.5,1.5 0 0,1 7,9.5A1.5,1.5 0 0,1 8.5,8M12,17.5C9.67,17.5 7.69,16.04 6.89,14H17.11C16.3,16.04 14.33,17.5 12,17.5Z" />
    </symbol>
</svg>