<svg width="36" height="36" class="hidden"
    xmlns="http://www.w3.org/2000/svg"
    xmlns:xlink="http://www.w3.org/1999/xlink">
		<ellipse id="marker_gc" cx="18" cy="18" rx="14" ry="14" fill="#fff" stroke="#383838" stroke-width=".75" />
		<g transform="translate(6,6)">
        <path fill="#01579B" d="M13.2,11H10V7H13.2A2,2 0 0,1 15.2,9A2,2 0 0,1 13.2,11M13,3H6V21H10V15H13A6,6 0 0,0 19,9C19,5.68 16.31,3 13,3Z" transform="translate(2.6,2.4) scale(0.8)" />
    </g>	<ellipse id="marker_gc" cx="18" cy="18" rx="14" ry="14" fill="#fff" stroke="#383838" stroke-width=".75" />
		<g transform="translate(6,6)">
        <path fill="#689f38" d="M20.5,11H19V7C19,5.89 18.1,5 17,5H13V3.5A2.5,2.5 0 0,0 10.5,1A2.5,2.5 0 0,0 8,3.5V5H4A2,2 0 0,0 2,7V10.8H3.5C5,10.8 6.2,12 6.2,13.5C6.2,15 5,16.2 3.5,16.2H2V20A2,2 0 0,0 4,22H7.8V20.5C7.8,19 9,17.8 10.5,17.8C12,17.8 13.2,19 13.2,20.5V22H17A2,2 0 0,0 19,20V16H20.5A2.5,2.5 0 0,0 23,13.5A2.5,2.5 0 0,0 20.5,11Z" transform="translate(3.7,3) scale(0.72)" />
    </g>
    <ellipse id="marker_gc" cx="18" cy="18" rx="14" ry="14" fill="#fff" stroke="#383838" stroke-width=".75" />
		<g transform="translate(6,6)">
        <path fill="#6d4c41" d="M10.74,11.72C11.21,12.95 11.16,14.23 9.75,14.74C6.85,15.81 6.2,13 6.16,12.86L10.74,11.72M5.71,10.91L10.03,9.84C9.84,8.79 10.13,7.74 10.13,6.5C10.13,4.82 8.8,1.53 6.68,2.06C4.26,2.66 3.91,5.35 4,6.65C4.12,7.95 5.64,10.73 5.71,10.91M17.85,19.85C17.82,20 17.16,22.8 14.26,21.74C12.86,21.22 12.8,19.94 13.27,18.71L17.85,19.85M20,13.65C20.1,12.35 19.76,9.65 17.33,9.05C15.22,8.5 13.89,11.81 13.89,13.5C13.89,14.73 14.17,15.78 14,16.83L18.3,17.9C18.38,17.72 19.89,14.94 20,13.65Z" transform="translate(2.4,2.4) scale(0.8)" />
    </g>
    <ellipse id="marker_gc" cx="18" cy="18" rx="14" ry="14" fill="#fff" stroke="#383838" stroke-width=".75" />
		<g transform="translate(6,6)">
        <path fill="#f57c00" d="M11,10H5L3,8L5,6H11V3L12,2L13,3V4H19L21,6L19,8H13V10H19L21,12L19,14H13V20A2,2 0 0,1 15,22H9A2,2 0 0,1 11,20V10Z" transform="translate(2.2,2.4) scale(0.8)" />
    </g><ellipse id="marker_gc" cx="18" cy="18" rx="14" ry="14" fill="#fff" stroke="#383838" stroke-width=".75" />
		<g transform="translate(6,6)">
        <circle fill-opacity="0" stroke="#C62828" stroke-width="1.75" cx="12" cy="12" r="7.75" />
        <circle fill="#C62828" cx="12" cy="12" r="3" />
    </g><ellipse id="marker_gc" cx="18" cy="18" rx="14" ry="14" fill="#fff" stroke="#383838" stroke-width=".75" />
		<g transform="translate(6,6)">
        <path fill="#C62828" d="M6,3A1,1 0 0,1 7,4V4.88C8.06,4.44 9.5,4 11,4C14,4 14,6 16,6C19,6 20,4 20,4V12C20,12 19,14 16,14C13,14 13,12 11,12C8,12 7,14 7,14V21H5V4A1,1 0 0,1 6,3Z" transform="translate(2.9,2.8) scale(0.77)" />
    </g>
    <ellipse id="marker_gc" cx="18" cy="18" rx="14" ry="14" fill="#fff" stroke="#383838" stroke-width=".75" />
 <g id="text1916" aria-label="x">
  <path id="path13748" d="m16.539 14.1 1.4466 2.5495 1.4753-2.5495h1.9264l-2.3633 3.8099 2.4492 3.9388h-1.9264l-1.5469-2.6497-1.5397 2.6497h-1.9336l2.4492-3.9388-2.3633-3.8099zm-6.2391-3.03h4.62v1.54h-3.08v10.78h3.08v1.54h-4.62v-13.86m15.4 0v13.86h-4.62v-1.54h3.08v-10.78h-3.08v-1.54z" fill="#7b1fa2"/>
 </g>
</svg>