<?xml version="1.0" encoding="UTF-8" standalone="no"?>
<svg
   xmlns:dc="http://purl.org/dc/elements/1.1/"
   xmlns:cc="http://creativecommons.org/ns#"
   xmlns:rdf="http://www.w3.org/1999/02/22-rdf-syntax-ns#"
   xmlns:svg="http://www.w3.org/2000/svg"
   xmlns="http://www.w3.org/2000/svg"
   xmlns:sodipodi="http://sodipodi.sourceforge.net/DTD/sodipodi-0.dtd"
   xmlns:inkscape="http://www.inkscape.org/namespaces/inkscape"
   version="1.1"
   id="Layer_1"
   x="0px"
   y="0px"
   width="100.85667"
   height="83.151756"
   viewBox="0 0 100.85667 83.151758"
   enable-background="new 0 0 100 91.67"
   xml:space="preserve"
   inkscape:version="0.48.3.1 r9886"
   sodipodi:docname="all_seasons.svg"><metadata
   id="metadata11"><rdf:RDF><cc:Work
       rdf:about=""><dc:format>image/svg+xml</dc:format><dc:type
         rdf:resource="http://purl.org/dc/dcmitype/StillImage" /></cc:Work></rdf:RDF></metadata><defs
   id="defs9" /><sodipodi:namedview
   pagecolor="#009674"
   bordercolor="#666666"
   borderopacity="1"
   objecttolerance="10"
   gridtolerance="10"
   guidetolerance="10"
   inkscape:pageopacity="1"
   inkscape:pageshadow="2"
   inkscape:window-width="640"
   inkscape:window-height="480"
   id="namedview7"
   showgrid="false"
   inkscape:zoom="2.5744519"
   inkscape:cx="66.677139"
   inkscape:cy="33.524693"
   inkscape:window-x="49"
   inkscape:window-y="24"
   inkscape:window-maximized="0"
   inkscape:current-layer="Layer_1"
   fit-margin-top="0"
   fit-margin-left="0"
   fit-margin-right="0"
   fit-margin-bottom="0" />


<path
   inkscape:connector-curvature="0"
   id="path2988"
   style="font-size:56.13730240000000293px;font-style:normal;font-weight:bold;line-height:125%;letter-spacing:0px;word-spacing:0px;fill:#ffffff;fill-opacity:1;stroke:none;font-family:Sans;-inkscape-font-specification:Sans Bold"
   d="m 26.79726,53.913232 c 2.745996,-0.762444 5.179339,-0.732481 7.300037,0.08989 2.127348,0.797474 3.871733,2.375204 5.233159,4.733192 2.028372,3.513313 2.227334,6.96448 0.596888,10.353511 -1.639632,3.373239 -5.039011,6.549168 -10.198146,9.527798 -1.81996,1.050753 -3.73462,1.955724 -5.743983,2.714915 -1.984419,0.76589 -4.039804,1.372295 -6.166162,1.819217 L 13.74855,76.101438 c 2.202562,-0.132195 4.270516,-0.460996 6.20387,-0.986403 1.940032,-0.550349 3.72507,-1.29608 5.355118,-2.237196 2.421309,-1.397936 4.030778,-2.886334 4.82841,-4.4652 0.813428,-1.587967 0.767873,-3.165328 -0.136668,-4.732085 -0.93198,-1.61419 -2.3002,-2.449012 -4.10466,-2.504467 -1.797794,-0.08037 -3.986472,0.624094 -6.566043,2.11339 l -3.65572,2.110631 -3.398939,-5.887134 3.845628,-2.220275 c 2.294714,-1.324824 3.798299,-2.667688 4.510761,-4.028595 0.703314,-1.376667 0.630108,-2.800908 -0.219621,-4.272727 -0.78578,-1.360965 -1.939369,-2.098144 -3.46077,-2.21154 -1.521404,-0.113316 -3.279119,0.405631 -5.27315,1.556846 -1.471778,0.849771 -2.8634478,1.874811 -4.1750137,3.075121 -1.31155,1.20038 -2.5238258,2.554413 -3.6368308,4.062104 L -5.0501485e-7,48.779667 C 1.5117534,47.231677 3.0807615,45.819391 4.7070286,44.542804 6.3333171,43.266301 8.0010392,42.134634 9.7101999,41.147801 14.315458,38.489003 18.196101,37.261352 21.35214,37.464845 c 3.162716,0.178628 5.62122,1.787177 7.375523,4.825651 1.196922,2.073198 1.633159,4.089676 1.308707,6.049437 -0.333618,1.944011 -1.41332,3.801775 -3.23911,5.573299" /><path
   inkscape:connector-curvature="0"
   id="path2990"
   style="font-size:56.13730240000000293px;font-style:normal;font-weight:bold;line-height:125%;letter-spacing:0px;word-spacing:0px;fill:#ffffff;fill-opacity:1;stroke:none;font-family:Sans;-inkscape-font-specification:Sans Bold"
   d="m 52.103381,41.455021 c -1.598395,0.922857 -2.499623,2.139508 -2.703688,3.649958 -0.197385,1.485534 0.302393,3.264868 1.499336,5.338004 1.196931,2.073174 2.492557,3.403573 3.886885,3.991203 1.400996,0.562697 2.900693,0.382624 4.499095,-0.540221 1.614197,-0.93195 2.519993,-2.140689 2.717391,-3.626219 0.204052,-1.510455 -0.292381,-3.302268 -1.489302,-5.375448 -1.196953,-2.073131 -2.495924,-3.39105 -3.896918,-3.95376 -1.39433,-0.587616 -2.898595,-0.415455 -4.512799,0.516483 m 1.47273,-23.544231 3.782689,6.551809 c -1.914608,0.155901 -3.632519,0.45141 -5.153738,0.886529 -1.530371,0.419382 -2.928578,0.994528 -4.194623,1.72544 -2.722009,1.571592 -4.404069,3.555569 -5.046184,5.951936 -0.65125,2.380614 -0.24461,5.131606 1.219921,8.252984 0.596782,-1.378464 1.394816,-2.609389 2.394103,-3.692778 0.990148,-1.099152 2.205287,-2.064474 3.645423,-2.895968 3.62406,-2.092321 7.156059,-2.717766 10.596009,-1.87634 3.455742,0.832363 6.174978,2.965605 8.157714,6.399732 2.192837,3.798178 2.709384,7.561856 1.549642,11.291048 -1.16893,3.713404 -3.842363,6.77617 -8.020307,9.188308 -4.605271,2.658853 -9.069365,3.168319 -13.392295,1.528398 -4.31625,-1.664866 -8.123588,-5.353828 -11.422024,-11.066892 -3.380653,-5.855458 -4.563147,-11.302532 -3.547484,-16.341239 1.022373,-5.063599 4.105215,-9.080165 9.248538,-12.049713 1.63004,-0.941055 3.285696,-1.728143 4.966976,-2.361264 1.68127,-0.633022 3.419816,-1.130351 5.21564,-1.49199" /><path
   inkscape:connector-curvature="0"
   id="path2992"
   style="font-size:56.13730240000000293px;font-style:normal;font-weight:bold;line-height:125%;letter-spacing:0px;word-spacing:0px;fill:#ffffff;fill-opacity:1;stroke:none;font-family:Sans;-inkscape-font-specification:Sans Bold"
   d="M 59.742776,13.116064 82.460466,0 l 3.878627,6.717979 -15.429988,8.908508 3.165947,5.48358 c 0.586685,-0.591901 1.200779,-1.136357 1.842286,-1.633367 0.648193,-0.521909 1.352105,-1.002165 2.111737,-1.440771 4.32039,-2.494346 8.309211,-3.351887 11.966477,-2.572626 3.6481,0.763506 6.586858,3.075968 8.816295,6.937387 2.211103,3.829829 2.629033,7.587145 1.253763,11.271966 -1.359493,3.675718 -4.365591,6.856696 -9.018306,9.542943 -2.009868,1.160397 -4.118108,2.11383 -6.324722,2.860299 -2.181673,0.753169 -4.474201,1.296031 -6.877595,1.628588 l -4.152735,-7.192748 c 2.570311,-0.0069 4.877857,-0.231371 6.922646,-0.67341 2.060604,-0.451153 3.858451,-1.119877 5.393547,-2.006172 2.215575,-1.279155 3.645737,-2.822287 4.290491,-4.629401 0.651412,-1.83204 0.442615,-3.673867 -0.62639,-5.525487 -1.078172,-1.867398 -2.568842,-2.969136 -4.472018,-3.305214 -1.887369,-0.34516 -3.938842,0.12183 -6.154424,1.400974 -1.31353,0.75839 -2.61359,1.741089 -3.900186,2.9481 -1.295732,1.191231 -2.592601,2.636306 -3.890609,4.335227 L 59.742776,13.116064" /></svg>