<?xml version="1.0" encoding="UTF-8" standalone="no"?>
<!-- Generator: Adobe Illustrator 14.0.0, SVG Export Plug-In . SVG Version: 6.00 Build 43363)  -->

<svg
   xmlns:dc="http://purl.org/dc/elements/1.1/"
   xmlns:cc="http://creativecommons.org/ns#"
   xmlns:rdf="http://www.w3.org/1999/02/22-rdf-syntax-ns#"
   xmlns:svg="http://www.w3.org/2000/svg"
   xmlns="http://www.w3.org/2000/svg"
   xmlns:sodipodi="http://sodipodi.sourceforge.net/DTD/sodipodi-0.dtd"
   xmlns:inkscape="http://www.inkscape.org/namespaces/inkscape"
   version="1.0"
   id="Layer_1"
   x="0px"
   y="0px"
   width="100px"
   height="61.284px"
   viewBox="0 0 100 61.284"
   enable-background="new 0 0 100 61.284"
   xml:space="preserve"
   inkscape:version="0.47 r22583"
   sodipodi:docname="bicycles.svg"><metadata
   id="metadata9"><rdf:RDF><cc:Work
       rdf:about=""><dc:format>image/svg+xml</dc:format><dc:type
         rdf:resource="http://purl.org/dc/dcmitype/StillImage" /></cc:Work></rdf:RDF></metadata><defs
   id="defs7"><inkscape:perspective
     sodipodi:type="inkscape:persp3d"
     inkscape:vp_x="0 : 30.642 : 1"
     inkscape:vp_y="0 : 1000 : 0"
     inkscape:vp_z="100 : 30.642 : 1"
     inkscape:persp3d-origin="50 : 20.428 : 1"
     id="perspective11" /></defs><sodipodi:namedview
   pagecolor="#009674"
   bordercolor="#666666"
   borderopacity="1"
   objecttolerance="10"
   gridtolerance="10"
   guidetolerance="10"
   inkscape:pageopacity="1"
   inkscape:pageshadow="2"
   inkscape:window-width="640"
   inkscape:window-height="504"
   id="namedview5"
   showgrid="false"
   inkscape:zoom="3.8509235"
   inkscape:cx="50"
   inkscape:cy="30.642"
   inkscape:window-x="0"
   inkscape:window-y="24"
   inkscape:window-maximized="0"
   inkscape:current-layer="Layer_1" />
<path
   d="M80.596,22.157c-2.17,0-4.255,0.364-6.205,1.024c-1.512-3.352-3.279-7.274-5.348-11.878l1.32-3.63L74.9,7.59V3.795H57.822  c-1.494,2.044,0.605,2.035,8.168,3.712l-1.32,3.713H30.927c2.273-7.939,0.989-7.361,11.22-7.343V0  C28.063,0.137,30.505-1.45,22.963,22.81c-1.154-0.215-2.343-0.333-3.56-0.333C8.704,22.477,0,31.182,0,41.881  s8.704,19.403,19.403,19.403c10.7,0,19.404-8.704,19.404-19.403c0-8.006-4.875-14.895-11.812-17.855  c0.422-1.328,0.876-2.746,1.363-4.261C56.744,49.706,46.095,44.852,61.37,45.459c0.073,0,0.143-0.001,0.216-0.002  c1.809,8.839,9.646,15.508,19.01,15.508c10.7,0,19.404-8.704,19.404-19.403S91.296,22.157,80.596,22.157z M34.268,41.881  c0,8.196-6.668,14.864-14.864,14.864S4.539,50.077,4.539,41.881s6.668-14.864,14.864-14.864c0.739,0,1.465,0.056,2.175,0.161  c-4.735,14.932-4.167,13.232-4.196,14.491c-0.023,1.062,0.834,1.904,1.912,1.977c1.932-0.196,1.497,0.124,6.325-15.261  C30.719,30.741,34.268,35.902,34.268,41.881z M53.428,40.956L29.951,15.372l33.019-0.059L53.428,40.956z M61.194,41.493l-3.61-0.011  l9.367-24.588l3.634,8.052C64.979,28.336,61.219,34.482,61.194,41.493z M72.471,29.124l5.604,12.417l-12.342-0.035  C65.753,36.33,68.432,31.771,72.471,29.124z M80.596,56.426c-6.854,0-12.638-4.666-14.348-10.988  c15.471,0.015,16.851,0.808,17.067-1.876c-0.021-0.782-0.312-1.318-7.046-16.22c1.369-0.418,2.822-0.645,4.326-0.645  c8.196,0,14.864,6.668,14.864,14.865S88.792,56.426,80.596,56.426z"
   id="path3"
   style="fill:#ffffff" />
</svg>