<?xml version="1.0" encoding="UTF-8" standalone="no"?>
<!-- Generator: Adobe Illustrator 14.0.0, SVG Export Plug-In . SVG Version: 6.00 Build 43363)  -->

<svg
   xmlns:dc="http://purl.org/dc/elements/1.1/"
   xmlns:cc="http://creativecommons.org/ns#"
   xmlns:rdf="http://www.w3.org/1999/02/22-rdf-syntax-ns#"
   xmlns:svg="http://www.w3.org/2000/svg"
   xmlns="http://www.w3.org/2000/svg"
   xmlns:sodipodi="http://sodipodi.sourceforge.net/DTD/sodipodi-0.dtd"
   xmlns:inkscape="http://www.inkscape.org/namespaces/inkscape"
   version="1.0"
   id="Layer_1"
   x="0px"
   y="0px"
   width="52.66px"
   height="99.959px"
   viewBox="0 0 52.66 99.959"
   enable-background="new 0 0 52.66 99.959"
   xml:space="preserve"
   inkscape:version="0.47 r22583"
   sodipodi:docname="food.svg"><metadata
   id="metadata2945"><rdf:RDF><cc:Work
       rdf:about=""><dc:format>image/svg+xml</dc:format><dc:type
         rdf:resource="http://purl.org/dc/dcmitype/StillImage" /></cc:Work></rdf:RDF></metadata><defs
   id="defs2943"><inkscape:perspective
     sodipodi:type="inkscape:persp3d"
     inkscape:vp_x="0 : 49.9795 : 1"
     inkscape:vp_y="0 : 1000 : 0"
     inkscape:vp_z="52.66 : 49.9795 : 1"
     inkscape:persp3d-origin="26.33 : 33.319667 : 1"
     id="perspective2947" /></defs><sodipodi:namedview
   pagecolor="#009674"
   bordercolor="#666666"
   borderopacity="1"
   objecttolerance="10"
   gridtolerance="10"
   guidetolerance="10"
   inkscape:pageopacity="1"
   inkscape:pageshadow="2"
   inkscape:window-width="640"
   inkscape:window-height="504"
   id="namedview2941"
   showgrid="false"
   inkscape:zoom="2.360968"
   inkscape:cx="26.33"
   inkscape:cy="49.9795"
   inkscape:window-x="0"
   inkscape:window-y="24"
   inkscape:window-maximized="0"
   inkscape:current-layer="Layer_1" />
<path
   d="M24.4,32.602c-0.018,3.233-2.977,6.711-6.812,6.711v54.794c-0.001,7.803-10.607,7.803-10.623,0V39.313  c-3.722,0-6.972-2.88-6.965-7.168V1.951C-0.007-0.67,3.787-0.771,3.812,2.053v22.313h3.153V1.848c0-2.407,3.652-2.563,3.661,0.103  v22.415h3.251V1.899c0.024-2.539,3.573-2.64,3.558,0.102v22.365h3.255V1.899c-0.012-2.513,3.695-2.615,3.711,0.102V32.602  L24.4,32.602z"
   id="path2937"
   style="fill:#ffffff" />
<path
   d="M52.66,8.965v85.142c0.014,7.606-10.612,7.493-10.622,0V60.304h-5.643V8.965C36.389-2.988,52.674-2.988,52.66,8.965  L52.66,8.965z"
   id="path2939"
   style="fill:#ffffff" />
</svg>