<?xml version="1.0" encoding="UTF-8" standalone="no"?>
<!-- Generator: Adobe Illustrator 14.0.0, SVG Export Plug-In . SVG Version: 6.00 Build 43363)  -->

<svg
   xmlns:dc="http://purl.org/dc/elements/1.1/"
   xmlns:cc="http://creativecommons.org/ns#"
   xmlns:rdf="http://www.w3.org/1999/02/22-rdf-syntax-ns#"
   xmlns:svg="http://www.w3.org/2000/svg"
   xmlns="http://www.w3.org/2000/svg"
   xmlns:sodipodi="http://sodipodi.sourceforge.net/DTD/sodipodi-0.dtd"
   xmlns:inkscape="http://www.inkscape.org/namespaces/inkscape"
   version="1.0"
   id="Layer_1"
   x="0px"
   y="0px"
   width="63.491px"
   height="100px"
   viewBox="0 0 63.491 100"
   enable-background="new 0 0 63.491 100"
   xml:space="preserve"
   inkscape:version="0.47 r22583"
   sodipodi:docname="hiking.svg"><metadata
   id="metadata2857"><rdf:RDF><cc:Work
       rdf:about=""><dc:format>image/svg+xml</dc:format><dc:type
         rdf:resource="http://purl.org/dc/dcmitype/StillImage" /></cc:Work></rdf:RDF></metadata><defs
   id="defs2855"><inkscape:perspective
     sodipodi:type="inkscape:persp3d"
     inkscape:vp_x="0 : 50 : 1"
     inkscape:vp_y="0 : 1000 : 0"
     inkscape:vp_z="63.491001 : 50 : 1"
     inkscape:persp3d-origin="31.745501 : 33.333333 : 1"
     id="perspective2859" /></defs><sodipodi:namedview
   pagecolor="#009674"
   bordercolor="#666666"
   borderopacity="1"
   objecttolerance="10"
   gridtolerance="10"
   guidetolerance="10"
   inkscape:pageopacity="1"
   inkscape:pageshadow="2"
   inkscape:window-width="640"
   inkscape:window-height="504"
   id="namedview2853"
   showgrid="false"
   inkscape:zoom="2.36"
   inkscape:cx="31.745501"
   inkscape:cy="50"
   inkscape:window-x="0"
   inkscape:window-y="24"
   inkscape:window-maximized="0"
   inkscape:current-layer="Layer_1" />
<path
   d="M29.77,15.722c4.343,0,7.85-3.53,7.85-7.873S34.113,0,29.77,0s-7.873,3.506-7.873,7.849S25.427,15.722,29.77,15.722z"
   id="path2845"
   style="fill:#ffffff" />
<path
   d="M16.486,17.022c0.302-1.208-0.464-2.415-1.649-2.717l-6.549-1.579c-1.231-0.278-2.438,0.441-2.717,1.649L0.067,37.157  c-0.302,1.208,0.441,2.415,1.649,2.717l6.572,1.579c1.185,0.302,2.415-0.441,2.694-1.649L16.486,17.022z"
   id="path2847"
   style="fill:#ffffff" />
<path
   d="M46.723,98.049c0,0.047-0.023,0.094-0.023,0.116c0,0.999,0.813,1.812,1.812,1.812c0.906,0,1.672-0.697,1.788-1.579  l13.191-71.551c0-0.046,0-0.093,0-0.14c0-0.975-0.79-1.788-1.788-1.788c-0.906,0-1.603,0.697-1.789,1.579L46.723,98.049z"
   id="path2849"
   style="fill:#ffffff" />
<path
   d="M2.831,93.357c-0.07,0.372-0.093,0.744-0.093,1.115C2.738,97.538,5.2,100,8.265,100c2.508,0,4.622-1.672,5.295-3.948  l9.499-39.317l9.057,39.085c0.581,2.415,2.764,4.181,5.341,4.181c3.066,0,5.527-2.462,5.527-5.527c0-0.418-0.046-0.812-0.115-1.207  L30.444,41.337l1.045-4.575l0.812,3.6c0.743,2.345,2.88,2.578,2.88,2.578l12.796,3.251c0.256,0.047,0.511,0.07,0.767,0.07  c2.09,0,3.785-1.672,3.785-3.762c0-1.788-1.23-3.298-2.902-3.692L38.548,36.02l-3.042-12.355c-1.44-6.897-8.035-6.735-8.035-6.735  c-6.41-0.163-8.012,6.572-8.012,6.572L2.831,93.357z"
   id="path2851"
   style="fill:#ffffff" />
</svg>