<?xml version="1.0" encoding="UTF-8" standalone="no"?>
<!-- Generator: Adobe Illustrator 14.0.0, SVG Export Plug-In . SVG Version: 6.00 Build 43363)  -->

<svg
   xmlns:dc="http://purl.org/dc/elements/1.1/"
   xmlns:cc="http://creativecommons.org/ns#"
   xmlns:rdf="http://www.w3.org/1999/02/22-rdf-syntax-ns#"
   xmlns:svg="http://www.w3.org/2000/svg"
   xmlns="http://www.w3.org/2000/svg"
   xmlns:sodipodi="http://sodipodi.sourceforge.net/DTD/sodipodi-0.dtd"
   xmlns:inkscape="http://www.inkscape.org/namespaces/inkscape"
   version="1.0"
   id="Layer_1"
   x="0px"
   y="0px"
   width="76.207px"
   height="100px"
   viewBox="0 0 76.207 100"
   enable-background="new 0 0 76.207 100"
   xml:space="preserve"
   inkscape:version="0.47 r22583"
   sodipodi:docname="night.svg"><metadata
   id="metadata2986"><rdf:RDF><cc:Work
       rdf:about=""><dc:format>image/svg+xml</dc:format><dc:type
         rdf:resource="http://purl.org/dc/dcmitype/StillImage" /></cc:Work></rdf:RDF></metadata><defs
   id="defs2984"><inkscape:perspective
     sodipodi:type="inkscape:persp3d"
     inkscape:vp_x="0 : 50 : 1"
     inkscape:vp_y="0 : 1000 : 0"
     inkscape:vp_z="76.207001 : 50 : 1"
     inkscape:persp3d-origin="38.1035 : 33.333333 : 1"
     id="perspective2988" /></defs><sodipodi:namedview
   pagecolor="#009674"
   bordercolor="#666666"
   borderopacity="1"
   objecttolerance="10"
   gridtolerance="10"
   guidetolerance="10"
   inkscape:pageopacity="1"
   inkscape:pageshadow="2"
   inkscape:window-width="640"
   inkscape:window-height="504"
   id="namedview2982"
   showgrid="false"
   inkscape:zoom="2.36"
   inkscape:cx="38.1035"
   inkscape:cy="50"
   inkscape:window-x="0"
   inkscape:window-y="24"
   inkscape:window-maximized="0"
   inkscape:current-layer="Layer_1" />
<path
   d="M50,100C22.43,100,0,77.57,0,50S22.43,0,50,0c4.801,0,9.575,0.691,14.188,2.054l12.019,3.552L64.188,9.158  C46.228,14.465,33.684,31.26,33.684,50c0,18.739,12.544,35.533,30.503,40.84l12.015,3.549l-12.014,3.555  C59.574,99.308,54.801,100,50,100L50,100z M50,7.407C26.514,7.407,7.408,26.515,7.408,50S26.514,92.593,50,92.593  c0.043,0,0.086,0,0.13,0C35.642,83.635,26.277,67.543,26.277,50c0-17.542,9.365-33.633,23.851-42.593  C50.084,7.407,50.042,7.407,50,7.407L50,7.407z"
   id="path2980"
   style="fill:#ffffff" />
</svg>