<?xml version="1.0" encoding="UTF-8" standalone="no"?>
<svg
	xmlns:dc="http://purl.org/dc/elements/1.1/"
	xmlns:cc="http://creativecommons.org/ns#"
	xmlns:rdf="http://www.w3.org/1999/02/22-rdf-syntax-ns#"
	xmlns:svg="http://www.w3.org/2000/svg"
	xmlns="http://www.w3.org/2000/svg"
	xmlns:sodipodi="http://sodipodi.sourceforge.net/DTD/sodipodi-0.dtd"
	xmlns:inkscape="http://www.inkscape.org/namespaces/inkscape"
	version="1.1"
	width="80"
	height="55"
	xml:space="preserve"
	id="svg30"
	sodipodi:docname="attribute_powertrail.svg"
	inkscape:version="0.92.1 r15371">
	<metadata id="metadata36">
		<rdf:RDF>
			<cc:Work rdf:about="">
				<dc:format>image/svg+xml</dc:format>
				<dc:type rdf:resource="http://purl.org/dc/dcmitype/StillImage"/>
			</cc:Work>
		</rdf:RDF>
	</metadata>
	<defs id="defs34"/>
	<sodipodi:namedview
		pagecolor="#009674"
		bordercolor="#666666"
		borderopacity="1"
		objecttolerance="10"
		gridtolerance="10"
		guidetolerance="10"
		inkscape:pageopacity="0"
		inkscape:pageshadow="2"
		inkscape:window-width="1117"
		inkscape:window-height="726"
		id="namedview32"
		showgrid="false"
		inkscape:zoom="2.36"
		inkscape:cx="40"
		inkscape:cy="50"
		inkscape:window-x="0"
		inkscape:window-y="0"
		inkscape:window-maximized="0"
		inkscape:current-layer="svg30"/>
	<circle cx="8.1490002"
		cy="31.869003"
		r="5.6069999"
		id="circle2"
		style="fill:#ffffff"/>
	<circle cx="40.653999"
		cy="9.4300003"
		r="5.6059999"
		id="circle4"
		style="fill:#ffffff"/>
	<circle cx="44.262001"
		cy="46.57"
		r="5.6059999"
		id="circle6"
		style="fill:#ffffff"/>
	<circle cx="71.850998"
		cy="27.276001"
		r="5.6069999"
		id="circle8"
		style="fill:#ffffff"/>
	<path d="m 17.493,10.215 2.266,2.505 c 0,0 0.225,-0.226 0.564,-0.563 0.166,-0.171 0.389,-0.341 0.613,-0.539 0.232,-0.187 0.457,-0.417 0.725,-0.592 0.26,-0.185 0.52,-0.369 0.764,-0.543 0.238,-0.182 0.494,-0.296 0.697,-0.421 C 23.331,9.943 23.503,9.843 23.624,9.774 23.745,9.703 23.817,9.67 23.817,9.67 L 22.495,6.497 c 0,0.001 -0.09,0.04 -0.238,0.127 C 22.109,6.707 21.896,6.827 21.64,6.972 21.39,7.124 21.074,7.266 20.781,7.486 20.48,7.697 20.16,7.922 19.84,8.147 19.512,8.361 19.233,8.64 18.947,8.869 18.67,9.11 18.396,9.319 18.189,9.527 17.771,9.94 17.493,10.215 17.493,10.215 Z"
		id="path10"
		inkscape:connector-curvature="0"
		style="clip-rule:evenodd;fill-rule:evenodd;fill:#ffffff"/>
	<path d="m 11.368,19.246 3.023,1.476 c 0,0 0.154,-0.313 0.395,-0.777 0.119,-0.232 0.26,-0.504 0.41,-0.793 0.16,-0.283 0.33,-0.586 0.5,-0.889 0.332,-0.61 0.717,-1.179 0.982,-1.624 0.287,-0.424 0.48,-0.706 0.48,-0.706 l -2.773,-1.904 c 0,0 -0.215,0.313 -0.533,0.784 -0.291,0.485 -0.715,1.115 -1.076,1.776 -0.184,0.329 -0.369,0.657 -0.541,0.965 -0.162,0.313 -0.314,0.604 -0.443,0.854 -0.26,0.501 -0.424,0.838 -0.424,0.838 z"
		id="path12"
		inkscape:connector-curvature="0"
		style="clip-rule:evenodd;fill-rule:evenodd;fill:#ffffff"/>
	<path d="m 11.653,27.495 c 0.006,-0.018 0.012,-0.035 0.018,-0.053 0.445,-1.344 0.955,-2.66 0.955,-2.66 L 9.487,23.569 c 0.002,0 -0.514,1.329 -0.975,2.711 1.184,0.075 2.27,0.515 3.141,1.215 z"
		id="path14"
		inkscape:connector-curvature="0"
		style="clip-rule:evenodd;fill-rule:evenodd;fill:#ffffff"/>
	<path d="m 46.36,14.89 -2.834,1.813 c 0,0 0.676,1.014 0.996,2.112 0.178,0.544 0.27,1.108 0.309,1.536 0.021,0.214 0.033,0.394 0.033,0.521 0.002,0.127 0.004,0.2 0.004,0.2 l 3.365,-0.025 c 0,0 -0.002,-0.102 -0.008,-0.279 0.002,-0.179 -0.016,-0.434 -0.047,-0.739 -0.055,-0.61 -0.189,-1.427 -0.441,-2.208 C 47.491,17.04 47.167,16.286 46.868,15.759 46.731,15.488 46.6,15.272 46.505,15.124 46.413,14.975 46.36,14.89 46.36,14.89 Z"
		id="path16"
		inkscape:connector-curvature="0"
		style="clip-rule:evenodd;fill-rule:evenodd;fill:#ffffff"/>
	<path d="m 26.415,5.091 0.43,3.426 c 0,0 0.32,-0.014 0.797,-0.033 0.24,10e-4 0.518,-0.046 0.816,-0.009 0.297,0.024 0.615,0.052 0.934,0.078 0.158,0.018 0.318,0.019 0.473,0.05 0.152,0.032 0.305,0.063 0.451,0.094 0.291,0.062 0.564,0.118 0.799,0.167 0.236,0.039 0.424,0.106 0.557,0.151 0.133,0.043 0.209,0.067 0.209,0.067 l 0.715,-3.324 c 0,0 -0.092,-0.03 -0.256,-0.082 C 32.178,5.621 31.945,5.542 31.656,5.494 31.369,5.435 31.031,5.367 30.672,5.294 30.492,5.258 30.307,5.221 30.119,5.183 29.93,5.146 29.732,5.146 29.539,5.124 29.148,5.093 28.76,5.061 28.394,5.033 28.21,5.011 28.033,5.016 27.865,5.026 27.697,5.033 27.539,5.041 27.392,5.047 26.806,5.073 26.415,5.091 26.415,5.091 Z"
		id="path18"
		inkscape:connector-curvature="0"
		style="clip-rule:evenodd;fill-rule:evenodd;fill:#ffffff"/>
	<path d="m 42.683,35.593 -3.037,-1.444 c 0,0 -0.17,0.351 -0.41,0.897 -0.24,0.546 -0.547,1.301 -0.795,2.118 -0.252,0.813 -0.43,1.7 -0.488,2.403 -0.066,0.7 -0.035,1.195 -0.035,1.195 l 3.361,-0.126 c 0,0 -0.02,-0.297 0.023,-0.76 0.039,-0.462 0.16,-1.094 0.357,-1.731 0.191,-0.638 0.449,-1.277 0.662,-1.755 0.209,-0.478 0.362,-0.797 0.362,-0.797 z"
		id="path20"
		inkscape:connector-curvature="0"
		style="clip-rule:evenodd;fill-rule:evenodd;fill:#ffffff"/>
	<path d="m 47.321,26.068 -3.18,-1.103 c 0,0 -0.428,1.235 -1.035,2.484 -0.588,1.245 -1.281,2.518 -1.281,2.518 l 2.967,1.584 c 0,0 0.174,-0.328 0.434,-0.818 0.258,-0.493 0.6,-1.159 0.922,-1.843 0.662,-1.354 1.173,-2.822 1.173,-2.822 z"
		id="path22"
		inkscape:connector-curvature="0"
		style="clip-rule:evenodd;fill-rule:evenodd;fill:#ffffff"/>
	<path d="m 67.595,30.923 c -0.125,0.247 -0.26,0.505 -0.395,0.762 -0.668,1.274 -1.396,2.511 -1.396,2.512 l 2.9,1.706 c 0,0 0.77,-1.308 1.471,-2.648 0.098,-0.184 0.195,-0.368 0.289,-0.55 -1.135,-0.29 -2.129,-0.922 -2.869,-1.782 z"
		id="path24"
		inkscape:connector-curvature="0"
		style="clip-rule:evenodd;fill-rule:evenodd;fill:#ffffff"/>
	<path d="m 59.706,42.35 2.385,2.374 c 0,0 0.275,-0.281 0.689,-0.703 0.385,-0.439 0.928,-1.009 1.408,-1.613 1,-1.188 1.879,-2.444 1.879,-2.444 l -2.736,-1.958 c 0,0 -0.818,1.171 -1.732,2.255 -0.441,0.557 -0.93,1.063 -1.277,1.463 -0.37,0.375 -0.616,0.626 -0.616,0.626 z"
		id="path26"
		inkscape:connector-curvature="0"
		style="clip-rule:evenodd;fill-rule:evenodd;fill:#ffffff"/>
	<path d="m 51.446,47.064 0.436,3.337 c 0,0 0.109,-0.015 0.301,-0.04 0.191,-0.032 0.471,-0.05 0.783,-0.142 0.316,-0.081 0.688,-0.177 1.084,-0.278 0.387,-0.119 0.783,-0.281 1.188,-0.43 0.41,-0.137 0.771,-0.35 1.131,-0.515 0.178,-0.088 0.35,-0.173 0.512,-0.253 0.158,-0.087 0.299,-0.176 0.434,-0.255 0.533,-0.32 0.889,-0.534 0.889,-0.534 L 56.36,45.14 c 0,0 -0.293,0.175 -0.729,0.437 -0.109,0.064 -0.229,0.136 -0.354,0.21 -0.129,0.063 -0.266,0.129 -0.408,0.198 -0.285,0.128 -0.576,0.308 -0.893,0.407 -1.229,0.542 -2.53,0.672 -2.53,0.672 z"
		id="path28"
		inkscape:connector-curvature="0"
		style="clip-rule:evenodd;fill-rule:evenodd;fill:#ffffff"/>
</svg>