<?xml version="1.0" encoding="UTF-8"?>
<!-- Created with Inkscape (http://www.inkscape.org/) -->
<svg id="svg1" width="291.81" height="364.14" version="1.1" xmlns="http://www.w3.org/2000/svg" xmlns:cc="http://creativecommons.org/ns#" xmlns:dc="http://purl.org/dc/elements/1.1/" xmlns:rdf="http://www.w3.org/1999/02/22-rdf-syntax-ns#" xmlns:xlink="http://www.w3.org/1999/xlink">
 <g id="path1248" fill="#fff">
  <path id="path1516" d="m145.85 0.019531c-1.4805-0.034645-2.9881-0.025055-4.5176 0.03125-16.421 0.60452-34.972 5.6818-45.914 18.807a6.2506 6.2506 0 0 0-0.85742 1.3457c-3.6422 7.7605-4.9087 14.016-2.7168 19.531s7.1459 7.9926 11.043 9.5332c3.8971 1.5406 7.5077 2.5981 9.8496 3.9766 2.3419 1.3784 3.4273 2.3622 4.0332 5.4902 0.72096 3.7222 0.16952 5.7028-0.67383 7.207s-2.2643 2.7143-4.1133 3.6777c-3.6638 1.9091-8.1452 2.2649-8.2285 2.2715h-97.504a6.2506 6.2506 0 0 0-6.25 6.2578l0.125 96.938a6.2506 6.2506 0 0 0 0.0078125 0.28906s0.18643 6.7608 3.6777 13.461c1.7457 3.3501 4.4638 6.893 8.6504 9.2402 4.1866 2.3472 9.6602 3.2139 15.695 2.0449 5.3873-1.0435 9.636-4.093 12.268-7.5488 2.6316-3.4558 3.9477-7.1167 5.0488-10.191 1.1011-3.0747 2.0477-5.5999 2.8281-6.7812 0.78046-1.1814 0.56787-1.13 1.8379-1.2285 1.0774-0.0835 3.8731 0.43096 8.082 2.293 8.3333 7.4484 13.249 22.55 13.752 36.207 0.1879 5.104-0.26379 9.8962-1.1211 13.986a6.2506 6.2506 0 0 0-0.08789 0.53125c0.01475-0.12178-0.023821 0.081-0.087891 0.57813-1.5194 11.761-6.1939 23.305-13.221 29.559-5.6919 2.5307-8.2551 2.3137-8.8086 2.0938-0.58181-0.23121-1.3549-1.0675-2.5234-4.0234s-2.2795-7.2603-4.8301-11.594c-2.5506-4.3334-7.2556-8.6828-13.885-9.9668-8.7844-1.7015-16.27 1.2785-20.561 5.8652-4.2902 4.5867-5.8991 9.9965-6.709 13.773a6.2506 6.2506 0 0 0-0.13867 1.3106v102.91a6.2506 6.2506 0 0 0 6.3008 6.25l98.094-0.78124a6.2506 6.2506 0 0 0 0.24609-0.00782s6.7608-0.18643 13.461-3.6777c3.3501-1.7456 6.893-4.4658 9.2402-8.6524 2.3472-4.1866 3.2138-9.6602 2.0449-15.695-1.2837-6.6276-5.6285-11.334-9.959-13.885-4.3305-2.5511-8.6325-3.66-11.584-4.8281s-3.781-1.9395-4.0117-2.5215c-0.21906-0.55257-0.43123-3.114 2.084-8.7832 7.4363-8.3666 22.538-13.293 36.221-13.797 5.104-0.1879 9.8982 0.26379 13.988 1.1211a6.2506 6.2506 0 0 0 0.5293 0.08789c-0.12136-0.0147 0.0827 0.02419 0.57617 0.08789 11.763 1.5193 23.341 6.2007 29.592 13.223 2.5291 5.6895 2.3137 8.2532 2.0938 8.8066-0.23121 0.58181-1.0675 1.3549-4.0234 2.5234-2.956 1.1685-7.2604 2.2775-11.594 4.8281-4.3334 2.5506-8.6828 7.2575-9.9668 13.887-1.1689 6.0351-0.30229 11.509 2.0449 15.695 2.3472 4.1866 5.8902 6.9067 9.2402 8.6524 6.7001 3.4913 13.461 3.6777 13.461 3.6777a6.2506 6.2506 0 0 0 0.29493 0.00782l97.188 0.03124a6.2506 6.2506 0 0 0 6.252-6.291l-0.625-98.25a6.2506 6.2506 0 0 0-0.00781-0.25586s-0.18644-6.7628-3.6777-13.463c-1.7456-3.3501-4.4638-6.8911-8.6504-9.2383-4.1866-2.3472-9.6602-3.2139-15.695-2.0449-6.6292 1.284-11.336 5.6334-13.887 9.9668-2.5506 4.3334-3.6616 8.6378-4.8301 11.594-1.1685 2.956-1.9416 3.7922-2.5234 4.0234-0.55258 0.21959-3.1104 0.43256-8.7812-2.084-8.3604-7.4342-13.291-22.568-13.795-36.25-0.18789-5.104 0.26379-9.8982 1.1211-13.988a6.2506 6.2506 0 0 0 0.08789-0.5293c-0.0147 0.12133 0.02419-0.0828 0.08789-0.57617v-0.00196c1.5161-11.735 6.1746-23.253 13.176-29.516 4.2287-1.875 7.031-2.3865 8.1113-2.3027 1.2726 0.0987 1.0603 0.0482 1.8398 1.2266 0.7795 1.1784 1.7269 3.6987 2.8281 6.7695 1.1012 3.0709 2.4166 6.7291 5.0488 10.182 2.6322 3.4526 6.8784 6.496 12.264 7.5391 11.19 2.1673 19.756-3.4176 23.506-9.5508 3.75-6.1332 4.2441-12.303 4.3828-14.061a6.2506 6.2506 0 0 0 0.01953-0.49218v-98.406a6.2506 6.2506 0 0 0-6.25-6.25h-101.22c-2.4927-0.63725-5.4101-1.8282-7.1113-3.4961-1.8053-1.77-2.9971-3.6112-1.9707-8.9102 0.60618-3.1297 1.6922-4.1143 4.0312-5.4922 2.339-1.3779 5.9441-2.4336 9.8379-3.9746s8.8467-4.0217 11.033-9.5371c2.1865-5.5154 0.9172-11.768-2.7246-19.527a6.2506 6.2506 0 0 0-0.85742-1.3457c-9.228-11.069-23.941-16.338-38.094-18.166 0.06096 0.00787-0.2269-0.034641-0.47656-0.070312-3.762-0.76773-7.8445-1.2505-12.162-1.3516zm-1.1074 97.18c17.523 1.63e-4 30.882 3.541 40.074 10.621 9.1923 7.0095 13.787 17.276 13.787 30.799-1.1e-4 6.9387-1.4005 13.169-4.2012 18.691-2.8009 5.4518-7.5756 11.328-14.326 17.629l-6.8945 6.0547c-4.8835 4.3898-8.0798 7.9287-9.5879 10.619-1.5082 2.6198-2.2618 5.5229-2.2617 8.709v4.7793h-38.889v-5.2051c-5e-5 -5.8057 1.1847-10.938 3.5547-15.398 2.3699-4.5312 7.3621-10.266 14.975-17.205l6.8945-6.1602c4.0934-3.6816 7.0742-7.1512 8.9414-10.408 1.939-3.2568 2.9081-6.5125 2.9082-9.7695-1.1e-4 -4.956-1.7248-8.8148-5.1719-11.576-3.4472-2.832-8.2575-4.2479-14.434-4.248-5.8171 1.6e-4 -12.101 1.2042-18.852 3.6113-6.7507 2.3366-13.79 5.8409-21.115 10.514v-33.348c8.6896-2.9735 16.625-5.1698 23.807-6.5859 7.1815-1.4159 14.112-2.1229 20.791-2.123zm-22.299 123.62h38.889v37.807h-38.889v-37.807z" color="#000000" fill="#fff" style="-inkscape-stroke:none"/>
 </g>
 <metadata id="metadata3119">
  <rdf:RDF>
   <cc:Work rdf:about="">
    <dc:rights>
     <cc:Agent>
      <dc:title>Nicu Buculei</dc:title>
     </cc:Agent>
    </dc:rights>
    <dc:type rdf:resource="http://purl.org/dc/dcmitype/StillImage"/>
    <cc:license rdf:resource="http://web.resource.org/cc/PublicDomain"/>
    <dc:format>image/svg+xml</dc:format>
   </cc:Work>
   <cc:License rdf:about="http://web.resource.org/cc/PublicDomain">
    <cc:permits rdf:resource="http://web.resource.org/cc/Reproduction"/>
    <cc:permits rdf:resource="http://web.resource.org/cc/Distribution"/>
    <cc:permits rdf:resource="http://web.resource.org/cc/DerivativeWorks"/>
   </cc:License>
  </rdf:RDF>
 </metadata>
</svg>
