<?xml version="1.0" encoding="UTF-8" standalone="no"?>
<svg
   xmlns:dc="http://purl.org/dc/elements/1.1/"
   xmlns:cc="http://creativecommons.org/ns#"
   xmlns:rdf="http://www.w3.org/1999/02/22-rdf-syntax-ns#"
   xmlns:svg="http://www.w3.org/2000/svg"
   xmlns="http://www.w3.org/2000/svg"
   xmlns:sodipodi="http://sodipodi.sourceforge.net/DTD/sodipodi-0.dtd"
   xmlns:inkscape="http://www.inkscape.org/namespaces/inkscape"
   version="1.1"
   id="Layer_1"
   x="0px"
   y="0px"
   width="100px"
   height="100px"
   viewBox="0 0 100 100"
   enable-background="new 0 0 100 100"
   xml:space="preserve"
   inkscape:version="0.48.4 r9939"
   sodipodi:docname="icon_2486.svg"><metadata
     id="metadata59"><rdf:RDF><cc:Work
         rdf:about=""><dc:format>image/svg+xml</dc:format><dc:type
           rdf:resource="http://purl.org/dc/dcmitype/StillImage" /></cc:Work></rdf:RDF></metadata><defs
     id="defs57" /><sodipodi:namedview
     pagecolor="#009674"
     bordercolor="#666666"
     borderopacity="1"
     objecttolerance="10"
     gridtolerance="10"
     guidetolerance="10"
     inkscape:pageopacity="1"
     inkscape:pageshadow="2"
     inkscape:window-width="784"
     inkscape:window-height="480"
     id="namedview55"
     showgrid="false"
     inkscape:zoom="2.36"
     inkscape:cx="133.89831"
     inkscape:cy="50.211864"
     inkscape:window-x="0"
     inkscape:window-y="0"
     inkscape:window-maximized="0"
     inkscape:current-layer="Layer_1" /><path
     fill="#ffffff"
     d="M2642.125,860.772H2653c6.627,0,12-5.373,12-12v-6c0-6.627-5.373-12-12-12h-268.667c-6.628,0-12,5.373-12,12  v6c0,6.627,5.372,12,12,12h16.458c3.079,25.7,16.801,111.143,65.382,140.795c-51.51,31.44-63.829,125.593-65.827,144.757h-16.013  c-6.628,0-12,5.373-12,12v6c0,6.627,5.372,12,12,12H2653c6.627,0,12-5.373,12-12v-6c0-6.627-5.373-12-12-12h-10.43  c-1.998-19.164-14.317-113.316-65.827-144.757C2625.324,971.915,2639.046,886.473,2642.125,860.772z M2540.113,989.812l0.032,11.755  l-0.032,11.755c27.759,0.076,49.712,22.431,65.249,66.444c9.703,27.487,13.733,55.407,15.054,66.558H2422.5  c1.32-11.15,5.351-39.07,15.054-66.558c15.537-44.014,37.49-66.368,65.249-66.444l-0.032-11.755l0.032-11.755  c-27.759-0.076-49.712-22.431-65.249-66.444c-8.706-24.663-12.843-49.661-14.556-62.596h196.92  c-1.713,12.935-5.85,37.933-14.556,62.596C2589.825,967.382,2567.872,989.736,2540.113,989.812z"
     id="path3" /><g
     id="g5"><path
       fill="#ffffff"
       d="M2439,1134.805c0,0,32.016-52.412,82.008-52.412s76.992,52.412,76.992,52.412H2439z"
       id="path7" /></g><g
     id="g9"><path
       fill="#ffffff"
       d="M2456.887,944.14h129.143c0,0-12.029,40.665-66.363,40.665   C2474.093,984.805,2456.887,944.14,2456.887,944.14z"
       id="path11" /></g><g
     id="g13"><circle
       fill="#ffffff"
       cx="2521.49"
       cy="998.17"
       r="7.482"
       id="circle15" /></g><g
     id="g17"><circle
       fill="#ffffff"
       cx="2521.49"
       cy="1021.355"
       r="7.482"
       id="circle19" /></g><g
     id="g21"><circle
       fill="#ffffff"
       cx="2521.49"
       cy="1044.541"
       r="7.482"
       id="circle23" /></g><g
     id="g25"><circle
       fill="#ffffff"
       cx="2521.49"
       cy="1067.727"
       r="7.482"
       id="circle27" /></g><g
     id="g3036"
     style="fill:#ffffff;fill-opacity:1"><path
       id="path29"
       d="M80.833,11.498h2.886c1.76,0,3.185-1.426,3.185-3.185V6.722c0-1.759-1.425-3.185-3.185-3.185H12.428  c-1.759,0-3.185,1.426-3.185,3.185v1.592c0,1.758,1.425,3.185,3.185,3.185h4.367c0.817,6.819,4.458,29.491,17.349,37.36  C20.476,57.2,17.207,82.185,16.677,87.27h-4.249c-1.759,0-3.185,1.425-3.185,3.185v1.593c0,1.757,1.425,3.183,3.185,3.183h71.291  c1.76,0,3.185-1.426,3.185-3.183v-1.593c0-1.76-1.425-3.185-3.185-3.185h-2.767c-0.531-5.085-3.799-30.069-17.468-38.411  C76.375,40.989,80.017,18.317,80.833,11.498z M53.764,45.738l0.01,3.12l-0.01,3.119c7.367,0.02,13.192,5.952,17.314,17.632  c2.576,7.294,3.645,14.702,3.994,17.66H22.556c0.351-2.958,1.419-10.366,3.994-17.66c4.123-11.68,9.948-17.612,17.314-17.632  l-0.009-3.119l0.009-3.12c-7.366-0.02-13.191-5.951-17.314-17.631c-2.31-6.544-3.408-13.177-3.862-16.609h52.255  c-0.457,3.432-1.553,10.065-3.864,16.609C66.956,39.787,61.131,45.718,53.764,45.738z"
       fill="#ffffff"
       style="fill:#ffffff;fill-opacity:1" /><g
       id="g31"
       style="fill:#ffffff;fill-opacity:1"><path
         id="path33"
         d="M26.934,84.212c0,0,8.496-13.906,21.761-13.906c13.265,0,20.43,13.906,20.43,13.906H26.934z"
         fill="#ffffff"
         style="fill:#ffffff;fill-opacity:1" /></g><g
       id="g35"
       style="fill:#ffffff;fill-opacity:1"><path
         id="path37"
         d="M31.68,33.619h34.268c0,0-3.191,10.791-17.609,10.791C36.246,44.41,31.68,33.619,31.68,33.619z"
         fill="#ffffff"
         style="fill:#ffffff;fill-opacity:1" /></g><g
       id="g39"
       style="fill:#ffffff;fill-opacity:1"><circle
         id="circle41"
         r="1.986"
         cy="47.956"
         cx="48.823"
         fill="#ffffff"
         style="fill:#ffffff;fill-opacity:1" /></g><g
       id="g43"
       style="fill:#ffffff;fill-opacity:1"><circle
         id="circle45"
         r="1.986"
         cy="54.109"
         cx="48.823"
         fill="#ffffff"
         style="fill:#ffffff;fill-opacity:1" /></g><g
       id="g47"
       style="fill:#ffffff;fill-opacity:1"><circle
         id="circle49"
         r="1.986"
         cy="60.261"
         cx="48.823"
         fill="#ffffff"
         style="fill:#ffffff;fill-opacity:1" /></g><g
       id="g51"
       style="fill:#ffffff;fill-opacity:1"><circle
         id="circle53"
         r="1.986"
         cy="66.414"
         cx="48.823"
         fill="#ffffff"
         style="fill:#ffffff;fill-opacity:1" /></g></g></svg>