<?xml version="1.0" encoding="UTF-8" standalone="no"?>
<!-- Generator: Adobe Illustrator 14.0.0, SVG Export Plug-In . SVG Version: 6.00 Build 43363)  -->

<svg
   xmlns:dc="http://purl.org/dc/elements/1.1/"
   xmlns:cc="http://creativecommons.org/ns#"
   xmlns:rdf="http://www.w3.org/1999/02/22-rdf-syntax-ns#"
   xmlns:svg="http://www.w3.org/2000/svg"
   xmlns="http://www.w3.org/2000/svg"
   xmlns:sodipodi="http://sodipodi.sourceforge.net/DTD/sodipodi-0.dtd"
   xmlns:inkscape="http://www.inkscape.org/namespaces/inkscape"
   version="1.0"
   id="Layer_1"
   x="0px"
   y="0px"
   width="100px"
   height="94.095px"
   viewBox="0 0 100 94.095"
   enable-background="new 0 0 100 94.095"
   xml:space="preserve"
   inkscape:version="0.47 r22583"
   sodipodi:docname="skiis.svg"><metadata
   id="metadata2879"><rdf:RDF><cc:Work
       rdf:about=""><dc:format>image/svg+xml</dc:format><dc:type
         rdf:resource="http://purl.org/dc/dcmitype/StillImage" /></cc:Work></rdf:RDF></metadata><defs
   id="defs2877"><inkscape:perspective
     sodipodi:type="inkscape:persp3d"
     inkscape:vp_x="0 : 47.047501 : 1"
     inkscape:vp_y="0 : 1000 : 0"
     inkscape:vp_z="100 : 47.047501 : 1"
     inkscape:persp3d-origin="50 : 31.365 : 1"
     id="perspective2881" /></defs><sodipodi:namedview
   pagecolor="#009674"
   bordercolor="#666666"
   borderopacity="1"
   objecttolerance="10"
   gridtolerance="10"
   guidetolerance="10"
   inkscape:pageopacity="1"
   inkscape:pageshadow="2"
   inkscape:window-width="640"
   inkscape:window-height="504"
   id="namedview2875"
   showgrid="false"
   inkscape:zoom="2.5081035"
   inkscape:cx="50"
   inkscape:cy="47.047501"
   inkscape:window-x="0"
   inkscape:window-y="24"
   inkscape:window-maximized="0"
   inkscape:current-layer="Layer_1" />
<path
   d="M96.877,86.324c-0.011,2.567-2.138,4.638-4.694,4.626H15.905v3.146h76.268c4.298,0.022,7.805-3.417,7.828-7.738  L96.877,86.324z"
   id="path2863"
   style="fill:#ffffff" />
<path
   d="M74.073,15.328c4.23,0,7.658-3.438,7.658-7.669S78.303,0,74.073,0c-4.231,0-7.67,3.427-7.67,7.658  S69.841,15.328,74.073,15.328z"
   id="path2865"
   style="fill:#ffffff" />
<path
   d="M25.498,81.3L0,55.724l0.011,4.468l23.733,23.824c2.726,2.952,7.398-0.464,7.398-0.464l-2.24-2.398  c0,0-2.206,1.448-3.349,0.215L25.498,81.3z"
   id="path2867"
   style="fill:#ffffff" />
<rect
   x="0.215"
   y="33.06"
   width="26.097"
   height="3.116"
   id="rect2869"
   style="fill:#ffffff" />
<polygon
   points="96.855,25.616 99.831,26.866 70.204,86.504 66.923,86.504 "
   id="polygon2871"
   style="fill:#ffffff" />
<path
   d="M47.692,21.018L35.769,34.785c-0.701,0.871-1.776,1.409-2.975,1.409c-2.138,0-3.857-1.725-3.857-3.852  c0-1.154,0.498-2.183,1.301-2.89l12.851-14.802c0.712-0.848,1.776-1.397,2.975-1.397l18.608-0.005c1.369,0,2.59,0.549,3.496,1.419  l11.866,11.861l9.83-9.813c0.69-0.582,1.584-0.933,2.557-0.933c2.206,0,3.982,1.788,3.982,3.982c0,0.962-0.328,1.833-0.894,2.522  L83.654,34.23c-3.598,3.592-6.493,0.543-6.493,0.543l-7.273-7.308L58.518,40.611l10.419,10.418c0,0,2.194,2.037,0.938,6.098  l-5.837,26.019c-0.464,2.262-2.466,3.959-4.853,3.959c-2.738,0-4.955-2.218-4.955-4.955c0-0.43,0.045-0.849,0.158-1.244  l4.796-21.352L47.353,48.048L37.172,59.4c0,0-1.651,2.037-6.018,1.878l-20.645,0.034c-2.308,0.045-4.401-1.538-4.921-3.874  c-0.611-2.67,1.041-5.283,3.71-5.877c0.419-0.097,0.837-0.13,1.245-0.119l17.76,0.051l26.256-30.441L47.692,21.018z"
   id="path2873"
   style="fill:#ffffff" />
</svg>