<?xml version="1.0" encoding="UTF-8" standalone="no"?>
<!-- Generator: Adobe Illustrator 14.0.0, SVG Export Plug-In . SVG Version: 6.00 Build 43363)  -->

<svg
   xmlns:dc="http://purl.org/dc/elements/1.1/"
   xmlns:cc="http://creativecommons.org/ns#"
   xmlns:rdf="http://www.w3.org/1999/02/22-rdf-syntax-ns#"
   xmlns:svg="http://www.w3.org/2000/svg"
   xmlns="http://www.w3.org/2000/svg"
   xmlns:sodipodi="http://sodipodi.sourceforge.net/DTD/sodipodi-0.dtd"
   xmlns:inkscape="http://www.inkscape.org/namespaces/inkscape"
   version="1.0"
   id="Layer_1"
   x="0px"
   y="0px"
   width="100px"
   height="80.861px"
   viewBox="0 0 100 80.861"
   enable-background="new 0 0 100 80.861"
   xml:space="preserve"
   inkscape:version="0.47 r22583"
   sodipodi:docname="snowmobiles.svg"><metadata
   id="metadata2896"><rdf:RDF><cc:Work
       rdf:about=""><dc:format>image/svg+xml</dc:format><dc:type
         rdf:resource="http://purl.org/dc/dcmitype/StillImage" /></cc:Work></rdf:RDF></metadata><defs
   id="defs2894"><inkscape:perspective
     sodipodi:type="inkscape:persp3d"
     inkscape:vp_x="0 : 40.4305 : 1"
     inkscape:vp_y="0 : 1000 : 0"
     inkscape:vp_z="100 : 40.4305 : 1"
     inkscape:persp3d-origin="50 : 26.953667 : 1"
     id="perspective2898" /></defs><sodipodi:namedview
   pagecolor="#009674"
   bordercolor="#666666"
   borderopacity="1"
   objecttolerance="10"
   gridtolerance="10"
   guidetolerance="10"
   inkscape:pageopacity="1"
   inkscape:pageshadow="2"
   inkscape:window-width="640"
   inkscape:window-height="504"
   id="namedview2892"
   showgrid="false"
   inkscape:zoom="2.9185887"
   inkscape:cx="50"
   inkscape:cy="40.4305"
   inkscape:window-x="0"
   inkscape:window-y="24"
   inkscape:window-maximized="0"
   inkscape:current-layer="Layer_1" />
<path
   d="M41.016,14.945c4.127,0,7.473-3.333,7.473-7.483C48.488,3.355,45.143,0,41.016,0c-4.129,0-7.473,3.355-7.473,7.462  C33.543,11.612,36.887,14.945,41.016,14.945z"
   id="path2884"
   style="fill:#ffffff" />
<path
   d="M49.812,75.298h35.542c0,0,2.295,0.155,6.865-3.51L100,65.851v6.711l-7.936,5.938c0,0-2.363,1.921-6.336,2.362H46.832  L49.812,75.298z"
   id="path2886"
   style="fill:#ffffff" />
<polygon
   points="0.298,80.861 35.85,80.861 38.818,75.298 38.521,75.298 2.969,75.298 0,80.861 "
   id="polygon2888"
   style="fill:#ffffff" />
<path
   d="M44.856,24.04c0-4.128-3.345-7.483-7.483-7.483c-4.129,0-7.483,3.355-7.483,7.483v18.301c0,2.317,1.137,4.48,2.804,5.85  H15.949L6.898,64.614c-0.199,0.375-0.287,0.795-0.287,1.236c0,1.501,1.225,2.736,2.727,2.736h61.733c0,0,2.648,0.42,6.645-2.715  l16.016-11.788l-6.049-10.573c0,0-1.357-2.562-6.49-3.334l-12.086-2.031l-6.49-10.838l-0.076-0.111  c-0.939-1.081-2.572-1.191-3.654-0.265l-0.012,0.022c-0.762,0.706-1.049,1.854-0.629,2.869l4.824,8.036v0.065L57.032,48.19  l-12.175-4.636v-4.548h9.615c0.463,0.022,0.949-0.044,1.412-0.242c1.82-0.685,2.727-2.738,2.031-4.548  c-0.531-1.413-1.855-2.252-3.256-2.274l-9.813-0.021L44.856,24.04"
   id="path2890"
   style="fill:#ffffff" />
</svg>