<?xml version="1.0" encoding="UTF-8" standalone="no"?>
<!-- Generator: Adobe Illustrator 14.0.0, SVG Export Plug-In . SVG Version: 6.00 Build 43363)  -->

<svg
   xmlns:dc="http://purl.org/dc/elements/1.1/"
   xmlns:cc="http://creativecommons.org/ns#"
   xmlns:rdf="http://www.w3.org/1999/02/22-rdf-syntax-ns#"
   xmlns:svg="http://www.w3.org/2000/svg"
   xmlns="http://www.w3.org/2000/svg"
   xmlns:sodipodi="http://sodipodi.sourceforge.net/DTD/sodipodi-0.dtd"
   xmlns:inkscape="http://www.inkscape.org/namespaces/inkscape"
   version="1.0"
   id="Layer_1"
   x="0px"
   y="0px"
   width="100px"
   height="72.177px"
   viewBox="0 0 100 72.177"
   enable-background="new 0 0 100 72.177"
   xml:space="preserve"
   inkscape:version="0.47 r22583"
   sodipodi:docname="swimming.svg"><metadata
   id="metadata2957"><rdf:RDF><cc:Work
       rdf:about=""><dc:format>image/svg+xml</dc:format><dc:type
         rdf:resource="http://purl.org/dc/dcmitype/StillImage" /></cc:Work></rdf:RDF></metadata><defs
   id="defs2955"><inkscape:perspective
     sodipodi:type="inkscape:persp3d"
     inkscape:vp_x="0 : 36.088501 : 1"
     inkscape:vp_y="0 : 1000 : 0"
     inkscape:vp_z="100 : 36.088501 : 1"
     inkscape:persp3d-origin="50 : 24.059001 : 1"
     id="perspective2959" /></defs><sodipodi:namedview
   pagecolor="#009674"
   bordercolor="#666666"
   borderopacity="1"
   objecttolerance="10"
   gridtolerance="10"
   guidetolerance="10"
   inkscape:pageopacity="1"
   inkscape:pageshadow="2"
   inkscape:window-width="640"
   inkscape:window-height="504"
   id="namedview2953"
   showgrid="false"
   showborder="true"
   inkscape:zoom="3.2697396"
   inkscape:cx="50"
   inkscape:cy="36.088501"
   inkscape:window-x="0"
   inkscape:window-y="24"
   inkscape:window-maximized="0"
   inkscape:current-layer="Layer_1" />
<path
   d="M100,72.177c-2.189,0-4.277-0.496-6.15-1.36c-1.91-0.878-4.077-1.408-6.341-1.408c-2.271,0-4.437,0.534-6.35,1.408  c-1.871,0.864-3.96,1.36-6.15,1.36c-2.189,0-4.285-0.496-6.15-1.36c-1.943-0.878-4.11-1.408-6.349-1.408  c-2.263,0-4.431,0.534-6.352,1.408c-1.863,0.864-3.982,1.36-6.149,1.36c-2.191,0-4.278-0.496-6.167-1.36  c-1.92-0.878-4.08-1.408-6.324-1.408c-2.264,0-4.432,0.534-6.352,1.408c-1.864,0.864-3.983,1.36-6.175,1.36  c-2.158,0-4.277-0.496-6.142-1.36c-1.919-0.878-4.086-1.408-6.35-1.408c-2.247,0-4.405,0.534-6.326,1.408  c-1.895,0.864-3.982,1.36-6.174,1.36v-9.332c2.19,0,4.278-0.509,6.174-1.339c1.921-0.902,4.079-1.433,6.326-1.433  c2.264,0,4.431,0.53,6.35,1.433c1.865,0.83,3.983,1.339,6.142,1.339c2.19,0,4.311-0.509,6.175-1.339  c1.919-0.902,4.087-1.433,6.352-1.433c2.244,0,4.404,0.53,6.324,1.433c1.89,0.83,3.976,1.339,6.167,1.339  c2.167,0,4.286-0.509,6.149-1.339c1.921-0.902,4.089-1.433,6.352-1.433c2.238,0,4.404,0.53,6.349,1.433  c1.865,0.83,3.961,1.339,6.15,1.339c2.19,0,4.279-0.509,6.15-1.339c1.913-0.902,4.079-1.433,6.35-1.433  c2.264,0,4.431,0.53,6.341,1.433c1.873,0.83,3.961,1.339,6.15,1.339V72.177z"
   id="path2947"
   style="fill:#ffffff" />
<path
   d="M85.517,45.778c6.566,0,11.895-5.412,11.895-12.054c0-6.646-5.328-12.033-11.895-12.033c-6.58,0-11.901,5.387-11.901,12.033  C73.615,40.366,78.467,45.778,85.517,45.778z"
   id="path2949"
   style="fill:#ffffff" />
<path
   d="M16.23,52.551c0.924,0.225,1.793,0.549,2.622,0.927c1.863,0.853,3.983,1.361,6.143,1.361c2.189,0,4.31-0.509,6.174-1.361  c1.919-0.88,4.086-1.436,6.35-1.436c2.246,0,4.406,0.556,6.325,1.436c1.888,0.853,3.975,1.361,6.166,1.361  c2.167,0,4.286-0.509,6.15-1.361c1.92-0.88,4.088-1.436,6.351-1.436c2.238,0,4.405,0.556,6.35,1.436  c1.865,0.853,3.96,1.361,6.15,1.361c1.592,0,3.131-0.275,4.579-0.733l-19.845-36.21l23.08-4.259  c3.387-0.654,5.848-3.345,5.848-6.792c0-3.8-3.059-6.845-6.795-6.845c-0.271,0-0.52,0-0.774,0.023L45.452,6.587  c-2.502,0.579-5.816,4.284-3.929,8.833c0.104,0.251,0.199,0.484,0.304,0.733l9.305,16.987L16.23,52.551z"
   id="path2951"
   style="fill:#ffffff" />
</svg>