<?xml version="1.0" encoding="UTF-8" standalone="no"?>
<svg
   xmlns:dc="http://purl.org/dc/elements/1.1/"
   xmlns:cc="http://creativecommons.org/ns#"
   xmlns:rdf="http://www.w3.org/1999/02/22-rdf-syntax-ns#"
   xmlns:svg="http://www.w3.org/2000/svg"
   xmlns="http://www.w3.org/2000/svg"
   xmlns:sodipodi="http://sodipodi.sourceforge.net/DTD/sodipodi-0.dtd"
   xmlns:inkscape="http://www.inkscape.org/namespaces/inkscape"
   version="1.1"
   id="Layer_1"
   x="0px"
   y="0px"
   width="78.333"
   height="94.000999"
   viewBox="0 0 78.333 94.000999"
   enable-background="new 0 0 100 100"
   xml:space="preserve"
   inkscape:version="0.48.3.1 r9886"
   sodipodi:docname="teamwork.svg"><metadata
   id="metadata21"><rdf:RDF><cc:Work
       rdf:about=""><dc:format>image/svg+xml</dc:format><dc:type
         rdf:resource="http://purl.org/dc/dcmitype/StillImage" /></cc:Work></rdf:RDF></metadata><defs
   id="defs19" /><sodipodi:namedview
   pagecolor="#009674"
   bordercolor="#666666"
   borderopacity="1"
   objecttolerance="10"
   gridtolerance="10"
   guidetolerance="10"
   inkscape:pageopacity="1"
   inkscape:pageshadow="2"
   inkscape:window-width="640"
   inkscape:window-height="480"
   id="namedview17"
   showgrid="false"
   fit-margin-top="0"
   fit-margin-left="0"
   fit-margin-right="0"
   fit-margin-bottom="0"
   inkscape:zoom="2.36"
   inkscape:cx="39.433"
   inkscape:cy="47.001"
   inkscape:window-x="49"
   inkscape:window-y="24"
   inkscape:window-maximized="0"
   inkscape:current-layer="Layer_1" />
<g
   id="g3"
   style="fill:#ffffff"
   transform="translate(-10.567,-3)">
	<path
   d="m 29.367,34.304 c 3.094,0 5.919,-1.122 8.106,-2.973 -3.069,-3.341 -4.972,-7.769 -4.972,-12.665 0,-2.99 0.716,-5.806 1.958,-8.317 -1.558,-0.69 -3.277,-1.083 -5.092,-1.083 -6.931,0 -12.547,5.604 -12.547,12.52 0,6.914 5.617,12.518 12.547,12.518 z"
   id="path5"
   style="fill:#ffffff"
   inkscape:connector-curvature="0" />
	<path
   d="m 70.101,18.667 c 0,4.896 -1.903,9.324 -4.974,12.665 2.188,1.851 5.014,2.973 8.107,2.973 6.929,0 12.545,-5.604 12.545,-12.518 0,-6.915 -5.616,-12.52 -12.545,-12.52 -1.814,0 -3.534,0.393 -5.092,1.084 1.243,2.509 1.959,5.325 1.959,8.316 z"
   id="path7"
   style="fill:#ffffff"
   inkscape:connector-curvature="0" />
	<path
   d="M 29.367,65.667 26.24,37.513 C 19.086,37.886 10.567,40.6 10.567,40.6 L 13.7,62.533 19.967,68.8 v 18.8 c 0,0 4.117,3.134 7.833,3.134 3.67,0 7.833,-3.134 7.833,-3.134 V 69.844 l -6.266,-4.177 z"
   id="path9"
   style="fill:#ffffff"
   inkscape:connector-curvature="0" />
	<path
   d="m 76.324,37.851 -3.09,27.816 -9.4,6.267 V 87.6 c 0,0 4.117,3.134 7.833,3.134 3.671,0 7.834,-3.134 7.834,-3.134 V 68.8 L 86.438,63.139 88.9,41.063 c 0,0 -6.291,-2.288 -12.576,-3.212 z"
   id="path11"
   style="fill:#ffffff"
   inkscape:connector-curvature="0" />
</g>
<path
   clip-rule="evenodd"
   d="m 18.8,37.6 c 0,0 12.504,-3.133 21.934,-3.133 9.371,0 21.934,3.133 21.934,3.133 l -3.134,25.067 -9.399,6.267 v 21.933 c 0,0 -4.729,3.134 -9.4,3.134 -4.729,0 -9.4,-3.134 -9.4,-3.134 V 68.934 L 21.935,62.667 18.8,37.6 z"
   id="path13"
   style="fill:#ffffff;fill-rule:evenodd"
   inkscape:connector-curvature="0" />
<path
   clip-rule="evenodd"
   d="m 40.734,0 c 8.651,0 15.667,7.013 15.667,15.667 0,8.652 -7.016,15.667 -15.667,15.667 -8.653,0 -15.667,-7.015 -15.667,-15.667 C 25.067,7.013 32.08,0 40.734,0 z"
   id="path15"
   style="fill:#ffffff;fill-rule:evenodd"
   inkscape:connector-curvature="0" />
</svg>