<?xml version="1.0" encoding="UTF-8" standalone="no"?>
<svg
   xmlns:dc="http://purl.org/dc/elements/1.1/"
   xmlns:cc="http://creativecommons.org/ns#"
   xmlns:rdf="http://www.w3.org/1999/02/22-rdf-syntax-ns#"
   xmlns:svg="http://www.w3.org/2000/svg"
   xmlns="http://www.w3.org/2000/svg"
   xmlns:sodipodi="http://sodipodi.sourceforge.net/DTD/sodipodi-0.dtd"
   xmlns:inkscape="http://www.inkscape.org/namespaces/inkscape"
   version="1.1"
   id="Thumb_Drive"
   x="0px"
   y="0px"
   width="65.8333333333px"
   height="100px"
   viewBox="0 0 79.205 120.489"
   enable-background="new 0 0 79.205 120.489"
   xml:space="preserve"
   inkscape:version="0.48.4 r9939"
   sodipodi:docname="icon_1824.svg"><metadata
     id="metadata13"><rdf:RDF><cc:Work
         rdf:about=""><dc:format>image/svg+xml</dc:format><dc:type
           rdf:resource="http://purl.org/dc/dcmitype/StillImage" /></cc:Work></rdf:RDF></metadata><defs
     id="defs11" /><sodipodi:namedview
     pagecolor="#009674"
     bordercolor="#666666"
     borderopacity="1"
     objecttolerance="10"
     gridtolerance="10"
     guidetolerance="10"
     inkscape:pageopacity="1"
     inkscape:pageshadow="2"
     inkscape:window-width="1071"
     inkscape:window-height="680"
     id="namedview9"
     showgrid="false"
     inkscape:zoom="2.36"
     inkscape:cx="32.916668"
     inkscape:cy="50"
     inkscape:window-x="0"
     inkscape:window-y="0"
     inkscape:window-maximized="0"
     inkscape:current-layer="Thumb_Drive" /><path
     d="M39.584,28.458V7.556H28.587c-0.515,0-0.932,0.417-0.932,0.932v19.97H39.584z M31.854,17.571  c0-0.354,0.288-0.642,0.643-0.642h3.025c0.354,0,0.642,0.288,0.642,0.642v2.056c0,0.354-0.288,0.642-0.642,0.642h-3.025  c-0.354,0-0.643-0.287-0.643-0.642V17.571z"
     id="path3"
     style="fill:#ffffff;fill-opacity:1" /><path
     d="M52.429,28.458V8.488c0-0.515-0.417-0.932-0.931-0.932H40.491v20.901H52.429z M43.921,17.571  c0-0.354,0.286-0.642,0.642-0.642h3.025c0.355,0,0.643,0.288,0.643,0.642v2.056c0,0.354-0.287,0.642-0.643,0.642h-3.025  c-0.355,0-0.642-0.287-0.642-0.642V17.571z"
     id="path5"
     style="fill:#ffffff;fill-opacity:1" /><path
     d="M59.385,105.591c0,1.418-1.149,2.566-2.568,2.566h-33.55c-1.418,0-2.568-1.148-2.568-2.566V31.753  c0-1.418,1.15-2.568,2.568-2.568h33.55c1.419,0,2.568,1.15,2.568,2.568V105.591z M50.948,54.101h-5.305v5.305h1.709v5.286  c0,0.407-0.102,0.452-0.275,0.649l-6.003,5.732V49.679h2.138l-3.059-6.116l-3.058,6.116h2.137v28.188l-6.172-5.894  c-0.173-0.197-0.275-0.243-0.275-0.649v-5.449c1.052-0.377,1.805-1.381,1.805-2.562c0-1.506-1.221-2.727-2.726-2.727  c-1.506,0-2.727,1.221-2.727,2.727c0,1.182,0.754,2.186,1.805,2.562v6.195c0,0.323,0.125,0.503,0.272,0.645l8.018,7.697v4.25  c-2.102,0.428-3.684,2.285-3.684,4.514c0,2.543,2.062,4.605,4.605,4.605c2.544,0,4.606-2.062,4.606-4.605  c0-2.229-1.582-4.086-3.685-4.514V73.616l7.849-7.534c0.146-0.142,0.271-0.321,0.271-0.646v-6.031h1.754V54.101z"
     id="path7"
     style="fill:#ffffff;fill-opacity:1" /></svg>