<?xml version="1.0" encoding="UTF-8" standalone="no"?>
<svg xmlns:dc="http://purl.org/dc/elements/1.1/"
   	xmlns:cc="http://creativecommons.org/ns#"
   	xmlns:rdf="http://www.w3.org/1999/02/22-rdf-syntax-ns#"
   	xmlns:svg="http://www.w3.org/2000/svg"
   	xmlns="http://www.w3.org/2000/svg"
   	xmlns:sodipodi="http://sodipodi.sourceforge.net/DTD/sodipodi-0.dtd"
   	xmlns:inkscape="http://www.inkscape.org/namespaces/inkscape"
   	width="200mm"
   	height="140mm"
   	viewBox="0 0 200 140"
   	version="1.1"
   	id="svg8"
   	inkscape:version="0.92.1 r15371"
   	sodipodi:docname="video_surveil.svg">
	<defs id="defs2" />
	<sodipodi:namedview id="base"
                  		pagecolor="#009674"
                  		bordercolor="#666666"
                  		borderopacity="1.0"
                  		inkscape:pageopacity="0.0"
                  		inkscape:pageshadow="2"
                  		inkscape:zoom="0.70944864"
                  		inkscape:cx="-154.42175"
                  		inkscape:cy="482.15906"
                  		inkscape:document-units="mm"
                  		inkscape:current-layer="layer1"
                  		showgrid="false"
                  		inkscape:snap-global="false"
                  		inkscape:window-width="1920"
                  		inkscape:window-height="1137"
                  		inkscape:window-x="-8"
                  		inkscape:window-y="-8"
                  		inkscape:window-maximized="1"
                  		showguides="true"
                  		inkscape:document-rotation="0"
                  		fit-margin-top="0"
                  		fit-margin-left="0"
                  		fit-margin-right="0"
                  		fit-margin-bottom="0"
                  		inkscape:pagecheckerboard="false"
                  		inkscape:showpageshadow="false" />
	<metadata id="metadata5">
		<rdf:RDF>
			<cc:Work rdf:about="">
				<dc:format>image/svg+xml</dc:format>
				<dc:type rdf:resource="http://purl.org/dc/dcmitype/StillImage" />
				<dc:title/>
			</cc:Work>
		</rdf:RDF>
	</metadata>
	<g inkscape:label="Vrstva 1"
 		inkscape:groupmode="layer"
 		id="layer1"
 		transform="translate(-4.9999987,-5.0000002)">
		<path id="path913"
    			style="opacity:1;fill:#ffffff;fill-opacity:1;fill-rule:evenodd;stroke:none;stroke-width:0.117591;stroke-linecap:round;stroke-linejoin:round;stroke-miterlimit:4;stroke-dasharray:none"
    			d="m 129.1438,111.45531 v 22.36496 H 205 v -22.36496 z m -24.38393,24.78451 c -0.004,0.0591 -0.006,0.11814 -0.008,0.17725 -2.5e-4,4.74009 3.82352,8.58285 8.54053,8.58293 4.71701,-8e-5 8.54079,-3.84284 8.54054,-8.58293 -10e-4,-0.0591 -0.004,-0.11819 -0.006,-0.17725 z m -5.06591,-24.78451 v 22.36496 h 6.11155 v -20.31761 h 4.68581 v 20.31761 h 16.39911 v -22.36496 z m -4.50274,-8.42944 v 6.95224 h 8.13742 v -4.96152 h 4.7246 v 4.96152 h 23.16292 v -6.95224 z m 39.09995,-12.65081 c 0,3.947 -2.44939,7.14666 -5.47085,7.14666 -3.02147,-1e-5 -5.47085,-3.19967 -5.47085,-7.14666 0,-3.94699 2.44938,-7.14667 5.47085,-7.14667 3.02146,0 5.47085,3.19967 5.47085,7.14667 z M 123.41881,5.0013628 c -2.61494,-0.0277 -4.89183,0.36927 -7.05902,0.977076 L 15.554316,34.250338 c -0.98234,0.275506 -1.002018,1.440091 0,1.460133 h 25.894975 c 3.655441,0 6.375106,0.668645 8.124109,3.508099 1.489807,2.418659 3.023435,4.856382 4.542143,7.320162 -0.93714,0.578414 -1.145852,2.180159 -0.477674,3.665869 0.702267,1.561032 2.110835,2.41958 3.146097,1.917604 0.188603,-0.09278 0.356598,-0.228125 0.498283,-0.40143 5.965137,9.893641 11.718286,20.212149 16.168767,30.975915 0.458538,1.1901 0.904873,1.50438 1.445749,1.62339 0.540876,0.11901 1.373775,-0.0536 2.378062,-0.4398 L 163.30819,50.798521 158.35626,16.1476 68.922209,43.01967 C 62.047292,44.692214 58.032837,44.123151 55.589784,39.390351 L 156.78746,8.9912978 c -1.39038,-2.007627 -4.03171,-2.358984 -6.37646,-2.491425 l -25.85013,-1.460135 c -0.38803,-0.02192 -0.76849,-0.03442 -1.14206,-0.03838 z M 14.002236,37.045729 c -5.911208,0 -11.031538,0.825132 -8.199613,9.905399 3.997093,12.816254 7.963829,28.142572 15.115216,36.520402 0.792235,0.89253 2.225725,1.08741 3.492833,0.74256 l 3.224905,-0.87779 c 0.93502,-0.25447 0.905587,-1.37559 0.537079,-2.56513 L 17.856607,47.470123 c -1.096693,-3.5401 0.370918,-5.581647 4.065071,-5.581647 h 26.304744 c 0.420669,0 0.723023,-0.335851 0.631646,-0.863164 -0.187099,-1.079678 -1.408333,-2.419289 -2.274597,-3.052999 -0.914115,-0.668718 -3.966066,-0.926584 -5.410485,-0.926584 z m 8.728699,9.281629 c -0.217149,0.0032 -0.423127,0.051 -0.611034,0.141929 -1.035053,0.502174 -1.304811,2.174462 -0.602546,3.735314 0.702269,1.561035 2.110836,2.41958 3.146099,1.917604 1.035052,-0.502173 1.304809,-2.174458 0.602546,-3.73531 -0.557554,-1.239018 -1.585272,-2.073957 -2.535065,-2.059537 z m 16.233626,0.23757 c -1.617335,0.02459 -3.151341,0.380248 -4.550628,1.055048 -7.713228,3.719767 -9.724002,16.11098 -4.491221,27.676756 C 35.155509,86.86257 45.65042,93.22333 53.363872,89.50396 61.077104,85.7842 63.087878,73.392972 57.855096,61.827194 53.700919,52.645243 46.042294,46.457595 38.964561,46.564928 Z m 0.812894,3.636019 c 5.906817,-0.08941 12.299095,5.075856 15.766863,12.740385 4.368127,9.654415 2.690879,19.997338 -3.746221,23.101428 -6.437032,3.10448 -15.196519,-2.20556 -19.564611,-11.860163 -4.368129,-9.654418 -2.69088,-19.997338 3.746221,-23.10143 1.167757,-0.563125 2.447968,-0.859846 3.797748,-0.88022 z m 0.660137,2.952555 c -1.132416,0.01699 -2.206443,0.265871 -3.186108,0.738287 -5.400502,2.604316 -6.806878,11.283489 -3.141248,19.385608 3.665767,8.102193 11.015504,12.559093 16.416088,9.954743 5.400502,-2.60432 6.806877,-11.283493 3.141248,-19.385612 -2.91023,-6.432256 -8.273985,-10.767469 -13.22998,-10.693026 z m 0.638312,2.85265 c 4.037184,-0.06001 8.407061,3.473049 10.778568,8.71451 2.987292,6.602563 1.842513,13.674757 -2.556887,15.795882 -4.399003,2.121126 -10.386478,-1.511242 -13.373644,-8.113276 -2.987292,-6.602326 -1.842801,-13.674414 2.556281,-15.795886 0.798083,-0.384876 1.673082,-0.587549 2.595682,-0.60123 z M 153.35645,56.517836 77.902836,85.53351 c -1.112994,0.42798 -2.236548,0.76592 -3.383725,0.51351 -1.147174,-0.2524 -2.121989,-1.19049 -2.708433,-2.71254 -1.981141,-5.141839 -5.212376,-11.62912 -8.113174,-16.994698 -0.138672,-0.251328 -0.536877,0.05057 -0.370379,0.657272 2.063802,7.847432 3.926326,15.672466 4.921004,23.400526 0.343558,2.66924 -1.068272,3.91502 -3.32977,3.91501 H 38.306851 c -1.962792,0 -2.614794,-0.13344 -3.932924,-1.25302 -0.446336,-0.4008 -1.005132,-0.47031 -1.793702,0.55067 1.404092,1.68363 3.316062,2.28975 5.029515,2.3239 h 26.89035 c 2.784662,0 4.888246,-0.7275 7.006283,-1.58196 L 96.46118,84.28475 v 17.23593 h 24.00067 c -2.09186,-2.34591 -3.21383,-5.31874 -4.10994,-7.82821 -0.91547,-2.56369 -1.76525,-4.35978 -3.89958,-5.66814 -2.64587,-1.62193 -4.91818,-3.27256 -9.31767,-5.12479 -0.78775,-0.31421 -0.55403,-1.49188 0.2934,-1.47841 0.1017,0.002 0.20208,0.0235 0.2952,0.0646 4.5256,1.90532 6.94086,3.64708 9.52438,5.23078 2.52485,1.54775 3.59551,3.81984 4.53851,6.46066 1.04308,2.92105 2.34135,6.18917 4.85917,8.34355 h 5.85635 l 0.13518,-1.38582 h -0.89594 c -4.12899,0 -7.47607,-4.36959 -7.47607,-9.75982 0,-5.39024 3.34708,-9.75982 7.47607,-9.75982 h 2.79936 l 1.02324,-10.491407 17.8097,-7.184928 z M 41.463255,57.740404 c -0.794847,0.01167 -1.548669,0.186241 -2.236216,0.517776 -3.790257,1.827864 -4.775697,7.922711 -2.201055,13.613299 2.57467,5.690577 7.734464,8.822001 11.524783,6.994267 3.790257,-1.827863 4.775699,-7.922711 2.201057,-13.613299 -2.044029,-4.517727 -5.809833,-7.563288 -9.288569,-7.512043 z m 4.227533,4.281717 c 1.271027,-0.03311 2.6348,1.04295 3.363719,2.654072 0.91821,2.02934 0.534168,4.218588 -0.857751,4.889651 -1.391751,0.670842 -3.264042,-0.430102 -4.182069,-2.45914 -0.917879,-2.028874 -0.53416,-4.217566 0.857143,-4.889041 0.252449,-0.121942 0.528519,-0.187859 0.818958,-0.195542 z M 34.195099,85.45493 c -0.217148,0.003 -0.423127,0.051 -0.611033,0.14193 -1.035053,0.50218 -1.304811,2.17446 -0.602546,3.73532 0.702269,1.56103 2.110836,2.41958 3.146099,1.9176 1.035052,-0.50217 1.304809,-2.17446 0.602545,-3.73531 -0.557552,-1.23902 -1.585271,-2.07396 -2.535065,-2.05954 z m 28.815596,0 c -0.21715,0.003 -0.423128,0.051 -0.611035,0.14193 -1.035053,0.50218 -1.304811,2.17446 -0.602546,3.73532 0.702269,1.56103 2.110836,2.41958 3.146099,1.9176 1.035052,-0.50217 1.304809,-2.17446 0.602545,-3.73531 -0.557552,-1.23901 -1.58527,-2.07396 -2.535063,-2.05954 z"
    			inkscape:connector-curvature="0"
    			sodipodi:nodetypes="cccccccccccccccccccccccccccccscscsccscsscccccsscccccscccsscccccssssssccccccccsccccccccccccccccccsccccssccscscccscccccsccccccccssccccccccccccccccccccccccccccc" />
	</g>
</svg>
