<?xml version="1.0" encoding="UTF-8" standalone="no"?>
<!-- Generator: Adobe Illustrator 14.0.0, SVG Export Plug-In . SVG Version: 6.00 Build 43363)  -->

<svg
   xmlns:dc="http://purl.org/dc/elements/1.1/"
   xmlns:cc="http://creativecommons.org/ns#"
   xmlns:rdf="http://www.w3.org/1999/02/22-rdf-syntax-ns#"
   xmlns:svg="http://www.w3.org/2000/svg"
   xmlns="http://www.w3.org/2000/svg"
   xmlns:sodipodi="http://sodipodi.sourceforge.net/DTD/sodipodi-0.dtd"
   xmlns:inkscape="http://www.inkscape.org/namespaces/inkscape"
   version="1.0"
   id="Layer_1"
   x="0px"
   y="0px"
   width="92.869095"
   height="94.456985"
   viewBox="0 0 92.869095 94.45699"
   enable-background="new 0 0 100 83.84"
   xml:space="preserve"
   inkscape:version="0.47 r22583"
   sodipodi:docname="AbandonedBuilding.svg"><metadata
   id="metadata3074"><rdf:RDF><cc:Work
       rdf:about=""><dc:format>image/svg+xml</dc:format><dc:type
         rdf:resource="http://purl.org/dc/dcmitype/StillImage" /></cc:Work></rdf:RDF></metadata><defs
   id="defs3072"><inkscape:perspective
     sodipodi:type="inkscape:persp3d"
     inkscape:vp_x="0 : 47.228493 : 1"
     inkscape:vp_y="0 : 1000 : 0"
     inkscape:vp_z="92.869095 : 47.228493 : 1"
     inkscape:persp3d-origin="46.434547 : 31.485662 : 1"
     id="perspective7" /></defs><sodipodi:namedview
   pagecolor="#009674"
   bordercolor="#666666"
   borderopacity="1"
   objecttolerance="10"
   gridtolerance="10"
   guidetolerance="10"
   inkscape:pageopacity="1"
   inkscape:pageshadow="2"
   inkscape:window-width="956"
   inkscape:window-height="744"
   id="namedview3070"
   showgrid="false"
   fit-margin-top="0"
   fit-margin-left="0"
   fit-margin-right="0"
   fit-margin-bottom="0"
   inkscape:zoom="3.0772902"
   inkscape:cx="51.991967"
   inkscape:cy="49.93387"
   inkscape:window-x="0"
   inkscape:window-y="24"
   inkscape:window-maximized="0"
   inkscape:current-layer="Layer_1" />
<path
   d="m 61.679203,93.647183 c 3.684417,-7.676599 7.368225,-15.35192 11.052643,-23.028518 0.187544,-0.390784 0.283155,-0.65152 0.32349,-0.819551 0.07865,-0.0055 0.182322,-0.02729 0.327528,-0.07858 2.050799,-0.724465 4.10254,-1.449263 6.153339,-2.173728 4.121398,-1.455925 8.241854,-2.911517 12.363252,-4.367442 0.74866,-0.264471 1.152962,-1.110448 0.888491,-1.859108 -1.05189,-2.977666 -2.103446,-5.954388 -3.15567,-8.932996 -0.264471,-0.74866 -1.110449,-1.152963 -1.859107,-0.888491 -2.354412,0.831719 -4.70788,1.663105 -7.062291,2.494824 3.577091,-7.452024 7.154182,-14.904049 10.731274,-22.356073 0.18538,-0.3879 0.184945,-0.749397 0.07503,-1.060552 -0.0041,-0.01765 -0.01105,-0.03428 -0.01644,-0.05252 -0.0073,-0.01758 -0.01232,-0.03489 -0.02054,-0.05214 C 91.37029,30.161145 91.14356,29.879588 90.75566,29.694205 70.053285,19.843387 49.350577,9.9916223 28.646927,0.14019023 27.500485,-0.40614195 26.221948,0.73912182 26.645968,1.9394283 c 1.106517,3.1323004 2.213699,6.2664866 3.320548,9.3997297 -9.665627,3.414478 -19.331252,6.828957 -28.9968789,10.243435 -0.74865935,0.264472 -1.15296235,1.110448 -0.88849108,1.859109 3.44845378,9.7618 6.57347958,18.608051 10.02226698,28.370795 0.264138,0.747717 1.110114,1.15202 1.858774,0.887549 6.761507,-2.388569 13.523014,-4.777139 20.285464,-7.166042 1.024243,2.899405 2.695675,7.630858 3.719919,10.530262 -6.76245,2.388904 -13.523957,4.777472 -20.285463,7.166042 -0.74866,0.264471 -1.152964,1.110449 -0.888825,1.858166 3.448786,9.762744 6.573813,18.608994 10.022599,28.371739 0.264139,0.747716 1.110116,1.152019 1.858775,0.887548 9.665627,-3.414479 19.331252,-6.828958 28.99688,-10.243437 1.106849,3.133244 2.213698,6.266487 3.320547,9.399731 0.423688,1.199363 2.138236,1.28835 2.68712,0.143128 z"
   id="path3068"
   inkscape:connector-curvature="0"
   style="fill:#ffffff" />
</svg>