<?xml version="1.0" encoding="UTF-8" standalone="no"?>
<!-- Generator: Adobe Illustrator 14.0.0, SVG Export Plug-In . SVG Version: 6.00 Build 43363)  -->

<svg
   xmlns:dc="http://purl.org/dc/elements/1.1/"
   xmlns:cc="http://creativecommons.org/ns#"
   xmlns:rdf="http://www.w3.org/1999/02/22-rdf-syntax-ns#"
   xmlns:svg="http://www.w3.org/2000/svg"
   xmlns="http://www.w3.org/2000/svg"
   xmlns:sodipodi="http://sodipodi.sourceforge.net/DTD/sodipodi-0.dtd"
   xmlns:inkscape="http://www.inkscape.org/namespaces/inkscape"
   version="1.0"
   id="Layer_1"
   x="0px"
   y="0px"
   width="100px"
   height="37.836px"
   viewBox="0 0 100 37.836"
   enable-background="new 0 0 100 37.836"
   xml:space="preserve"
   inkscape:version="0.47 r22583"
   sodipodi:docname="flashlight.svg"><metadata
   id="metadata2932"><rdf:RDF><cc:Work
       rdf:about=""><dc:format>image/svg+xml</dc:format><dc:type
         rdf:resource="http://purl.org/dc/dcmitype/StillImage" /></cc:Work></rdf:RDF></metadata><defs
   id="defs2930"><inkscape:perspective
     sodipodi:type="inkscape:persp3d"
     inkscape:vp_x="0 : 18.917999 : 1"
     inkscape:vp_y="0 : 1000 : 0"
     inkscape:vp_z="100 : 18.917999 : 1"
     inkscape:persp3d-origin="50 : 12.612 : 1"
     id="perspective2934" /></defs><sodipodi:namedview
   pagecolor="#009674"
   bordercolor="#666666"
   borderopacity="1"
   objecttolerance="10"
   gridtolerance="10"
   guidetolerance="10"
   inkscape:pageopacity="1"
   inkscape:pageshadow="2"
   inkscape:window-width="640"
   inkscape:window-height="504"
   id="namedview2928"
   showgrid="false"
   inkscape:zoom="5.35"
   inkscape:cx="50"
   inkscape:cy="18.917999"
   inkscape:window-x="0"
   inkscape:window-y="24"
   inkscape:window-maximized="0"
   inkscape:current-layer="Layer_1" />
<polygon
   points="89.408,20.122 89.408,17.714 100,17.714 100,20.122 89.408,20.122 "
   id="polygon2914"
   style="fill:#ffffff" />
<polygon
   points="87.39,12.591 96.564,7.303 97.767,9.389 88.592,14.677 87.39,12.591 "
   id="polygon2916"
   style="fill:#ffffff" />
<polygon
   points="83.071,9.158 88.367,0 90.45,1.205 85.154,10.363 83.071,9.158 "
   id="polygon2918"
   style="fill:#ffffff" />
<polygon
   points="87.392,25.248 88.593,23.162 97.767,28.448 96.565,30.534 87.392,25.248 "
   id="polygon2920"
   style="fill:#ffffff" />
<polygon
   points="83.069,28.678 85.152,27.473 90.45,36.631 88.367,37.836 83.069,28.678 "
   id="polygon2922"
   style="fill:#ffffff" />
<path
   d="M85.887,18.918c0-3.82-2.96-6.956-6.707-7.25v-6.35h-6.872C64.61,4.991,60.648,8.939,59.165,10.9H8.015  C3.589,10.9,0,14.489,0,18.915s3.589,8.014,8.015,8.014h51.149c1.389,1.836,4.951,5.413,11.717,5.592v0.015h8.299v-6.368  C82.927,25.875,85.887,22.739,85.887,18.918z M79.18,23.655v-9.472c2.362,0.284,4.202,2.297,4.202,4.736  C83.382,21.356,81.542,23.371,79.18,23.655z"
   id="path2924"
   style="fill:#ffffff" />
<path
   d="M49.052,6.341h-5.268c-1.511,0-2.734,1.358-2.734,3.034h10.736C51.786,7.699,50.562,6.341,49.052,6.341z"
   id="path2926"
   style="fill:#ffffff" />
</svg>