<?xml version="1.0" encoding="UTF-8" standalone="no"?>
<!-- Generator: Adobe Illustrator 14.0.0, SVG Export Plug-In . SVG Version: 6.00 Build 43363)  -->

<svg
   xmlns:dc="http://purl.org/dc/elements/1.1/"
   xmlns:cc="http://creativecommons.org/ns#"
   xmlns:rdf="http://www.w3.org/1999/02/22-rdf-syntax-ns#"
   xmlns:svg="http://www.w3.org/2000/svg"
   xmlns="http://www.w3.org/2000/svg"
   xmlns:sodipodi="http://sodipodi.sourceforge.net/DTD/sodipodi-0.dtd"
   xmlns:inkscape="http://www.inkscape.org/namespaces/inkscape"
   version="1.0"
   id="Layer_1"
   x="0px"
   y="0px"
   width="100px"
   height="100px"
   viewBox="0 0 100 100"
   enable-background="new 0 0 100 100"
   xml:space="preserve"
   inkscape:version="0.47 r22583"
   sodipodi:docname="hunting.svg"><metadata
   id="metadata2881"><rdf:RDF><cc:Work
       rdf:about=""><dc:format>image/svg+xml</dc:format><dc:type
         rdf:resource="http://purl.org/dc/dcmitype/StillImage" /></cc:Work></rdf:RDF></metadata><defs
   id="defs2879"><inkscape:perspective
     sodipodi:type="inkscape:persp3d"
     inkscape:vp_x="0 : 50 : 1"
     inkscape:vp_y="0 : 1000 : 0"
     inkscape:vp_z="100 : 50 : 1"
     inkscape:persp3d-origin="50 : 33.333333 : 1"
     id="perspective2883" /></defs><sodipodi:namedview
   pagecolor="#009674"
   bordercolor="#666666"
   borderopacity="1"
   objecttolerance="10"
   gridtolerance="10"
   guidetolerance="10"
   inkscape:pageopacity="1"
   inkscape:pageshadow="2"
   inkscape:window-width="640"
   inkscape:window-height="504"
   id="namedview2877"
   showgrid="false"
   inkscape:zoom="2.36"
   inkscape:cx="50"
   inkscape:cy="50"
   inkscape:window-x="0"
   inkscape:window-y="24"
   inkscape:window-maximized="0"
   inkscape:current-layer="Layer_1" />
<path
   d="M50,0C22.43,0,0,22.43,0,50c0,27.569,22.43,50,50,50s50-22.431,50-50C100,22.43,77.57,0,50,0z M54.032,91.737V78.226h-8.064  v13.512C26.057,89.829,10.171,73.943,8.263,54.032h13.512v-8.064H8.263c1.909-19.911,17.794-35.796,37.705-37.705v13.511h8.064  V8.263c19.911,1.908,35.797,17.793,37.705,37.705H78.226v8.064h13.512C89.829,73.943,73.943,89.829,54.032,91.737z"
   id="path2875"
   style="fill:#ffffff" />
</svg>