<?xml version="1.0" encoding="UTF-8" standalone="no"?>
<!-- Generator: Adobe Illustrator 14.0.0, SVG Export Plug-In . SVG Version: 6.00 Build 43363)  -->

<svg
   xmlns:dc="http://purl.org/dc/elements/1.1/"
   xmlns:cc="http://creativecommons.org/ns#"
   xmlns:rdf="http://www.w3.org/1999/02/22-rdf-syntax-ns#"
   xmlns:svg="http://www.w3.org/2000/svg"
   xmlns="http://www.w3.org/2000/svg"
   xmlns:sodipodi="http://sodipodi.sourceforge.net/DTD/sodipodi-0.dtd"
   xmlns:inkscape="http://www.inkscape.org/namespaces/inkscape"
   version="1.0"
   id="Layer_1"
   x="0px"
   y="0px"
   width="92.596px"
   height="100px"
   viewBox="0 0 92.596 100"
   enable-background="new 0 0 92.596 100"
   xml:space="preserve"
   inkscape:version="0.47 r22583"
   sodipodi:docname="mine.svg"><metadata
   id="metadata2950"><rdf:RDF><cc:Work
       rdf:about=""><dc:format>image/svg+xml</dc:format><dc:type
         rdf:resource="http://purl.org/dc/dcmitype/StillImage" /></cc:Work></rdf:RDF></metadata><defs
   id="defs2948"><inkscape:perspective
     sodipodi:type="inkscape:persp3d"
     inkscape:vp_x="0 : 50 : 1"
     inkscape:vp_y="0 : 1000 : 0"
     inkscape:vp_z="92.596001 : 50 : 1"
     inkscape:persp3d-origin="46.298 : 33.333333 : 1"
     id="perspective2952" /></defs><sodipodi:namedview
   pagecolor="#009674"
   bordercolor="#666666"
   borderopacity="1"
   objecttolerance="10"
   gridtolerance="10"
   guidetolerance="10"
   inkscape:pageopacity="1"
   inkscape:pageshadow="2"
   inkscape:window-width="640"
   inkscape:window-height="504"
   id="namedview2946"
   showgrid="false"
   inkscape:zoom="2.36"
   inkscape:cx="46.298"
   inkscape:cy="50"
   inkscape:window-x="0"
   inkscape:window-y="24"
   inkscape:window-maximized="0"
   inkscape:current-layer="Layer_1" />
<polygon
   points="63.212,71.421 68.329,75.76 77.267,65.238 66.745,56.301 62.354,61.471 "
   id="polygon2938"
   style="fill:#ffffff" />
<polygon
   points="92.596,78.124 72.772,78.098 72.747,98.311 86.23,98.311 92.596,91.452 "
   id="polygon2940"
   style="fill:#ffffff" />
<polygon
   points="56.769,99.376 63.472,97.375 57.444,77.215 43.128,81.476 40.349,93.531 "
   id="polygon2942"
   style="fill:#ffffff" />
<path
   d="M42.973,11.016C27.488,1.923,19.356,1.637,5.274,0l-0.52,2.65c17.484,4.053,21.902,8.158,33.931,15.458l1.663,7.95  L0.649,91.479c-0.389,0.779-0.623,1.637-0.648,2.572c-0.053,3.247,2.52,5.896,5.741,5.949c2.13,0.025,4.001-1.092,5.066-2.754  l39.075-63.939l15.9,10.185l8.184-13.484L42.973,11.016"
   id="path2944"
   style="fill:#ffffff" />
</svg>