<?xml version="1.0" encoding="UTF-8" standalone="no"?>
<!-- Created with Inkscape (http://www.inkscape.org/) -->

<svg
   xmlns:dc="http://purl.org/dc/elements/1.1/"
   xmlns:cc="http://creativecommons.org/ns#"
   xmlns:rdf="http://www.w3.org/1999/02/22-rdf-syntax-ns#"
   xmlns:svg="http://www.w3.org/2000/svg"
   xmlns="http://www.w3.org/2000/svg"
   xmlns:sodipodi="http://sodipodi.sourceforge.net/DTD/sodipodi-0.dtd"
   xmlns:inkscape="http://www.inkscape.org/namespaces/inkscape"
   width="681.46454"
   height="467.98532"
   id="svg2"
   version="1.1"
   inkscape:version="0.47 r22583"
   sodipodi:docname="partnership.svg">
  <defs
     id="defs4">
    <inkscape:perspective
       sodipodi:type="inkscape:persp3d"
       inkscape:vp_x="0 : 526.18109 : 1"
       inkscape:vp_y="0 : 1000 : 0"
       inkscape:vp_z="744.09448 : 526.18109 : 1"
       inkscape:persp3d-origin="372.04724 : 350.78739 : 1"
       id="perspective10" />
    <inkscape:perspective
       id="perspective2830"
       inkscape:persp3d-origin="0.5 : 0.33333333 : 1"
       inkscape:vp_z="1 : 0.5 : 1"
       inkscape:vp_y="0 : 1000 : 0"
       inkscape:vp_x="0 : 0.5 : 1"
       sodipodi:type="inkscape:persp3d" />
    <inkscape:perspective
       id="perspective2830-8"
       inkscape:persp3d-origin="0.5 : 0.33333333 : 1"
       inkscape:vp_z="1 : 0.5 : 1"
       inkscape:vp_y="0 : 1000 : 0"
       inkscape:vp_x="0 : 0.5 : 1"
       sodipodi:type="inkscape:persp3d" />
    <inkscape:perspective
       id="perspective2830-6"
       inkscape:persp3d-origin="0.5 : 0.33333333 : 1"
       inkscape:vp_z="1 : 0.5 : 1"
       inkscape:vp_y="0 : 1000 : 0"
       inkscape:vp_x="0 : 0.5 : 1"
       sodipodi:type="inkscape:persp3d" />
    <inkscape:perspective
       id="perspective2830-7"
       inkscape:persp3d-origin="0.5 : 0.33333333 : 1"
       inkscape:vp_z="1 : 0.5 : 1"
       inkscape:vp_y="0 : 1000 : 0"
       inkscape:vp_x="0 : 0.5 : 1"
       sodipodi:type="inkscape:persp3d" />
    <inkscape:perspective
       id="perspective2881"
       inkscape:persp3d-origin="0.5 : 0.33333333 : 1"
       inkscape:vp_z="1 : 0.5 : 1"
       inkscape:vp_y="0 : 1000 : 0"
       inkscape:vp_x="0 : 0.5 : 1"
       sodipodi:type="inkscape:persp3d" />
    <inkscape:perspective
       sodipodi:type="inkscape:persp3d"
       inkscape:vp_x="0 : 0.5 : 1"
       inkscape:vp_y="0 : 1000 : 0"
       inkscape:vp_z="1 : 0.5 : 1"
       inkscape:persp3d-origin="0.5 : 0.33333333 : 1"
       id="perspective3978" />
    <inkscape:perspective
       id="perspective3968"
       inkscape:persp3d-origin="372.04724 : 350.78739 : 1"
       inkscape:vp_z="744.09448 : 526.18109 : 1"
       inkscape:vp_y="0 : 1000 : 0"
       inkscape:vp_x="0 : 526.18109 : 1"
       sodipodi:type="inkscape:persp3d" />
  </defs>
  <sodipodi:namedview
     id="base"
     pagecolor="#009674"
     bordercolor="#666666"
     borderopacity="1.0"
     inkscape:pageopacity="1.0"
     inkscape:pageshadow="2"
     inkscape:zoom="1.02781"
     inkscape:cx="340.73227"
     inkscape:cy="233.99266"
     inkscape:document-units="px"
     inkscape:current-layer="layer1"
     showgrid="false"
     inkscape:window-width="1280"
     inkscape:window-height="749"
     inkscape:window-x="0"
     inkscape:window-y="24"
     inkscape:window-maximized="1">
    <inkscape:grid
       type="xygrid"
       id="grid2818"
       empspacing="5"
       visible="true"
       enabled="true"
       snapvisiblegridlinesonly="true" />
  </sodipodi:namedview>
  <metadata
     id="metadata7">
    <rdf:RDF>
      <cc:Work
         rdf:about="">
        <dc:format>image/svg+xml</dc:format>
        <dc:type
           rdf:resource="http://purl.org/dc/dcmitype/StillImage" />
        <dc:title />
      </cc:Work>
    </rdf:RDF>
  </metadata>
  <g
     inkscape:label="Ebene 1"
     inkscape:groupmode="layer"
     id="layer1"
     transform="translate(341.3208,-508.97144)">
    <path
       style="fill:#ffffff;stroke:none"
       d="m -54.29353,508.97144 c -0.72735,0 -7.11059,1.5366 -14.17715,3.42414 -16.10499,4.30179 -28.8361,7.57157 -58.03021,14.83795 -12.68735,3.15788 -29.55576,7.42578 -37.48536,9.49149 -7.92959,2.06571 -22.85164,5.79479 -33.16012,8.29003 l -18.74267,4.53548 -10.5728,7.41898 c -5.81503,4.07556 -14.4655,10.22974 -19.22325,13.66654 -4.75776,3.4368 -12.89275,9.11327 -18.08188,12.6453 l -9.43141,6.42777 -34.06121,0 -34.06121,0 0.24029,117.50217 0.24029,117.50217 26.76238,0.27032 26.79241,0.2403 18.38224,17.06064 c 25.28859,23.44493 29.58453,27.23601 30.45685,26.91256 0.78448,-0.29088 57.98147,-54.26218 78.45493,-74.03958 14.86731,-14.36185 13.74858,-14.23671 31.20776,-2.9736 24.19647,15.60939 33.04434,21.20778 35.23262,22.34704 1.92495,1.00215 2.50418,0.8017 4.80582,-1.68204 1.43938,-1.55328 3.04568,-3.41977 3.57432,-4.14501 7.88117,-10.81227 17.63954,-21.00137 20.09432,-20.99541 2.71224,0.007 6.72077,2.62405 20.69504,13.45629 24.62559,19.08868 34.32115,26.54817 38.50658,29.58579 5.12964,3.7229 28.37217,21.15326 38.08609,28.56456 3.76911,2.87569 7.13173,5.90133 7.44901,6.72814 0.75799,1.9753 -1.89432,8.63883 -5.31643,13.39621 l -2.73331,3.81462 0,28.59459 0,28.62464 3.60436,-2.04247 c 1.9824,-1.13126 9.65969,-5.60544 17.06064,-9.912 7.40096,-4.30655 15.51077,-8.98365 18.02181,-10.42261 l 4.56552,-2.6432 0,-42.982 c 0,-39.14307 -0.15039,-43.25323 -1.68203,-46.01567 -0.92512,-1.66854 -5.57475,-6.6144 -10.33251,-10.99331 -16.11232,-14.82931 -68.22843,-63.95304 -69.56416,-65.56933 -1.38381,-1.67445 -1.819,-16.01556 -0.60073,-19.85402 0.80252,-2.52851 4.30887,-2.50449 7.56916,0.0601 2.22286,1.7485 2.52305,2.69943 2.52305,7.65927 l 0,5.64683 41.81059,39.16739 41.81059,39.19743 0,46.25596 c 0,25.43752 0.25854,46.48446 0.57069,46.79662 0.6095,0.6095 12.39273,-6.33029 27.54332,-16.21962 l 9.37134,-6.09738 0,-56.97894 0,-56.9489 L 83.7535,738.11872 C 61.68571,715.86648 41.57046,695.24957 39.05942,692.31329 c -4.42721,-5.17692 -4.56552,-5.5269 -4.56552,-11.56399 0,-3.42413 0.27032,-7.56915 0.60072,-9.22115 0.53314,-2.6657 0.96969,-3.00364 3.90473,-3.00364 6.10293,0 7.0285,1.16748 7.0285,8.80065 l 0,6.78821 44.69408,44.90433 44.69407,44.90433 0,61.30418 c 0,61.18644 9.7e-4,61.33366 1.95237,60.82359 1.07512,-0.28115 10.26624,-5.51703 20.42471,-11.62407 l 18.47235,-11.11344 0,-67.07115 0,-67.07115 -12.94566,-12.49512 C 138.74214,702.97258 81.05426,646.89473 63.59911,629.71756 l -17.48115,-17.24086 -7.0285,5.3765 c -3.85397,2.95157 -10.67492,8.27076 -15.16835,11.80429 -11.16515,8.77996 -12.0361,9.28482 -17.15076,10.24239 -10.67334,1.99827 -9.76181,1.32503 -9.76181,7.3589 l 0,5.40654 -22.58732,16.82036 c -37.49164,27.92848 -42.26119,31.4091 -45.41495,33.03997 -2.59126,1.34 -6.9641,1.56189 -30.27663,1.56189 l -27.24297,0 -14.3874,-13.03577 c -7.89952,-7.16855 -17.68587,-15.92714 -21.74632,-19.46355 -6.13052,-5.33935 -7.39388,-6.93955 -7.44901,-9.40138 -0.0608,-2.71622 0.93046,-3.68268 11.86436,-11.53395 6.56362,-4.71313 22.56699,-16.2904 35.56303,-25.74114 l 23.6386,-17.18079 0,-20.9053 c 0,-15.56607 0.30685,-21.14403 1.20145,-21.86645 1.07424,-0.86748 14.93705,-8.36533 54.06541,-29.2554 6.87232,-3.66903 13.06887,-7.23186 13.75665,-7.89956 1.01717,-0.98747 -0.81603,-2.86825 -9.85192,-10.03213 -6.10987,-4.84405 -11.7077,-8.80065 -12.43505,-8.80065 z m 83.8915,0.78094 c -1.3019,0.0315 -2.17737,0.28266 -3.33403,0.63077 -2.33986,0.7042 -6.53499,2.75802 -9.31127,4.56552 -4.53961,2.95551 -47.46134,26.04069 -83.62117,44.9644 -7.57602,3.9648 -15.8061,8.43804 -18.29213,9.94203 l -4.53549,2.73331 0,20.36464 0,20.39467 -12.82552,9.55156 c -7.05782,5.2666 -17.92425,13.25804 -24.14922,17.75148 -6.22497,4.49343 -15.61326,11.30597 -20.84522,15.13831 l -9.49148,6.96844 8.41018,7.65926 c 4.63794,4.21541 8.87273,7.6838 9.40137,7.68931 0.52864,0.006 6.43116,-3.76305 13.12588,-8.38014 6.69472,-4.61709 16.72987,-11.54597 22.28697,-15.37861 5.55709,-3.83264 10.91568,-6.96843 11.89439,-6.96843 5.24966,0 8.03065,6.5672 4.23512,10.0021 -1.00043,0.90539 -8.46146,6.15191 -16.58006,11.6541 -8.1186,5.5022 -15.2104,10.35174 -15.73904,10.78305 -0.52864,0.4313 -2.475,1.75051 -4.32523,2.91352 -1.85024,1.16302 -3.96945,2.51351 -4.71571,3.00364 -1.09455,0.7189 -0.81587,1.34948 1.44174,3.33403 l 2.79338,2.46298 24.74995,0.03 24.74994,0.03 6.00727,-4.20509 c 3.30161,-2.31346 16.82035,-12.31754 30.03634,-22.22689 l 24.02908,-18.02181 0.48058,-26.04151 0.48058,-26.01147 2.6432,-1.50181 c 2.37801,-1.32946 2.90838,-1.32933 5.28639,0 l 2.6432,1.50181 0.27033,17.12072 0.27033,17.15075 4.74574,-0.45055 c 3.1015,-0.29802 5.83022,-1.30771 7.89956,-2.91352 1.74036,-1.35053 10.07418,-7.89047 18.53242,-14.53759 11.46397,-9.00927 16.08879,-12.08881 18.14195,-12.10465 2.81628,-0.0217 15.87438,12.2533 83.26074,78.27471 11.36575,11.13553 29.44276,28.81029 40.15859,39.28753 l 19.46354,19.07308 -0.03,62.14519 c -0.022,34.18373 -0.0411,64.19968 -0.03,66.71071 l 0.03,4.56553 21.74631,0 21.71627,0 23.09795,-22.34704 23.06791,-22.34704 30.63707,-0.30036 30.63706,-0.27033 0,-114.34835 0,-114.31832 -27.48325,0 -27.45321,0 -8.56036,-7.20872 c -4.6993,-3.96479 -8.81414,-7.20872 -9.16109,-7.20872 -0.34694,0 -5.44689,-4.01955 -11.3237,-8.95083 -5.87681,-4.93127 -11.25129,-9.30779 -11.92442,-9.70174 -0.67314,-0.39394 -10.62118,-3.02741 -22.10675,-5.85708 -11.48558,-2.82969 -27.79563,-6.8899 -36.25386,-9.01091 -8.45824,-2.121 -23.81282,-5.84162 -34.12129,-8.29003 -10.30847,-2.44841 -21.33781,-5.25952 -24.50965,-6.24756 -3.17184,-0.98803 -13.5524,-3.61869 -23.06791,-5.82705 -9.51552,-2.20836 -24.00505,-5.70456 -32.19896,-7.77941 C 41.245,511.61151 33.50371,509.65778 29.598,509.75231 z m -173.8203,286.78699 c -0.7895,0.2899 -27.51849,25.49123 -70.46526,66.47042 -10.44063,9.9623 -18.98297,18.41016 -18.98297,18.77272 0,0.65161 4.3514,4.38864 24.02908,20.57489 5.55071,4.56585 13.5402,11.14942 17.75147,14.6277 4.21128,3.47827 8.13812,6.18621 8.74058,6.0373 0.60246,-0.1489 6.93269,-6.97444 14.05701,-15.16835 7.12432,-8.19391 14.65935,-17.11957 16.73024,-19.82399 3.00916,-3.9297 31.27584,-37.19598 49.80025,-58.63093 2.61154,-3.02186 3.15352,-4.22513 2.25273,-4.956 -6.06973,-4.92473 -42.84926,-28.29442 -43.91313,-27.90376 z m 80.64757,5.25636 -2.61316,2.52305 c -1.44822,1.3943 -5.67086,6.25273 -9.37134,10.78305 -3.70047,4.53031 -22.40711,26.59418 -41.57029,49.04934 -19.16319,22.45516 -34.84216,41.05925 -34.84216,41.33001 0,0.27075 -4.12325,5.30895 -9.16108,11.20355 -5.03783,5.89461 -8.82496,11.05911 -8.41018,11.47389 0.41479,0.41479 13.51289,4.04103 29.10522,8.04974 15.59231,4.0087 30.51692,7.87591 33.16012,8.59039 2.64319,0.71448 5.07217,1.35325 5.3765,1.41171 0.30433,0.0584 1.45946,-0.87642 2.58313,-2.07251 1.12366,-1.19609 4.56379,-5.4861 7.62923,-9.52152 3.06543,-4.03542 11.93644,-15.57732 19.73387,-25.65104 7.79744,-10.07371 14.17716,-18.575 14.17716,-18.89285 0,-0.31786 2.29375,-3.48841 5.10618,-7.02851 2.81242,-3.5401 11.5291,-14.86198 19.37344,-25.17045 7.84433,-10.30847 14.64279,-19.24615 15.10827,-19.85402 0.55443,-0.72404 -0.40738,-2.27412 -2.79337,-4.53549 -2.00321,-1.89859 -4.01746,-3.47963 -4.47542,-3.48422 -0.45795,-0.005 -7.16206,-4.87288 -14.89802,-10.84312 -7.73596,-5.97022 -16.10596,-12.32844 -18.62254,-14.11708 l -4.59556,-3.24392 z m -85.03288,12.9757 4.02487,3.90472 4.02487,3.93476 -4.74574,4.26516 c -2.612,2.34842 -4.74574,4.8621 -4.74574,5.58676 0,0.72465 4.34297,4.60769 9.64166,8.62043 l 9.64167,7.29883 -3.12378,4.35527 c -1.71905,2.39375 -3.35877,4.46531 -3.6344,4.6256 -0.27563,0.16029 -6.56594,-4.25108 -13.9669,-9.79185 -7.40095,-5.54076 -13.75873,-10.5633 -14.14711,-11.17352 -1.75087,-2.75087 -0.26784,-5.17996 8.13984,-13.18595 l 8.89076,-8.44021 z m 83.83143,5.64683 c 2.14042,-0.0431 9.8812,6.03165 9.07097,7.11861 -0.42324,0.56781 -2.82284,3.69777 -5.34646,6.96843 -2.52362,3.27068 -4.36178,6.35175 -4.05491,6.84829 0.30688,0.49653 4.23962,3.01029 8.74058,5.58676 4.50095,2.57647 8.19819,5.21784 8.19992,5.85709 0.004,1.3033 -5.00743,9.8867 -5.76698,9.88195 -0.26817,-0.002 -3.94077,-2.13574 -8.16989,-4.74574 -4.22911,-2.61001 -9.9029,-6.06911 -12.61526,-7.6893 -5.15056,-3.07664 -7.93887,-7.36949 -6.45781,-9.97207 2.21916,-3.89963 15.37925,-19.83348 16.39984,-19.85402 z m 56.97894,24.02907 c -0.47731,0.0457 -0.79129,0.44938 -1.29156,1.26153 -1.10803,1.79881 -6.60698,8.98719 -27.84369,36.46412 -6.44543,8.33936 -13.66053,17.9301 -16.03941,21.29576 -2.37888,3.36566 -11.16838,15.02817 -19.55366,25.9514 -8.38526,10.92324 -15.09802,20.04449 -14.89802,20.2445 0.20001,0.2 10.10086,2.79272 21.9866,5.76697 11.88574,2.97427 23.32622,6.02181 25.44078,6.75818 2.11456,0.73639 4.52846,1.35644 5.37651,1.38167 0.91861,0.0273 3.44403,-3.08146 6.24756,-7.65926 2.58811,-4.22608 10.70777,-16.87739 18.0218,-28.11402 7.31403,-11.23663 13.54376,-21.0735 13.84675,-21.86646 0.303,-0.79296 3.2061,-5.55071 6.45782,-10.57279 10.70307,-16.53022 14.92806,-23.68934 14.92806,-25.2906 0,-1.39695 -23.94679,-20.81178 -30.45685,-24.68987 -1.10571,-0.65868 -1.74538,-0.97674 -2.22269,-0.93113 z m -273.39078,4.59556 c -0.13772,0.007 -0.25996,0.0358 -0.36044,0.0901 -1.23741,0.66977 -26.61219,23.23851 -26.61219,23.66864 0,0.6374 32.94313,30.19801 33.6407,30.18652 0.52864,-0.009 6.80023,-5.6306 13.93686,-12.49511 l 12.9757,-12.49512 -6.24756,-5.85709 c -18.76378,-17.63367 -25.26718,-23.1919 -27.33307,-23.09794 z m 272.12925,9.79185 c 1.10083,0 8.95083,6.16498 8.95083,7.0285 0,0.51675 -1.5409,2.83797 -3.42414,5.13622 -1.88324,2.29825 -3.15573,4.59851 -2.82342,5.13621 0.33232,0.5377 2.95452,2.4877 5.82705,4.32524 2.87253,1.83752 5.22633,3.61332 5.22633,3.93476 0,0.32144 -0.75692,1.71831 -1.68204,3.12378 -0.92512,1.40547 -2.13687,3.3918 -2.70327,4.41534 -0.56641,1.02355 -1.43146,1.96112 -1.92232,2.07251 -0.49088,0.11138 -5.33446,-2.79114 -10.75301,-6.45782 -9.40918,-6.36708 -9.85192,-6.81637 -9.85192,-10.09221 0,-2.81709 1.13832,-4.78966 6.33766,-11.02333 3.48178,-4.17443 6.55381,-7.5992 6.81825,-7.5992 z m -233.9831,31.71838 c -0.42454,0 -4.00805,3.26646 -7.95963,7.26879 l -7.17868,7.29883 3.36407,2.91353 c 1.85024,1.61118 7.47304,5.67459 12.49512,9.0109 5.02207,3.33632 13.67254,9.32578 19.22325,13.3061 5.55072,3.98032 10.4242,7.24726 10.81309,7.26879 0.38888,0.0215 3.63281,-1.52789 7.20872,-3.42414 9.45055,-5.01149 9.33371,-4.77911 4.74574,-8.92079 -7.20608,-6.50513 -41.92039,-34.72201 -42.71168,-34.72201 z m 261.28614,15.40864 c -0.89345,0.28065 -2.71083,3.12314 -16.12952,24.47962 -5.97432,9.50839 -10.87315,17.65329 -10.87315,18.11191 0,0.95415 11.89792,0.0409 21.14558,-1.62196 l 6.24756,-1.11134 0.27033,-19.94414 c 0.14288,-10.9655 -0.0733,-19.92064 -0.48059,-19.91409 -0.0544,8.8e-4 -0.12065,-0.0187 -0.18021,0 z m -184.24292,35.9535 c -0.11645,0.01 -0.20418,0.054 -0.24029,0.0901 -1.24502,1.24503 23.78672,22.63739 25.41074,21.71628 0.58242,-0.33034 4.15623,-2.9592 7.9296,-5.85709 7.96796,-6.11927 8.75492,-5.27817 -8.83069,-9.73177 -6.42247,-1.62651 -14.45714,-3.78418 -17.84158,-4.80582 -2.9614,-0.89393 -5.61269,-1.47655 -6.42778,-1.41171 z m 77.37361,20.72508 c -1.18363,0.008 -1.68818,1.37804 -2.16261,5.91716 -0.34063,3.25893 -0.36773,6.17847 -0.0601,6.48785 0.71918,0.72325 12.01594,1.66317 22.55729,1.86225 8.17105,0.1543 8.25238,0.12257 10.45264,-2.85345 1.78706,-2.41712 1.95935,-3.13054 0.90109,-3.78458 -1.51436,-0.93593 -29.373,-7.64425 -31.68834,-7.62923 z"
       id="rect4001" />
  </g>
</svg>
