<?xml version="1.0" encoding="UTF-8" standalone="no"?>
<!-- Generator: Adobe Illustrator 14.0.0, SVG Export Plug-In . SVG Version: 6.00 Build 43363)  -->

<svg
   xmlns:dc="http://purl.org/dc/elements/1.1/"
   xmlns:cc="http://creativecommons.org/ns#"
   xmlns:rdf="http://www.w3.org/1999/02/22-rdf-syntax-ns#"
   xmlns:svg="http://www.w3.org/2000/svg"
   xmlns="http://www.w3.org/2000/svg"
   xmlns:sodipodi="http://sodipodi.sourceforge.net/DTD/sodipodi-0.dtd"
   xmlns:inkscape="http://www.inkscape.org/namespaces/inkscape"
   version="1.0"
   id="Layer_1"
   x="0px"
   y="0px"
   width="100px"
   height="95.21px"
   viewBox="0 0 100 95.21"
   enable-background="new 0 0 100 95.21"
   xml:space="preserve"
   inkscape:version="0.47 r22583"
   sodipodi:docname="poisonoak.svg"><metadata
   id="metadata2883"><rdf:RDF><cc:Work
       rdf:about=""><dc:format>image/svg+xml</dc:format><dc:type
         rdf:resource="http://purl.org/dc/dcmitype/StillImage" /></cc:Work></rdf:RDF></metadata><defs
   id="defs2881"><inkscape:perspective
     sodipodi:type="inkscape:persp3d"
     inkscape:vp_x="0 : 47.605 : 1"
     inkscape:vp_y="0 : 1000 : 0"
     inkscape:vp_z="100 : 47.605 : 1"
     inkscape:persp3d-origin="50 : 31.736666 : 1"
     id="perspective2885" /></defs><sodipodi:namedview
   pagecolor="#009674"
   bordercolor="#666666"
   borderopacity="1"
   objecttolerance="10"
   gridtolerance="10"
   guidetolerance="10"
   inkscape:pageopacity="1"
   inkscape:pageshadow="2"
   inkscape:window-width="640"
   inkscape:window-height="504"
   id="namedview2879"
   showgrid="false"
   inkscape:zoom="2.4787312"
   inkscape:cx="50"
   inkscape:cy="47.605"
   inkscape:window-x="0"
   inkscape:window-y="24"
   inkscape:window-maximized="0"
   inkscape:current-layer="Layer_1" />
<path
   d="m 50,8.4503716 c -22.712234,0 -41.1244915,17.6827084 -41.1244915,42.2940724 0,8.86644 4.9949805,15.477613 12.9788895,19.785815 0.894869,4.374823 2.521754,8.812156 3.983318,10.851108 3.669127,5.118355 20.771158,5.378261 24.162284,5.378261 3.390303,0 20.492334,-0.259906 24.162284,-5.377438 1.461564,-2.039775 3.089272,-6.477108 3.98414,-10.851931 C 86.129511,66.222057 91.124492,59.610884 91.124492,50.744444 91.124492,26.13308 72.711412,8.4503716 50,8.4503716 z m 0,2.5719254 c 7.328384,0 13.270051,5.940844 13.270051,13.269229 0,7.328384 -5.941667,13.269228 -13.270051,13.269228 -7.329207,0 -13.269228,-5.940844 -13.269228,-13.269228 0,-7.328385 5.940021,-13.269229 13.269228,-13.269229 z M 16.864352,55.751762 c -1.927916,0 -3.755488,-0.420293 -5.40787,-1.159711 -0.233588,-1.241137 -0.360251,-2.522576 -0.360251,-3.847607 0,-7.983909 1.969041,-15.303246 5.448995,-21.515512 0.107746,-0.0016 0.212203,-0.01645 0.319949,-0.01645 7.329207,0 13.269228,5.940844 13.269228,13.269229 -8.22e-4,7.329207 -5.940844,13.270051 -13.270051,13.270051 z M 71.639707,79.533233 C 70.224202,81.507208 62.158045,83.60867 50,83.60867 37.842778,83.60867 29.777443,81.507208 28.360293,79.531588 26.553282,77.011479 24.330092,69.579461 24.2865,64.790925 28.499293,58.866531 38.742582,54.912 50,54.912 c 11.257418,0 21.501529,3.954531 25.714322,9.878925 -0.04359,4.788536 -2.267604,12.219731 -4.074615,14.742308 z m 11.5749,-23.781471 c -7.327562,0 -13.269229,-5.940844 -13.269229,-13.269229 0,-7.329207 5.941667,-13.269228 13.269229,-13.269228 0.107746,0 0.212202,0.01398 0.319948,0.01645 3.479955,6.211443 5.448995,13.531602 5.448995,21.515511 0,1.324209 -0.12584,2.60647 -0.36025,3.847608 -1.653205,0.738595 -3.479955,1.158888 -5.408693,1.158888 z"
   id="path2877"
   style="fill:#ffffff" />
</svg>