<?xml version="1.0" encoding="UTF-8" standalone="no"?>
<!-- Generator: Adobe Illustrator 14.0.0, SVG Export Plug-In . SVG Version: 6.00 Build 43363)  -->

<svg
   xmlns:dc="http://purl.org/dc/elements/1.1/"
   xmlns:cc="http://creativecommons.org/ns#"
   xmlns:rdf="http://www.w3.org/1999/02/22-rdf-syntax-ns#"
   xmlns:svg="http://www.w3.org/2000/svg"
   xmlns="http://www.w3.org/2000/svg"
   xmlns:sodipodi="http://sodipodi.sourceforge.net/DTD/sodipodi-0.dtd"
   xmlns:inkscape="http://www.inkscape.org/namespaces/inkscape"
   version="1.0"
   id="Layer_1"
   x="0px"
   y="0px"
   width="100"
   height="59.470001"
   viewBox="0 0 100 59.470001"
   enable-background="new 0 0 100 59.471"
   xml:space="preserve"
   inkscape:version="0.47 r22583"
   sodipodi:docname="rv.svg"><metadata
   id="metadata2971"><rdf:RDF><cc:Work
       rdf:about=""><dc:format>image/svg+xml</dc:format><dc:type
         rdf:resource="http://purl.org/dc/dcmitype/StillImage" /></cc:Work></rdf:RDF></metadata><defs
   id="defs2969"><inkscape:perspective
     sodipodi:type="inkscape:persp3d"
     inkscape:vp_x="0 : 29.7355 : 1"
     inkscape:vp_y="0 : 1000 : 0"
     inkscape:vp_z="100 : 29.7355 : 1"
     inkscape:persp3d-origin="50 : 19.823667 : 1"
     id="perspective2973" /></defs><sodipodi:namedview
   pagecolor="#009674"
   bordercolor="#666666"
   borderopacity="1"
   objecttolerance="10"
   gridtolerance="10"
   guidetolerance="10"
   inkscape:pageopacity="1"
   inkscape:pageshadow="2"
   inkscape:window-width="640"
   inkscape:window-height="504"
   id="namedview2967"
   showgrid="false"
   borderlayer="false"
   inkscape:zoom="3.9683206"
   inkscape:cx="50"
   inkscape:cy="29.7355"
   inkscape:window-x="0"
   inkscape:window-y="24"
   inkscape:window-maximized="0"
   inkscape:current-layer="Layer_1" />
<path
   id="path5004"
   d="m 41.283,22.671999 c 1.856,0 3.367,-1.522 3.367,-3.369 v -5.62 c 0,-1.846 -1.511,-3.368 -3.367,-3.368 H 15.915 c -1.857,0 -3.367,1.522 -3.367,3.368 v 5.62 c 0,1.846 1.51,3.369 3.367,3.369 h 25.368 z m 33.481,-0.026 c 1.869,0 3.367,-1.521 3.367,-3.367 v -5.596 c 0,-1.846 -1.496,-3.368 -3.367,-3.368 H 63.056 c -1.857,0 -3.367,1.522 -3.367,3.368 v 5.596 c 0,1.845 1.51,3.367 3.367,3.367 h 11.708 z m -43.535,26.736 H 12.056 c -6.651,0 -12.032,-5.394 -12.032,-12.032 L 0,16.331999 C 0,7.3079993 7.31,-0.00100067 16.321,-0.00100067 h 55.508 c 9.012,0 16.333,7.30899997 16.333,16.33299967 l 0.022,29.669 h 8.498 c 1.833,0 3.317,1.522 3.317,3.355 H 56.896 c -0.42,-6.746 -5.979,-12.09 -12.833,-12.09 -6.854,10e-4 -12.415,5.345 -12.834,12.116"
   style="fill:#ffffff" />
<path
   id="path5006"
   d="m 44.064,54.211999 c 2.229,0 4.027,-1.786 4.027,-4.016 0,-2.23 -1.798,-4.027 -4.027,-4.027 -2.217,0 -4.015,1.798 -4.015,4.027 0,2.229 1.798,4.016 4.015,4.016 m -9.264,-4.015 c 0,-5.13 4.135,-9.275 9.264,-9.275 5.129,0 9.263,4.146 9.263,9.275 0,5.116 -4.134,9.273 -9.263,9.273 -5.13,0 -9.264,-4.156 -9.264,-9.273"
   style="fill:#ffffff" />
</svg>