<?xml version="1.0" encoding="UTF-8" standalone="no"?>
<!-- Generator: Adobe Illustrator 14.0.0, SVG Export Plug-In . SVG Version: 6.00 Build 43363)  -->

<svg
   xmlns:dc="http://purl.org/dc/elements/1.1/"
   xmlns:cc="http://creativecommons.org/ns#"
   xmlns:rdf="http://www.w3.org/1999/02/22-rdf-syntax-ns#"
   xmlns:svg="http://www.w3.org/2000/svg"
   xmlns="http://www.w3.org/2000/svg"
   xmlns:sodipodi="http://sodipodi.sourceforge.net/DTD/sodipodi-0.dtd"
   xmlns:inkscape="http://www.inkscape.org/namespaces/inkscape"
   version="1.0"
   id="Layer_1"
   x="0px"
   y="0px"
   width="84.166px"
   height="100px"
   viewBox="0 0 84.166 100"
   enable-background="new 0 0 84.166 100"
   xml:space="preserve"
   inkscape:version="0.47 r22583"
   sodipodi:docname="water.svg"><metadata
   id="metadata9"><rdf:RDF><cc:Work
       rdf:about=""><dc:format>image/svg+xml</dc:format><dc:type
         rdf:resource="http://purl.org/dc/dcmitype/StillImage" /></cc:Work></rdf:RDF></metadata><defs
   id="defs7"><inkscape:perspective
     sodipodi:type="inkscape:persp3d"
     inkscape:vp_x="0 : 50 : 1"
     inkscape:vp_y="0 : 1000 : 0"
     inkscape:vp_z="84.166 : 50 : 1"
     inkscape:persp3d-origin="42.083 : 33.333333 : 1"
     id="perspective11" /></defs><sodipodi:namedview
   pagecolor="#009674"
   bordercolor="#666666"
   borderopacity="1"
   objecttolerance="10"
   gridtolerance="10"
   guidetolerance="10"
   inkscape:pageopacity="1"
   inkscape:pageshadow="2"
   inkscape:window-width="640"
   inkscape:window-height="504"
   id="namedview5"
   showgrid="false"
   inkscape:zoom="2.36"
   inkscape:cx="42.083"
   inkscape:cy="50"
   inkscape:window-x="0"
   inkscape:window-y="24"
   inkscape:window-maximized="0"
   inkscape:current-layer="Layer_1" />
<path
   id="path6712"
   d="M66.078,16.941c-1.845,1.808-4.336,2.515-7.098,2.515c-3.506,0-6.695-1.445-8.527-4.181  c-1.817,2.792-5.021,4.181-8.572,4.181c-3.506,0-6.666-1.475-8.498-4.21c-1.819,2.822-5.023,4.21-8.612,4.21  c-2.592,0-4.968-0.591-6.757-2.197l-1.357-9.836c1.858,2.487,4.805,4.094,8.114,4.094c3.589,0,6.793-1.781,8.612-4.602  c1.832,2.735,4.992,4.602,8.498,4.602c3.551,0,6.755-1.781,8.572-4.572c1.832,2.734,5.021,4.572,8.527,4.572  c3.577,0,6.741-1.866,8.543-4.688L66.078,16.941z"
   style="fill:#ffffff" />
<path
   id="path6714"
   d="M68.669,100L84.166,0L73.733,0.102L59.64,89.455H24.525L10.431,0.102L0,0l15.496,100H68.669z"
   style="fill:#ffffff" />
</svg>