<?xml version="1.0" encoding="UTF-8" standalone="no"?>
<svg
   viewBox="0 0 24 24"
   id="dot_not_found_offline"
   version="1.1"
   sodipodi:docname="dot_not_found_offline.svg"
   inkscape:version="1.1 (c68e22c387, 2021-05-23)"
   xmlns:inkscape="http://www.inkscape.org/namespaces/inkscape"
   xmlns:sodipodi="http://sodipodi.sourceforge.net/DTD/sodipodi-0.dtd"
   xmlns="http://www.w3.org/2000/svg"
   xmlns:svg="http://www.w3.org/2000/svg">
  <defs
     id="defs9" />
  <sodipodi:namedview
     id="namedview7"
     pagecolor="#505050"
     bordercolor="#ffffff"
     borderopacity="1"
     inkscape:pageshadow="0"
     inkscape:pageopacity="0"
     inkscape:pagecheckerboard="1"
     showgrid="false"
     inkscape:zoom="30.291667"
     inkscape:cx="11.075653"
     inkscape:cy="11.983494"
     inkscape:window-width="2472"
     inkscape:window-height="1411"
     inkscape:window-x="88"
     inkscape:window-y="240"
     inkscape:window-maximized="1"
     inkscape:current-layer="dot_not_found_offline" />
  <path
     id="circle2"
     d="M 8.5 8 C 7.7 8 7 8.7 7 9.5 C 7 10.3 7.7 11 8.5 11 C 9.2999999 11 10 10.3 10 9.5 C 10 8.7 9.2999999 8 8.5 8 z M 15.5 8 C 14.7 8 14 8.7 14 9.5 C 14 10.3 14.7 11 15.5 11 C 16.3 11 17 10.3 17 9.5 C 17 8.7 16.3 8 15.5 8 z M 12 14 C 9.9475614 14.045447 7.8503374 15.16013 6.890625 17.5 L 17.109375 17.5 C 16.129641 15.014652 13.75 14 12 14 z "
     fill="#1A237E" />
</svg>
