<?xml version="1.0" encoding="utf-8"?>
<svg version="1.1" baseProfile="full"  width="492" height="492" viewBox="0 0 492 492"
		 xmlns="http://www.w3.org/2000/svg" xmlns:xlink="http://www.w3.org/1999/xlink" xmlns:ev="http://www.w3.org/2001/xml-events">
<desc></desc>
<rect width="492" height="492" fill="#ffffff" cx="0" cy="0" />
<defs>
<rect id="p" width="12" height="12" />
</defs>
<g fill="#000000">
<use x="48" y="48" xlink:href="#p" />
<use x="48" y="60" xlink:href="#p" />
<use x="48" y="72" xlink:href="#p" />
<use x="48" y="84" xlink:href="#p" />
<use x="48" y="96" xlink:href="#p" />
<use x="48" y="108" xlink:href="#p" />
<use x="48" y="120" xlink:href="#p" />
<use x="48" y="144" xlink:href="#p" />
<use x="48" y="156" xlink:href="#p" />
<use x="48" y="168" xlink:href="#p" />
<use x="48" y="180" xlink:href="#p" />
<use x="48" y="192" xlink:href="#p" />
<use x="48" y="204" xlink:href="#p" />
<use x="48" y="228" xlink:href="#p" />
<use x="48" y="252" xlink:href="#p" />
<use x="48" y="360" xlink:href="#p" />
<use x="48" y="372" xlink:href="#p" />
<use x="48" y="384" xlink:href="#p" />
<use x="48" y="396" xlink:href="#p" />
<use x="48" y="408" xlink:href="#p" />
<use x="48" y="420" xlink:href="#p" />
<use x="48" y="432" xlink:href="#p" />
<use x="60" y="48" xlink:href="#p" />
<use x="60" y="120" xlink:href="#p" />
<use x="60" y="156" xlink:href="#p" />
<use x="60" y="168" xlink:href="#p" />
<use x="60" y="180" xlink:href="#p" />
<use x="60" y="192" xlink:href="#p" />
<use x="60" y="216" xlink:href="#p" />
<use x="60" y="240" xlink:href="#p" />
<use x="60" y="252" xlink:href="#p" />
<use x="60" y="288" xlink:href="#p" />
<use x="60" y="300" xlink:href="#p" />
<use x="60" y="312" xlink:href="#p" />
<use x="60" y="324" xlink:href="#p" />
<use x="60" y="336" xlink:href="#p" />
<use x="60" y="360" xlink:href="#p" />
<use x="60" y="432" xlink:href="#p" />
<use x="72" y="48" xlink:href="#p" />
<use x="72" y="72" xlink:href="#p" />
<use x="72" y="84" xlink:href="#p" />
<use x="72" y="96" xlink:href="#p" />
<use x="72" y="120" xlink:href="#p" />
<use x="72" y="144" xlink:href="#p" />
<use x="72" y="156" xlink:href="#p" />
<use x="72" y="168" xlink:href="#p" />
<use x="72" y="180" xlink:href="#p" />
<use x="72" y="192" xlink:href="#p" />
<use x="72" y="204" xlink:href="#p" />
<use x="72" y="228" xlink:href="#p" />
<use x="72" y="240" xlink:href="#p" />
<use x="72" y="252" xlink:href="#p" />
<use x="72" y="276" xlink:href="#p" />
<use x="72" y="300" xlink:href="#p" />
<use x="72" y="324" xlink:href="#p" />
<use x="72" y="336" xlink:href="#p" />
<use x="72" y="360" xlink:href="#p" />
<use x="72" y="384" xlink:href="#p" />
<use x="72" y="396" xlink:href="#p" />
<use x="72" y="408" xlink:href="#p" />
<use x="72" y="432" xlink:href="#p" />
<use x="84" y="48" xlink:href="#p" />
<use x="84" y="72" xlink:href="#p" />
<use x="84" y="84" xlink:href="#p" />
<use x="84" y="96" xlink:href="#p" />
<use x="84" y="120" xlink:href="#p" />
<use x="84" y="144" xlink:href="#p" />
<use x="84" y="156" xlink:href="#p" />
<use x="84" y="168" xlink:href="#p" />
<use x="84" y="216" xlink:href="#p" />
<use x="84" y="228" xlink:href="#p" />
<use x="84" y="300" xlink:href="#p" />
<use x="84" y="324" xlink:href="#p" />
<use x="84" y="360" xlink:href="#p" />
<use x="84" y="384" xlink:href="#p" />
<use x="84" y="396" xlink:href="#p" />
<use x="84" y="408" xlink:href="#p" />
<use x="84" y="432" xlink:href="#p" />
<use x="96" y="48" xlink:href="#p" />
<use x="96" y="72" xlink:href="#p" />
<use x="96" y="84" xlink:href="#p" />
<use x="96" y="96" xlink:href="#p" />
<use x="96" y="120" xlink:href="#p" />
<use x="96" y="144" xlink:href="#p" />
<use x="96" y="156" xlink:href="#p" />
<use x="96" y="180" xlink:href="#p" />
<use x="96" y="216" xlink:href="#p" />
<use x="96" y="228" xlink:href="#p" />
<use x="96" y="240" xlink:href="#p" />
<use x="96" y="252" xlink:href="#p" />
<use x="96" y="288" xlink:href="#p" />
<use x="96" y="300" xlink:href="#p" />
<use x="96" y="324" xlink:href="#p" />
<use x="96" y="336" xlink:href="#p" />
<use x="96" y="360" xlink:href="#p" />
<use x="96" y="384" xlink:href="#p" />
<use x="96" y="396" xlink:href="#p" />
<use x="96" y="408" xlink:href="#p" />
<use x="96" y="432" xlink:href="#p" />
<use x="108" y="48" xlink:href="#p" />
<use x="108" y="120" xlink:href="#p" />
<use x="108" y="144" xlink:href="#p" />
<use x="108" y="168" xlink:href="#p" />
<use x="108" y="180" xlink:href="#p" />
<use x="108" y="228" xlink:href="#p" />
<use x="108" y="240" xlink:href="#p" />
<use x="108" y="264" xlink:href="#p" />
<use x="108" y="288" xlink:href="#p" />
<use x="108" y="300" xlink:href="#p" />
<use x="108" y="312" xlink:href="#p" />
<use x="108" y="360" xlink:href="#p" />
<use x="108" y="432" xlink:href="#p" />
<use x="120" y="48" xlink:href="#p" />
<use x="120" y="60" xlink:href="#p" />
<use x="120" y="72" xlink:href="#p" />
<use x="120" y="84" xlink:href="#p" />
<use x="120" y="96" xlink:href="#p" />
<use x="120" y="108" xlink:href="#p" />
<use x="120" y="120" xlink:href="#p" />
<use x="120" y="144" xlink:href="#p" />
<use x="120" y="168" xlink:href="#p" />
<use x="120" y="192" xlink:href="#p" />
<use x="120" y="216" xlink:href="#p" />
<use x="120" y="240" xlink:href="#p" />
<use x="120" y="264" xlink:href="#p" />
<use x="120" y="288" xlink:href="#p" />
<use x="120" y="312" xlink:href="#p" />
<use x="120" y="336" xlink:href="#p" />
<use x="120" y="360" xlink:href="#p" />
<use x="120" y="372" xlink:href="#p" />
<use x="120" y="384" xlink:href="#p" />
<use x="120" y="396" xlink:href="#p" />
<use x="120" y="408" xlink:href="#p" />
<use x="120" y="420" xlink:href="#p" />
<use x="120" y="432" xlink:href="#p" />
<use x="132" y="156" xlink:href="#p" />
<use x="132" y="180" xlink:href="#p" />
<use x="132" y="192" xlink:href="#p" />
<use x="132" y="228" xlink:href="#p" />
<use x="132" y="252" xlink:href="#p" />
<use x="132" y="264" xlink:href="#p" />
<use x="132" y="276" xlink:href="#p" />
<use x="132" y="324" xlink:href="#p" />
<use x="144" y="72" xlink:href="#p" />
<use x="144" y="84" xlink:href="#p" />
<use x="144" y="96" xlink:href="#p" />
<use x="144" y="108" xlink:href="#p" />
<use x="144" y="120" xlink:href="#p" />
<use x="144" y="132" xlink:href="#p" />
<use x="144" y="180" xlink:href="#p" />
<use x="144" y="216" xlink:href="#p" />
<use x="144" y="228" xlink:href="#p" />
<use x="144" y="252" xlink:href="#p" />
<use x="144" y="276" xlink:href="#p" />
<use x="144" y="288" xlink:href="#p" />
<use x="144" y="312" xlink:href="#p" />
<use x="144" y="336" xlink:href="#p" />
<use x="144" y="348" xlink:href="#p" />
<use x="144" y="372" xlink:href="#p" />
<use x="144" y="384" xlink:href="#p" />
<use x="144" y="396" xlink:href="#p" />
<use x="144" y="408" xlink:href="#p" />
<use x="144" y="432" xlink:href="#p" />
<use x="156" y="48" xlink:href="#p" />
<use x="156" y="60" xlink:href="#p" />
<use x="156" y="72" xlink:href="#p" />
<use x="156" y="96" xlink:href="#p" />
<use x="156" y="108" xlink:href="#p" />
<use x="156" y="132" xlink:href="#p" />
<use x="156" y="156" xlink:href="#p" />
<use x="156" y="168" xlink:href="#p" />
<use x="156" y="216" xlink:href="#p" />
<use x="156" y="228" xlink:href="#p" />
<use x="156" y="240" xlink:href="#p" />
<use x="156" y="264" xlink:href="#p" />
<use x="156" y="276" xlink:href="#p" />
<use x="156" y="288" xlink:href="#p" />
<use x="156" y="300" xlink:href="#p" />
<use x="156" y="348" xlink:href="#p" />
<use x="156" y="372" xlink:href="#p" />
<use x="156" y="384" xlink:href="#p" />
<use x="156" y="432" xlink:href="#p" />
<use x="168" y="48" xlink:href="#p" />
<use x="168" y="84" xlink:href="#p" />
<use x="168" y="96" xlink:href="#p" />
<use x="168" y="108" xlink:href="#p" />
<use x="168" y="120" xlink:href="#p" />
<use x="168" y="144" xlink:href="#p" />
<use x="168" y="156" xlink:href="#p" />
<use x="168" y="168" xlink:href="#p" />
<use x="168" y="192" xlink:href="#p" />
<use x="168" y="264" xlink:href="#p" />
<use x="168" y="276" xlink:href="#p" />
<use x="168" y="300" xlink:href="#p" />
<use x="168" y="336" xlink:href="#p" />
<use x="168" y="348" xlink:href="#p" />
<use x="168" y="360" xlink:href="#p" />
<use x="168" y="372" xlink:href="#p" />
<use x="168" y="408" xlink:href="#p" />
<use x="168" y="420" xlink:href="#p" />
<use x="168" y="432" xlink:href="#p" />
<use x="180" y="96" xlink:href="#p" />
<use x="180" y="132" xlink:href="#p" />
<use x="180" y="156" xlink:href="#p" />
<use x="180" y="192" xlink:href="#p" />
<use x="180" y="216" xlink:href="#p" />
<use x="180" y="228" xlink:href="#p" />
<use x="180" y="240" xlink:href="#p" />
<use x="180" y="252" xlink:href="#p" />
<use x="180" y="264" xlink:href="#p" />
<use x="180" y="300" xlink:href="#p" />
<use x="180" y="384" xlink:href="#p" />
<use x="180" y="396" xlink:href="#p" />
<use x="192" y="60" xlink:href="#p" />
<use x="192" y="84" xlink:href="#p" />
<use x="192" y="120" xlink:href="#p" />
<use x="192" y="132" xlink:href="#p" />
<use x="192" y="144" xlink:href="#p" />
<use x="192" y="156" xlink:href="#p" />
<use x="192" y="180" xlink:href="#p" />
<use x="192" y="228" xlink:href="#p" />
<use x="192" y="240" xlink:href="#p" />
<use x="192" y="276" xlink:href="#p" />
<use x="192" y="288" xlink:href="#p" />
<use x="192" y="300" xlink:href="#p" />
<use x="192" y="312" xlink:href="#p" />
<use x="192" y="336" xlink:href="#p" />
<use x="192" y="348" xlink:href="#p" />
<use x="192" y="384" xlink:href="#p" />
<use x="204" y="60" xlink:href="#p" />
<use x="204" y="96" xlink:href="#p" />
<use x="204" y="108" xlink:href="#p" />
<use x="204" y="144" xlink:href="#p" />
<use x="204" y="156" xlink:href="#p" />
<use x="204" y="168" xlink:href="#p" />
<use x="204" y="180" xlink:href="#p" />
<use x="204" y="240" xlink:href="#p" />
<use x="204" y="252" xlink:href="#p" />
<use x="204" y="276" xlink:href="#p" />
<use x="204" y="288" xlink:href="#p" />
<use x="204" y="324" xlink:href="#p" />
<use x="204" y="360" xlink:href="#p" />
<use x="204" y="408" xlink:href="#p" />
<use x="216" y="60" xlink:href="#p" />
<use x="216" y="72" xlink:href="#p" />
<use x="216" y="108" xlink:href="#p" />
<use x="216" y="120" xlink:href="#p" />
<use x="216" y="132" xlink:href="#p" />
<use x="216" y="144" xlink:href="#p" />
<use x="216" y="168" xlink:href="#p" />
<use x="216" y="192" xlink:href="#p" />
<use x="216" y="228" xlink:href="#p" />
<use x="216" y="264" xlink:href="#p" />
<use x="216" y="300" xlink:href="#p" />
<use x="216" y="432" xlink:href="#p" />
<use x="228" y="60" xlink:href="#p" />
<use x="228" y="72" xlink:href="#p" />
<use x="228" y="84" xlink:href="#p" />
<use x="228" y="108" xlink:href="#p" />
<use x="228" y="168" xlink:href="#p" />
<use x="228" y="192" xlink:href="#p" />
<use x="228" y="216" xlink:href="#p" />
<use x="228" y="228" xlink:href="#p" />
<use x="228" y="264" xlink:href="#p" />
<use x="228" y="312" xlink:href="#p" />
<use x="228" y="324" xlink:href="#p" />
<use x="228" y="360" xlink:href="#p" />
<use x="228" y="372" xlink:href="#p" />
<use x="228" y="384" xlink:href="#p" />
<use x="228" y="408" xlink:href="#p" />
<use x="228" y="432" xlink:href="#p" />
<use x="240" y="60" xlink:href="#p" />
<use x="240" y="72" xlink:href="#p" />
<use x="240" y="96" xlink:href="#p" />
<use x="240" y="120" xlink:href="#p" />
<use x="240" y="132" xlink:href="#p" />
<use x="240" y="156" xlink:href="#p" />
<use x="240" y="204" xlink:href="#p" />
<use x="240" y="216" xlink:href="#p" />
<use x="240" y="240" xlink:href="#p" />
<use x="240" y="252" xlink:href="#p" />
<use x="240" y="264" xlink:href="#p" />
<use x="240" y="276" xlink:href="#p" />
<use x="240" y="300" xlink:href="#p" />
<use x="240" y="348" xlink:href="#p" />
<use x="240" y="372" xlink:href="#p" />
<use x="240" y="396" xlink:href="#p" />
<use x="240" y="408" xlink:href="#p" />
<use x="240" y="432" xlink:href="#p" />
<use x="252" y="84" xlink:href="#p" />
<use x="252" y="96" xlink:href="#p" />
<use x="252" y="108" xlink:href="#p" />
<use x="252" y="144" xlink:href="#p" />
<use x="252" y="156" xlink:href="#p" />
<use x="252" y="168" xlink:href="#p" />
<use x="252" y="192" xlink:href="#p" />
<use x="252" y="204" xlink:href="#p" />
<use x="252" y="240" xlink:href="#p" />
<use x="252" y="264" xlink:href="#p" />
<use x="252" y="288" xlink:href="#p" />
<use x="252" y="300" xlink:href="#p" />
<use x="252" y="312" xlink:href="#p" />
<use x="252" y="336" xlink:href="#p" />
<use x="252" y="384" xlink:href="#p" />
<use x="252" y="408" xlink:href="#p" />
<use x="252" y="432" xlink:href="#p" />
<use x="264" y="48" xlink:href="#p" />
<use x="264" y="96" xlink:href="#p" />
<use x="264" y="120" xlink:href="#p" />
<use x="264" y="156" xlink:href="#p" />
<use x="264" y="204" xlink:href="#p" />
<use x="264" y="240" xlink:href="#p" />
<use x="264" y="252" xlink:href="#p" />
<use x="264" y="264" xlink:href="#p" />
<use x="264" y="300" xlink:href="#p" />
<use x="264" y="360" xlink:href="#p" />
<use x="264" y="396" xlink:href="#p" />
<use x="264" y="408" xlink:href="#p" />
<use x="276" y="48" xlink:href="#p" />
<use x="276" y="72" xlink:href="#p" />
<use x="276" y="96" xlink:href="#p" />
<use x="276" y="132" xlink:href="#p" />
<use x="276" y="156" xlink:href="#p" />
<use x="276" y="180" xlink:href="#p" />
<use x="276" y="192" xlink:href="#p" />
<use x="276" y="204" xlink:href="#p" />
<use x="276" y="228" xlink:href="#p" />
<use x="276" y="240" xlink:href="#p" />
<use x="276" y="252" xlink:href="#p" />
<use x="276" y="300" xlink:href="#p" />
<use x="276" y="324" xlink:href="#p" />
<use x="276" y="336" xlink:href="#p" />
<use x="276" y="348" xlink:href="#p" />
<use x="276" y="384" xlink:href="#p" />
<use x="276" y="396" xlink:href="#p" />
<use x="288" y="48" xlink:href="#p" />
<use x="288" y="60" xlink:href="#p" />
<use x="288" y="96" xlink:href="#p" />
<use x="288" y="108" xlink:href="#p" />
<use x="288" y="120" xlink:href="#p" />
<use x="288" y="132" xlink:href="#p" />
<use x="288" y="156" xlink:href="#p" />
<use x="288" y="180" xlink:href="#p" />
<use x="288" y="204" xlink:href="#p" />
<use x="288" y="228" xlink:href="#p" />
<use x="288" y="264" xlink:href="#p" />
<use x="288" y="276" xlink:href="#p" />
<use x="288" y="312" xlink:href="#p" />
<use x="288" y="324" xlink:href="#p" />
<use x="288" y="348" xlink:href="#p" />
<use x="288" y="372" xlink:href="#p" />
<use x="288" y="396" xlink:href="#p" />
<use x="288" y="408" xlink:href="#p" />
<use x="288" y="420" xlink:href="#p" />
<use x="300" y="48" xlink:href="#p" />
<use x="300" y="60" xlink:href="#p" />
<use x="300" y="72" xlink:href="#p" />
<use x="300" y="96" xlink:href="#p" />
<use x="300" y="132" xlink:href="#p" />
<use x="300" y="168" xlink:href="#p" />
<use x="300" y="180" xlink:href="#p" />
<use x="300" y="228" xlink:href="#p" />
<use x="300" y="252" xlink:href="#p" />
<use x="300" y="276" xlink:href="#p" />
<use x="300" y="324" xlink:href="#p" />
<use x="300" y="348" xlink:href="#p" />
<use x="300" y="372" xlink:href="#p" />
<use x="300" y="396" xlink:href="#p" />
<use x="300" y="420" xlink:href="#p" />
<use x="312" y="60" xlink:href="#p" />
<use x="312" y="96" xlink:href="#p" />
<use x="312" y="108" xlink:href="#p" />
<use x="312" y="120" xlink:href="#p" />
<use x="312" y="132" xlink:href="#p" />
<use x="312" y="144" xlink:href="#p" />
<use x="312" y="168" xlink:href="#p" />
<use x="312" y="180" xlink:href="#p" />
<use x="312" y="192" xlink:href="#p" />
<use x="312" y="216" xlink:href="#p" />
<use x="312" y="228" xlink:href="#p" />
<use x="312" y="240" xlink:href="#p" />
<use x="312" y="276" xlink:href="#p" />
<use x="312" y="288" xlink:href="#p" />
<use x="312" y="312" xlink:href="#p" />
<use x="312" y="324" xlink:href="#p" />
<use x="312" y="336" xlink:href="#p" />
<use x="312" y="360" xlink:href="#p" />
<use x="312" y="372" xlink:href="#p" />
<use x="312" y="384" xlink:href="#p" />
<use x="312" y="408" xlink:href="#p" />
<use x="312" y="420" xlink:href="#p" />
<use x="312" y="432" xlink:href="#p" />
<use x="324" y="48" xlink:href="#p" />
<use x="324" y="72" xlink:href="#p" />
<use x="324" y="84" xlink:href="#p" />
<use x="324" y="96" xlink:href="#p" />
<use x="324" y="144" xlink:href="#p" />
<use x="324" y="156" xlink:href="#p" />
<use x="324" y="192" xlink:href="#p" />
<use x="324" y="204" xlink:href="#p" />
<use x="324" y="228" xlink:href="#p" />
<use x="324" y="240" xlink:href="#p" />
<use x="324" y="252" xlink:href="#p" />
<use x="324" y="300" xlink:href="#p" />
<use x="324" y="324" xlink:href="#p" />
<use x="324" y="360" xlink:href="#p" />
<use x="324" y="372" xlink:href="#p" />
<use x="324" y="408" xlink:href="#p" />
<use x="324" y="420" xlink:href="#p" />
<use x="324" y="432" xlink:href="#p" />
<use x="336" y="60" xlink:href="#p" />
<use x="336" y="84" xlink:href="#p" />
<use x="336" y="120" xlink:href="#p" />
<use x="336" y="132" xlink:href="#p" />
<use x="336" y="144" xlink:href="#p" />
<use x="336" y="156" xlink:href="#p" />
<use x="336" y="180" xlink:href="#p" />
<use x="336" y="192" xlink:href="#p" />
<use x="336" y="276" xlink:href="#p" />
<use x="336" y="300" xlink:href="#p" />
<use x="336" y="324" xlink:href="#p" />
<use x="336" y="336" xlink:href="#p" />
<use x="336" y="348" xlink:href="#p" />
<use x="336" y="360" xlink:href="#p" />
<use x="336" y="372" xlink:href="#p" />
<use x="336" y="384" xlink:href="#p" />
<use x="336" y="396" xlink:href="#p" />
<use x="336" y="432" xlink:href="#p" />
<use x="348" y="180" xlink:href="#p" />
<use x="348" y="192" xlink:href="#p" />
<use x="348" y="216" xlink:href="#p" />
<use x="348" y="228" xlink:href="#p" />
<use x="348" y="240" xlink:href="#p" />
<use x="348" y="252" xlink:href="#p" />
<use x="348" y="276" xlink:href="#p" />
<use x="348" y="288" xlink:href="#p" />
<use x="348" y="336" xlink:href="#p" />
<use x="348" y="384" xlink:href="#p" />
<use x="348" y="396" xlink:href="#p" />
<use x="348" y="420" xlink:href="#p" />
<use x="360" y="48" xlink:href="#p" />
<use x="360" y="60" xlink:href="#p" />
<use x="360" y="72" xlink:href="#p" />
<use x="360" y="84" xlink:href="#p" />
<use x="360" y="96" xlink:href="#p" />
<use x="360" y="108" xlink:href="#p" />
<use x="360" y="120" xlink:href="#p" />
<use x="360" y="144" xlink:href="#p" />
<use x="360" y="156" xlink:href="#p" />
<use x="360" y="204" xlink:href="#p" />
<use x="360" y="216" xlink:href="#p" />
<use x="360" y="228" xlink:href="#p" />
<use x="360" y="252" xlink:href="#p" />
<use x="360" y="264" xlink:href="#p" />
<use x="360" y="300" xlink:href="#p" />
<use x="360" y="336" xlink:href="#p" />
<use x="360" y="360" xlink:href="#p" />
<use x="360" y="384" xlink:href="#p" />
<use x="360" y="408" xlink:href="#p" />
<use x="360" y="420" xlink:href="#p" />
<use x="372" y="48" xlink:href="#p" />
<use x="372" y="120" xlink:href="#p" />
<use x="372" y="144" xlink:href="#p" />
<use x="372" y="156" xlink:href="#p" />
<use x="372" y="192" xlink:href="#p" />
<use x="372" y="216" xlink:href="#p" />
<use x="372" y="240" xlink:href="#p" />
<use x="372" y="252" xlink:href="#p" />
<use x="372" y="264" xlink:href="#p" />
<use x="372" y="276" xlink:href="#p" />
<use x="372" y="336" xlink:href="#p" />
<use x="372" y="384" xlink:href="#p" />
<use x="372" y="408" xlink:href="#p" />
<use x="372" y="432" xlink:href="#p" />
<use x="384" y="48" xlink:href="#p" />
<use x="384" y="72" xlink:href="#p" />
<use x="384" y="84" xlink:href="#p" />
<use x="384" y="96" xlink:href="#p" />
<use x="384" y="120" xlink:href="#p" />
<use x="384" y="144" xlink:href="#p" />
<use x="384" y="168" xlink:href="#p" />
<use x="384" y="180" xlink:href="#p" />
<use x="384" y="192" xlink:href="#p" />
<use x="384" y="240" xlink:href="#p" />
<use x="384" y="264" xlink:href="#p" />
<use x="384" y="276" xlink:href="#p" />
<use x="384" y="288" xlink:href="#p" />
<use x="384" y="336" xlink:href="#p" />
<use x="384" y="348" xlink:href="#p" />
<use x="384" y="360" xlink:href="#p" />
<use x="384" y="372" xlink:href="#p" />
<use x="384" y="384" xlink:href="#p" />
<use x="384" y="396" xlink:href="#p" />
<use x="384" y="420" xlink:href="#p" />
<use x="396" y="48" xlink:href="#p" />
<use x="396" y="72" xlink:href="#p" />
<use x="396" y="84" xlink:href="#p" />
<use x="396" y="96" xlink:href="#p" />
<use x="396" y="120" xlink:href="#p" />
<use x="396" y="144" xlink:href="#p" />
<use x="396" y="156" xlink:href="#p" />
<use x="396" y="180" xlink:href="#p" />
<use x="396" y="192" xlink:href="#p" />
<use x="396" y="216" xlink:href="#p" />
<use x="396" y="252" xlink:href="#p" />
<use x="396" y="276" xlink:href="#p" />
<use x="396" y="288" xlink:href="#p" />
<use x="396" y="300" xlink:href="#p" />
<use x="396" y="312" xlink:href="#p" />
<use x="396" y="324" xlink:href="#p" />
<use x="396" y="372" xlink:href="#p" />
<use x="396" y="384" xlink:href="#p" />
<use x="396" y="396" xlink:href="#p" />
<use x="396" y="420" xlink:href="#p" />
<use x="408" y="48" xlink:href="#p" />
<use x="408" y="72" xlink:href="#p" />
<use x="408" y="84" xlink:href="#p" />
<use x="408" y="96" xlink:href="#p" />
<use x="408" y="120" xlink:href="#p" />
<use x="408" y="144" xlink:href="#p" />
<use x="408" y="156" xlink:href="#p" />
<use x="408" y="168" xlink:href="#p" />
<use x="408" y="180" xlink:href="#p" />
<use x="408" y="204" xlink:href="#p" />
<use x="408" y="228" xlink:href="#p" />
<use x="408" y="252" xlink:href="#p" />
<use x="408" y="264" xlink:href="#p" />
<use x="408" y="276" xlink:href="#p" />
<use x="408" y="324" xlink:href="#p" />
<use x="408" y="348" xlink:href="#p" />
<use x="408" y="360" xlink:href="#p" />
<use x="408" y="372" xlink:href="#p" />
<use x="408" y="396" xlink:href="#p" />
<use x="408" y="408" xlink:href="#p" />
<use x="408" y="420" xlink:href="#p" />
<use x="420" y="48" xlink:href="#p" />
<use x="420" y="120" xlink:href="#p" />
<use x="420" y="156" xlink:href="#p" />
<use x="420" y="168" xlink:href="#p" />
<use x="420" y="204" xlink:href="#p" />
<use x="420" y="216" xlink:href="#p" />
<use x="420" y="252" xlink:href="#p" />
<use x="420" y="264" xlink:href="#p" />
<use x="420" y="312" xlink:href="#p" />
<use x="420" y="324" xlink:href="#p" />
<use x="420" y="336" xlink:href="#p" />
<use x="420" y="348" xlink:href="#p" />
<use x="420" y="360" xlink:href="#p" />
<use x="420" y="372" xlink:href="#p" />
<use x="420" y="396" xlink:href="#p" />
<use x="420" y="432" xlink:href="#p" />
<use x="432" y="48" xlink:href="#p" />
<use x="432" y="60" xlink:href="#p" />
<use x="432" y="72" xlink:href="#p" />
<use x="432" y="84" xlink:href="#p" />
<use x="432" y="96" xlink:href="#p" />
<use x="432" y="108" xlink:href="#p" />
<use x="432" y="120" xlink:href="#p" />
<use x="432" y="156" xlink:href="#p" />
<use x="432" y="204" xlink:href="#p" />
<use x="432" y="240" xlink:href="#p" />
<use x="432" y="252" xlink:href="#p" />
<use x="432" y="300" xlink:href="#p" />
<use x="432" y="336" xlink:href="#p" />
<use x="432" y="348" xlink:href="#p" />
<use x="432" y="396" xlink:href="#p" />
</g>
</svg>