<?xml version="1.0" encoding="UTF-8" standalone="no"?>
<!-- Created with Inkscape (http://www.inkscape.org/) -->

<svg
   xmlns:dc="http://purl.org/dc/elements/1.1/"
   xmlns:cc="http://creativecommons.org/ns#"
   xmlns:rdf="http://www.w3.org/1999/02/22-rdf-syntax-ns#"
   xmlns:svg="http://www.w3.org/2000/svg"
   xmlns="http://www.w3.org/2000/svg"
   xmlns:sodipodi="http://sodipodi.sourceforge.net/DTD/sodipodi-0.dtd"
   xmlns:inkscape="http://www.inkscape.org/namespaces/inkscape"
   width="754.28125"
   height="754.28125"
   id="svg2"
   version="1.1"
   inkscape:version="0.48.3.1 r9886"
   sodipodi:docname="info_icon.svg">
  <defs
     id="defs4" />
  <sodipodi:namedview
     id="base"
     pagecolor="#008a0c"
     bordercolor="#666666"
     borderopacity="1.0"
     inkscape:pageopacity="0.89019608"
     inkscape:pageshadow="2"
     inkscape:zoom="0.35"
     inkscape:cx="775.69643"
     inkscape:cy="441.44584"
     inkscape:document-units="px"
     inkscape:current-layer="layer1"
     showgrid="false"
     fit-margin-top="0"
     fit-margin-left="0"
     fit-margin-right="0"
     fit-margin-bottom="0"
     inkscape:window-width="1317"
     inkscape:window-height="744"
     inkscape:window-x="49"
     inkscape:window-y="24"
     inkscape:window-maximized="1"
     showguides="true"
     inkscape:guide-bbox="true" />
  <metadata
     id="metadata7">
    <rdf:RDF>
      <cc:Work
         rdf:about="">
        <dc:format>image/svg+xml</dc:format>
        <dc:type
           rdf:resource="http://purl.org/dc/dcmitype/StillImage" />
        <dc:title />
      </cc:Work>
    </rdf:RDF>
  </metadata>
  <g
     inkscape:label="Ebene 1"
     inkscape:groupmode="layer"
     id="layer1"
     transform="translate(1145.6964,123.33035)">
    <path
       style="fill:#ffffff;fill-opacity:1;stroke:none"
       d="m -397.15625,-380 c -208.29025,0 -377.125,168.83475 -377.125,377.125 0,208.29025 168.83475,377.15625 377.125,377.15625 C -188.866,374.28125 -20,205.41525 -20,-2.875 -20,-211.16525 -188.866,-380 -397.15625,-380 z m 0,114.28125 c 34.71504,0 62.875,28.12871 62.875,62.84375 0,34.71504 -28.15996,62.875 -62.875,62.875 -34.71504,0 -62.84375,-28.15996 -62.84375,-62.875 0,-34.71504 28.12871,-62.84375 62.84375,-62.84375 z M -460,-68.5625 l 125.71875,0 0,328.5625 -125.71875,0 0,-328.5625 z"
       transform="translate(-371.41518,256.66965)"
       id="path2984"
       inkscape:connector-curvature="0" />
  </g>
</svg>
