<?xml version="1.0" encoding="UTF-8" standalone="no"?>
<!-- Created with Inkscape (http://www.inkscape.org/) -->

<svg
   xmlns:dc="http://purl.org/dc/elements/1.1/"
   xmlns:cc="http://creativecommons.org/ns#"
   xmlns:rdf="http://www.w3.org/1999/02/22-rdf-syntax-ns#"
   xmlns:svg="http://www.w3.org/2000/svg"
   xmlns="http://www.w3.org/2000/svg"
   xmlns:sodipodi="http://sodipodi.sourceforge.net/DTD/sodipodi-0.dtd"
   xmlns:inkscape="http://www.inkscape.org/namespaces/inkscape"
   width="60.657417mm"
   height="10.935196mm"
   viewBox="0 0 214.92786 38.746757"
   id="svg2"
   version="1.1"
   inkscape:version="0.91 r13725"
   sodipodi:docname="markers.svg">
  <defs
     id="defs4" />
  <sodipodi:namedview
     id="base"
     pagecolor="#ffffff"
     bordercolor="#666666"
     borderopacity="1.0"
     inkscape:pageopacity="0.0"
     inkscape:pageshadow="2"
     inkscape:zoom="2.8284271"
     inkscape:cx="127.22545"
     inkscape:cy="24.717653"
     inkscape:document-units="px"
     inkscape:current-layer="layer1"
     showgrid="false"
     showguides="true"
     inkscape:guide-bbox="true"
     fit-margin-top="0"
     fit-margin-left="0"
     fit-margin-right="0"
     fit-margin-bottom="0"
     inkscape:window-width="1855"
     inkscape:window-height="1056"
     inkscape:window-x="1745"
     inkscape:window-y="24"
     inkscape:window-maximized="1">
    <sodipodi:guide
       position="18.861608,16.361607"
       orientation="0,1"
       id="guide4241" />
    <sodipodi:guide
       position="22.916004,0.14987335"
       orientation="0,1"
       id="guide4245" />
    <sodipodi:guide
       position="136.94922,18.269531"
       orientation="0,1"
       id="guide4311" />
  </sodipodi:namedview>
  <metadata
     id="metadata7">
    <rdf:RDF>
      <cc:Work
         rdf:about="">
        <dc:format>image/svg+xml</dc:format>
        <dc:type
           rdf:resource="http://purl.org/dc/dcmitype/StillImage" />
        <dc:title></dc:title>
      </cc:Work>
    </rdf:RDF>
  </metadata>
  <g
     inkscape:label="Calque 1"
     inkscape:groupmode="layer"
     id="layer1"
     transform="translate(-78.919996,-407.80006)">
    <g
       id="g4328"
       inkscape:export-xdpi="51.310001"
       inkscape:export-ydpi="51.310001"
       inkscape:export-filename="/home/kumy/Bureau/Android2/cgeo-bis/main/res/drawable-xhdpi/marker_found.png">
      <circle
         inkscape:export-ydpi="27"
         inkscape:export-xdpi="27"
         inkscape:export-filename="/home/kumy/Bureau/Android2/cgeo-bis/main/res/drawable-mdpi/path4320.png"
         style="color:#000000;display:inline;overflow:visible;visibility:visible;opacity:1;fill:#ffb738;fill-opacity:1;fill-rule:evenodd;stroke:#9c8c0a;stroke-width:2.5;stroke-linecap:round;stroke-linejoin:round;stroke-miterlimit:4;stroke-dasharray:none;stroke-dashoffset:0;stroke-opacity:1;marker:none;marker-start:none;marker-mid:none;marker-end:none"
         id="path4320-2"
         cx="98.214294"
         cy="427.25253"
         r="18.044296" />
      <path
         inkscape:connector-curvature="0"
         style="fill:#000000;fill-rule:nonzero;stroke:none;stroke-width:2.5;stroke-miterlimit:4;stroke-dasharray:none"
         d="m 95.700986,421.23625 c 0,2.5 -1.125,4.5 -2.5,4.5 -1.375,0 -2.5,-2 -2.5,-4.5 0,-2.5 1.125,-4.5 2.5,-4.5 1.375,0 2.5,2 2.5,4.5 z"
         id="path8614-45" />
      <path
         inkscape:connector-curvature="0"
         style="fill:#000000;fill-rule:nonzero;stroke:none;stroke-width:2.5;stroke-miterlimit:4;stroke-dasharray:none"
         d="m 104.99134,421.23625 c 0,2.5 -1.125,4.5 -2.5,4.5 -1.375,0 -2.499999,-2 -2.499999,-4.5 0,-2.5 1.124999,-4.5 2.499999,-4.5 1.375,0 2.5,2 2.5,4.5 z"
         id="path8616-2" />
      <path
         style="color:#000000;display:inline;overflow:visible;visibility:visible;opacity:1;fill:#000000;fill-opacity:1;fill-rule:evenodd;stroke:none;stroke-width:1.51800001;stroke-linecap:round;stroke-linejoin:round;stroke-miterlimit:4;stroke-dasharray:none;stroke-dashoffset:0;stroke-opacity:1;marker:none;marker-start:none;marker-mid:none;marker-end:none"
         d="m 108.22625,430.18829 c 0,5.52946 -4.48251,10.01197 -10.011959,10.01197 -5.529453,0 -10.011962,-4.48251 -10.011962,-10.01197 20.023921,0 0,0 20.023921,0 z"
         id="path4320-2-9"
         inkscape:connector-curvature="0"
         sodipodi:nodetypes="cscc" />
    </g>
    <g
       id="g4334"
       inkscape:export-xdpi="51.310501"
       inkscape:export-ydpi="51.310501"
       inkscape:export-filename="/home/kumy/Bureau/Android2/cgeo-bis/main/res/drawable-xhdpi/marker_found_offline.png">
      <circle
         inkscape:export-ydpi="27"
         inkscape:export-xdpi="27"
         inkscape:export-filename="/home/kumy/Bureau/Android2/cgeo-bis/main/res/drawable-mdpi/path4320.png"
         style="color:#000000;display:inline;overflow:visible;visibility:visible;opacity:1;fill:#ff7338;fill-opacity:1;fill-rule:evenodd;stroke:#9c560a;stroke-width:2.5;stroke-linecap:round;stroke-linejoin:round;stroke-miterlimit:4;stroke-dasharray:none;stroke-dashoffset:0;stroke-opacity:1;marker:none;marker-start:none;marker-mid:none;marker-end:none"
         id="path4320-7"
         cx="156.99405"
         cy="427.12997"
         r="18.044296" />
      <path
         inkscape:connector-curvature="0"
         style="fill:#000000;fill-rule:nonzero;stroke:none;stroke-width:2.5;stroke-miterlimit:4;stroke-dasharray:none"
         d="m 154.48074,421.11369 c 0,2.5 -1.125,4.5 -2.5,4.5 -1.375,0 -2.5,-2 -2.5,-4.5 0,-2.5 1.125,-4.5 2.5,-4.5 1.375,0 2.5,2 2.5,4.5 z"
         id="path8614-0" />
      <path
         inkscape:connector-curvature="0"
         style="fill:#000000;fill-rule:nonzero;stroke:none;stroke-width:2.5;stroke-miterlimit:4;stroke-dasharray:none"
         d="m 163.77109,421.11369 c 0,2.5 -1.125,4.5 -2.5,4.5 -1.375,0 -2.5,-2 -2.5,-4.5 0,-2.5 1.125,-4.5 2.5,-4.5 1.375,0 2.5,2 2.5,4.5 z"
         id="path8616-44" />
      <path
         style="color:#000000;display:inline;overflow:visible;visibility:visible;opacity:1;fill:#000000;fill-opacity:1;fill-rule:evenodd;stroke:none;stroke-width:1.51800001;stroke-linecap:round;stroke-linejoin:round;stroke-miterlimit:4;stroke-dasharray:none;stroke-dashoffset:0;stroke-opacity:1;marker:none;marker-start:none;marker-mid:none;marker-end:none"
         d="m 167.0953,430.18694 c 0,5.52946 -4.48251,10.01197 -10.01196,10.01197 -5.52945,0 -10.01196,-4.48251 -10.01196,-10.01197 20.02392,0 0,0 20.02392,0 z"
         id="path4320-2-9-0"
         inkscape:connector-curvature="0"
         sodipodi:nodetypes="cscc" />
    </g>
    <g
       id="g4340"
       inkscape:export-xdpi="51.310001"
       inkscape:export-ydpi="51.310001"
       inkscape:export-filename="/home/kumy/Bureau/Android2/cgeo-bis/main/res/drawable-xhdpi/marker_not_found_offline.png">
      <circle
         inkscape:export-ydpi="38.830002"
         inkscape:export-xdpi="38.830002"
         inkscape:export-filename="/home/kumy/Bureau/Android2/cgeo-bis/main/res/drawable-hdpi/marker_not_found_offline.png"
         style="color:#000000;display:inline;overflow:visible;visibility:visible;opacity:1;fill:#3880ff;fill-opacity:1;fill-rule:evenodd;stroke:#0a169c;stroke-width:2.5;stroke-linecap:round;stroke-linejoin:round;stroke-miterlimit:4;stroke-dasharray:none;stroke-dashoffset:0;stroke-opacity:1;marker:none;marker-start:none;marker-mid:none;marker-end:none"
         id="path4320-4"
         cx="215.7738"
         cy="427.23975"
         r="18.044296" />
      <path
         inkscape:connector-curvature="0"
         style="fill:#000000;fill-rule:nonzero;stroke:none;stroke-width:2.5;stroke-miterlimit:4;stroke-dasharray:none"
         d="m 213.26049,421.22344 c 0,2.5 -1.125,4.5 -2.5,4.5 -1.375,0 -2.5,-2 -2.5,-4.5 0,-2.5 1.125,-4.5 2.5,-4.5 1.375,0 2.5,2 2.5,4.5 z"
         id="path8614-4" />
      <path
         inkscape:connector-curvature="0"
         style="fill:#000000;fill-rule:nonzero;stroke:none;stroke-width:2.5;stroke-miterlimit:4;stroke-dasharray:none"
         d="m 222.55085,421.22344 c 0,2.5 -1.125,4.5 -2.5,4.5 -1.375,0 -2.5,-2 -2.5,-4.5 0,-2.5 1.125,-4.5 2.5,-4.5 1.375,0 2.5,2 2.5,4.5 z"
         id="path8616-4" />
      <path
         style="color:#000000;display:inline;overflow:visible;visibility:visible;opacity:1;fill:#000000;fill-opacity:1;fill-rule:evenodd;stroke:none;stroke-width:1.51800001;stroke-linecap:round;stroke-linejoin:round;stroke-miterlimit:4;stroke-dasharray:none;stroke-dashoffset:0;stroke-opacity:1;marker:none;marker-start:none;marker-mid:none;marker-end:none"
         d="m 205.76184,438.29325 c 0,-5.52946 4.48251,-10.01197 10.01196,-10.01197 5.52945,0 10.01196,4.48251 10.01196,10.01197 -20.02392,0 0,0 -20.02392,0 z"
         id="path4320-2-9-0-6"
         inkscape:connector-curvature="0"
         sodipodi:nodetypes="cscc" />
    </g>
    <g
       id="g4346"
       inkscape:export-xdpi="51.310001"
       inkscape:export-ydpi="51.310001"
       inkscape:export-filename="/home/kumy/Bureau/Android2/cgeo-bis/main/res/drawable-xhdpi/marker_unknown_offline.png">
      <g
         transform="translate(117.32143,-48.75)"
         id="g4280">
        <circle
           r="18.044296"
           cy="475.84436"
           cx="157.23213"
           id="path4320"
           style="color:#000000;display:inline;overflow:visible;visibility:visible;opacity:1;fill:#929292;fill-opacity:1;fill-rule:evenodd;stroke:#2e2e2e;stroke-width:2.5;stroke-linecap:round;stroke-linejoin:round;stroke-miterlimit:4;stroke-dasharray:none;stroke-dashoffset:0;stroke-opacity:1;marker:none;marker-start:none;marker-mid:none;marker-end:none"
           inkscape:export-filename="/home/kumy/Bureau/Android2/cgeo-bis/main/res/drawable-hdpi/marker_not_found_offline.png"
           inkscape:export-xdpi="38.830002"
           inkscape:export-ydpi="38.830002" />
        <path
           id="path8614"
           d="m 154.71883,469.82806 c 0,2.5 -1.125,4.5 -2.5,4.5 -1.375,0 -2.5,-2 -2.5,-4.5 0,-2.5 1.125,-4.5 2.5,-4.5 1.375,0 2.5,2 2.5,4.5 z"
           style="fill:#000000;fill-rule:nonzero;stroke:none;stroke-width:2.5;stroke-miterlimit:4;stroke-dasharray:none"
           inkscape:connector-curvature="0" />
        <path
           id="path8616"
           d="m 164.00918,469.82806 c 0,2.5 -1.125,4.5 -2.5,4.5 -1.375,0 -2.5,-2 -2.5,-4.5 0,-2.5 1.125,-4.5 2.5,-4.5 1.375,0 2.5,2 2.5,4.5 z"
           style="fill:#000000;fill-rule:nonzero;stroke:none;stroke-width:2.5;stroke-miterlimit:4;stroke-dasharray:none"
           inkscape:connector-curvature="0" />
      </g>
      <path
         style="color:#000000;display:inline;overflow:visible;visibility:visible;opacity:1;fill:#000000;fill-opacity:1;fill-rule:evenodd;stroke:none;stroke-width:1.51800001;stroke-linecap:round;stroke-linejoin:round;stroke-miterlimit:4;stroke-dasharray:none;stroke-dashoffset:0;stroke-opacity:1;marker:none;marker-start:none;marker-mid:none;marker-end:none"
         d="m 264.5416,438.3028 c 0,-5.52946 4.48251,-10.01197 10.01196,-10.01197 5.52945,0 10.01196,4.48251 10.01196,10.01197 -20.02392,0 0,0 -20.02392,0 z"
         id="path4320-2-9-0-6-1"
         inkscape:connector-curvature="0"
         sodipodi:nodetypes="cscc" />
    </g>
  </g>
</svg>
